G04 #@! TF.GenerationSoftware,KiCad,Pcbnew,(6.0.0-0)*
G04 #@! TF.CreationDate,2022-04-29T22:29:47-07:00*
G04 #@! TF.ProjectId,bakeneko-65-pcb,62616b65-6e65-46b6-9f2d-36352d706362,rev?*
G04 #@! TF.SameCoordinates,Original*
G04 #@! TF.FileFunction,Profile,NP*
%FSLAX46Y46*%
G04 Gerber Fmt 4.6, Leading zero omitted, Abs format (unit mm)*
G04 Created by KiCad (PCBNEW (6.0.0-0)) date 2022-04-29 22:29:47*
%MOMM*%
%LPD*%
G01*
G04 APERTURE LIST*
G04 #@! TA.AperFunction,Profile*
%ADD10C,0.200000*%
G04 #@! TD*
G04 APERTURE END LIST*
D10*
X15731928Y-806452D02*
G75*
G03*
X21318072Y-806452I2793072J1456451D01*
G01*
X2250000Y0D02*
G75*
G03*
X0Y-2250000I1J-2250001D01*
G01*
X130031928Y-806452D02*
G75*
G03*
X128701894Y0I-1330035J-693549D01*
G01*
X22648105Y0D02*
G75*
G03*
X21318071Y-806452I1J-1500001D01*
G01*
X14401894Y0D02*
X2250000Y0D01*
X303750000Y-91950000D02*
X303750000Y-2250000D01*
X54655571Y-93393549D02*
G75*
G03*
X55985606Y-94200000I1330034J693549D01*
G01*
X54655571Y-93393549D02*
G75*
G03*
X49069429Y-93393548I-2793071J-1456450D01*
G01*
X268968071Y-93393549D02*
G75*
G03*
X270298106Y-94200000I1330034J693549D01*
G01*
X238325000Y-75150000D02*
X246400000Y-75150000D01*
X281101894Y0D02*
X136948105Y0D01*
X209664394Y-94200000D02*
X55985605Y-94200000D01*
X0Y-91950000D02*
X0Y-2250000D01*
X289348105Y0D02*
G75*
G03*
X288018071Y-806452I1J-1500001D01*
G01*
X47739394Y-94200000D02*
G75*
G03*
X49069428Y-93393548I-1J1500001D01*
G01*
X262051894Y-94200000D02*
G75*
G03*
X263381928Y-93393548I-1J1500001D01*
G01*
X234825000Y-94200000D02*
X217910605Y-94200000D01*
X303750000Y-2250000D02*
G75*
G03*
X301500000Y0I-2250001J-1D01*
G01*
X247650000Y-76400000D02*
G75*
G03*
X246400000Y-75150000I-1250002J-2D01*
G01*
X268968071Y-93393549D02*
G75*
G03*
X263381929Y-93393548I-2793071J-1456450D01*
G01*
X301500000Y-94200000D02*
G75*
G03*
X303750000Y-91950000I-1J2250001D01*
G01*
X247650000Y-91950000D02*
G75*
G03*
X249900000Y-94200000I2250001J1D01*
G01*
X209664394Y-94200000D02*
G75*
G03*
X210994428Y-93393548I-1J1500001D01*
G01*
X282431928Y-806452D02*
G75*
G03*
X281101894Y0I-1330035J-693549D01*
G01*
X238325000Y-75150000D02*
G75*
G03*
X237075000Y-76400000I2J-1250002D01*
G01*
X247650000Y-76400000D02*
X247650000Y-91950000D01*
X234825000Y-94200000D02*
G75*
G03*
X237075000Y-91950000I-1J2250001D01*
G01*
X262051894Y-94200000D02*
X249900000Y-94200000D01*
X237075000Y-76400000D02*
X237075000Y-91950000D01*
X130031928Y-806452D02*
G75*
G03*
X135618072Y-806452I2793072J1456451D01*
G01*
X15731928Y-806452D02*
G75*
G03*
X14401894Y0I-1330035J-693549D01*
G01*
X301500000Y-94200000D02*
X270298105Y-94200000D01*
X47739394Y-94200000D02*
X2250000Y-94200000D01*
X136948105Y0D02*
G75*
G03*
X135618071Y-806452I1J-1500001D01*
G01*
X128701894Y0D02*
X22648105Y0D01*
X216580571Y-93393549D02*
G75*
G03*
X210994429Y-93393548I-2793071J-1456450D01*
G01*
X216580571Y-93393549D02*
G75*
G03*
X217910606Y-94200000I1330034J693549D01*
G01*
X0Y-91950000D02*
G75*
G03*
X2250000Y-94200000I2250001J1D01*
G01*
X301500000Y0D02*
X289348105Y0D01*
X282431928Y-806452D02*
G75*
G03*
X288018072Y-806452I2793072J1456451D01*
G01*
M02*
