M48
; DRILL file {KiCad (6.0.0-0)} date Friday, April 29, 2022 at 10:30:04 PM
; FORMAT={-:-/ absolute / metric / decimal}
; #@! TF.CreationDate,2022-04-29T22:30:04-07:00
; #@! TF.GenerationSoftware,Kicad,Pcbnew,(6.0.0-0)
; #@! TF.FileFunction,NonPlated,1,2,NPTH
FMAT,2
METRIC
; #@! TA.AperFunction,NonPlated,NPTH,ComponentDrill
T1C1.750
; #@! TA.AperFunction,NonPlated,NPTH,ComponentDrill
T2C3.048
; #@! TA.AperFunction,NonPlated,NPTH,ComponentDrill
T3C3.988
%
G90
G05
T1
X3.92Y-9.0
X6.301Y-47.1
X6.301Y-85.2
X8.682Y-28.05
X8.682Y-85.2
X11.064Y-47.1
X14.08Y-9.0
X15.826Y-66.15
X16.461Y-47.1
X16.461Y-85.2
X18.842Y-28.05
X18.842Y-85.2
X21.224Y-47.1
X22.97Y-9.0
X25.986Y-66.15
X30.114Y-85.2
X32.495Y-28.05
X32.495Y-85.2
X33.13Y-9.0
X37.258Y-47.1
X40.274Y-85.2
X42.02Y-9.0
X42.655Y-28.05
X42.655Y-85.2
X46.782Y-66.15
X47.417Y-47.1
X51.545Y-28.05
X52.18Y-9.0
X53.926Y-85.2
X56.307Y-47.1
X56.307Y-85.2
X56.942Y-66.15
X61.07Y-9.0
X61.705Y-28.05
X64.086Y-85.2
X65.832Y-66.15
X66.468Y-47.1
X66.468Y-85.2
X70.595Y-28.05
X71.23Y-9.0
X75.358Y-47.1
X75.992Y-66.15
X80.12Y-9.0
X80.755Y-28.05
X84.882Y-66.15
X85.517Y-47.1
X89.645Y-28.05
X90.28Y-9.0
X94.407Y-47.1
X95.042Y-66.15
X99.17Y-9.0
X99.805Y-28.05
X103.932Y-66.15
X104.567Y-47.1
X108.695Y-28.05
X109.33Y-9.0
X113.457Y-47.1
X114.093Y-66.15
X118.22Y-9.0
X118.855Y-28.05
X122.982Y-66.15
X123.617Y-47.1
X125.364Y-85.2
X127.745Y-28.05
X128.38Y-9.0
X132.507Y-47.1
X133.142Y-66.15
X135.524Y-85.2
X137.27Y-9.0
X137.27Y-85.2
X137.905Y-28.05
X142.032Y-66.15
X142.667Y-47.1
X146.795Y-28.05
X147.43Y-9.0
X147.43Y-85.2
X151.558Y-47.1
X152.192Y-66.15
X156.32Y-9.0
X156.955Y-28.05
X161.082Y-66.15
X161.718Y-47.1
X165.845Y-28.05
X166.48Y-9.0
X170.607Y-47.1
X171.242Y-66.15
X175.37Y-9.0
X176.005Y-28.05
X180.132Y-66.15
X180.767Y-47.1
X184.895Y-28.05
X185.53Y-9.0
X189.657Y-47.1
X190.292Y-66.15
X194.42Y-9.0
X195.055Y-28.05
X196.801Y-85.2
X199.183Y-66.15
X199.817Y-47.1
X203.945Y-28.05
X204.58Y-9.0
X206.961Y-85.2
X208.707Y-47.1
X209.343Y-66.15
X213.47Y-9.0
X214.105Y-28.05
X218.232Y-66.15
X218.232Y-85.2
X218.867Y-47.1
X220.614Y-85.2
X222.995Y-28.05
X223.63Y-9.0
X227.757Y-47.1
X228.392Y-66.15
X228.392Y-85.2
X230.774Y-85.2
X232.52Y-9.0
X233.155Y-28.05
X237.917Y-47.1
X242.045Y-28.05
X242.68Y-9.0
X244.426Y-66.15
X251.57Y-9.0
X251.57Y-85.2
X252.205Y-28.05
X254.586Y-66.15
X258.714Y-47.1
X261.095Y-9.0
X261.73Y-9.0
X261.73Y-85.2
X265.858Y-28.05
X268.874Y-47.1
X270.62Y-9.0
X270.62Y-66.15
X270.62Y-85.2
X271.255Y-9.0
X276.017Y-28.05
X280.78Y-9.0
X280.78Y-66.15
X280.78Y-85.2
X289.67Y-9.0
X289.67Y-28.05
X289.67Y-47.1
X289.67Y-66.15
X289.67Y-85.2
X299.83Y-9.0
X299.83Y-28.05
X299.83Y-47.1
X299.83Y-66.15
X299.83Y-85.2
T2
X8.968Y-59.165
X32.844Y-59.165
X80.444Y-92.185
X85.2Y-92.185
X180.444Y-92.185
X199.5Y-92.185
X251.856Y-40.115
X254.237Y-2.015
X275.732Y-40.115
X278.113Y-2.015
T3
X8.968Y-74.405
X9.0Y-9.0
X11.381Y-47.1
X11.381Y-85.2
X13.762Y-28.05
X13.762Y-85.2
X16.144Y-47.1
X20.906Y-66.15
X28.05Y-9.0
X32.844Y-74.405
X35.194Y-85.2
X37.575Y-28.05
X37.575Y-85.2
X42.337Y-47.1
X47.1Y-9.0
X51.862Y-66.15
X56.625Y-28.05
X59.006Y-85.2
X61.387Y-47.1
X61.387Y-85.2
X66.15Y-9.0
X70.912Y-66.15
X75.675Y-28.05
X80.438Y-47.1
X80.444Y-76.945
X85.2Y-9.0
X85.2Y-76.945
X89.962Y-66.15
X94.725Y-28.05
X99.487Y-47.1
X104.25Y-9.0
X109.012Y-66.15
X113.775Y-28.05
X118.537Y-47.1
X123.3Y-9.0
X128.062Y-66.15
X130.444Y-85.2
X132.825Y-28.05
X137.588Y-47.1
X142.35Y-9.0
X142.35Y-85.2
X147.112Y-66.15
X151.875Y-28.05
X156.637Y-47.1
X161.4Y-9.0
X166.162Y-66.15
X170.925Y-28.05
X175.688Y-47.1
X180.444Y-76.945
X180.45Y-9.0
X185.213Y-66.15
X189.975Y-28.05
X194.737Y-47.1
X199.5Y-9.0
X199.5Y-76.945
X201.881Y-85.2
X204.262Y-66.15
X209.025Y-28.05
X213.787Y-47.1
X218.55Y-9.0
X223.312Y-66.15
X223.312Y-85.2
X225.694Y-85.2
X228.075Y-28.05
X232.837Y-47.1
X237.6Y-9.0
X247.125Y-28.05
X249.506Y-66.15
X251.856Y-55.355
X254.237Y-17.255
X256.65Y-9.0
X256.65Y-85.2
X263.794Y-47.1
X266.175Y-9.0
X270.938Y-28.05
X275.7Y-9.0
X275.7Y-66.15
X275.7Y-85.2
X275.732Y-55.355
X278.113Y-17.255
X294.75Y-9.0
X294.75Y-28.05
X294.75Y-47.1
X294.75Y-66.15
X294.75Y-85.2
T0
M30
