M48
; DRILL file {KiCad (6.0.0-0)} date Friday, July 22, 2022 at 10:21:10 PM
; FORMAT={-:-/ absolute / metric / decimal}
; #@! TF.CreationDate,2022-07-22T22:21:10+01:00
; #@! TF.GenerationSoftware,Kicad,Pcbnew,(6.0.0-0)
; #@! TF.FileFunction,Plated,1,2,PTH
FMAT,2
METRIC
; #@! TA.AperFunction,Plated,PTH,ViaDrill
T1C0.400
; #@! TA.AperFunction,Plated,PTH,ComponentDrill
T2C0.700
; #@! TA.AperFunction,Plated,PTH,ComponentDrill
T3C1.000
; #@! TA.AperFunction,Plated,PTH,ComponentDrill
T4C3.000
%
G90
G05
T1
X10.251Y-19.431
X16.302Y-35.811
X18.74Y-37.84
X20.1Y-32.46
X20.429Y-37.289
X21.05Y-41.95
X21.153Y-38.034
X22.604Y-11.444
X22.65Y-37.034
X22.894Y-30.565
X23.35Y-33.25
X23.46Y-14.02
X24.087Y-84.737
X24.71Y-14.02
X25.05Y-46.15
X25.55Y-68.55
X25.96Y-14.02
X26.05Y-33.1
X28.944Y-53.97
X29.561Y-32.011
X31.75Y-41.8
X31.844Y-46.156
X32.45Y-30.55
X33.476Y-29.774
X33.945Y-54.755
X34.224Y-42.657
X34.405Y-47.445
X34.9Y-30.31
X35.2Y-29.05
X35.206Y-42.47
X35.48Y-47.701
X36.24Y-42.336
X37.05Y-48.5
X37.72Y-31.87
X39.3Y-47.8
X40.277Y-19.88
X40.376Y-31.08
X42.554Y-14.02
X49.249Y-32.285
X279.65Y-53.05
T2
X2.73Y-35.31
X2.73Y-36.58
X2.73Y-37.85
T3
X2.535Y-17.075
X2.535Y-19.615
X2.535Y-22.155
X5.075Y-17.075
X5.075Y-19.615
X5.075Y-22.155
T4
X5.19Y-6.46
X7.571Y-44.56
X7.571Y-82.66
X9.952Y-25.51
X11.223Y-90.28
X11.54Y-3.92
X13.604Y-52.18
X13.921Y-42.02
X13.921Y-80.12
X16.302Y-22.97
X17.096Y-63.61
X17.572Y-87.74
X19.954Y-49.64
X23.446Y-61.07
X24.24Y-6.46
X30.59Y-3.92
X31.384Y-82.66
X33.765Y-25.51
X35.035Y-90.28
X37.734Y-80.12
X38.527Y-44.56
X40.115Y-22.97
X41.385Y-87.74
X43.29Y-6.46
X44.877Y-42.02
X48.052Y-63.61
X49.64Y-3.92
X52.815Y-25.51
X54.402Y-61.07
X55.196Y-82.66
X57.578Y-44.56
X58.847Y-90.28
X59.165Y-22.97
X61.546Y-80.12
X62.34Y-6.46
X63.927Y-42.02
X65.197Y-87.74
X67.102Y-63.61
X68.69Y-3.92
X71.865Y-25.51
X73.453Y-61.07
X76.627Y-44.56
X78.215Y-22.97
X81.39Y-6.46
X82.977Y-42.02
X86.152Y-63.61
X87.74Y-3.92
X90.915Y-25.51
X92.502Y-61.07
X95.677Y-44.56
X97.265Y-22.97
X100.44Y-6.46
X102.027Y-42.02
X105.203Y-63.61
X106.79Y-3.92
X109.965Y-25.51
X111.552Y-61.07
X114.727Y-44.56
X116.315Y-22.97
X119.49Y-6.46
X121.078Y-42.02
X124.252Y-63.61
X125.84Y-3.92
X126.634Y-82.66
X129.015Y-25.51
X130.602Y-61.07
X132.984Y-80.12
X133.778Y-44.56
X135.365Y-22.97
X138.54Y-6.46
X139.81Y-90.28
X140.127Y-42.02
X143.302Y-63.61
X144.89Y-3.92
X146.16Y-87.74
X148.065Y-25.51
X149.653Y-61.07
X152.827Y-44.56
X154.415Y-22.97
X157.59Y-6.46
X159.177Y-42.02
X162.352Y-63.61
X163.94Y-3.92
X167.115Y-25.51
X168.702Y-61.07
X171.877Y-44.56
X173.465Y-22.97
X176.64Y-6.46
X178.227Y-42.02
X181.403Y-63.61
X182.99Y-3.92
X186.165Y-25.51
X187.752Y-61.07
X190.927Y-44.56
X192.515Y-22.97
X195.69Y-6.46
X197.278Y-42.02
X198.071Y-82.66
X200.452Y-63.61
X202.04Y-3.92
X204.421Y-80.12
X205.215Y-25.51
X206.802Y-61.07
X209.977Y-44.56
X211.565Y-22.97
X214.74Y-6.46
X216.327Y-42.02
X219.502Y-63.61
X219.502Y-82.66
X221.09Y-3.92
X223.154Y-90.28
X224.265Y-25.51
X225.852Y-61.07
X225.852Y-80.12
X229.028Y-44.56
X229.504Y-87.74
X230.615Y-22.97
X233.79Y-6.46
X235.377Y-42.02
X240.14Y-3.92
X243.315Y-25.51
X245.696Y-63.61
X249.665Y-22.97
X252.046Y-61.07
X252.84Y-82.66
X254.11Y-14.08
X259.19Y-80.12
X259.984Y-44.56
X260.46Y-11.54
X262.365Y-6.46
X266.334Y-42.02
X267.127Y-25.51
X268.715Y-3.92
X271.89Y-63.61
X271.89Y-82.66
X273.16Y-14.08
X273.477Y-22.97
X278.24Y-61.07
X278.24Y-80.12
X279.51Y-11.54
X290.94Y-6.46
X290.94Y-25.51
X290.94Y-44.56
X290.94Y-63.61
X290.94Y-82.66
X297.29Y-3.92
X297.29Y-22.97
X297.29Y-42.02
X297.29Y-61.07
X297.29Y-80.12
T0
M30
