G04 #@! TF.GenerationSoftware,KiCad,Pcbnew,(6.0.0-0)*
G04 #@! TF.CreationDate,2022-07-22T22:21:07+01:00*
G04 #@! TF.ProjectId,bakeneko-65-pcb,62616b65-6e65-46b6-9f2d-36352d706362,rev?*
G04 #@! TF.SameCoordinates,Original*
G04 #@! TF.FileFunction,Copper,L2,Bot*
G04 #@! TF.FilePolarity,Positive*
%FSLAX46Y46*%
G04 Gerber Fmt 4.6, Leading zero omitted, Abs format (unit mm)*
G04 Created by KiCad (PCBNEW (6.0.0-0)) date 2022-07-22 22:21:07*
%MOMM*%
%LPD*%
G01*
G04 APERTURE LIST*
G04 Aperture macros list*
%AMRoundRect*
0 Rectangle with rounded corners*
0 $1 Rounding radius*
0 $2 $3 $4 $5 $6 $7 $8 $9 X,Y pos of 4 corners*
0 Add a 4 corners polygon primitive as box body*
4,1,4,$2,$3,$4,$5,$6,$7,$8,$9,$2,$3,0*
0 Add four circle primitives for the rounded corners*
1,1,$1+$1,$2,$3*
1,1,$1+$1,$4,$5*
1,1,$1+$1,$6,$7*
1,1,$1+$1,$8,$9*
0 Add four rect primitives between the rounded corners*
20,1,$1+$1,$2,$3,$4,$5,0*
20,1,$1+$1,$4,$5,$6,$7,0*
20,1,$1+$1,$6,$7,$8,$9,0*
20,1,$1+$1,$8,$9,$2,$3,0*%
%AMFreePoly0*
4,1,35,3.289304,1.974475,3.304361,1.970871,3.306528,1.967340,3.310355,1.965755,3.316280,1.951452,3.324379,1.938256,3.323415,1.934227,3.325000,1.930400,3.325000,-1.930400,3.323415,-1.934227,3.324379,-1.938256,3.316280,-1.951452,3.310355,-1.965755,3.306528,-1.967340,3.304361,-1.970871,3.289304,-1.974475,3.275000,-1.980400,3.271173,-1.978815,3.267144,-1.979779,-1.203256,-1.268579,
-1.216452,-1.260480,-1.230755,-1.254555,-1.232340,-1.250728,-1.233526,-1.250000,-1.275000,-1.250000,-1.275000,1.250000,-1.233526,1.250000,-1.232340,1.250728,-1.230755,1.254555,-1.216452,1.260480,-1.203256,1.268579,3.267144,1.979779,3.271173,1.978815,3.275000,1.980400,3.289304,1.974475,3.289304,1.974475,$1*%
%AMFreePoly1*
4,1,35,-3.247373,1.978815,-3.243344,1.979779,1.227056,1.268579,1.240251,1.260480,1.254555,1.254555,1.256141,1.250727,1.257325,1.250000,1.275000,1.250000,1.275000,-1.250000,1.257325,-1.250000,1.256141,-1.250727,1.254555,-1.254555,1.240251,-1.260480,1.227056,-1.268579,-3.243344,-1.979779,-3.247373,-1.978815,-3.251200,-1.980400,-3.265504,-1.974475,-3.280561,-1.970871,-3.282728,-1.967340,
-3.286555,-1.965755,-3.292480,-1.951452,-3.300579,-1.938256,-3.299615,-1.934227,-3.301200,-1.930400,-3.301200,1.930400,-3.299615,1.934227,-3.300579,1.938256,-3.292480,1.951452,-3.286555,1.965755,-3.282728,1.967340,-3.280561,1.970871,-3.265504,1.974475,-3.251200,1.980400,-3.247373,1.978815,-3.247373,1.978815,$1*%
G04 Aperture macros list end*
G04 #@! TA.AperFunction,ComponentPad*
%ADD10R,1.000000X1.000000*%
G04 #@! TD*
G04 #@! TA.AperFunction,ComponentPad*
%ADD11O,1.000000X1.000000*%
G04 #@! TD*
G04 #@! TA.AperFunction,SMDPad,CuDef*
%ADD12RoundRect,0.250000X-0.375000X-0.625000X0.375000X-0.625000X0.375000X0.625000X-0.375000X0.625000X0*%
G04 #@! TD*
G04 #@! TA.AperFunction,SMDPad,CuDef*
%ADD13RoundRect,0.150000X-0.625000X0.150000X-0.625000X-0.150000X0.625000X-0.150000X0.625000X0.150000X0*%
G04 #@! TD*
G04 #@! TA.AperFunction,SMDPad,CuDef*
%ADD14RoundRect,0.250000X-0.650000X0.350000X-0.650000X-0.350000X0.650000X-0.350000X0.650000X0.350000X0*%
G04 #@! TD*
G04 #@! TA.AperFunction,ComponentPad*
%ADD15O,1.700000X1.700000*%
G04 #@! TD*
G04 #@! TA.AperFunction,ComponentPad*
%ADD16R,1.700000X1.700000*%
G04 #@! TD*
G04 #@! TA.AperFunction,SMDPad,CuDef*
%ADD17RoundRect,0.243750X-0.243750X-0.456250X0.243750X-0.456250X0.243750X0.456250X-0.243750X0.456250X0*%
G04 #@! TD*
G04 #@! TA.AperFunction,SMDPad,CuDef*
%ADD18R,1.700000X1.000000*%
G04 #@! TD*
G04 #@! TA.AperFunction,SMDPad,CuDef*
%ADD19RoundRect,0.243750X0.243750X0.456250X-0.243750X0.456250X-0.243750X-0.456250X0.243750X-0.456250X0*%
G04 #@! TD*
G04 #@! TA.AperFunction,SMDPad,CuDef*
%ADD20RoundRect,0.243750X0.456250X-0.243750X0.456250X0.243750X-0.456250X0.243750X-0.456250X-0.243750X0*%
G04 #@! TD*
G04 #@! TA.AperFunction,SMDPad,CuDef*
%ADD21RoundRect,0.062500X-0.062500X0.475000X-0.062500X-0.475000X0.062500X-0.475000X0.062500X0.475000X0*%
G04 #@! TD*
G04 #@! TA.AperFunction,SMDPad,CuDef*
%ADD22RoundRect,0.062500X-0.475000X0.062500X-0.475000X-0.062500X0.475000X-0.062500X0.475000X0.062500X0*%
G04 #@! TD*
G04 #@! TA.AperFunction,SMDPad,CuDef*
%ADD23R,5.200000X5.200000*%
G04 #@! TD*
G04 #@! TA.AperFunction,SMDPad,CuDef*
%ADD24R,1.400000X1.200000*%
G04 #@! TD*
G04 #@! TA.AperFunction,SMDPad,CuDef*
%ADD25RoundRect,0.243750X-0.456250X0.243750X-0.456250X-0.243750X0.456250X-0.243750X0.456250X0.243750X0*%
G04 #@! TD*
G04 #@! TA.AperFunction,SMDPad,CuDef*
%ADD26R,1.200000X0.900000*%
G04 #@! TD*
G04 #@! TA.AperFunction,ComponentPad*
%ADD27C,4.000000*%
G04 #@! TD*
G04 #@! TA.AperFunction,SMDPad,CuDef*
%ADD28FreePoly0,0.000000*%
G04 #@! TD*
G04 #@! TA.AperFunction,SMDPad,CuDef*
%ADD29FreePoly1,0.000000*%
G04 #@! TD*
G04 #@! TA.AperFunction,SMDPad,CuDef*
%ADD30FreePoly0,180.000000*%
G04 #@! TD*
G04 #@! TA.AperFunction,SMDPad,CuDef*
%ADD31FreePoly1,180.000000*%
G04 #@! TD*
G04 #@! TA.AperFunction,SMDPad,CuDef*
%ADD32R,0.650000X1.060000*%
G04 #@! TD*
G04 #@! TA.AperFunction,ViaPad*
%ADD33C,0.800000*%
G04 #@! TD*
G04 #@! TA.AperFunction,Conductor*
%ADD34C,0.250000*%
G04 #@! TD*
G04 #@! TA.AperFunction,Conductor*
%ADD35C,0.381000*%
G04 #@! TD*
G04 #@! TA.AperFunction,Conductor*
%ADD36C,0.200000*%
G04 #@! TD*
G04 APERTURE END LIST*
D10*
X2730000Y-37850000D03*
D11*
X2730000Y-36580000D03*
X2730000Y-35310000D03*
D12*
X23310000Y-17120000D03*
X26110000Y-17120000D03*
D13*
X64050000Y-16003750D03*
X64050000Y-17003750D03*
X64050000Y-18003750D03*
X64050000Y-19003750D03*
D14*
X67925000Y-20303750D03*
X67925000Y-14703750D03*
D15*
X2535000Y-22155000D03*
X5075000Y-22155000D03*
X2535000Y-19615000D03*
X5075000Y-19615000D03*
X2535000Y-17075000D03*
D16*
X5075000Y-17075000D03*
D17*
X31402500Y-18753750D03*
X33277500Y-18753750D03*
X31402500Y-16253750D03*
X33277500Y-16253750D03*
D18*
X58393750Y-37385000D03*
X52093750Y-37385000D03*
X58393750Y-33585000D03*
X52093750Y-33585000D03*
D19*
X43697500Y-32860000D03*
X41822500Y-32860000D03*
X24061250Y-28750000D03*
X22186250Y-28750000D03*
D20*
X31700000Y-44937500D03*
X31700000Y-43062500D03*
D21*
X26053750Y-34421250D03*
X26553750Y-34421250D03*
X27053750Y-34421250D03*
X27553750Y-34421250D03*
X28053750Y-34421250D03*
X28553750Y-34421250D03*
X29053750Y-34421250D03*
X29553750Y-34421250D03*
X30053750Y-34421250D03*
X30553750Y-34421250D03*
X31053750Y-34421250D03*
D22*
X31891250Y-35258750D03*
X31891250Y-35758750D03*
X31891250Y-36258750D03*
X31891250Y-36758750D03*
X31891250Y-37258750D03*
X31891250Y-37758750D03*
X31891250Y-38258750D03*
X31891250Y-38758750D03*
X31891250Y-39258750D03*
X31891250Y-39758750D03*
X31891250Y-40258750D03*
D21*
X31053750Y-41096250D03*
X30553750Y-41096250D03*
X30053750Y-41096250D03*
X29553750Y-41096250D03*
X29053750Y-41096250D03*
X28553750Y-41096250D03*
X28053750Y-41096250D03*
X27553750Y-41096250D03*
X27053750Y-41096250D03*
X26553750Y-41096250D03*
X26053750Y-41096250D03*
D22*
X25216250Y-40258750D03*
X25216250Y-39758750D03*
X25216250Y-39258750D03*
X25216250Y-38758750D03*
X25216250Y-38258750D03*
X25216250Y-37758750D03*
X25216250Y-37258750D03*
X25216250Y-36758750D03*
X25216250Y-36258750D03*
X25216250Y-35758750D03*
X25216250Y-35258750D03*
D23*
X28553750Y-37758750D03*
D24*
X43860000Y-36510000D03*
X41660000Y-36510000D03*
X41660000Y-34810000D03*
X43860000Y-34810000D03*
D25*
X35150000Y-33312500D03*
X35150000Y-35187500D03*
X49710000Y-33582500D03*
X49710000Y-35457500D03*
D26*
X2381250Y-14350000D03*
X2381250Y-11050000D03*
X17462500Y-11450000D03*
X17462500Y-8150000D03*
X36512500Y-11443750D03*
X36512500Y-8143750D03*
X55562500Y-11443750D03*
X55562500Y-8143750D03*
X74612500Y-11443750D03*
X74612500Y-8143750D03*
X93662500Y-11443750D03*
X93662500Y-8143750D03*
X112712500Y-11443750D03*
X112712500Y-8143750D03*
X132031250Y-11443750D03*
X132031250Y-8143750D03*
X151081250Y-11443750D03*
X151081250Y-8143750D03*
X170131250Y-11443750D03*
X170131250Y-8143750D03*
X189181250Y-11443750D03*
X189181250Y-8143750D03*
X208231250Y-11443750D03*
X208231250Y-8143750D03*
X247125000Y-11443750D03*
X247125000Y-8143750D03*
X284797500Y-17525000D03*
X284797500Y-14225000D03*
X287972500Y-17048750D03*
X287972500Y-13748750D03*
X5556250Y-31812500D03*
X5556250Y-28512500D03*
X67750000Y-31900000D03*
X67750000Y-28600000D03*
X64562500Y-30493750D03*
X64562500Y-27193750D03*
X83612500Y-30493750D03*
X83612500Y-27193750D03*
X86750000Y-31650000D03*
X86750000Y-28350000D03*
X103981250Y-30493750D03*
X103981250Y-27193750D03*
X123031250Y-30493750D03*
X123031250Y-27193750D03*
X142081250Y-30493750D03*
X142081250Y-27193750D03*
X161131250Y-30493750D03*
X161131250Y-27193750D03*
X180181250Y-30493750D03*
X180181250Y-27193750D03*
X199231250Y-30493750D03*
X199231250Y-27193750D03*
X218281250Y-30493750D03*
X218281250Y-27193750D03*
X237331250Y-30493750D03*
X237331250Y-27193750D03*
X261143750Y-30493750D03*
X261143750Y-27193750D03*
X284956250Y-30493750D03*
X284956250Y-27193750D03*
X26193750Y-52450000D03*
X26193750Y-49150000D03*
X50275000Y-49543750D03*
X50275000Y-46243750D03*
X53450000Y-50900000D03*
X53450000Y-47600000D03*
X70643750Y-49543750D03*
X70643750Y-46243750D03*
X108743750Y-49543750D03*
X108743750Y-46243750D03*
X127793750Y-49543750D03*
X127793750Y-46243750D03*
X146843750Y-49543750D03*
X146843750Y-46243750D03*
X165893750Y-49543750D03*
X165893750Y-46243750D03*
X184943750Y-49543750D03*
X184943750Y-46243750D03*
X203993750Y-49543750D03*
X203993750Y-46243750D03*
X223043750Y-49543750D03*
X223043750Y-46243750D03*
X254000000Y-49543750D03*
X254000000Y-46243750D03*
X284956250Y-49543750D03*
X284956250Y-46243750D03*
X28843750Y-68593750D03*
X28843750Y-65293750D03*
X42068750Y-68593750D03*
X42068750Y-65293750D03*
X61118750Y-68593750D03*
X61118750Y-65293750D03*
X80168750Y-68593750D03*
X80168750Y-65293750D03*
X99218750Y-68593750D03*
X99218750Y-65293750D03*
X118268750Y-68593750D03*
X118268750Y-65293750D03*
X137318750Y-68593750D03*
X137318750Y-65293750D03*
X156368750Y-68593750D03*
X156368750Y-65293750D03*
X175418750Y-68593750D03*
X175418750Y-65293750D03*
X194468750Y-68593750D03*
X194468750Y-65293750D03*
X213518750Y-68593750D03*
X213518750Y-65293750D03*
X239712500Y-68593750D03*
X239712500Y-65293750D03*
X265906250Y-68593750D03*
X265906250Y-65293750D03*
X284956250Y-68593750D03*
X284956250Y-65293750D03*
X23018750Y-83406250D03*
X23018750Y-80106250D03*
X26540000Y-91530000D03*
X26540000Y-88230000D03*
X48418750Y-85787500D03*
X48418750Y-82487500D03*
X119062500Y-88168750D03*
X119062500Y-84868750D03*
X212566250Y-87692500D03*
X212566250Y-84392500D03*
X260191250Y-91661250D03*
X260191250Y-88361250D03*
X272097500Y-91661250D03*
X272097500Y-88361250D03*
X284003750Y-91661250D03*
X284003750Y-88361250D03*
D27*
X5190000Y-6460000D03*
D28*
X1915000Y-6460000D03*
D27*
X11540000Y-3920000D03*
D29*
X14841000Y-3920000D03*
D27*
X24240000Y-6460000D03*
D28*
X20965000Y-6460000D03*
D29*
X33891000Y-3920000D03*
D27*
X30590000Y-3920000D03*
X43290000Y-6460000D03*
D28*
X40015000Y-6460000D03*
D27*
X49640000Y-3920000D03*
D29*
X52941000Y-3920000D03*
D27*
X62340000Y-6460000D03*
D28*
X59065000Y-6460000D03*
D27*
X68690000Y-3920000D03*
D29*
X71991000Y-3920000D03*
D28*
X78115000Y-6460000D03*
D27*
X81390000Y-6460000D03*
D29*
X91041000Y-3920000D03*
D27*
X87740000Y-3920000D03*
D28*
X97165000Y-6460000D03*
D27*
X100440000Y-6460000D03*
X106790000Y-3920000D03*
D29*
X110091000Y-3920000D03*
D27*
X119490000Y-6460000D03*
D28*
X116215000Y-6460000D03*
D27*
X125840000Y-3920000D03*
D29*
X129141000Y-3920000D03*
D28*
X154315000Y-6460000D03*
D27*
X157590000Y-6460000D03*
D29*
X167241000Y-3920000D03*
D27*
X163940000Y-3920000D03*
X176640000Y-6460000D03*
D28*
X173365000Y-6460000D03*
D27*
X182990000Y-3920000D03*
D29*
X186291000Y-3920000D03*
D28*
X192415000Y-6460000D03*
D27*
X195690000Y-6460000D03*
X202040000Y-3920000D03*
D29*
X205341000Y-3920000D03*
D28*
X211465000Y-6460000D03*
D27*
X214740000Y-6460000D03*
D29*
X224391000Y-3920000D03*
D27*
X221090000Y-3920000D03*
D28*
X230515000Y-6460000D03*
D27*
X233790000Y-6460000D03*
X240140000Y-3920000D03*
D29*
X243441000Y-3920000D03*
D27*
X260460000Y-11540000D03*
D30*
X263735000Y-11540000D03*
D31*
X250809000Y-14080000D03*
D27*
X254110000Y-14080000D03*
X262365000Y-6460000D03*
D28*
X259090000Y-6460000D03*
D27*
X268715000Y-3920000D03*
D29*
X272016000Y-3920000D03*
D27*
X9952500Y-25510000D03*
D28*
X6677500Y-25510000D03*
D29*
X19603500Y-22970000D03*
D27*
X16302500Y-22970000D03*
X33765000Y-25510000D03*
D28*
X30490000Y-25510000D03*
D27*
X40115000Y-22970000D03*
D29*
X43416000Y-22970000D03*
D28*
X49540000Y-25510000D03*
D27*
X52815000Y-25510000D03*
D29*
X62466000Y-22970000D03*
D27*
X59165000Y-22970000D03*
D28*
X68590000Y-25510000D03*
D27*
X71865000Y-25510000D03*
X78215000Y-22970000D03*
D29*
X81516000Y-22970000D03*
D27*
X90915000Y-25510000D03*
D28*
X87640000Y-25510000D03*
D29*
X100566000Y-22970000D03*
D27*
X97265000Y-22970000D03*
X109965000Y-25510000D03*
D28*
X106690000Y-25510000D03*
D29*
X119616000Y-22970000D03*
D27*
X116315000Y-22970000D03*
X129015000Y-25510000D03*
D28*
X125740000Y-25510000D03*
D27*
X135365000Y-22970000D03*
D29*
X138666000Y-22970000D03*
D28*
X144790000Y-25510000D03*
D27*
X148065000Y-25510000D03*
X154415000Y-22970000D03*
D29*
X157716000Y-22970000D03*
D27*
X167115000Y-25510000D03*
D28*
X163840000Y-25510000D03*
D29*
X176766000Y-22970000D03*
D27*
X173465000Y-22970000D03*
D28*
X182890000Y-25510000D03*
D27*
X186165000Y-25510000D03*
X192515000Y-22970000D03*
D29*
X195816000Y-22970000D03*
D28*
X201940000Y-25510000D03*
D27*
X205215000Y-25510000D03*
D29*
X214866000Y-22970000D03*
D27*
X211565000Y-22970000D03*
D28*
X220990000Y-25510000D03*
D27*
X224265000Y-25510000D03*
D29*
X233916000Y-22970000D03*
D27*
X230615000Y-22970000D03*
X243315000Y-25510000D03*
D28*
X240040000Y-25510000D03*
D27*
X249665000Y-22970000D03*
D29*
X252966000Y-22970000D03*
D27*
X267127500Y-25510000D03*
D28*
X263852500Y-25510000D03*
D29*
X276778500Y-22970000D03*
D27*
X273477500Y-22970000D03*
D28*
X287665000Y-25510000D03*
D27*
X290940000Y-25510000D03*
D29*
X300591000Y-22970000D03*
D27*
X297290000Y-22970000D03*
D28*
X4296250Y-44560000D03*
D27*
X7571250Y-44560000D03*
D29*
X17222250Y-42020000D03*
D27*
X13921250Y-42020000D03*
X19953750Y-49640000D03*
D30*
X23228750Y-49640000D03*
D27*
X13603750Y-52180000D03*
D31*
X10302750Y-52180000D03*
D28*
X35252500Y-44560000D03*
D27*
X38527500Y-44560000D03*
D29*
X48178500Y-42020000D03*
D27*
X44877500Y-42020000D03*
X57577500Y-44560000D03*
D28*
X54302500Y-44560000D03*
D29*
X67228500Y-42020000D03*
D27*
X63927500Y-42020000D03*
D28*
X73352500Y-44560000D03*
D27*
X76627500Y-44560000D03*
X82977500Y-42020000D03*
D29*
X86278500Y-42020000D03*
D27*
X95677500Y-44560000D03*
D28*
X92402500Y-44560000D03*
D29*
X105328500Y-42020000D03*
D27*
X102027500Y-42020000D03*
X114727500Y-44560000D03*
D28*
X111452500Y-44560000D03*
D27*
X121077500Y-42020000D03*
D29*
X124378500Y-42020000D03*
D28*
X130502500Y-44560000D03*
D27*
X133777500Y-44560000D03*
D29*
X143428500Y-42020000D03*
D27*
X140127500Y-42020000D03*
X152827500Y-44560000D03*
D28*
X149552500Y-44560000D03*
D29*
X162478500Y-42020000D03*
D27*
X159177500Y-42020000D03*
X171877500Y-44560000D03*
D28*
X168602500Y-44560000D03*
D29*
X181528500Y-42020000D03*
D27*
X178227500Y-42020000D03*
D28*
X187652500Y-44560000D03*
D27*
X190927500Y-44560000D03*
X197277500Y-42020000D03*
D29*
X200578500Y-42020000D03*
D27*
X209977500Y-44560000D03*
D28*
X206702500Y-44560000D03*
D29*
X219628500Y-42020000D03*
D27*
X216327500Y-42020000D03*
X229027500Y-44560000D03*
D28*
X225752500Y-44560000D03*
D27*
X235377500Y-42020000D03*
D29*
X238678500Y-42020000D03*
D28*
X256708750Y-44560000D03*
D27*
X259983750Y-44560000D03*
D29*
X269634750Y-42020000D03*
D27*
X266333750Y-42020000D03*
X290940000Y-44560000D03*
D28*
X287665000Y-44560000D03*
D29*
X300591000Y-42020000D03*
D27*
X297290000Y-42020000D03*
D28*
X13821250Y-63610000D03*
D27*
X17096250Y-63610000D03*
D29*
X26747250Y-61070000D03*
D27*
X23446250Y-61070000D03*
D28*
X44777500Y-63610000D03*
D27*
X48052500Y-63610000D03*
X54402500Y-61070000D03*
D29*
X57703500Y-61070000D03*
D27*
X67102500Y-63610000D03*
D28*
X63827500Y-63610000D03*
D29*
X76753500Y-61070000D03*
D27*
X73452500Y-61070000D03*
X86152500Y-63610000D03*
D28*
X82877500Y-63610000D03*
D29*
X95803500Y-61070000D03*
D27*
X92502500Y-61070000D03*
D28*
X101927500Y-63610000D03*
D27*
X105202500Y-63610000D03*
X111552500Y-61070000D03*
D29*
X114853500Y-61070000D03*
D28*
X120977500Y-63610000D03*
D27*
X124252500Y-63610000D03*
X130602500Y-61070000D03*
D29*
X133903500Y-61070000D03*
D27*
X143302500Y-63610000D03*
D28*
X140027500Y-63610000D03*
D27*
X149652500Y-61070000D03*
D29*
X152953500Y-61070000D03*
D27*
X162352500Y-63610000D03*
D28*
X159077500Y-63610000D03*
D27*
X168702500Y-61070000D03*
D29*
X172003500Y-61070000D03*
D27*
X181402500Y-63610000D03*
D28*
X178127500Y-63610000D03*
D29*
X191053500Y-61070000D03*
D27*
X187752500Y-61070000D03*
X200452500Y-63610000D03*
D28*
X197177500Y-63610000D03*
D29*
X210103500Y-61070000D03*
D27*
X206802500Y-61070000D03*
D28*
X216227500Y-63610000D03*
D27*
X219502500Y-63610000D03*
X225852500Y-61070000D03*
D29*
X229153500Y-61070000D03*
D28*
X242421250Y-63610000D03*
D27*
X245696250Y-63610000D03*
X252046250Y-61070000D03*
D29*
X255347250Y-61070000D03*
D27*
X271890000Y-63610000D03*
D28*
X268615000Y-63610000D03*
D29*
X281541000Y-61070000D03*
D27*
X278240000Y-61070000D03*
X290940000Y-63610000D03*
D28*
X287665000Y-63610000D03*
D27*
X297290000Y-61070000D03*
D29*
X300591000Y-61070000D03*
D30*
X20847500Y-87740000D03*
D27*
X17572500Y-87740000D03*
D31*
X7921500Y-90280000D03*
D27*
X11222500Y-90280000D03*
D30*
X44660000Y-87740000D03*
D27*
X41385000Y-87740000D03*
X35035000Y-90280000D03*
D31*
X31734000Y-90280000D03*
D27*
X65197500Y-87740000D03*
D30*
X68472500Y-87740000D03*
D27*
X58847500Y-90280000D03*
D31*
X55546500Y-90280000D03*
D27*
X198071250Y-82660000D03*
D28*
X194796250Y-82660000D03*
D29*
X207722250Y-80120000D03*
D27*
X204421250Y-80120000D03*
D28*
X216227500Y-82660000D03*
D27*
X219502500Y-82660000D03*
D29*
X229153500Y-80120000D03*
D27*
X225852500Y-80120000D03*
D28*
X249565000Y-82660000D03*
D27*
X252840000Y-82660000D03*
D29*
X262491000Y-80120000D03*
D27*
X259190000Y-80120000D03*
D28*
X268615000Y-82660000D03*
D27*
X271890000Y-82660000D03*
X278240000Y-80120000D03*
D29*
X281541000Y-80120000D03*
D28*
X287665000Y-82660000D03*
D27*
X290940000Y-82660000D03*
X297290000Y-80120000D03*
D29*
X300591000Y-80120000D03*
D30*
X232778750Y-87740000D03*
D27*
X229503750Y-87740000D03*
X223153750Y-90280000D03*
D31*
X219852750Y-90280000D03*
D27*
X146160000Y-87740000D03*
D30*
X149435000Y-87740000D03*
D27*
X139810000Y-90280000D03*
D31*
X136509000Y-90280000D03*
D27*
X138540000Y-6460000D03*
D28*
X135265000Y-6460000D03*
D27*
X144890000Y-3920000D03*
D29*
X148191000Y-3920000D03*
D26*
X227281250Y-11443750D03*
X227281250Y-8143750D03*
D25*
X28500000Y-28662500D03*
X28500000Y-30537500D03*
D19*
X43697500Y-38460000D03*
X41822500Y-38460000D03*
D20*
X24850000Y-44287500D03*
X24850000Y-42412500D03*
D26*
X89693750Y-49543750D03*
X89693750Y-46243750D03*
X191562500Y-87643750D03*
X191562500Y-84343750D03*
D17*
X21112500Y-40550000D03*
X22987500Y-40550000D03*
D27*
X290940000Y-6460000D03*
D28*
X287665000Y-6460000D03*
D29*
X300591000Y-3920000D03*
D27*
X297290000Y-3920000D03*
X279510000Y-11540000D03*
D30*
X282785000Y-11540000D03*
D27*
X273160000Y-14080000D03*
D31*
X269859000Y-14080000D03*
D28*
X4296250Y-82660000D03*
D27*
X7571250Y-82660000D03*
X13921250Y-80120000D03*
D29*
X17222250Y-80120000D03*
D28*
X28108750Y-82660000D03*
D27*
X31383750Y-82660000D03*
D29*
X41034750Y-80120000D03*
D27*
X37733750Y-80120000D03*
X55196250Y-82660000D03*
D28*
X51921250Y-82660000D03*
D27*
X61546250Y-80120000D03*
D29*
X64847250Y-80120000D03*
D27*
X126633750Y-82660000D03*
D28*
X123358750Y-82660000D03*
D29*
X136284750Y-80120000D03*
D27*
X132983750Y-80120000D03*
D32*
X39173750Y-18603750D03*
X38223750Y-18603750D03*
X37273750Y-18603750D03*
X37273750Y-16403750D03*
X38223750Y-16403750D03*
X39173750Y-16403750D03*
D33*
X18740000Y-37840000D03*
X40277500Y-19880000D03*
X10251485Y-19431484D03*
X40375844Y-31079905D03*
X25050000Y-46150000D03*
X31750000Y-41800000D03*
X22603750Y-11443750D03*
X22893750Y-30565000D03*
X34900000Y-30310000D03*
X20100000Y-32460000D03*
X28943750Y-53970000D03*
X39300000Y-47800000D03*
X25550000Y-68550000D03*
X20428615Y-37288615D03*
X24087500Y-84737500D03*
X21153115Y-38034250D03*
X49249145Y-32284605D03*
X42553750Y-14020002D03*
X33475734Y-29774500D03*
X24710000Y-14020002D03*
X32450000Y-30550000D03*
X23460000Y-14020002D03*
X25960000Y-14020002D03*
X35200000Y-29050000D03*
X16302500Y-35811250D03*
X33944842Y-54755158D03*
X22650000Y-37034250D03*
X34224020Y-42656576D03*
X34405171Y-47444829D03*
X35206034Y-42470422D03*
X35480103Y-47701331D03*
X279650000Y-53050000D03*
X36239800Y-42335884D03*
X37050000Y-48500000D03*
X21050000Y-41950000D03*
X23350000Y-33250000D03*
X26050000Y-33100000D03*
X37720180Y-31870180D03*
X31844453Y-46155547D03*
X29561413Y-32011413D03*
D34*
X2730000Y-36580000D02*
X18245386Y-36580000D01*
X18515386Y-36310000D02*
X22349636Y-36310000D01*
X22349636Y-36310000D02*
X22349897Y-36309739D01*
X22950103Y-36309739D02*
X23399114Y-36758750D01*
X22349897Y-36309739D02*
X22950103Y-36309739D01*
X18245386Y-36580000D02*
X18515386Y-36310000D01*
X23399114Y-36758750D02*
X25216250Y-36758750D01*
X18740000Y-37840000D02*
X18730000Y-37850000D01*
X18730000Y-37850000D02*
X2730000Y-37850000D01*
X22064240Y-33697588D02*
X4342412Y-33697588D01*
X4342412Y-33697588D02*
X2730000Y-35310000D01*
X25216250Y-39258750D02*
X19831250Y-39258750D01*
X19060000Y-40030000D02*
X19060000Y-43210000D01*
X27118261Y-51525489D02*
X26193750Y-52450000D01*
X19831250Y-39258750D02*
X19060000Y-40030000D01*
X27118261Y-48440391D02*
X27118261Y-51525489D01*
X19960480Y-44110480D02*
X20873252Y-44110480D01*
X19060000Y-43210000D02*
X19960480Y-44110480D01*
X20873252Y-44110480D02*
X25138261Y-48375489D01*
X25138261Y-48375489D02*
X27053359Y-48375489D01*
X27053359Y-48375489D02*
X27118261Y-48440391D01*
X25216250Y-38758750D02*
X25195000Y-38780000D01*
X25195000Y-38780000D02*
X17900000Y-38780000D01*
X17900000Y-38780000D02*
X17222250Y-39457750D01*
X17222250Y-39457750D02*
X17222250Y-42020000D01*
X28053750Y-37258750D02*
X28553750Y-37758750D01*
D35*
X40375844Y-31079905D02*
X40645939Y-31350000D01*
D34*
X33652310Y-35861027D02*
X33652310Y-35747690D01*
D35*
X41900000Y-36510000D02*
X41660000Y-36510000D01*
X38795558Y-32660191D02*
X37454899Y-32660191D01*
X63175000Y-19003750D02*
X64050000Y-19003750D01*
X40277500Y-19880000D02*
X41638240Y-18519260D01*
X44590000Y-34810000D02*
X43860000Y-34810000D01*
D34*
X32754587Y-36758750D02*
X33652310Y-35861027D01*
D35*
X45862909Y-30844581D02*
X47828990Y-32810662D01*
X43860000Y-34810000D02*
X43600000Y-34810000D01*
X47828990Y-32810662D02*
X47828990Y-35197470D01*
X48966540Y-36335020D02*
X51043770Y-36335020D01*
X43697500Y-38460000D02*
X43990022Y-38460000D01*
D34*
X27801078Y-37758750D02*
X25801078Y-39758750D01*
X24125402Y-35758750D02*
X22064240Y-33697588D01*
D35*
X22186250Y-27732740D02*
X22186250Y-28750000D01*
X40375844Y-31079905D02*
X40611168Y-30844581D01*
D34*
X31053750Y-42416250D02*
X31700000Y-43062500D01*
D35*
X38223750Y-18603750D02*
X38223750Y-19500000D01*
X44950011Y-37500011D02*
X44950011Y-35170011D01*
D34*
X25216250Y-35758750D02*
X24125402Y-35758750D01*
D35*
X43600000Y-34810000D02*
X41900000Y-36510000D01*
X40611168Y-30844581D02*
X45862909Y-30844581D01*
X47828990Y-35197470D02*
X48966540Y-36335020D01*
X58393750Y-37385000D02*
X52093750Y-37385000D01*
X21378750Y-14830000D02*
X22294490Y-15745740D01*
D34*
X35812500Y-35187500D02*
X36651250Y-34348750D01*
D35*
X10260000Y-19126705D02*
X14556705Y-14830000D01*
X40645939Y-31350000D02*
X42187500Y-31350000D01*
X43860000Y-33022500D02*
X43697500Y-32860000D01*
D34*
X25801078Y-39758750D02*
X25216250Y-39758750D01*
D35*
X22728990Y-18385510D02*
X22728990Y-27190000D01*
X37454899Y-32660191D02*
X36651250Y-33463840D01*
D34*
X28220000Y-37220000D02*
X31020000Y-40020000D01*
D35*
X22728990Y-27190000D02*
X22186250Y-27732740D01*
X10251485Y-19431484D02*
X10260000Y-19422969D01*
D34*
X29553750Y-36758750D02*
X28553750Y-37758750D01*
X31053750Y-41096250D02*
X31053750Y-42416250D01*
D35*
X22294490Y-15745740D02*
X22294490Y-18010310D01*
X44950011Y-35170011D02*
X44590000Y-34810000D01*
D34*
X25050000Y-44487500D02*
X25050000Y-46150000D01*
D35*
X14556705Y-14830000D02*
X21378750Y-14830000D01*
D34*
X31750000Y-41800000D02*
X31750000Y-42726250D01*
X22064240Y-33697588D02*
X22064240Y-32264240D01*
X35150000Y-35187500D02*
X35812500Y-35187500D01*
D35*
X22064240Y-28872010D02*
X22064240Y-32459707D01*
D34*
X31750000Y-42726250D02*
X32060000Y-43036250D01*
D35*
X22294490Y-18010310D02*
X22669690Y-18385510D01*
X41638240Y-18519260D02*
X62690510Y-18519260D01*
X36651250Y-33463840D02*
X36651250Y-34348750D01*
X43860000Y-34810000D02*
X43860000Y-33022500D01*
D34*
X23778750Y-39758750D02*
X22987500Y-40550000D01*
D35*
X62690510Y-18519260D02*
X63175000Y-19003750D01*
D34*
X28553750Y-37758750D02*
X27801078Y-37758750D01*
D35*
X22186250Y-28750000D02*
X22186250Y-27722740D01*
D34*
X28053750Y-30983750D02*
X28053750Y-34421250D01*
X25216250Y-39758750D02*
X23778750Y-39758750D01*
D35*
X43990022Y-38460000D02*
X44950011Y-37500011D01*
X22186250Y-28750000D02*
X22064240Y-28872010D01*
D34*
X28500000Y-30537500D02*
X28053750Y-30983750D01*
X24850000Y-44287500D02*
X25050000Y-44487500D01*
X31891250Y-36758750D02*
X32754587Y-36758750D01*
D35*
X38603750Y-19880000D02*
X40277500Y-19880000D01*
D34*
X34212500Y-35187500D02*
X35150000Y-35187500D01*
X31020000Y-40020000D02*
X31020000Y-41270000D01*
X31891250Y-36758750D02*
X29553750Y-36758750D01*
D35*
X38223750Y-19500000D02*
X38603750Y-19880000D01*
X42187500Y-31350000D02*
X43697500Y-32860000D01*
D34*
X25216250Y-35758750D02*
X26553750Y-35758750D01*
D35*
X22669690Y-18385510D02*
X22728990Y-18385510D01*
X40375844Y-31079905D02*
X38795558Y-32660191D01*
X51043770Y-36335020D02*
X52093750Y-37385000D01*
D34*
X26553750Y-35758750D02*
X28553750Y-37758750D01*
X33652310Y-35747690D02*
X34212500Y-35187500D01*
X28053750Y-30983750D02*
X28053750Y-32183750D01*
D35*
X10260000Y-19422969D02*
X10260000Y-19126705D01*
D34*
X28053750Y-34421250D02*
X28053750Y-37258750D01*
X41660000Y-33022500D02*
X41822500Y-32860000D01*
X41822500Y-32860000D02*
X37423750Y-37258750D01*
X37423750Y-37258750D02*
X31891250Y-37258750D01*
X41660000Y-34810000D02*
X41660000Y-33022500D01*
X42193845Y-38460000D02*
X43860000Y-36793845D01*
X43860000Y-36793845D02*
X43860000Y-36510000D01*
X31891250Y-37758750D02*
X41121250Y-37758750D01*
X41822500Y-38460000D02*
X42193845Y-38460000D01*
X41121250Y-37758750D02*
X41822500Y-38460000D01*
X2381250Y-11050000D02*
X2381250Y-6926250D01*
X2381250Y-6926250D02*
X1915000Y-6460000D01*
X23125489Y-32525489D02*
X22893750Y-32293750D01*
X285273750Y-17048750D02*
X282948589Y-19373911D01*
X253118969Y-19373911D02*
X247125000Y-13379942D01*
X23046250Y-11443750D02*
X21466250Y-11443750D01*
X26053750Y-34421250D02*
X24157989Y-32525489D01*
X247125000Y-13379942D02*
X247125000Y-11443750D01*
X282948589Y-19373911D02*
X253118969Y-19373911D01*
X287972500Y-17048750D02*
X285273750Y-17048750D01*
X24157989Y-32525489D02*
X23125489Y-32525489D01*
X20271250Y-11443750D02*
X23046250Y-11443750D01*
X247125000Y-11443750D02*
X5287500Y-11443750D01*
X5287500Y-11443750D02*
X2381250Y-14350000D01*
X21466250Y-11443750D02*
X16937500Y-11443750D01*
X22893750Y-32293750D02*
X22893750Y-30565000D01*
X18885000Y-8150000D02*
X17462500Y-8150000D01*
X20575000Y-6460000D02*
X18885000Y-8150000D01*
X24240000Y-6460000D02*
X21096250Y-6460000D01*
X20965000Y-6460000D02*
X20575000Y-6460000D01*
X43290000Y-6460000D02*
X38196250Y-6460000D01*
X38196250Y-6460000D02*
X36512500Y-8143750D01*
X55562500Y-8143750D02*
X57246250Y-6460000D01*
X57246250Y-6460000D02*
X62340000Y-6460000D01*
X76431250Y-8143750D02*
X74612500Y-8143750D01*
X78115000Y-6460000D02*
X76431250Y-8143750D01*
X75675000Y-8143750D02*
X74612500Y-8143750D01*
X95481250Y-8143750D02*
X93662500Y-8143750D01*
X94725000Y-8143750D02*
X93662500Y-8143750D01*
X97165000Y-6460000D02*
X95481250Y-8143750D01*
X114531250Y-8143750D02*
X112712500Y-8143750D01*
X116215000Y-6460000D02*
X114531250Y-8143750D01*
X113775000Y-8143750D02*
X112712500Y-8143750D01*
X132031250Y-8143750D02*
X132825000Y-8143750D01*
X133581250Y-8143750D02*
X135265000Y-6460000D01*
X132031250Y-8143750D02*
X133581250Y-8143750D01*
X151081250Y-8143750D02*
X151875000Y-8143750D01*
X151081250Y-8143750D02*
X152631250Y-8143750D01*
X152631250Y-8143750D02*
X154315000Y-6460000D01*
X171681250Y-8143750D02*
X173365000Y-6460000D01*
X170131250Y-8143750D02*
X171681250Y-8143750D01*
X170131250Y-8143750D02*
X170925000Y-8143750D01*
X189181250Y-8143750D02*
X190293750Y-8143750D01*
X190293750Y-8143750D02*
X190731250Y-8143750D01*
X190731250Y-8143750D02*
X192415000Y-6460000D01*
X189975000Y-8143750D02*
X190293750Y-8143750D01*
X209343750Y-8143750D02*
X209781250Y-8143750D01*
X209025000Y-8143750D02*
X209343750Y-8143750D01*
X209781250Y-8143750D02*
X211465000Y-6460000D01*
X208231250Y-8143750D02*
X209343750Y-8143750D01*
X227281250Y-8143750D02*
X228806250Y-8143750D01*
X228806250Y-8143750D02*
X228831250Y-8143750D01*
X228831250Y-8143750D02*
X230515000Y-6460000D01*
X228075000Y-8143750D02*
X228806250Y-8143750D01*
X260460000Y-11540000D02*
X250521250Y-11540000D01*
X282785000Y-11540000D02*
X282785000Y-9127537D01*
X284797500Y-13552500D02*
X282785000Y-11540000D01*
X282785000Y-9127537D02*
X280117463Y-6460000D01*
X284797500Y-13748750D02*
X284797500Y-13552500D01*
X250521250Y-11540000D02*
X247125000Y-8143750D01*
X280117463Y-6460000D02*
X259090000Y-6460000D01*
X287972500Y-6767500D02*
X287665000Y-6460000D01*
X287972500Y-13748750D02*
X287972500Y-6767500D01*
X7602500Y-25510000D02*
X5825000Y-27287500D01*
X9952500Y-25510000D02*
X7602500Y-25510000D01*
X5825000Y-27287500D02*
X5825000Y-27987500D01*
X6243750Y-32500000D02*
X5556250Y-31812500D01*
X142350000Y-30493750D02*
X104250000Y-30493750D01*
X20100000Y-32460000D02*
X20060000Y-32500000D01*
X34900000Y-30310000D02*
X35082500Y-30492500D01*
X31891250Y-33444468D02*
X31891250Y-35258750D01*
X90506250Y-30493750D02*
X89350000Y-31650000D01*
X54525067Y-29299521D02*
X55719296Y-30493750D01*
X104250000Y-30493750D02*
X90506250Y-30493750D01*
X64562500Y-30493750D02*
X66343750Y-30493750D01*
X35082500Y-31800000D02*
X33535718Y-31800000D01*
X35082500Y-31800000D02*
X35180000Y-31800000D01*
X20060000Y-32500000D02*
X6243750Y-32500000D01*
X38556033Y-30418421D02*
X39674933Y-29299521D01*
X36561579Y-30418421D02*
X38556033Y-30418421D01*
X285225000Y-30493750D02*
X142350000Y-30493750D01*
X67750000Y-31900000D02*
X82206250Y-31900000D01*
X35082500Y-30492500D02*
X35082500Y-31800000D01*
X86750000Y-31650000D02*
X84768750Y-31650000D01*
X84768750Y-31650000D02*
X83612500Y-30493750D01*
X89350000Y-31650000D02*
X86750000Y-31650000D01*
X55719296Y-30493750D02*
X64562500Y-30493750D01*
X39674933Y-29299521D02*
X54525067Y-29299521D01*
X35180000Y-31800000D02*
X36561579Y-30418421D01*
X33535718Y-31800000D02*
X31891250Y-33444468D01*
X82206250Y-31900000D02*
X83612500Y-30493750D01*
X66343750Y-30493750D02*
X67750000Y-31900000D01*
X67750000Y-28600000D02*
X67493750Y-28600000D01*
X65881250Y-26731250D02*
X67750000Y-28600000D01*
X45844904Y-25510000D02*
X50709415Y-20645489D01*
X33765000Y-25510000D02*
X45844904Y-25510000D01*
X65881250Y-22813154D02*
X65881250Y-26731250D01*
X50709415Y-20645489D02*
X63713585Y-20645489D01*
X63713585Y-20645489D02*
X65881250Y-22813154D01*
X53578750Y-23805000D02*
X52078750Y-23805000D01*
X52815000Y-25510000D02*
X63578750Y-25510000D01*
X64562500Y-26493750D02*
X64562500Y-27193750D01*
X63578750Y-25510000D02*
X64562500Y-26493750D01*
X81928750Y-25510000D02*
X71865000Y-25510000D01*
X83612500Y-27193750D02*
X81928750Y-25510000D01*
X86750000Y-26400000D02*
X87640000Y-25510000D01*
X86750000Y-28350000D02*
X86750000Y-26400000D01*
X105006250Y-27193750D02*
X104250000Y-27193750D01*
X106690000Y-25510000D02*
X105006250Y-27193750D01*
X124056250Y-27193750D02*
X125740000Y-25510000D01*
X123300000Y-27193750D02*
X124056250Y-27193750D01*
X144790000Y-25510000D02*
X143106250Y-27193750D01*
X143106250Y-27193750D02*
X142350000Y-27193750D01*
X161400000Y-27193750D02*
X162156250Y-27193750D01*
X162156250Y-27193750D02*
X163840000Y-25510000D01*
X182890000Y-25510000D02*
X181206250Y-27193750D01*
X181206250Y-27193750D02*
X180450000Y-27193750D01*
X200256250Y-27193750D02*
X199500000Y-27193750D01*
X201940000Y-25510000D02*
X200256250Y-27193750D01*
X219306250Y-27193750D02*
X218550000Y-27193750D01*
X220990000Y-25510000D02*
X219306250Y-27193750D01*
X240040000Y-25510000D02*
X238356250Y-27193750D01*
X238356250Y-27193750D02*
X237600000Y-27193750D01*
X262168750Y-27193750D02*
X263852500Y-25510000D01*
X261412500Y-27193750D02*
X262168750Y-27193750D01*
X287665000Y-25510000D02*
X285981250Y-27193750D01*
X285981250Y-27193750D02*
X285225000Y-27193750D01*
X19793750Y-44560000D02*
X7571250Y-44560000D01*
X19953750Y-44720000D02*
X19793750Y-44560000D01*
X26193750Y-49150000D02*
X23718750Y-49150000D01*
X19953750Y-49640000D02*
X19953750Y-44720000D01*
X23718750Y-49150000D02*
X23228750Y-49640000D01*
X70062500Y-49543750D02*
X69737509Y-49868741D01*
X51631250Y-50900000D02*
X50275000Y-49543750D01*
X69737509Y-49868741D02*
X54624991Y-49868741D01*
X27423750Y-52450000D02*
X26193750Y-52450000D01*
X39300000Y-47800000D02*
X41368741Y-49868741D01*
X70912500Y-49543750D02*
X70062500Y-49543750D01*
X41368741Y-49868741D02*
X49100009Y-49868741D01*
X49100009Y-49868741D02*
X49425000Y-49543750D01*
X49425000Y-49543750D02*
X50275000Y-49543750D01*
X53450000Y-50900000D02*
X51631250Y-50900000D01*
X28943750Y-53970000D02*
X27423750Y-52450000D01*
X53593732Y-50900000D02*
X54624991Y-49868741D01*
X285225000Y-49543750D02*
X70912500Y-49543750D01*
X53450000Y-50900000D02*
X53593732Y-50900000D01*
X70912500Y-49543750D02*
X71762500Y-49543750D01*
X38527500Y-44560000D02*
X49291250Y-44560000D01*
X50275000Y-45543750D02*
X50275000Y-46243750D01*
X49291250Y-44560000D02*
X50275000Y-45543750D01*
X53450000Y-47600000D02*
X53450000Y-46243750D01*
X53450000Y-47600000D02*
X53450000Y-45543750D01*
X53450000Y-45543750D02*
X54433750Y-44560000D01*
X54433750Y-44560000D02*
X57577500Y-44560000D01*
X70912500Y-45543750D02*
X70912500Y-46243750D01*
X71896250Y-44560000D02*
X70912500Y-45543750D01*
X89962500Y-46243750D02*
X90718750Y-46243750D01*
X90718750Y-46243750D02*
X92402500Y-44560000D01*
X109768750Y-46243750D02*
X111452500Y-44560000D01*
X109012500Y-46243750D02*
X109768750Y-46243750D01*
X128818750Y-46243750D02*
X130502500Y-44560000D01*
X128062500Y-46243750D02*
X128818750Y-46243750D01*
X147112500Y-46243750D02*
X147868750Y-46243750D01*
X147868750Y-46243750D02*
X149552500Y-44560000D01*
X166918750Y-46243750D02*
X166162500Y-46243750D01*
X168602500Y-44560000D02*
X166918750Y-46243750D01*
X185968750Y-46243750D02*
X185212500Y-46243750D01*
X187652500Y-44560000D02*
X185968750Y-46243750D01*
X205018750Y-46243750D02*
X204262500Y-46243750D01*
X206702500Y-44560000D02*
X205018750Y-46243750D01*
X225752500Y-44560000D02*
X224068750Y-46243750D01*
X224068750Y-46243750D02*
X223312500Y-46243750D01*
X254268750Y-46243750D02*
X255025000Y-46243750D01*
X255025000Y-46243750D02*
X256708750Y-44560000D01*
X285981250Y-46243750D02*
X287665000Y-44560000D01*
X285225000Y-46243750D02*
X285981250Y-46243750D01*
X27160000Y-63610000D02*
X17096250Y-63610000D01*
X28843750Y-65293750D02*
X27160000Y-63610000D01*
X42337500Y-65293750D02*
X43093750Y-65293750D01*
X43093750Y-65293750D02*
X44777500Y-63610000D01*
X285225000Y-68593750D02*
X28843750Y-68593750D01*
X25593750Y-68593750D02*
X28843750Y-68593750D01*
X25550000Y-68550000D02*
X25593750Y-68593750D01*
X21479757Y-37288615D02*
X20428615Y-37288615D01*
X21949892Y-37758750D02*
X21479757Y-37288615D01*
X25216250Y-37758750D02*
X21949892Y-37758750D01*
X61387500Y-65293750D02*
X62143750Y-65293750D01*
X62143750Y-65293750D02*
X63827500Y-63610000D01*
X81193750Y-65293750D02*
X82877500Y-63610000D01*
X80437500Y-65293750D02*
X81193750Y-65293750D01*
X99487500Y-65293750D02*
X100243750Y-65293750D01*
X100243750Y-65293750D02*
X101927500Y-63610000D01*
X119293750Y-65293750D02*
X120977500Y-63610000D01*
X118537500Y-65293750D02*
X119293750Y-65293750D01*
X138343750Y-65293750D02*
X140027500Y-63610000D01*
X137587500Y-65293750D02*
X138343750Y-65293750D01*
X157393750Y-65293750D02*
X159077500Y-63610000D01*
X156637500Y-65293750D02*
X157393750Y-65293750D01*
X175687500Y-65293750D02*
X176443750Y-65293750D01*
X176443750Y-65293750D02*
X178127500Y-63610000D01*
X194737500Y-65293750D02*
X195493750Y-65293750D01*
X195493750Y-65293750D02*
X197177500Y-63610000D01*
X213787500Y-65293750D02*
X214543750Y-65293750D01*
X214543750Y-65293750D02*
X216227500Y-63610000D01*
X239981250Y-65293750D02*
X240737500Y-65293750D01*
X240737500Y-65293750D02*
X242421250Y-63610000D01*
X266175000Y-65293750D02*
X266931250Y-65293750D01*
X266931250Y-65293750D02*
X268615000Y-63610000D01*
X285981250Y-65293750D02*
X287665000Y-63610000D01*
X285225000Y-65293750D02*
X285981250Y-65293750D01*
X5460000Y-87740000D02*
X17572500Y-87740000D01*
X3858750Y-82660000D02*
X3175000Y-83343750D01*
X21943750Y-80106250D02*
X23018750Y-80106250D01*
X6677500Y-82660000D02*
X3858750Y-82660000D01*
X3175000Y-83343750D02*
X3175000Y-85455000D01*
X20637500Y-81412500D02*
X21943750Y-80106250D01*
X18466250Y-87740000D02*
X20637500Y-85568750D01*
X3175000Y-85455000D02*
X5460000Y-87740000D01*
X20637500Y-85568750D02*
X20637500Y-81412500D01*
X24980000Y-83701250D02*
X24980000Y-86670000D01*
X31383750Y-82660000D02*
X42972500Y-82660000D01*
X30317500Y-82487500D02*
X26193750Y-82487500D01*
X44371875Y-86518750D02*
X43150625Y-87740000D01*
X42972500Y-82660000D02*
X44371875Y-84059375D01*
X30490000Y-82660000D02*
X30317500Y-82487500D01*
X24980000Y-86670000D02*
X26540000Y-88230000D01*
X43150625Y-87740000D02*
X42278750Y-87740000D01*
X44371875Y-84059375D02*
X44371875Y-86518750D01*
X26193750Y-82487500D02*
X24980000Y-83701250D01*
X272097500Y-91661250D02*
X284003750Y-91661250D01*
X235585000Y-91598750D02*
X234579239Y-92604511D01*
X212566250Y-87692500D02*
X191611250Y-87692500D01*
X48418750Y-85787500D02*
X48418750Y-89031250D01*
X74270000Y-87230000D02*
X70980000Y-90520000D01*
X264953750Y-79598808D02*
X259491192Y-74136250D01*
X25216250Y-38258750D02*
X21377615Y-38258750D01*
X23018750Y-85428750D02*
X23018750Y-83406250D01*
X264953750Y-86898750D02*
X264953750Y-79598808D01*
X24060000Y-90530000D02*
X24060000Y-85815000D01*
X234579239Y-92604511D02*
X216747011Y-92604511D01*
X24980000Y-91450000D02*
X24060000Y-90530000D01*
X27538808Y-91450000D02*
X24980000Y-91450000D01*
X28693319Y-92604511D02*
X27538808Y-91450000D01*
X48418750Y-89031250D02*
X44845489Y-92604511D01*
X191611250Y-87692500D02*
X191562500Y-87643750D01*
X180856250Y-87643750D02*
X191562500Y-87643750D01*
X261047500Y-90805000D02*
X260191250Y-91661250D01*
X21377615Y-38258750D02*
X21153115Y-38034250D01*
X87750000Y-90500000D02*
X84480000Y-87230000D01*
X259491192Y-74136250D02*
X235585000Y-74136250D01*
X70980000Y-90520000D02*
X63310000Y-90520000D01*
X119062500Y-88168750D02*
X124393750Y-93500000D01*
X116731250Y-90500000D02*
X87750000Y-90500000D01*
X216747011Y-92604511D02*
X212566250Y-88423750D01*
X235585000Y-74136250D02*
X235585000Y-91598750D01*
X24087500Y-85787500D02*
X24087500Y-84737500D01*
X119062500Y-88168750D02*
X116731250Y-90500000D01*
X63310000Y-90520000D02*
X60420000Y-87630000D01*
X23377500Y-85787500D02*
X23018750Y-85428750D01*
X260191250Y-91661250D02*
X264953750Y-86898750D01*
X60420000Y-87630000D02*
X50261250Y-87630000D01*
X124393750Y-93500000D02*
X175000000Y-93500000D01*
X50261250Y-87630000D02*
X48418750Y-85787500D01*
X84480000Y-87230000D02*
X74270000Y-87230000D01*
X271241250Y-90805000D02*
X261047500Y-90805000D01*
X212566250Y-88423750D02*
X212566250Y-87692500D01*
X44845489Y-92604511D02*
X28693319Y-92604511D01*
X175000000Y-93500000D02*
X180856250Y-87643750D01*
X272097500Y-91661250D02*
X271241250Y-90805000D01*
X24060000Y-85815000D02*
X24087500Y-85787500D01*
X24087500Y-85787500D02*
X23377500Y-85787500D01*
X55196250Y-82660000D02*
X66785000Y-82660000D01*
X50972500Y-82660000D02*
X50800000Y-82487500D01*
X54302500Y-82660000D02*
X50972500Y-82660000D01*
X55196250Y-82660000D02*
X48591250Y-82660000D01*
X48591250Y-82660000D02*
X48418750Y-82487500D01*
X68262500Y-84137500D02*
X68262500Y-85568750D01*
X66785000Y-82660000D02*
X68262500Y-84137500D01*
X68262500Y-85568750D02*
X66091250Y-87740000D01*
X149435000Y-84347500D02*
X147747500Y-82660000D01*
X119062500Y-84868750D02*
X119062500Y-84137500D01*
X149435000Y-87740000D02*
X149435000Y-84347500D01*
X120540000Y-82660000D02*
X123358750Y-82660000D01*
X119062500Y-84137500D02*
X120540000Y-82660000D01*
X147747500Y-82660000D02*
X123358750Y-82660000D01*
X193112500Y-84343750D02*
X194796250Y-82660000D01*
X191562500Y-84343750D02*
X193112500Y-84343750D01*
X232778750Y-83661250D02*
X231777500Y-82660000D01*
X214495000Y-84392500D02*
X216227500Y-82660000D01*
X232778750Y-83661250D02*
X232778750Y-87740000D01*
X212566250Y-84392500D02*
X214495000Y-84392500D01*
X231777500Y-82660000D02*
X219502500Y-82660000D01*
X260191250Y-88361250D02*
X255712823Y-88361250D01*
X252840000Y-85488427D02*
X252840000Y-82660000D01*
X255712823Y-88361250D02*
X252840000Y-85488427D01*
X272097500Y-82867500D02*
X271890000Y-82660000D01*
X272097500Y-88361250D02*
X272097500Y-82867500D01*
X284003750Y-88361250D02*
X284003750Y-86321250D01*
X284003750Y-86321250D02*
X287665000Y-82660000D01*
D35*
X40220000Y-15080000D02*
X38603750Y-15080000D01*
X26110000Y-17120000D02*
X27438750Y-17120000D01*
X41628240Y-16488240D02*
X40220000Y-15080000D01*
X29478750Y-15080000D02*
X30653750Y-15080000D01*
X30653750Y-15080000D02*
X38603750Y-15080000D01*
X64050000Y-16003750D02*
X63175000Y-16003750D01*
X38223750Y-15460000D02*
X38303750Y-15380000D01*
X63175000Y-16003750D02*
X62690510Y-16488240D01*
X38223750Y-16403750D02*
X38223750Y-15460000D01*
X62690510Y-16488240D02*
X41628240Y-16488240D01*
X38303750Y-15380000D02*
X38603750Y-15080000D01*
X27438750Y-17120000D02*
X29478750Y-15080000D01*
D36*
X41540001Y-17728750D02*
X40665001Y-18603750D01*
X33277500Y-18753750D02*
X34302500Y-17728750D01*
X38852500Y-17728750D02*
X39173750Y-18050000D01*
X39173750Y-18050000D02*
X39173750Y-18603750D01*
X64050000Y-18003750D02*
X63175000Y-18003750D01*
X40665001Y-18603750D02*
X39173750Y-18603750D01*
X63175000Y-18003750D02*
X62900000Y-17728750D01*
X62900000Y-17728750D02*
X41540001Y-17728750D01*
X34302500Y-17728750D02*
X38852500Y-17728750D01*
X63175000Y-17003750D02*
X62900000Y-17278750D01*
X41540001Y-17278750D02*
X40665001Y-16403750D01*
X33277500Y-16253750D02*
X34302500Y-17278750D01*
X64050000Y-17003750D02*
X63175000Y-17003750D01*
X34302500Y-17278750D02*
X38805000Y-17278750D01*
X38805000Y-17278750D02*
X39173750Y-16910000D01*
X40665001Y-16403750D02*
X39173750Y-16403750D01*
X39173750Y-16910000D02*
X39173750Y-16403750D01*
X62900000Y-17278750D02*
X41540001Y-17278750D01*
D34*
X6537501Y-14380000D02*
X6620000Y-14380000D01*
X32753270Y-35488632D02*
X32753270Y-33218166D01*
X31891250Y-35758750D02*
X32483152Y-35758750D01*
X32753270Y-33218166D02*
X33721916Y-32249520D01*
X52093750Y-33585000D02*
X58393750Y-33585000D01*
X13553750Y-12280000D02*
X40813748Y-12280000D01*
X11453750Y-14380000D02*
X13553750Y-12280000D01*
X35366198Y-32249520D02*
X36747777Y-30867941D01*
X52093750Y-33585000D02*
X49712500Y-33585000D01*
X49710000Y-33582500D02*
X49710000Y-32745460D01*
X5230000Y-14380000D02*
X2535000Y-17075000D01*
X6620000Y-14380000D02*
X11453750Y-14380000D01*
X38742231Y-30867941D02*
X39861131Y-29749041D01*
X40813748Y-12280000D02*
X42553750Y-14020002D01*
X6620000Y-14380000D02*
X5230000Y-14380000D01*
X36747777Y-30867941D02*
X38742231Y-30867941D01*
X33721916Y-32249520D02*
X35366198Y-32249520D01*
X32483152Y-35758750D02*
X32753270Y-35488632D01*
X49712500Y-33585000D02*
X49710000Y-33582500D01*
X46713581Y-29749041D02*
X49249145Y-32284605D01*
X39861131Y-29749041D02*
X46713581Y-29749041D01*
X49249145Y-32284605D02*
X49710000Y-32745460D01*
X33475734Y-29774500D02*
X33475734Y-30588548D01*
X30553750Y-33510532D02*
X30553750Y-34421250D01*
X23869998Y-13180000D02*
X24710000Y-14020002D01*
X5075000Y-19615000D02*
X7543750Y-19615000D01*
X13978750Y-13180000D02*
X23869998Y-13180000D01*
X33475734Y-30588548D02*
X30553750Y-33510532D01*
X7543750Y-19615000D02*
X13978750Y-13180000D01*
X32450000Y-30978564D02*
X30053750Y-33374814D01*
X32450000Y-30550000D02*
X32450000Y-30978564D01*
X14155992Y-13680000D02*
X23119998Y-13680000D01*
X7035992Y-20800000D02*
X14155992Y-13680000D01*
X30021250Y-34421250D02*
X30053750Y-34421250D01*
X2535000Y-19615000D02*
X3720000Y-20800000D01*
X30053750Y-33374814D02*
X30053750Y-34421250D01*
X30003270Y-34403270D02*
X30021250Y-34421250D01*
X23119998Y-13680000D02*
X23460000Y-14020002D01*
X3720000Y-20800000D02*
X7035992Y-20800000D01*
X34175489Y-29962234D02*
X34175489Y-30524511D01*
X1100000Y-20720000D02*
X1100000Y-19100000D01*
X1900000Y-18300000D02*
X8223032Y-18300000D01*
X34175489Y-30524511D02*
X31053750Y-33646250D01*
X35087723Y-29050000D02*
X34175489Y-29962234D01*
X13778750Y-12730000D02*
X24669998Y-12730000D01*
X31053750Y-33646250D02*
X31053750Y-34421250D01*
X2535000Y-22155000D02*
X1100000Y-20720000D01*
X8223032Y-18300000D02*
X9423032Y-17100000D01*
X24669998Y-12730000D02*
X25960000Y-14020002D01*
X35200000Y-29050000D02*
X35087723Y-29050000D01*
X1100000Y-19100000D02*
X1900000Y-18300000D01*
X9508750Y-17000000D02*
X13778750Y-12730000D01*
X31494989Y-31297857D02*
X31494989Y-29894989D01*
X28350000Y-26750000D02*
X28350000Y-24050000D01*
X31494989Y-29894989D02*
X28350000Y-26750000D01*
X29553750Y-33239096D02*
X31494989Y-31297857D01*
X29430000Y-22970000D02*
X40115000Y-22970000D01*
X28350000Y-24050000D02*
X29430000Y-22970000D01*
X29553750Y-34421250D02*
X29553750Y-33239096D01*
X33944842Y-54755158D02*
X37789684Y-58600000D01*
X51932500Y-58600000D02*
X54402500Y-61070000D01*
X37789684Y-58600000D02*
X51932500Y-58600000D01*
X22874500Y-37258750D02*
X25216250Y-37258750D01*
X22650000Y-37034250D02*
X22874500Y-37258750D01*
X70532980Y-58150480D02*
X73452500Y-61070000D01*
X38364762Y-58150480D02*
X70532980Y-58150480D01*
X26553750Y-41096250D02*
X26553750Y-46339468D01*
X26553750Y-46339468D02*
X38364762Y-58150480D01*
X38550960Y-57700960D02*
X89133460Y-57700960D01*
X89133460Y-57700960D02*
X92502500Y-61070000D01*
X27053750Y-46203750D02*
X38550960Y-57700960D01*
X27053750Y-41096250D02*
X27053750Y-46203750D01*
X27553750Y-41096250D02*
X27553750Y-46068032D01*
X38737158Y-57251440D02*
X107733940Y-57251440D01*
X107733940Y-57251440D02*
X111552500Y-61070000D01*
X27553750Y-46068032D02*
X38737158Y-57251440D01*
X28053750Y-45932314D02*
X38923356Y-56801920D01*
X38923356Y-56801920D02*
X126334420Y-56801920D01*
X126334420Y-56801920D02*
X130602500Y-61070000D01*
X28053750Y-41096250D02*
X28053750Y-45932314D01*
X28553750Y-41096250D02*
X28553750Y-45796596D01*
X144934900Y-56352400D02*
X149652500Y-61070000D01*
X39109554Y-56352400D02*
X144934900Y-56352400D01*
X28553750Y-45796596D02*
X39109554Y-56352400D01*
X29053750Y-41096250D02*
X29053750Y-45660878D01*
X29053750Y-45660878D02*
X39295752Y-55902880D01*
X163535380Y-55902880D02*
X168702500Y-61070000D01*
X39295752Y-55902880D02*
X163535380Y-55902880D01*
X29553750Y-41096250D02*
X29553750Y-45525160D01*
X39481950Y-55453360D02*
X182135860Y-55453360D01*
X29553750Y-45525160D02*
X39481950Y-55453360D01*
X182135860Y-55453360D02*
X187752500Y-61070000D01*
X39668148Y-55003840D02*
X200736340Y-55003840D01*
X30053750Y-41096250D02*
X30053750Y-45389442D01*
X30053750Y-45389442D02*
X39668148Y-55003840D01*
X200736340Y-55003840D02*
X206802500Y-61070000D01*
X39854346Y-54554320D02*
X219336820Y-54554320D01*
X33050000Y-41417500D02*
X33050000Y-47749974D01*
X31891250Y-40258750D02*
X33050000Y-41417500D01*
X33050000Y-47749974D02*
X39854346Y-54554320D01*
X219336820Y-54554320D02*
X225852500Y-61070000D01*
X32483152Y-39758750D02*
X33499520Y-40775118D01*
X31891250Y-39758750D02*
X32483152Y-39758750D01*
X33499520Y-47563776D02*
X40040544Y-54104800D01*
X245081050Y-54104800D02*
X252046250Y-61070000D01*
X33499520Y-40775118D02*
X33499520Y-47563776D01*
X40040544Y-54104800D02*
X245081050Y-54104800D01*
X270019520Y-52849520D02*
X278240000Y-61070000D01*
X34405171Y-47833709D02*
X40226742Y-53655280D01*
X250471915Y-52849520D02*
X270019520Y-52849520D01*
X34224020Y-42656576D02*
X34224020Y-40863900D01*
X34405171Y-47444829D02*
X34405171Y-47833709D01*
X40226742Y-53655280D02*
X249666155Y-53655280D01*
X249666155Y-53655280D02*
X250471915Y-52849520D01*
X34224020Y-40863900D02*
X32618870Y-39258750D01*
X32618870Y-39258750D02*
X31891250Y-39258750D01*
X249479957Y-53205760D02*
X40412940Y-53205760D01*
X279000000Y-52400000D02*
X250285717Y-52400000D01*
X250285717Y-52400000D02*
X249479957Y-53205760D01*
X32754588Y-38758750D02*
X31891250Y-38758750D01*
X279650000Y-53050000D02*
X279000000Y-52400000D01*
X40412940Y-53205760D02*
X35480103Y-48272923D01*
X35206034Y-42470422D02*
X35206034Y-41210196D01*
X35480103Y-48272923D02*
X35480103Y-47701331D01*
X35206034Y-41210196D02*
X32754588Y-38758750D01*
X41306240Y-52756240D02*
X249293760Y-52756240D01*
X32890306Y-38258750D02*
X31891250Y-38258750D01*
X36239800Y-42335884D02*
X36239800Y-41608244D01*
X249293760Y-52756240D02*
X250099520Y-51950480D01*
X36239800Y-41608244D02*
X32890306Y-38258750D01*
X250099520Y-51950480D02*
X288170480Y-51950480D01*
X288170480Y-51950480D02*
X297290000Y-61070000D01*
X37050000Y-48500000D02*
X41306240Y-52756240D01*
X24850000Y-42412500D02*
X24850000Y-42300000D01*
X24850000Y-42300000D02*
X26053750Y-41096250D01*
X28553750Y-34421250D02*
X28553750Y-31994478D01*
X28553750Y-31994478D02*
X29524520Y-31023708D01*
X29524520Y-29687020D02*
X28500000Y-28662500D01*
X29524520Y-31023708D02*
X29524520Y-29687020D01*
D35*
X12604391Y-15960641D02*
X12804524Y-15760509D01*
X14360032Y-14205000D02*
X12604391Y-15960641D01*
X48410000Y-34957500D02*
X48910000Y-35457500D01*
D34*
X32618869Y-36258750D02*
X33202790Y-35674829D01*
D35*
X20203750Y-14205000D02*
X14360032Y-14205000D01*
X7757532Y-20807501D02*
X8332516Y-20232516D01*
X37720180Y-31870180D02*
X38207399Y-31382961D01*
D34*
X22137020Y-41574520D02*
X21112500Y-40550000D01*
D35*
X31844453Y-45081953D02*
X31700000Y-44937500D01*
X38207399Y-31382961D02*
X38955559Y-31382961D01*
D34*
X30553750Y-43791250D02*
X31700000Y-44937500D01*
D35*
X6410032Y-22155000D02*
X8332516Y-20232516D01*
D34*
X21112500Y-41887500D02*
X21050000Y-41950000D01*
D35*
X48910000Y-35457500D02*
X49710000Y-35457500D01*
X48409999Y-32569999D02*
X48410000Y-34957500D01*
D34*
X26050000Y-33100000D02*
X26553750Y-33603750D01*
D35*
X40074459Y-30264061D02*
X46104061Y-30264061D01*
D34*
X33202790Y-34147210D02*
X34037500Y-33312500D01*
D35*
X5075000Y-22155000D02*
X6410032Y-22155000D01*
X20572181Y-14205000D02*
X20203750Y-14205000D01*
X8332516Y-20232516D02*
X12604391Y-15960641D01*
X24061250Y-27950000D02*
X24061250Y-28750000D01*
X37720180Y-31870180D02*
X37423930Y-31870180D01*
D34*
X23350000Y-33392500D02*
X23350000Y-33250000D01*
D35*
X23310000Y-15886250D02*
X21628750Y-14205000D01*
X46104061Y-30264061D02*
X48409999Y-32569999D01*
X25353750Y-32403750D02*
X25353750Y-29455000D01*
X26050000Y-33100000D02*
X25353750Y-32403750D01*
X23310000Y-27198750D02*
X24061250Y-27950000D01*
X23310000Y-17120000D02*
X23310000Y-15886250D01*
D34*
X33202790Y-35674829D02*
X33202790Y-34147210D01*
X26553750Y-33603750D02*
X26553750Y-34421250D01*
D35*
X37423930Y-31870180D02*
X35981610Y-33312500D01*
D34*
X23900480Y-41574520D02*
X22137020Y-41574520D01*
X25216250Y-40258750D02*
X23900480Y-41574520D01*
D35*
X25353750Y-29455000D02*
X24648750Y-28750000D01*
D34*
X30553750Y-41096250D02*
X30553750Y-43791250D01*
D35*
X21628750Y-14205000D02*
X20203750Y-14205000D01*
X38955559Y-31382961D02*
X40074459Y-30264061D01*
D34*
X34037500Y-33312500D02*
X35150000Y-33312500D01*
X29053750Y-32519076D02*
X29053750Y-34421250D01*
X25216250Y-35258750D02*
X23350000Y-33392500D01*
D35*
X23310000Y-17120000D02*
X23310000Y-27198750D01*
X24648750Y-28750000D02*
X24061250Y-28750000D01*
D34*
X31891250Y-36258750D02*
X32618869Y-36258750D01*
X21112500Y-40550000D02*
X21112500Y-41887500D01*
X35150000Y-33312500D02*
X35981610Y-33312500D01*
X29561413Y-32011413D02*
X29053750Y-32519076D01*
D35*
X31844453Y-46155547D02*
X31844453Y-45081953D01*
D36*
X31402500Y-18753750D02*
X30377501Y-17728751D01*
X28889449Y-17728751D02*
X27528751Y-19089449D01*
X27528751Y-19089449D02*
X27528751Y-34396251D01*
X27528751Y-34396251D02*
X27553750Y-34421250D01*
X30377501Y-17728751D02*
X28889449Y-17728751D01*
X31402500Y-16253750D02*
X30377501Y-17278749D01*
X27078749Y-18903051D02*
X27078749Y-34396251D01*
X27078749Y-34396251D02*
X27053750Y-34421250D01*
X28703051Y-17278749D02*
X27078749Y-18903051D01*
X30377501Y-17278749D02*
X28703051Y-17278749D01*
G04 #@! TA.AperFunction,Conductor*
G36*
X31895262Y-41159121D02*
G01*
X31901841Y-41165245D01*
X32161801Y-41425206D01*
X32379596Y-41643001D01*
X32413621Y-41705313D01*
X32416500Y-41732096D01*
X32416500Y-41948977D01*
X32396498Y-42017098D01*
X32342842Y-42063591D01*
X32277658Y-42074321D01*
X32209402Y-42067328D01*
X32202984Y-42067000D01*
X31972115Y-42067000D01*
X31956876Y-42071475D01*
X31955671Y-42072865D01*
X31954000Y-42080548D01*
X31954000Y-42320000D01*
X31446000Y-42320000D01*
X31446000Y-42099461D01*
X31466002Y-42031340D01*
X31495297Y-41999498D01*
X31516582Y-41983166D01*
X31528164Y-41971583D01*
X31609552Y-41865515D01*
X31617742Y-41851329D01*
X31668906Y-41727809D01*
X31673144Y-41711992D01*
X31686212Y-41612731D01*
X31686750Y-41604522D01*
X31686750Y-41254345D01*
X31706752Y-41186224D01*
X31760408Y-41139731D01*
X31830682Y-41129627D01*
X31895262Y-41159121D01*
G37*
G04 #@! TD.AperFunction*
G04 #@! TA.AperFunction,Conductor*
G36*
X45935667Y-30729063D02*
G01*
X45956641Y-30745966D01*
X47765111Y-32554436D01*
X47799137Y-32616748D01*
X47799410Y-32669023D01*
X47520311Y-34019983D01*
X47260000Y-35280000D01*
X47260156Y-35287113D01*
X47260156Y-35287116D01*
X47318902Y-37960058D01*
X47360151Y-39836843D01*
X47364033Y-40013490D01*
X47345532Y-40082034D01*
X47292911Y-40129695D01*
X47218266Y-40140694D01*
X45604124Y-39883898D01*
X45583420Y-39878776D01*
X45466166Y-39838974D01*
X45466163Y-39838973D01*
X45462259Y-39837648D01*
X45458220Y-39836845D01*
X45458214Y-39836843D01*
X45176446Y-39780796D01*
X45176443Y-39780796D01*
X45172403Y-39779992D01*
X45168292Y-39779723D01*
X45168288Y-39779722D01*
X44881619Y-39760933D01*
X44877500Y-39760663D01*
X44873381Y-39760933D01*
X44586712Y-39779722D01*
X44586708Y-39779723D01*
X44582597Y-39779992D01*
X44578557Y-39780796D01*
X44578554Y-39780796D01*
X44296786Y-39836843D01*
X44296780Y-39836845D01*
X44292741Y-39837648D01*
X44288837Y-39838973D01*
X44288834Y-39838974D01*
X44016795Y-39931319D01*
X44012889Y-39932645D01*
X43887643Y-39994410D01*
X43751536Y-40061530D01*
X43751531Y-40061533D01*
X43747832Y-40063357D01*
X43502103Y-40227547D01*
X43279907Y-40422407D01*
X43085047Y-40644603D01*
X42920857Y-40890332D01*
X42919033Y-40894031D01*
X42919030Y-40894036D01*
X42851910Y-41030143D01*
X42790145Y-41155389D01*
X42788820Y-41159294D01*
X42788819Y-41159295D01*
X42711520Y-41387012D01*
X42695148Y-41435241D01*
X42694345Y-41439280D01*
X42694343Y-41439286D01*
X42652677Y-41648755D01*
X42637492Y-41725097D01*
X42618163Y-42020000D01*
X42618433Y-42024119D01*
X42636559Y-42300663D01*
X42637492Y-42314903D01*
X42638296Y-42318943D01*
X42638296Y-42318946D01*
X42669232Y-42474469D01*
X42695148Y-42604759D01*
X42790145Y-42884611D01*
X42920857Y-43149668D01*
X42923151Y-43153101D01*
X43054182Y-43349204D01*
X43075397Y-43416957D01*
X43056614Y-43485424D01*
X43003796Y-43532867D01*
X42951528Y-43545188D01*
X40640346Y-43583903D01*
X40571900Y-43565045D01*
X40525231Y-43513650D01*
X40484143Y-43430332D01*
X40319953Y-43184603D01*
X40125093Y-42962407D01*
X39902897Y-42767547D01*
X39657169Y-42603357D01*
X39653470Y-42601533D01*
X39653465Y-42601530D01*
X39445509Y-42498978D01*
X39392111Y-42472645D01*
X39388205Y-42471319D01*
X39116166Y-42378974D01*
X39116163Y-42378973D01*
X39112259Y-42377648D01*
X39108220Y-42376845D01*
X39108214Y-42376843D01*
X38826446Y-42320796D01*
X38826443Y-42320796D01*
X38822403Y-42319992D01*
X38818292Y-42319723D01*
X38818288Y-42319722D01*
X38531619Y-42300933D01*
X38527500Y-42300663D01*
X38523381Y-42300933D01*
X38236712Y-42319722D01*
X38236708Y-42319723D01*
X38232597Y-42319992D01*
X38228557Y-42320796D01*
X38228554Y-42320796D01*
X37946786Y-42376843D01*
X37946780Y-42376845D01*
X37942741Y-42377648D01*
X37938837Y-42378973D01*
X37938834Y-42378974D01*
X37777653Y-42433687D01*
X37756949Y-42438809D01*
X37544268Y-42472645D01*
X37034701Y-42553713D01*
X36964284Y-42544662D01*
X36909939Y-42498978D01*
X36888919Y-42431164D01*
X36890162Y-42411525D01*
X36898381Y-42353775D01*
X36898381Y-42353772D01*
X36898962Y-42349691D01*
X36899107Y-42335884D01*
X36880076Y-42178617D01*
X36824080Y-42030430D01*
X36808395Y-42007608D01*
X36738655Y-41906135D01*
X36738654Y-41906133D01*
X36734353Y-41899876D01*
X36661481Y-41834949D01*
X36623926Y-41774700D01*
X36619300Y-41740873D01*
X36619300Y-41662164D01*
X36621849Y-41638216D01*
X36621928Y-41636551D01*
X36624120Y-41626368D01*
X36620173Y-41593021D01*
X36619823Y-41587090D01*
X36619728Y-41587098D01*
X36619300Y-41581920D01*
X36619300Y-41576720D01*
X36618446Y-41571588D01*
X36616131Y-41557679D01*
X36615294Y-41551801D01*
X36610494Y-41511243D01*
X36610494Y-41511242D01*
X36609270Y-41500903D01*
X36605307Y-41492651D01*
X36603804Y-41483618D01*
X36579465Y-41438510D01*
X36576769Y-41433219D01*
X36558015Y-41394162D01*
X36558012Y-41394158D01*
X36554581Y-41387012D01*
X36550986Y-41382736D01*
X36549063Y-41380813D01*
X36547291Y-41378881D01*
X36547248Y-41378802D01*
X36547372Y-41378689D01*
X36546896Y-41378149D01*
X36543810Y-41372430D01*
X36504213Y-41335827D01*
X36500648Y-41332398D01*
X33559403Y-38391153D01*
X33525377Y-38328841D01*
X33522527Y-38299339D01*
X33523343Y-38261531D01*
X33544811Y-38193858D01*
X33599457Y-38148534D01*
X33649314Y-38138250D01*
X40911866Y-38138250D01*
X40979987Y-38158252D01*
X41000961Y-38175155D01*
X41043595Y-38217789D01*
X41077621Y-38280101D01*
X41080500Y-38306884D01*
X41080501Y-38650500D01*
X41080501Y-38963414D01*
X41080870Y-38966808D01*
X41080870Y-38966814D01*
X41086254Y-39016376D01*
X41087119Y-39024342D01*
X41089894Y-39031744D01*
X41089894Y-39031745D01*
X41133975Y-39149335D01*
X41137217Y-39157982D01*
X41222811Y-39272189D01*
X41337018Y-39357783D01*
X41345426Y-39360935D01*
X41463260Y-39405108D01*
X41463262Y-39405109D01*
X41470658Y-39407881D01*
X41511592Y-39412328D01*
X41526983Y-39414000D01*
X41531585Y-39414500D01*
X41822457Y-39414500D01*
X42113414Y-39414499D01*
X42116808Y-39414130D01*
X42116814Y-39414130D01*
X42166483Y-39408735D01*
X42166486Y-39408734D01*
X42174342Y-39407881D01*
X42183055Y-39404615D01*
X42299574Y-39360935D01*
X42307982Y-39357783D01*
X42422189Y-39272189D01*
X42507783Y-39157982D01*
X42511025Y-39149335D01*
X42555108Y-39031740D01*
X42555109Y-39031738D01*
X42557881Y-39024342D01*
X42564500Y-38963415D01*
X42564500Y-38959942D01*
X42956001Y-38959942D01*
X42956370Y-38966760D01*
X42961759Y-39016376D01*
X42965388Y-39031635D01*
X43009511Y-39149335D01*
X43018043Y-39164920D01*
X43092787Y-39264650D01*
X43105350Y-39277213D01*
X43205080Y-39351957D01*
X43220665Y-39360489D01*
X43338371Y-39404615D01*
X43353617Y-39408240D01*
X43403242Y-39413631D01*
X43410056Y-39414000D01*
X43488885Y-39414000D01*
X43504124Y-39409525D01*
X43505329Y-39408135D01*
X43507000Y-39400452D01*
X43507000Y-39395884D01*
X43888000Y-39395884D01*
X43892475Y-39411123D01*
X43893865Y-39412328D01*
X43901548Y-39413999D01*
X43984942Y-39413999D01*
X43991760Y-39413630D01*
X44041376Y-39408241D01*
X44056635Y-39404612D01*
X44174335Y-39360489D01*
X44189920Y-39351957D01*
X44289650Y-39277213D01*
X44302213Y-39264650D01*
X44376957Y-39164920D01*
X44385489Y-39149335D01*
X44429615Y-39031629D01*
X44433240Y-39016383D01*
X44438631Y-38966758D01*
X44439000Y-38959944D01*
X44439000Y-38668615D01*
X44434525Y-38653376D01*
X44433135Y-38652171D01*
X44425452Y-38650500D01*
X43906115Y-38650500D01*
X43890876Y-38654975D01*
X43889671Y-38656365D01*
X43888000Y-38664048D01*
X43888000Y-39395884D01*
X43507000Y-39395884D01*
X43507000Y-38668615D01*
X43502525Y-38653376D01*
X43501135Y-38652171D01*
X43493452Y-38650500D01*
X42974116Y-38650500D01*
X42958877Y-38654975D01*
X42957672Y-38656365D01*
X42956001Y-38664048D01*
X42956001Y-38959942D01*
X42564500Y-38959942D01*
X42564500Y-38678229D01*
X42584502Y-38610108D01*
X42601405Y-38589134D01*
X42884134Y-38306405D01*
X42946446Y-38272379D01*
X42973229Y-38269500D01*
X44420884Y-38269500D01*
X44436123Y-38265025D01*
X44437328Y-38263635D01*
X44438999Y-38255952D01*
X44438999Y-37960058D01*
X44438630Y-37953240D01*
X44433241Y-37903624D01*
X44429612Y-37888365D01*
X44385489Y-37770665D01*
X44376957Y-37755080D01*
X44302213Y-37655350D01*
X44289653Y-37642790D01*
X44220984Y-37591325D01*
X44178470Y-37534465D01*
X44173445Y-37463647D01*
X44207505Y-37401354D01*
X44269836Y-37367363D01*
X44296546Y-37364499D01*
X44585066Y-37364499D01*
X44620818Y-37357388D01*
X44647126Y-37352156D01*
X44647128Y-37352155D01*
X44659301Y-37349734D01*
X44669621Y-37342839D01*
X44669622Y-37342838D01*
X44733168Y-37300377D01*
X44743484Y-37293484D01*
X44799734Y-37209301D01*
X44814500Y-37135067D01*
X44814499Y-35884934D01*
X44806376Y-35844095D01*
X44802156Y-35822874D01*
X44802155Y-35822872D01*
X44799734Y-35810699D01*
X44745512Y-35729551D01*
X44724298Y-35661801D01*
X44745513Y-35589549D01*
X44792368Y-35519426D01*
X44801684Y-35496934D01*
X44812793Y-35441085D01*
X44814000Y-35428830D01*
X44814000Y-35018615D01*
X44809525Y-35003376D01*
X44808135Y-35002171D01*
X44800452Y-35000500D01*
X42924116Y-35000500D01*
X42908877Y-35004975D01*
X42907672Y-35006365D01*
X42906001Y-35014048D01*
X42906001Y-35428828D01*
X42907209Y-35441088D01*
X42918315Y-35496931D01*
X42927633Y-35519427D01*
X42974487Y-35589549D01*
X42995702Y-35657302D01*
X42974488Y-35729551D01*
X42920266Y-35810699D01*
X42905500Y-35884933D01*
X42905501Y-37135066D01*
X42906708Y-37141133D01*
X42907081Y-37144924D01*
X42893852Y-37214677D01*
X42870783Y-37246368D01*
X42816299Y-37300852D01*
X42753987Y-37334878D01*
X42683172Y-37329813D01*
X42626336Y-37287266D01*
X42601525Y-37220746D01*
X42603625Y-37187176D01*
X42612793Y-37141085D01*
X42614000Y-37128830D01*
X42614000Y-36718615D01*
X42609525Y-36703376D01*
X42608135Y-36702171D01*
X42600452Y-36700500D01*
X40724116Y-36700500D01*
X40708877Y-36704975D01*
X40707672Y-36706365D01*
X40706001Y-36714048D01*
X40706001Y-37128828D01*
X40707209Y-37141088D01*
X40718315Y-37196931D01*
X40721671Y-37205032D01*
X40729260Y-37275622D01*
X40697480Y-37339109D01*
X40636422Y-37375336D01*
X40605262Y-37379250D01*
X38144134Y-37379250D01*
X38076013Y-37359248D01*
X38029520Y-37305592D01*
X38019416Y-37235318D01*
X38048910Y-37170738D01*
X38055039Y-37164155D01*
X40490405Y-34728789D01*
X40552717Y-34694763D01*
X40623532Y-34699828D01*
X40680368Y-34742375D01*
X40705179Y-34808895D01*
X40705500Y-34817884D01*
X40705501Y-35156432D01*
X40705501Y-35435066D01*
X40712612Y-35470818D01*
X40717806Y-35496931D01*
X40720266Y-35509301D01*
X40774488Y-35590449D01*
X40795702Y-35658199D01*
X40774487Y-35730451D01*
X40727632Y-35800574D01*
X40718316Y-35823066D01*
X40707207Y-35878915D01*
X40706000Y-35891170D01*
X40706000Y-36301385D01*
X40710475Y-36316624D01*
X40711865Y-36317829D01*
X40719548Y-36319500D01*
X42595884Y-36319500D01*
X42611123Y-36315025D01*
X42612328Y-36313635D01*
X42613999Y-36305952D01*
X42613999Y-35891172D01*
X42612791Y-35878912D01*
X42601685Y-35823069D01*
X42592367Y-35800573D01*
X42545513Y-35730451D01*
X42524298Y-35662698D01*
X42545512Y-35590449D01*
X42599734Y-35509301D01*
X42614500Y-35435067D01*
X42614499Y-34601385D01*
X42906000Y-34601385D01*
X42910475Y-34616624D01*
X42911865Y-34617829D01*
X42919548Y-34619500D01*
X44795884Y-34619500D01*
X44811123Y-34615025D01*
X44812328Y-34613635D01*
X44813999Y-34605952D01*
X44813999Y-34191172D01*
X44812791Y-34178912D01*
X44801685Y-34123069D01*
X44792367Y-34100573D01*
X44750017Y-34037192D01*
X44732808Y-34019983D01*
X44669425Y-33977632D01*
X44646934Y-33968316D01*
X44591085Y-33957207D01*
X44578830Y-33956000D01*
X44295884Y-33956000D01*
X44227763Y-33935998D01*
X44181270Y-33882342D01*
X44171166Y-33812068D01*
X44200660Y-33747488D01*
X44220319Y-33729174D01*
X44289650Y-33677213D01*
X44302213Y-33664650D01*
X44376957Y-33564920D01*
X44385489Y-33549335D01*
X44429615Y-33431629D01*
X44433240Y-33416383D01*
X44438631Y-33366758D01*
X44439000Y-33359944D01*
X44439000Y-33068615D01*
X44434525Y-33053376D01*
X44433135Y-33052171D01*
X44425452Y-33050500D01*
X42974116Y-33050500D01*
X42958877Y-33054975D01*
X42957672Y-33056365D01*
X42956001Y-33064048D01*
X42956001Y-33359942D01*
X42956370Y-33366760D01*
X42961759Y-33416376D01*
X42965388Y-33431635D01*
X43009511Y-33549335D01*
X43018043Y-33564920D01*
X43092787Y-33664650D01*
X43105350Y-33677213D01*
X43179602Y-33732862D01*
X43222117Y-33789721D01*
X43227143Y-33860540D01*
X43193083Y-33922833D01*
X43128617Y-33957267D01*
X43073069Y-33968316D01*
X43050573Y-33977633D01*
X42987192Y-34019983D01*
X42969983Y-34037192D01*
X42927632Y-34100575D01*
X42918316Y-34123066D01*
X42907207Y-34178915D01*
X42906000Y-34191170D01*
X42906000Y-34601385D01*
X42614499Y-34601385D01*
X42614499Y-34184934D01*
X42607388Y-34149182D01*
X42602156Y-34122874D01*
X42602155Y-34122872D01*
X42599734Y-34110699D01*
X42543484Y-34026516D01*
X42459301Y-33970266D01*
X42392580Y-33956994D01*
X42329672Y-33924088D01*
X42294539Y-33862393D01*
X42298339Y-33791498D01*
X42341595Y-33732591D01*
X42422189Y-33672189D01*
X42469872Y-33608566D01*
X42502399Y-33565166D01*
X42502399Y-33565165D01*
X42507783Y-33557982D01*
X42511025Y-33549335D01*
X42555108Y-33431740D01*
X42555109Y-33431738D01*
X42557881Y-33424342D01*
X42564500Y-33363415D01*
X42564499Y-32651385D01*
X42956000Y-32651385D01*
X42960475Y-32666624D01*
X42961865Y-32667829D01*
X42969548Y-32669500D01*
X43488885Y-32669500D01*
X43504124Y-32665025D01*
X43505329Y-32663635D01*
X43507000Y-32655952D01*
X43507000Y-32651385D01*
X43888000Y-32651385D01*
X43892475Y-32666624D01*
X43893865Y-32667829D01*
X43901548Y-32669500D01*
X44420884Y-32669500D01*
X44436123Y-32665025D01*
X44437328Y-32663635D01*
X44438999Y-32655952D01*
X44438999Y-32360058D01*
X44438630Y-32353240D01*
X44433241Y-32303624D01*
X44429612Y-32288365D01*
X44385489Y-32170665D01*
X44376957Y-32155080D01*
X44302213Y-32055350D01*
X44289650Y-32042787D01*
X44189920Y-31968043D01*
X44174335Y-31959511D01*
X44056629Y-31915385D01*
X44041383Y-31911760D01*
X43991758Y-31906369D01*
X43984944Y-31906000D01*
X43906115Y-31906000D01*
X43890876Y-31910475D01*
X43889671Y-31911865D01*
X43888000Y-31919548D01*
X43888000Y-32651385D01*
X43507000Y-32651385D01*
X43507000Y-31924116D01*
X43502525Y-31908877D01*
X43501135Y-31907672D01*
X43493452Y-31906001D01*
X43410058Y-31906001D01*
X43403240Y-31906370D01*
X43353624Y-31911759D01*
X43338365Y-31915388D01*
X43220665Y-31959511D01*
X43205080Y-31968043D01*
X43105350Y-32042787D01*
X43092787Y-32055350D01*
X43018043Y-32155080D01*
X43009511Y-32170665D01*
X42965385Y-32288371D01*
X42961760Y-32303617D01*
X42956369Y-32353242D01*
X42956000Y-32360056D01*
X42956000Y-32651385D01*
X42564499Y-32651385D01*
X42564499Y-32356586D01*
X42564130Y-32353186D01*
X42558735Y-32303517D01*
X42558734Y-32303511D01*
X42557881Y-32295658D01*
X42517450Y-32187804D01*
X42510935Y-32170426D01*
X42507783Y-32162018D01*
X42430648Y-32059097D01*
X42427571Y-32054992D01*
X42422189Y-32047811D01*
X42412862Y-32040821D01*
X42315166Y-31967601D01*
X42315165Y-31967601D01*
X42307982Y-31962217D01*
X42299574Y-31959065D01*
X42181740Y-31914892D01*
X42181738Y-31914891D01*
X42174342Y-31912119D01*
X42118027Y-31906001D01*
X42116812Y-31905869D01*
X42116811Y-31905869D01*
X42113415Y-31905500D01*
X41822543Y-31905500D01*
X41531586Y-31905501D01*
X41528192Y-31905870D01*
X41528186Y-31905870D01*
X41478517Y-31911265D01*
X41478514Y-31911266D01*
X41470658Y-31912119D01*
X41463256Y-31914894D01*
X41463255Y-31914894D01*
X41445324Y-31921616D01*
X41337018Y-31962217D01*
X41329835Y-31967601D01*
X41329834Y-31967601D01*
X41232138Y-32040821D01*
X41222811Y-32047811D01*
X41217429Y-32054992D01*
X41214353Y-32059097D01*
X41137217Y-32162018D01*
X41134065Y-32170426D01*
X41127551Y-32187804D01*
X41087119Y-32295658D01*
X41080500Y-32356585D01*
X41080501Y-32708435D01*
X41080501Y-33013115D01*
X41060499Y-33081236D01*
X41043596Y-33102210D01*
X37303461Y-36842345D01*
X37241149Y-36876371D01*
X37214366Y-36879250D01*
X34739098Y-36879250D01*
X34670977Y-36859248D01*
X34624484Y-36805592D01*
X34614380Y-36735318D01*
X34643874Y-36670738D01*
X34703600Y-36632354D01*
X34724700Y-36628075D01*
X35616719Y-36525485D01*
X36342003Y-36442070D01*
X36342004Y-36442070D01*
X36360000Y-36440000D01*
X36364051Y-36319500D01*
X36383850Y-35730451D01*
X36458384Y-33513077D01*
X36480662Y-33445670D01*
X36495217Y-33428218D01*
X37396854Y-32526581D01*
X37459166Y-32492555D01*
X37517922Y-32493800D01*
X37623351Y-32521459D01*
X37623355Y-32521460D01*
X37630702Y-32523387D01*
X37714657Y-32524706D01*
X37781499Y-32525756D01*
X37781502Y-32525756D01*
X37789096Y-32525875D01*
X37943512Y-32490509D01*
X38048566Y-32437673D01*
X38078252Y-32422743D01*
X38078255Y-32422741D01*
X38085035Y-32419331D01*
X38090806Y-32414402D01*
X38090809Y-32414400D01*
X38199716Y-32321384D01*
X38199716Y-32321383D01*
X38205494Y-32316449D01*
X38297935Y-32187804D01*
X38357022Y-32040821D01*
X38371910Y-31936208D01*
X38401310Y-31871585D01*
X38460981Y-31833116D01*
X38496653Y-31827961D01*
X38921672Y-31827961D01*
X38936482Y-31828834D01*
X38969695Y-31832765D01*
X39026700Y-31822354D01*
X39030593Y-31821706D01*
X39046801Y-31819269D01*
X39087885Y-31813093D01*
X39094316Y-31810005D01*
X39101330Y-31808724D01*
X39152744Y-31782017D01*
X39156284Y-31780248D01*
X39200015Y-31759249D01*
X39200016Y-31759248D01*
X39208511Y-31755169D01*
X39213749Y-31750327D01*
X39220077Y-31747040D01*
X39225068Y-31742777D01*
X39261847Y-31705998D01*
X39265413Y-31702569D01*
X39299855Y-31670731D01*
X39306773Y-31664336D01*
X39310429Y-31658042D01*
X39315806Y-31652039D01*
X40221879Y-30745966D01*
X40284191Y-30711940D01*
X40310974Y-30709061D01*
X45867546Y-30709061D01*
X45935667Y-30729063D01*
G37*
G04 #@! TD.AperFunction*
G04 #@! TA.AperFunction,Conductor*
G36*
X33119998Y-36821371D02*
G01*
X33066342Y-36867864D01*
X33014000Y-36879250D01*
X32808750Y-36879250D01*
X32740629Y-36859248D01*
X32738277Y-36856533D01*
X33122654Y-36812326D01*
X33119998Y-36821371D01*
G37*
G04 #@! TD.AperFunction*
M02*
