G04 #@! TF.GenerationSoftware,KiCad,Pcbnew,(6.0.0-0)*
G04 #@! TF.CreationDate,2022-07-22T22:21:07+01:00*
G04 #@! TF.ProjectId,bakeneko-65-pcb,62616b65-6e65-46b6-9f2d-36352d706362,rev?*
G04 #@! TF.SameCoordinates,Original*
G04 #@! TF.FileFunction,Soldermask,Top*
G04 #@! TF.FilePolarity,Negative*
%FSLAX46Y46*%
G04 Gerber Fmt 4.6, Leading zero omitted, Abs format (unit mm)*
G04 Created by KiCad (PCBNEW (6.0.0-0)) date 2022-07-22 22:21:07*
%MOMM*%
%LPD*%
G01*
G04 APERTURE LIST*
G04 Aperture macros list*
%AMRoundRect*
0 Rectangle with rounded corners*
0 $1 Rounding radius*
0 $2 $3 $4 $5 $6 $7 $8 $9 X,Y pos of 4 corners*
0 Add a 4 corners polygon primitive as box body*
4,1,4,$2,$3,$4,$5,$6,$7,$8,$9,$2,$3,0*
0 Add four circle primitives for the rounded corners*
1,1,$1+$1,$2,$3*
1,1,$1+$1,$4,$5*
1,1,$1+$1,$6,$7*
1,1,$1+$1,$8,$9*
0 Add four rect primitives between the rounded corners*
20,1,$1+$1,$2,$3,$4,$5,0*
20,1,$1+$1,$4,$5,$6,$7,0*
20,1,$1+$1,$6,$7,$8,$9,0*
20,1,$1+$1,$8,$9,$2,$3,0*%
G04 Aperture macros list end*
%ADD10RoundRect,0.050000X0.500000X0.500000X-0.500000X0.500000X-0.500000X-0.500000X0.500000X-0.500000X0*%
%ADD11O,1.100000X1.100000*%
%ADD12O,1.800000X1.800000*%
%ADD13RoundRect,0.050000X0.850000X0.850000X-0.850000X0.850000X-0.850000X-0.850000X0.850000X-0.850000X0*%
%ADD14C,1.850000*%
%ADD15C,4.087800*%
%ADD16C,3.148000*%
G04 APERTURE END LIST*
D10*
X2730000Y-37850000D03*
D11*
X2730000Y-36580000D03*
X2730000Y-35310000D03*
D12*
X2535000Y-22155000D03*
X5075000Y-22155000D03*
X2535000Y-19615000D03*
X5075000Y-19615000D03*
X2535000Y-17075000D03*
D13*
X5075000Y-17075000D03*
D14*
X14080000Y-9000000D03*
X3920000Y-9000000D03*
D15*
X9000000Y-9000000D03*
D14*
X33130000Y-9000000D03*
D15*
X28050000Y-9000000D03*
D14*
X22970000Y-9000000D03*
X52180000Y-9000000D03*
D15*
X47100000Y-9000000D03*
D14*
X42020000Y-9000000D03*
X71230000Y-9000000D03*
X61070000Y-9000000D03*
D15*
X66150000Y-9000000D03*
D14*
X80120000Y-9000000D03*
D15*
X85200000Y-9000000D03*
D14*
X90280000Y-9000000D03*
X109330000Y-9000000D03*
D15*
X104250000Y-9000000D03*
D14*
X99170000Y-9000000D03*
X118220000Y-9000000D03*
X128380000Y-9000000D03*
D15*
X123300000Y-9000000D03*
X161400000Y-9000000D03*
D14*
X166480000Y-9000000D03*
X156320000Y-9000000D03*
X185530000Y-9000000D03*
D15*
X180450000Y-9000000D03*
D14*
X175370000Y-9000000D03*
X194420000Y-9000000D03*
D15*
X199500000Y-9000000D03*
D14*
X204580000Y-9000000D03*
X223630000Y-9000000D03*
D15*
X218550000Y-9000000D03*
D14*
X213470000Y-9000000D03*
X242680000Y-9000000D03*
X232520000Y-9000000D03*
D15*
X237600000Y-9000000D03*
X256650000Y-9000000D03*
D14*
X251570000Y-9000000D03*
X261730000Y-9000000D03*
X271255000Y-9000000D03*
D16*
X254237000Y-2015000D03*
D14*
X261095000Y-9000000D03*
D15*
X266175000Y-9000000D03*
X254237000Y-17255000D03*
X278113000Y-17255000D03*
D16*
X278113000Y-2015000D03*
D14*
X8682500Y-28050000D03*
D15*
X13762500Y-28050000D03*
D14*
X18842500Y-28050000D03*
D15*
X37575000Y-28050000D03*
D14*
X42655000Y-28050000D03*
X32495000Y-28050000D03*
D15*
X56625000Y-28050000D03*
D14*
X51545000Y-28050000D03*
X61705000Y-28050000D03*
D15*
X75675000Y-28050000D03*
D14*
X70595000Y-28050000D03*
X80755000Y-28050000D03*
D15*
X94725000Y-28050000D03*
D14*
X99805000Y-28050000D03*
X89645000Y-28050000D03*
X118855000Y-28050000D03*
D15*
X113775000Y-28050000D03*
D14*
X108695000Y-28050000D03*
D15*
X132825000Y-28050000D03*
D14*
X127745000Y-28050000D03*
X137905000Y-28050000D03*
D15*
X151875000Y-28050000D03*
D14*
X146795000Y-28050000D03*
X156955000Y-28050000D03*
X176005000Y-28050000D03*
X165845000Y-28050000D03*
D15*
X170925000Y-28050000D03*
D14*
X184895000Y-28050000D03*
D15*
X189975000Y-28050000D03*
D14*
X195055000Y-28050000D03*
D15*
X209025000Y-28050000D03*
D14*
X203945000Y-28050000D03*
X214105000Y-28050000D03*
D15*
X228075000Y-28050000D03*
D14*
X233155000Y-28050000D03*
X222995000Y-28050000D03*
X242045000Y-28050000D03*
X252205000Y-28050000D03*
D15*
X247125000Y-28050000D03*
X270937500Y-28050000D03*
D14*
X265857500Y-28050000D03*
X276017500Y-28050000D03*
X289670000Y-28050000D03*
D15*
X294750000Y-28050000D03*
D14*
X299830000Y-28050000D03*
D15*
X11381250Y-47100000D03*
D14*
X16461250Y-47100000D03*
X6301250Y-47100000D03*
D15*
X16143750Y-47100000D03*
D14*
X11063750Y-47100000D03*
X21223750Y-47100000D03*
D15*
X42337500Y-47100000D03*
D14*
X47417500Y-47100000D03*
X37257500Y-47100000D03*
X66467500Y-47100000D03*
D15*
X61387500Y-47100000D03*
D14*
X56307500Y-47100000D03*
X75357500Y-47100000D03*
D15*
X80437500Y-47100000D03*
D14*
X85517500Y-47100000D03*
D15*
X99487500Y-47100000D03*
D14*
X104567500Y-47100000D03*
X94407500Y-47100000D03*
X123617500Y-47100000D03*
D15*
X118537500Y-47100000D03*
D14*
X113457500Y-47100000D03*
D15*
X137587500Y-47100000D03*
D14*
X132507500Y-47100000D03*
X142667500Y-47100000D03*
X151557500Y-47100000D03*
X161717500Y-47100000D03*
D15*
X156637500Y-47100000D03*
D14*
X180767500Y-47100000D03*
D15*
X175687500Y-47100000D03*
D14*
X170607500Y-47100000D03*
X189657500Y-47100000D03*
X199817500Y-47100000D03*
D15*
X194737500Y-47100000D03*
D14*
X218867500Y-47100000D03*
X208707500Y-47100000D03*
D15*
X213787500Y-47100000D03*
X232837500Y-47100000D03*
D14*
X237917500Y-47100000D03*
X227757500Y-47100000D03*
D16*
X275731750Y-40115000D03*
D14*
X268873750Y-47100000D03*
D16*
X251855750Y-40115000D03*
D15*
X275731750Y-55355000D03*
X263793750Y-47100000D03*
D14*
X258713750Y-47100000D03*
D15*
X251855750Y-55355000D03*
X294750000Y-47100000D03*
D14*
X289670000Y-47100000D03*
X299830000Y-47100000D03*
D16*
X32844250Y-59165000D03*
D15*
X20906250Y-66150000D03*
X32844250Y-74405000D03*
X8968250Y-74405000D03*
D14*
X15826250Y-66150000D03*
D16*
X8968250Y-59165000D03*
D14*
X25986250Y-66150000D03*
D15*
X51862500Y-66150000D03*
D14*
X46782500Y-66150000D03*
X56942500Y-66150000D03*
X75992500Y-66150000D03*
D15*
X70912500Y-66150000D03*
D14*
X65832500Y-66150000D03*
X95042500Y-66150000D03*
D15*
X89962500Y-66150000D03*
D14*
X84882500Y-66150000D03*
X103932500Y-66150000D03*
X114092500Y-66150000D03*
D15*
X109012500Y-66150000D03*
X128062500Y-66150000D03*
D14*
X122982500Y-66150000D03*
X133142500Y-66150000D03*
X152192500Y-66150000D03*
D15*
X147112500Y-66150000D03*
D14*
X142032500Y-66150000D03*
X171242500Y-66150000D03*
D15*
X166162500Y-66150000D03*
D14*
X161082500Y-66150000D03*
D15*
X185212500Y-66150000D03*
D14*
X180132500Y-66150000D03*
X190292500Y-66150000D03*
X199182500Y-66150000D03*
D15*
X204262500Y-66150000D03*
D14*
X209342500Y-66150000D03*
X218232500Y-66150000D03*
D15*
X223312500Y-66150000D03*
D14*
X228392500Y-66150000D03*
X254586250Y-66150000D03*
X244426250Y-66150000D03*
D15*
X249506250Y-66150000D03*
X275700000Y-66150000D03*
D14*
X280780000Y-66150000D03*
X270620000Y-66150000D03*
X289670000Y-66150000D03*
X299830000Y-66150000D03*
D15*
X294750000Y-66150000D03*
D14*
X8682500Y-85200000D03*
X18842500Y-85200000D03*
D15*
X13762500Y-85200000D03*
D14*
X42655000Y-85200000D03*
D15*
X37575000Y-85200000D03*
D14*
X32495000Y-85200000D03*
X56307500Y-85200000D03*
D15*
X61387500Y-85200000D03*
D14*
X66467500Y-85200000D03*
X196801250Y-85200000D03*
X206961250Y-85200000D03*
D15*
X201881250Y-85200000D03*
D14*
X218232500Y-85200000D03*
X228392500Y-85200000D03*
D15*
X223312500Y-85200000D03*
X256650000Y-85200000D03*
D14*
X261730000Y-85200000D03*
X251570000Y-85200000D03*
X280780000Y-85200000D03*
D15*
X275700000Y-85200000D03*
D14*
X270620000Y-85200000D03*
X299830000Y-85200000D03*
D15*
X294750000Y-85200000D03*
D14*
X289670000Y-85200000D03*
X220613750Y-85200000D03*
X230773750Y-85200000D03*
D15*
X225693750Y-85200000D03*
D14*
X137270000Y-85200000D03*
D16*
X199500000Y-92185000D03*
D15*
X142350000Y-85200000D03*
X85200000Y-76945000D03*
D16*
X85200000Y-92185000D03*
D15*
X199500000Y-76945000D03*
D14*
X147430000Y-85200000D03*
D15*
X142350000Y-9000000D03*
D14*
X137270000Y-9000000D03*
X147430000Y-9000000D03*
X289670000Y-9000000D03*
D15*
X294750000Y-9000000D03*
D14*
X299830000Y-9000000D03*
X270620000Y-9000000D03*
D15*
X275700000Y-9000000D03*
D14*
X280780000Y-9000000D03*
D15*
X11381250Y-85200000D03*
D14*
X16461250Y-85200000D03*
X6301250Y-85200000D03*
X40273750Y-85200000D03*
D15*
X35193750Y-85200000D03*
D14*
X30113750Y-85200000D03*
D15*
X59006250Y-85200000D03*
D14*
X53926250Y-85200000D03*
X64086250Y-85200000D03*
D15*
X80443850Y-76945000D03*
D14*
X125363750Y-85200000D03*
D16*
X180443650Y-92185000D03*
D15*
X180443650Y-76945000D03*
D14*
X135523750Y-85200000D03*
D15*
X130443750Y-85200000D03*
D16*
X80443850Y-92185000D03*
M02*
