%FSLAX45Y45*%
G04 Gerber Fmt 4.5, Leading zero omitted, Abs format (unit mm)*
G04 Created by KiCad (PCBNEW (6.0.0-0)) date 2022-04-29 22:30:09*
%MOMM*%
%LPD*%
G01*
G04 APERTURE LIST*
%TA.AperFunction,Profile*%
%ADD10C,0.200000*%
%TD*%
%ADD11C,0.200000*%
%ADD12C,0.040000*%
%ADD13C,0.100000*%
%ADD14C,0.300000*%
G04 APERTURE END LIST*
D10*
X1573193Y-80645D02*
G75*
G03*
X2131807Y-80645I279307J145645D01*
G01*
X225000Y0D02*
G75*
G03*
X0Y-225000I0J-225000D01*
G01*
X13003193Y-80645D02*
G75*
G03*
X12870189Y0I-133004J-69355D01*
G01*
X2264811Y0D02*
G75*
G03*
X2131807Y-80645I0J-150000D01*
G01*
X1440189Y0D02*
X225000Y0D01*
X30375000Y-9195000D02*
X30375000Y-225000D01*
X5465557Y-9339355D02*
G75*
G03*
X5598561Y-9420000I133003J69355D01*
G01*
X5465557Y-9339355D02*
G75*
G03*
X4906943Y-9339355I-279307J-145645D01*
G01*
X26896807Y-9339355D02*
G75*
G03*
X27029811Y-9420000I133003J69355D01*
G01*
X23832500Y-7515000D02*
X24640000Y-7515000D01*
X28110189Y0D02*
X13694810Y0D01*
X20966439Y-9420000D02*
X5598560Y-9420000D01*
X0Y-9195000D02*
X0Y-225000D01*
X28934810Y0D02*
G75*
G03*
X28801807Y-80645I0J-150000D01*
G01*
X4773939Y-9420000D02*
G75*
G03*
X4906943Y-9339355I0J150000D01*
G01*
X26205189Y-9420000D02*
G75*
G03*
X26338193Y-9339355I0J150000D01*
G01*
X23482500Y-9420000D02*
X21791061Y-9420000D01*
X30375000Y-225000D02*
G75*
G03*
X30150000Y0I-225000J0D01*
G01*
X24765000Y-7640000D02*
G75*
G03*
X24640000Y-7515000I-125000J0D01*
G01*
X26896807Y-9339355D02*
G75*
G03*
X26338193Y-9339355I-279307J-145645D01*
G01*
X30150000Y-9420000D02*
G75*
G03*
X30375000Y-9195000I0J225000D01*
G01*
X24765000Y-9195000D02*
G75*
G03*
X24990000Y-9420000I225000J0D01*
G01*
X20966439Y-9420000D02*
G75*
G03*
X21099443Y-9339355I0J150000D01*
G01*
X28243193Y-80645D02*
G75*
G03*
X28110189Y0I-133004J-69355D01*
G01*
X23832500Y-7515000D02*
G75*
G03*
X23707500Y-7640000I0J-125000D01*
G01*
X24765000Y-7640000D02*
X24765000Y-9195000D01*
X23482500Y-9420000D02*
G75*
G03*
X23707500Y-9195000I0J225000D01*
G01*
X26205189Y-9420000D02*
X24990000Y-9420000D01*
X23707500Y-7640000D02*
X23707500Y-9195000D01*
X13003193Y-80645D02*
G75*
G03*
X13561807Y-80645I279307J145645D01*
G01*
X1573193Y-80645D02*
G75*
G03*
X1440189Y0I-133004J-69355D01*
G01*
X30150000Y-9420000D02*
X27029810Y-9420000D01*
X4773939Y-9420000D02*
X225000Y-9420000D01*
X13694810Y0D02*
G75*
G03*
X13561807Y-80645I0J-150000D01*
G01*
X12870189Y0D02*
X2264811Y0D01*
X21658057Y-9339355D02*
G75*
G03*
X21099443Y-9339355I-279307J-145645D01*
G01*
X21658057Y-9339355D02*
G75*
G03*
X21791061Y-9420000I133003J69355D01*
G01*
X0Y-9195000D02*
G75*
G03*
X225000Y-9420000I225000J0D01*
G01*
X30150000Y0D02*
X28934810Y0D01*
X28243193Y-80645D02*
G75*
G03*
X28801807Y-80645I279307J145645D01*
G01*
D11*
D12*
X1005148Y-1923148D02*
X1045148Y-1963148D01*
X1045148Y-1923148D02*
X1005148Y-1963148D01*
X1610250Y-3561125D02*
X1650250Y-3601125D01*
X1650250Y-3561125D02*
X1610250Y-3601125D01*
X1990000Y-3226000D02*
X2030000Y-3266000D01*
X2030000Y-3226000D02*
X1990000Y-3266000D01*
X2022861Y-3708861D02*
X2062861Y-3748861D01*
X2062861Y-3708861D02*
X2022861Y-3748861D01*
X2085000Y-4175000D02*
X2125000Y-4215000D01*
X2125000Y-4175000D02*
X2085000Y-4215000D01*
X2095311Y-3783425D02*
X2135312Y-3823425D01*
X2135312Y-3783425D02*
X2095311Y-3823425D01*
X2240375Y-1124375D02*
X2280375Y-1164375D01*
X2280375Y-1124375D02*
X2240375Y-1164375D01*
X2245000Y-3683425D02*
X2285000Y-3723425D01*
X2285000Y-3683425D02*
X2245000Y-3723425D01*
X2269375Y-3036500D02*
X2309375Y-3076500D01*
X2309375Y-3036500D02*
X2269375Y-3076500D01*
X2315000Y-3305000D02*
X2355000Y-3345000D01*
X2355000Y-3305000D02*
X2315000Y-3345000D01*
X2326000Y-1382000D02*
X2366000Y-1422000D01*
X2366000Y-1382000D02*
X2326000Y-1422000D01*
X2388750Y-8453750D02*
X2428750Y-8493750D01*
X2428750Y-8453750D02*
X2388750Y-8493750D01*
X2451000Y-1382000D02*
X2491000Y-1422000D01*
X2491000Y-1382000D02*
X2451000Y-1422000D01*
X2485000Y-4595000D02*
X2525000Y-4635000D01*
X2525000Y-4595000D02*
X2485000Y-4635000D01*
X2535000Y-6835000D02*
X2575000Y-6875000D01*
X2575000Y-6835000D02*
X2535000Y-6875000D01*
X2576000Y-1382000D02*
X2616000Y-1422000D01*
X2616000Y-1382000D02*
X2576000Y-1422000D01*
X2585000Y-3290000D02*
X2625000Y-3330000D01*
X2625000Y-3290000D02*
X2585000Y-3330000D01*
X2874375Y-5377000D02*
X2914375Y-5417000D01*
X2914375Y-5377000D02*
X2874375Y-5417000D01*
X2936141Y-3181141D02*
X2976141Y-3221141D01*
X2976141Y-3181141D02*
X2936141Y-3221141D01*
X3155000Y-4160000D02*
X3195000Y-4200000D01*
X3195000Y-4160000D02*
X3155000Y-4200000D01*
X3164445Y-4595555D02*
X3204445Y-4635555D01*
X3204445Y-4595555D02*
X3164445Y-4635555D01*
X3225000Y-3035000D02*
X3265000Y-3075000D01*
X3265000Y-3035000D02*
X3225000Y-3075000D01*
X3327573Y-2957450D02*
X3367573Y-2997450D01*
X3367573Y-2957450D02*
X3327573Y-2997450D01*
X3374484Y-5455516D02*
X3414484Y-5495516D01*
X3414484Y-5455516D02*
X3374484Y-5495516D01*
X3402402Y-4245658D02*
X3442402Y-4285658D01*
X3442402Y-4245658D02*
X3402402Y-4285658D01*
X3420517Y-4724483D02*
X3460517Y-4764483D01*
X3460517Y-4724483D02*
X3420517Y-4764483D01*
X3470000Y-3011000D02*
X3510000Y-3051000D01*
X3510000Y-3011000D02*
X3470000Y-3051000D01*
X3500000Y-2885000D02*
X3540000Y-2925000D01*
X3540000Y-2885000D02*
X3500000Y-2925000D01*
X3500603Y-4227042D02*
X3540603Y-4267042D01*
X3540603Y-4227042D02*
X3500603Y-4267042D01*
X3528010Y-4750133D02*
X3568010Y-4790133D01*
X3568010Y-4750133D02*
X3528010Y-4790133D01*
X3603980Y-4213588D02*
X3643980Y-4253588D01*
X3643980Y-4213588D02*
X3603980Y-4253588D01*
X3685000Y-4830000D02*
X3725000Y-4870000D01*
X3725000Y-4830000D02*
X3685000Y-4870000D01*
X3752018Y-3167018D02*
X3792018Y-3207018D01*
X3792018Y-3167018D02*
X3752018Y-3207018D01*
X3910000Y-4760000D02*
X3950000Y-4800000D01*
X3950000Y-4760000D02*
X3910000Y-4800000D01*
X4007750Y-1968000D02*
X4047750Y-2008000D01*
X4047750Y-1968000D02*
X4007750Y-2008000D01*
X4017584Y-3087990D02*
X4057584Y-3127990D01*
X4057584Y-3087990D02*
X4017584Y-3127990D01*
X4235375Y-1382000D02*
X4275375Y-1422000D01*
X4275375Y-1382000D02*
X4235375Y-1422000D01*
X4904915Y-3208460D02*
X4944915Y-3248460D01*
X4944915Y-3208460D02*
X4904915Y-3248460D01*
X27945000Y-5285000D02*
X27985000Y-5325000D01*
X27985000Y-5285000D02*
X27945000Y-5325000D01*
D13*
X303500Y-1707500D02*
G75*
G03*
X303500Y-1707500I-50000J0D01*
G01*
X303500Y-1961500D02*
G75*
G03*
X303500Y-1961500I-50000J0D01*
G01*
X303500Y-2215500D02*
G75*
G03*
X303500Y-2215500I-50000J0D01*
G01*
X557500Y-1707500D02*
G75*
G03*
X557500Y-1707500I-50000J0D01*
G01*
X557500Y-1961500D02*
G75*
G03*
X557500Y-1961500I-50000J0D01*
G01*
X557500Y-2215500D02*
G75*
G03*
X557500Y-2215500I-50000J0D01*
G01*
D14*
X519000Y-496000D02*
X519000Y-796000D01*
X369000Y-646000D02*
X669000Y-646000D01*
X757125Y-4306000D02*
X757125Y-4606000D01*
X607125Y-4456000D02*
X907125Y-4456000D01*
X757125Y-8116000D02*
X757125Y-8416000D01*
X607125Y-8266000D02*
X907125Y-8266000D01*
X995250Y-2401000D02*
X995250Y-2701000D01*
X845250Y-2551000D02*
X1145250Y-2551000D01*
X1122250Y-8878000D02*
X1122250Y-9178000D01*
X972250Y-9028000D02*
X1272250Y-9028000D01*
X1154000Y-242000D02*
X1154000Y-542000D01*
X1004000Y-392000D02*
X1304000Y-392000D01*
X1360375Y-5068000D02*
X1360375Y-5368000D01*
X1210375Y-5218000D02*
X1510375Y-5218000D01*
X1392125Y-4052000D02*
X1392125Y-4352000D01*
X1242125Y-4202000D02*
X1542125Y-4202000D01*
X1392125Y-7862000D02*
X1392125Y-8162000D01*
X1242125Y-8012000D02*
X1542125Y-8012000D01*
X1630250Y-2147000D02*
X1630250Y-2447000D01*
X1480250Y-2297000D02*
X1780250Y-2297000D01*
X1709625Y-6211000D02*
X1709625Y-6511000D01*
X1559625Y-6361000D02*
X1859625Y-6361000D01*
X1757250Y-8624000D02*
X1757250Y-8924000D01*
X1607250Y-8774000D02*
X1907250Y-8774000D01*
X1995375Y-4814000D02*
X1995375Y-5114000D01*
X1845375Y-4964000D02*
X2145375Y-4964000D01*
X2344625Y-5957000D02*
X2344625Y-6257000D01*
X2194625Y-6107000D02*
X2494625Y-6107000D01*
X2424000Y-496000D02*
X2424000Y-796000D01*
X2274000Y-646000D02*
X2574000Y-646000D01*
X3059000Y-242000D02*
X3059000Y-542000D01*
X2909000Y-392000D02*
X3209000Y-392000D01*
X3138375Y-8116000D02*
X3138375Y-8416000D01*
X2988375Y-8266000D02*
X3288375Y-8266000D01*
X3376500Y-2401000D02*
X3376500Y-2701000D01*
X3226500Y-2551000D02*
X3526500Y-2551000D01*
X3503500Y-8878000D02*
X3503500Y-9178000D01*
X3353500Y-9028000D02*
X3653500Y-9028000D01*
X3773375Y-7862000D02*
X3773375Y-8162000D01*
X3623375Y-8012000D02*
X3923375Y-8012000D01*
X3852750Y-4306000D02*
X3852750Y-4606000D01*
X3702750Y-4456000D02*
X4002750Y-4456000D01*
X4011500Y-2147000D02*
X4011500Y-2447000D01*
X3861500Y-2297000D02*
X4161500Y-2297000D01*
X4138500Y-8624000D02*
X4138500Y-8924000D01*
X3988500Y-8774000D02*
X4288500Y-8774000D01*
X4329000Y-496000D02*
X4329000Y-796000D01*
X4179000Y-646000D02*
X4479000Y-646000D01*
X4487750Y-4052000D02*
X4487750Y-4352000D01*
X4337750Y-4202000D02*
X4637750Y-4202000D01*
X4805250Y-6211000D02*
X4805250Y-6511000D01*
X4655250Y-6361000D02*
X4955250Y-6361000D01*
X4964000Y-242000D02*
X4964000Y-542000D01*
X4814000Y-392000D02*
X5114000Y-392000D01*
X5281500Y-2401000D02*
X5281500Y-2701000D01*
X5131500Y-2551000D02*
X5431500Y-2551000D01*
X5440250Y-5957000D02*
X5440250Y-6257000D01*
X5290250Y-6107000D02*
X5590250Y-6107000D01*
X5519625Y-8116000D02*
X5519625Y-8416000D01*
X5369625Y-8266000D02*
X5669625Y-8266000D01*
X5757750Y-4306000D02*
X5757750Y-4606000D01*
X5607750Y-4456000D02*
X5907750Y-4456000D01*
X5884750Y-8878000D02*
X5884750Y-9178000D01*
X5734750Y-9028000D02*
X6034750Y-9028000D01*
X5916500Y-2147000D02*
X5916500Y-2447000D01*
X5766500Y-2297000D02*
X6066500Y-2297000D01*
X6154625Y-7862000D02*
X6154625Y-8162000D01*
X6004625Y-8012000D02*
X6304625Y-8012000D01*
X6234000Y-496000D02*
X6234000Y-796000D01*
X6084000Y-646000D02*
X6384000Y-646000D01*
X6392750Y-4052000D02*
X6392750Y-4352000D01*
X6242750Y-4202000D02*
X6542750Y-4202000D01*
X6519750Y-8624000D02*
X6519750Y-8924000D01*
X6369750Y-8774000D02*
X6669750Y-8774000D01*
X6710250Y-6211000D02*
X6710250Y-6511000D01*
X6560250Y-6361000D02*
X6860250Y-6361000D01*
X6869000Y-242000D02*
X6869000Y-542000D01*
X6719000Y-392000D02*
X7019000Y-392000D01*
X7186500Y-2401000D02*
X7186500Y-2701000D01*
X7036500Y-2551000D02*
X7336500Y-2551000D01*
X7345250Y-5957000D02*
X7345250Y-6257000D01*
X7195250Y-6107000D02*
X7495250Y-6107000D01*
X7662750Y-4306000D02*
X7662750Y-4606000D01*
X7512750Y-4456000D02*
X7812750Y-4456000D01*
X7821500Y-2147000D02*
X7821500Y-2447000D01*
X7671500Y-2297000D02*
X7971500Y-2297000D01*
X8139000Y-496000D02*
X8139000Y-796000D01*
X7989000Y-646000D02*
X8289000Y-646000D01*
X8297750Y-4052000D02*
X8297750Y-4352000D01*
X8147750Y-4202000D02*
X8447750Y-4202000D01*
X8615250Y-6211000D02*
X8615250Y-6511000D01*
X8465250Y-6361000D02*
X8765250Y-6361000D01*
X8774000Y-242000D02*
X8774000Y-542000D01*
X8624000Y-392000D02*
X8924000Y-392000D01*
X9091500Y-2401000D02*
X9091500Y-2701000D01*
X8941500Y-2551000D02*
X9241500Y-2551000D01*
X9250250Y-5957000D02*
X9250250Y-6257000D01*
X9100250Y-6107000D02*
X9400250Y-6107000D01*
X9567750Y-4306000D02*
X9567750Y-4606000D01*
X9417750Y-4456000D02*
X9717750Y-4456000D01*
X9726500Y-2147000D02*
X9726500Y-2447000D01*
X9576500Y-2297000D02*
X9876500Y-2297000D01*
X10044000Y-496000D02*
X10044000Y-796000D01*
X9894000Y-646000D02*
X10194000Y-646000D01*
X10202750Y-4052000D02*
X10202750Y-4352000D01*
X10052750Y-4202000D02*
X10352750Y-4202000D01*
X10520250Y-6211000D02*
X10520250Y-6511000D01*
X10370250Y-6361000D02*
X10670250Y-6361000D01*
X10679000Y-242000D02*
X10679000Y-542000D01*
X10529000Y-392000D02*
X10829000Y-392000D01*
X10996500Y-2401000D02*
X10996500Y-2701000D01*
X10846500Y-2551000D02*
X11146500Y-2551000D01*
X11155250Y-5957000D02*
X11155250Y-6257000D01*
X11005250Y-6107000D02*
X11305250Y-6107000D01*
X11472750Y-4306000D02*
X11472750Y-4606000D01*
X11322750Y-4456000D02*
X11622750Y-4456000D01*
X11631500Y-2147000D02*
X11631500Y-2447000D01*
X11481500Y-2297000D02*
X11781500Y-2297000D01*
X11949000Y-496000D02*
X11949000Y-796000D01*
X11799000Y-646000D02*
X12099000Y-646000D01*
X12107750Y-4052000D02*
X12107750Y-4352000D01*
X11957750Y-4202000D02*
X12257750Y-4202000D01*
X12425250Y-6211000D02*
X12425250Y-6511000D01*
X12275250Y-6361000D02*
X12575250Y-6361000D01*
X12584000Y-242000D02*
X12584000Y-542000D01*
X12434000Y-392000D02*
X12734000Y-392000D01*
X12663375Y-8116000D02*
X12663375Y-8416000D01*
X12513375Y-8266000D02*
X12813375Y-8266000D01*
X12901500Y-2401000D02*
X12901500Y-2701000D01*
X12751500Y-2551000D02*
X13051500Y-2551000D01*
X13060250Y-5957000D02*
X13060250Y-6257000D01*
X12910250Y-6107000D02*
X13210250Y-6107000D01*
X13298375Y-7862000D02*
X13298375Y-8162000D01*
X13148375Y-8012000D02*
X13448375Y-8012000D01*
X13377750Y-4306000D02*
X13377750Y-4606000D01*
X13227750Y-4456000D02*
X13527750Y-4456000D01*
X13536500Y-2147000D02*
X13536500Y-2447000D01*
X13386500Y-2297000D02*
X13686500Y-2297000D01*
X13854000Y-496000D02*
X13854000Y-796000D01*
X13704000Y-646000D02*
X14004000Y-646000D01*
X13981000Y-8878000D02*
X13981000Y-9178000D01*
X13831000Y-9028000D02*
X14131000Y-9028000D01*
X14012750Y-4052000D02*
X14012750Y-4352000D01*
X13862750Y-4202000D02*
X14162750Y-4202000D01*
X14330250Y-6211000D02*
X14330250Y-6511000D01*
X14180250Y-6361000D02*
X14480250Y-6361000D01*
X14489000Y-242000D02*
X14489000Y-542000D01*
X14339000Y-392000D02*
X14639000Y-392000D01*
X14616000Y-8624000D02*
X14616000Y-8924000D01*
X14466000Y-8774000D02*
X14766000Y-8774000D01*
X14806500Y-2401000D02*
X14806500Y-2701000D01*
X14656500Y-2551000D02*
X14956500Y-2551000D01*
X14965250Y-5957000D02*
X14965250Y-6257000D01*
X14815250Y-6107000D02*
X15115250Y-6107000D01*
X15282750Y-4306000D02*
X15282750Y-4606000D01*
X15132750Y-4456000D02*
X15432750Y-4456000D01*
X15441500Y-2147000D02*
X15441500Y-2447000D01*
X15291500Y-2297000D02*
X15591500Y-2297000D01*
X15759000Y-496000D02*
X15759000Y-796000D01*
X15609000Y-646000D02*
X15909000Y-646000D01*
X15917750Y-4052000D02*
X15917750Y-4352000D01*
X15767750Y-4202000D02*
X16067750Y-4202000D01*
X16235250Y-6211000D02*
X16235250Y-6511000D01*
X16085250Y-6361000D02*
X16385250Y-6361000D01*
X16394000Y-242000D02*
X16394000Y-542000D01*
X16244000Y-392000D02*
X16544000Y-392000D01*
X16711500Y-2401000D02*
X16711500Y-2701000D01*
X16561500Y-2551000D02*
X16861500Y-2551000D01*
X16870250Y-5957000D02*
X16870250Y-6257000D01*
X16720250Y-6107000D02*
X17020250Y-6107000D01*
X17187750Y-4306000D02*
X17187750Y-4606000D01*
X17037750Y-4456000D02*
X17337750Y-4456000D01*
X17346500Y-2147000D02*
X17346500Y-2447000D01*
X17196500Y-2297000D02*
X17496500Y-2297000D01*
X17664000Y-496000D02*
X17664000Y-796000D01*
X17514000Y-646000D02*
X17814000Y-646000D01*
X17822750Y-4052000D02*
X17822750Y-4352000D01*
X17672750Y-4202000D02*
X17972750Y-4202000D01*
X18140250Y-6211000D02*
X18140250Y-6511000D01*
X17990250Y-6361000D02*
X18290250Y-6361000D01*
X18299000Y-242000D02*
X18299000Y-542000D01*
X18149000Y-392000D02*
X18449000Y-392000D01*
X18616500Y-2401000D02*
X18616500Y-2701000D01*
X18466500Y-2551000D02*
X18766500Y-2551000D01*
X18775250Y-5957000D02*
X18775250Y-6257000D01*
X18625250Y-6107000D02*
X18925250Y-6107000D01*
X19092750Y-4306000D02*
X19092750Y-4606000D01*
X18942750Y-4456000D02*
X19242750Y-4456000D01*
X19251500Y-2147000D02*
X19251500Y-2447000D01*
X19101500Y-2297000D02*
X19401500Y-2297000D01*
X19569000Y-496000D02*
X19569000Y-796000D01*
X19419000Y-646000D02*
X19719000Y-646000D01*
X19727750Y-4052000D02*
X19727750Y-4352000D01*
X19577750Y-4202000D02*
X19877750Y-4202000D01*
X19807125Y-8116000D02*
X19807125Y-8416000D01*
X19657125Y-8266000D02*
X19957125Y-8266000D01*
X20045250Y-6211000D02*
X20045250Y-6511000D01*
X19895250Y-6361000D02*
X20195250Y-6361000D01*
X20204000Y-242000D02*
X20204000Y-542000D01*
X20054000Y-392000D02*
X20354000Y-392000D01*
X20442125Y-7862000D02*
X20442125Y-8162000D01*
X20292125Y-8012000D02*
X20592125Y-8012000D01*
X20521500Y-2401000D02*
X20521500Y-2701000D01*
X20371500Y-2551000D02*
X20671500Y-2551000D01*
X20680250Y-5957000D02*
X20680250Y-6257000D01*
X20530250Y-6107000D02*
X20830250Y-6107000D01*
X20997750Y-4306000D02*
X20997750Y-4606000D01*
X20847750Y-4456000D02*
X21147750Y-4456000D01*
X21156500Y-2147000D02*
X21156500Y-2447000D01*
X21006500Y-2297000D02*
X21306500Y-2297000D01*
X21474000Y-496000D02*
X21474000Y-796000D01*
X21324000Y-646000D02*
X21624000Y-646000D01*
X21632750Y-4052000D02*
X21632750Y-4352000D01*
X21482750Y-4202000D02*
X21782750Y-4202000D01*
X21950250Y-6211000D02*
X21950250Y-6511000D01*
X21800250Y-6361000D02*
X22100250Y-6361000D01*
X21950250Y-8116000D02*
X21950250Y-8416000D01*
X21800250Y-8266000D02*
X22100250Y-8266000D01*
X22109000Y-242000D02*
X22109000Y-542000D01*
X21959000Y-392000D02*
X22259000Y-392000D01*
X22315375Y-8878000D02*
X22315375Y-9178000D01*
X22165375Y-9028000D02*
X22465375Y-9028000D01*
X22426500Y-2401000D02*
X22426500Y-2701000D01*
X22276500Y-2551000D02*
X22576500Y-2551000D01*
X22585250Y-5957000D02*
X22585250Y-6257000D01*
X22435250Y-6107000D02*
X22735250Y-6107000D01*
X22585250Y-7862000D02*
X22585250Y-8162000D01*
X22435250Y-8012000D02*
X22735250Y-8012000D01*
X22902750Y-4306000D02*
X22902750Y-4606000D01*
X22752750Y-4456000D02*
X23052750Y-4456000D01*
X22950375Y-8624000D02*
X22950375Y-8924000D01*
X22800375Y-8774000D02*
X23100375Y-8774000D01*
X23061500Y-2147000D02*
X23061500Y-2447000D01*
X22911500Y-2297000D02*
X23211500Y-2297000D01*
X23379000Y-496000D02*
X23379000Y-796000D01*
X23229000Y-646000D02*
X23529000Y-646000D01*
X23537750Y-4052000D02*
X23537750Y-4352000D01*
X23387750Y-4202000D02*
X23687750Y-4202000D01*
X24014000Y-242000D02*
X24014000Y-542000D01*
X23864000Y-392000D02*
X24164000Y-392000D01*
X24331500Y-2401000D02*
X24331500Y-2701000D01*
X24181500Y-2551000D02*
X24481500Y-2551000D01*
X24569625Y-6211000D02*
X24569625Y-6511000D01*
X24419625Y-6361000D02*
X24719625Y-6361000D01*
X24966500Y-2147000D02*
X24966500Y-2447000D01*
X24816500Y-2297000D02*
X25116500Y-2297000D01*
X25204625Y-5957000D02*
X25204625Y-6257000D01*
X25054625Y-6107000D02*
X25354625Y-6107000D01*
X25284000Y-8116000D02*
X25284000Y-8416000D01*
X25134000Y-8266000D02*
X25434000Y-8266000D01*
X25411000Y-1258000D02*
X25411000Y-1558000D01*
X25261000Y-1408000D02*
X25561000Y-1408000D01*
X25919000Y-7862000D02*
X25919000Y-8162000D01*
X25769000Y-8012000D02*
X26069000Y-8012000D01*
X25998375Y-4306000D02*
X25998375Y-4606000D01*
X25848375Y-4456000D02*
X26148375Y-4456000D01*
X26046000Y-1004000D02*
X26046000Y-1304000D01*
X25896000Y-1154000D02*
X26196000Y-1154000D01*
X26236500Y-496000D02*
X26236500Y-796000D01*
X26086500Y-646000D02*
X26386500Y-646000D01*
X26633375Y-4052000D02*
X26633375Y-4352000D01*
X26483375Y-4202000D02*
X26783375Y-4202000D01*
X26712750Y-2401000D02*
X26712750Y-2701000D01*
X26562750Y-2551000D02*
X26862750Y-2551000D01*
X26871500Y-242000D02*
X26871500Y-542000D01*
X26721500Y-392000D02*
X27021500Y-392000D01*
X27189000Y-6211000D02*
X27189000Y-6511000D01*
X27039000Y-6361000D02*
X27339000Y-6361000D01*
X27189000Y-8116000D02*
X27189000Y-8416000D01*
X27039000Y-8266000D02*
X27339000Y-8266000D01*
X27316000Y-1258000D02*
X27316000Y-1558000D01*
X27166000Y-1408000D02*
X27466000Y-1408000D01*
X27347750Y-2147000D02*
X27347750Y-2447000D01*
X27197750Y-2297000D02*
X27497750Y-2297000D01*
X27824000Y-5957000D02*
X27824000Y-6257000D01*
X27674000Y-6107000D02*
X27974000Y-6107000D01*
X27824000Y-7862000D02*
X27824000Y-8162000D01*
X27674000Y-8012000D02*
X27974000Y-8012000D01*
X27951000Y-1004000D02*
X27951000Y-1304000D01*
X27801000Y-1154000D02*
X28101000Y-1154000D01*
X29094000Y-496000D02*
X29094000Y-796000D01*
X28944000Y-646000D02*
X29244000Y-646000D01*
X29094000Y-2401000D02*
X29094000Y-2701000D01*
X28944000Y-2551000D02*
X29244000Y-2551000D01*
X29094000Y-4306000D02*
X29094000Y-4606000D01*
X28944000Y-4456000D02*
X29244000Y-4456000D01*
X29094000Y-6211000D02*
X29094000Y-6511000D01*
X28944000Y-6361000D02*
X29244000Y-6361000D01*
X29094000Y-8116000D02*
X29094000Y-8416000D01*
X28944000Y-8266000D02*
X29244000Y-8266000D01*
X29729000Y-242000D02*
X29729000Y-542000D01*
X29579000Y-392000D02*
X29879000Y-392000D01*
X29729000Y-2147000D02*
X29729000Y-2447000D01*
X29579000Y-2297000D02*
X29879000Y-2297000D01*
X29729000Y-4052000D02*
X29729000Y-4352000D01*
X29579000Y-4202000D02*
X29879000Y-4202000D01*
X29729000Y-5957000D02*
X29729000Y-6257000D01*
X29579000Y-6107000D02*
X29879000Y-6107000D01*
X29729000Y-7862000D02*
X29729000Y-8162000D01*
X29579000Y-8012000D02*
X29879000Y-8012000D01*
D11*
X247619Y-9740476D02*
X247619Y-9540476D01*
X295238Y-9540476D01*
X323810Y-9550000D01*
X342857Y-9569048D01*
X352381Y-9588095D01*
X361905Y-9626190D01*
X361905Y-9654762D01*
X352381Y-9692857D01*
X342857Y-9711905D01*
X323810Y-9730952D01*
X295238Y-9740476D01*
X247619Y-9740476D01*
X447619Y-9740476D02*
X447619Y-9607143D01*
X447619Y-9645238D02*
X457143Y-9626190D01*
X466667Y-9616667D01*
X485714Y-9607143D01*
X504762Y-9607143D01*
X571429Y-9740476D02*
X571429Y-9607143D01*
X571429Y-9540476D02*
X561905Y-9550000D01*
X571429Y-9559524D01*
X580952Y-9550000D01*
X571429Y-9540476D01*
X571429Y-9559524D01*
X695238Y-9740476D02*
X676190Y-9730952D01*
X666667Y-9711905D01*
X666667Y-9540476D01*
X800000Y-9740476D02*
X780952Y-9730952D01*
X771428Y-9711905D01*
X771428Y-9540476D01*
X1028571Y-9740476D02*
X1028571Y-9540476D01*
X1095238Y-9683333D01*
X1161905Y-9540476D01*
X1161905Y-9740476D01*
X1342857Y-9740476D02*
X1342857Y-9635714D01*
X1333333Y-9616667D01*
X1314286Y-9607143D01*
X1276190Y-9607143D01*
X1257143Y-9616667D01*
X1342857Y-9730952D02*
X1323810Y-9740476D01*
X1276190Y-9740476D01*
X1257143Y-9730952D01*
X1247619Y-9711905D01*
X1247619Y-9692857D01*
X1257143Y-9673810D01*
X1276190Y-9664286D01*
X1323810Y-9664286D01*
X1342857Y-9654762D01*
X1438095Y-9607143D02*
X1438095Y-9807143D01*
X1438095Y-9616667D02*
X1457143Y-9607143D01*
X1495238Y-9607143D01*
X1514286Y-9616667D01*
X1523809Y-9626190D01*
X1533333Y-9645238D01*
X1533333Y-9702381D01*
X1523809Y-9721429D01*
X1514286Y-9730952D01*
X1495238Y-9740476D01*
X1457143Y-9740476D01*
X1438095Y-9730952D01*
X1619048Y-9721429D02*
X1628571Y-9730952D01*
X1619048Y-9740476D01*
X1609524Y-9730952D01*
X1619048Y-9721429D01*
X1619048Y-9740476D01*
X1619048Y-9616667D02*
X1628571Y-9626190D01*
X1619048Y-9635714D01*
X1609524Y-9626190D01*
X1619048Y-9616667D01*
X1619048Y-9635714D01*
D12*
X-50000Y-10050000D02*
X-10000Y-10090000D01*
X-10000Y-10050000D02*
X-50000Y-10090000D01*
D11*
X285714Y-9960476D02*
X304762Y-9960476D01*
X323810Y-9970000D01*
X333333Y-9979524D01*
X342857Y-9998571D01*
X352381Y-10036667D01*
X352381Y-10084286D01*
X342857Y-10122381D01*
X333333Y-10141429D01*
X323810Y-10150952D01*
X304762Y-10160476D01*
X285714Y-10160476D01*
X266667Y-10150952D01*
X257143Y-10141429D01*
X247619Y-10122381D01*
X238095Y-10084286D01*
X238095Y-10036667D01*
X247619Y-9998571D01*
X257143Y-9979524D01*
X266667Y-9970000D01*
X285714Y-9960476D01*
X438095Y-10141429D02*
X447619Y-10150952D01*
X438095Y-10160476D01*
X428571Y-10150952D01*
X438095Y-10141429D01*
X438095Y-10160476D01*
X619048Y-10027143D02*
X619048Y-10160476D01*
X571429Y-9950952D02*
X523809Y-10093810D01*
X647619Y-10093810D01*
X761905Y-9960476D02*
X780952Y-9960476D01*
X800000Y-9970000D01*
X809524Y-9979524D01*
X819048Y-9998571D01*
X828571Y-10036667D01*
X828571Y-10084286D01*
X819048Y-10122381D01*
X809524Y-10141429D01*
X800000Y-10150952D01*
X780952Y-10160476D01*
X761905Y-10160476D01*
X742857Y-10150952D01*
X733333Y-10141429D01*
X723809Y-10122381D01*
X714286Y-10084286D01*
X714286Y-10036667D01*
X723809Y-9998571D01*
X733333Y-9979524D01*
X742857Y-9970000D01*
X761905Y-9960476D01*
X952381Y-9960476D02*
X971428Y-9960476D01*
X990476Y-9970000D01*
X1000000Y-9979524D01*
X1009524Y-9998571D01*
X1019048Y-10036667D01*
X1019048Y-10084286D01*
X1009524Y-10122381D01*
X1000000Y-10141429D01*
X990476Y-10150952D01*
X971428Y-10160476D01*
X952381Y-10160476D01*
X933333Y-10150952D01*
X923809Y-10141429D01*
X914286Y-10122381D01*
X904762Y-10084286D01*
X904762Y-10036667D01*
X914286Y-9998571D01*
X923809Y-9979524D01*
X933333Y-9970000D01*
X952381Y-9960476D01*
X1104762Y-10160476D02*
X1104762Y-10027143D01*
X1104762Y-10046190D02*
X1114286Y-10036667D01*
X1133333Y-10027143D01*
X1161905Y-10027143D01*
X1180952Y-10036667D01*
X1190476Y-10055714D01*
X1190476Y-10160476D01*
X1190476Y-10055714D02*
X1200000Y-10036667D01*
X1219048Y-10027143D01*
X1247619Y-10027143D01*
X1266667Y-10036667D01*
X1276190Y-10055714D01*
X1276190Y-10160476D01*
X1371429Y-10160476D02*
X1371429Y-10027143D01*
X1371429Y-10046190D02*
X1380952Y-10036667D01*
X1400000Y-10027143D01*
X1428571Y-10027143D01*
X1447619Y-10036667D01*
X1457143Y-10055714D01*
X1457143Y-10160476D01*
X1457143Y-10055714D02*
X1466667Y-10036667D01*
X1485714Y-10027143D01*
X1514286Y-10027143D01*
X1533333Y-10036667D01*
X1542857Y-10055714D01*
X1542857Y-10160476D01*
X1933333Y-9950952D02*
X1761905Y-10208095D01*
X2190476Y-9960476D02*
X2209524Y-9960476D01*
X2228571Y-9970000D01*
X2238095Y-9979524D01*
X2247619Y-9998571D01*
X2257143Y-10036667D01*
X2257143Y-10084286D01*
X2247619Y-10122381D01*
X2238095Y-10141429D01*
X2228571Y-10150952D01*
X2209524Y-10160476D01*
X2190476Y-10160476D01*
X2171429Y-10150952D01*
X2161905Y-10141429D01*
X2152381Y-10122381D01*
X2142857Y-10084286D01*
X2142857Y-10036667D01*
X2152381Y-9998571D01*
X2161905Y-9979524D01*
X2171429Y-9970000D01*
X2190476Y-9960476D01*
X2342857Y-10141429D02*
X2352381Y-10150952D01*
X2342857Y-10160476D01*
X2333333Y-10150952D01*
X2342857Y-10141429D01*
X2342857Y-10160476D01*
X2476190Y-9960476D02*
X2495238Y-9960476D01*
X2514286Y-9970000D01*
X2523810Y-9979524D01*
X2533333Y-9998571D01*
X2542857Y-10036667D01*
X2542857Y-10084286D01*
X2533333Y-10122381D01*
X2523810Y-10141429D01*
X2514286Y-10150952D01*
X2495238Y-10160476D01*
X2476190Y-10160476D01*
X2457143Y-10150952D01*
X2447619Y-10141429D01*
X2438095Y-10122381D01*
X2428571Y-10084286D01*
X2428571Y-10036667D01*
X2438095Y-9998571D01*
X2447619Y-9979524D01*
X2457143Y-9970000D01*
X2476190Y-9960476D01*
X2733333Y-10160476D02*
X2619048Y-10160476D01*
X2676190Y-10160476D02*
X2676190Y-9960476D01*
X2657143Y-9989048D01*
X2638095Y-10008095D01*
X2619048Y-10017619D01*
X2914286Y-9960476D02*
X2819048Y-9960476D01*
X2809524Y-10055714D01*
X2819048Y-10046190D01*
X2838095Y-10036667D01*
X2885714Y-10036667D01*
X2904762Y-10046190D01*
X2914286Y-10055714D01*
X2923809Y-10074762D01*
X2923809Y-10122381D01*
X2914286Y-10141429D01*
X2904762Y-10150952D01*
X2885714Y-10160476D01*
X2838095Y-10160476D01*
X2819048Y-10150952D01*
X2809524Y-10141429D01*
X2990476Y-9960476D02*
X3123809Y-9960476D01*
X3038095Y-10160476D01*
X3190476Y-9960476D02*
X3190476Y-9998571D01*
X3266667Y-9960476D02*
X3266667Y-9998571D01*
X3561905Y-10236667D02*
X3552381Y-10227143D01*
X3533333Y-10198571D01*
X3523809Y-10179524D01*
X3514286Y-10150952D01*
X3504762Y-10103333D01*
X3504762Y-10065238D01*
X3514286Y-10017619D01*
X3523809Y-9989048D01*
X3533333Y-9970000D01*
X3552381Y-9941429D01*
X3561905Y-9931905D01*
X3619048Y-9960476D02*
X3742857Y-9960476D01*
X3676190Y-10036667D01*
X3704762Y-10036667D01*
X3723809Y-10046190D01*
X3733333Y-10055714D01*
X3742857Y-10074762D01*
X3742857Y-10122381D01*
X3733333Y-10141429D01*
X3723809Y-10150952D01*
X3704762Y-10160476D01*
X3647619Y-10160476D01*
X3628571Y-10150952D01*
X3619048Y-10141429D01*
X3838095Y-10160476D02*
X3876190Y-10160476D01*
X3895238Y-10150952D01*
X3904762Y-10141429D01*
X3923809Y-10112857D01*
X3933333Y-10074762D01*
X3933333Y-9998571D01*
X3923809Y-9979524D01*
X3914286Y-9970000D01*
X3895238Y-9960476D01*
X3857143Y-9960476D01*
X3838095Y-9970000D01*
X3828571Y-9979524D01*
X3819048Y-9998571D01*
X3819048Y-10046190D01*
X3828571Y-10065238D01*
X3838095Y-10074762D01*
X3857143Y-10084286D01*
X3895238Y-10084286D01*
X3914286Y-10074762D01*
X3923809Y-10065238D01*
X3933333Y-10046190D01*
X4171428Y-10160476D02*
X4171428Y-9960476D01*
X4257143Y-10160476D02*
X4257143Y-10055714D01*
X4247619Y-10036667D01*
X4228571Y-10027143D01*
X4200000Y-10027143D01*
X4180952Y-10036667D01*
X4171428Y-10046190D01*
X4380952Y-10160476D02*
X4361905Y-10150952D01*
X4352381Y-10141429D01*
X4342857Y-10122381D01*
X4342857Y-10065238D01*
X4352381Y-10046190D01*
X4361905Y-10036667D01*
X4380952Y-10027143D01*
X4409524Y-10027143D01*
X4428571Y-10036667D01*
X4438095Y-10046190D01*
X4447619Y-10065238D01*
X4447619Y-10122381D01*
X4438095Y-10141429D01*
X4428571Y-10150952D01*
X4409524Y-10160476D01*
X4380952Y-10160476D01*
X4561905Y-10160476D02*
X4542857Y-10150952D01*
X4533333Y-10131905D01*
X4533333Y-9960476D01*
X4714286Y-10150952D02*
X4695238Y-10160476D01*
X4657143Y-10160476D01*
X4638095Y-10150952D01*
X4628571Y-10131905D01*
X4628571Y-10055714D01*
X4638095Y-10036667D01*
X4657143Y-10027143D01*
X4695238Y-10027143D01*
X4714286Y-10036667D01*
X4723810Y-10055714D01*
X4723810Y-10074762D01*
X4628571Y-10093810D01*
X4800000Y-10150952D02*
X4819048Y-10160476D01*
X4857143Y-10160476D01*
X4876190Y-10150952D01*
X4885714Y-10131905D01*
X4885714Y-10122381D01*
X4876190Y-10103333D01*
X4857143Y-10093810D01*
X4828571Y-10093810D01*
X4809524Y-10084286D01*
X4800000Y-10065238D01*
X4800000Y-10055714D01*
X4809524Y-10036667D01*
X4828571Y-10027143D01*
X4857143Y-10027143D01*
X4876190Y-10036667D01*
X4952381Y-10236667D02*
X4961905Y-10227143D01*
X4980952Y-10198571D01*
X4990476Y-10179524D01*
X5000000Y-10150952D01*
X5009524Y-10103333D01*
X5009524Y-10065238D01*
X5000000Y-10017619D01*
X4990476Y-9989048D01*
X4980952Y-9970000D01*
X4961905Y-9941429D01*
X4952381Y-9931905D01*
D13*
X-10000Y-10334000D02*
G75*
G03*
X-10000Y-10334000I-50000J0D01*
G01*
D11*
X352381Y-10424476D02*
X238095Y-10424476D01*
X295238Y-10424476D02*
X295238Y-10224476D01*
X276190Y-10253048D01*
X257143Y-10272095D01*
X238095Y-10281619D01*
X438095Y-10405429D02*
X447619Y-10414952D01*
X438095Y-10424476D01*
X428571Y-10414952D01*
X438095Y-10405429D01*
X438095Y-10424476D01*
X571429Y-10224476D02*
X590476Y-10224476D01*
X609524Y-10234000D01*
X619048Y-10243524D01*
X628571Y-10262571D01*
X638095Y-10300667D01*
X638095Y-10348286D01*
X628571Y-10386381D01*
X619048Y-10405429D01*
X609524Y-10414952D01*
X590476Y-10424476D01*
X571429Y-10424476D01*
X552381Y-10414952D01*
X542857Y-10405429D01*
X533333Y-10386381D01*
X523809Y-10348286D01*
X523809Y-10300667D01*
X533333Y-10262571D01*
X542857Y-10243524D01*
X552381Y-10234000D01*
X571429Y-10224476D01*
X761905Y-10224476D02*
X780952Y-10224476D01*
X800000Y-10234000D01*
X809524Y-10243524D01*
X819048Y-10262571D01*
X828571Y-10300667D01*
X828571Y-10348286D01*
X819048Y-10386381D01*
X809524Y-10405429D01*
X800000Y-10414952D01*
X780952Y-10424476D01*
X761905Y-10424476D01*
X742857Y-10414952D01*
X733333Y-10405429D01*
X723809Y-10386381D01*
X714286Y-10348286D01*
X714286Y-10300667D01*
X723809Y-10262571D01*
X733333Y-10243524D01*
X742857Y-10234000D01*
X761905Y-10224476D01*
X952381Y-10224476D02*
X971428Y-10224476D01*
X990476Y-10234000D01*
X1000000Y-10243524D01*
X1009524Y-10262571D01*
X1019048Y-10300667D01*
X1019048Y-10348286D01*
X1009524Y-10386381D01*
X1000000Y-10405429D01*
X990476Y-10414952D01*
X971428Y-10424476D01*
X952381Y-10424476D01*
X933333Y-10414952D01*
X923809Y-10405429D01*
X914286Y-10386381D01*
X904762Y-10348286D01*
X904762Y-10300667D01*
X914286Y-10262571D01*
X923809Y-10243524D01*
X933333Y-10234000D01*
X952381Y-10224476D01*
X1104762Y-10424476D02*
X1104762Y-10291143D01*
X1104762Y-10310190D02*
X1114286Y-10300667D01*
X1133333Y-10291143D01*
X1161905Y-10291143D01*
X1180952Y-10300667D01*
X1190476Y-10319714D01*
X1190476Y-10424476D01*
X1190476Y-10319714D02*
X1200000Y-10300667D01*
X1219048Y-10291143D01*
X1247619Y-10291143D01*
X1266667Y-10300667D01*
X1276190Y-10319714D01*
X1276190Y-10424476D01*
X1371429Y-10424476D02*
X1371429Y-10291143D01*
X1371429Y-10310190D02*
X1380952Y-10300667D01*
X1400000Y-10291143D01*
X1428571Y-10291143D01*
X1447619Y-10300667D01*
X1457143Y-10319714D01*
X1457143Y-10424476D01*
X1457143Y-10319714D02*
X1466667Y-10300667D01*
X1485714Y-10291143D01*
X1514286Y-10291143D01*
X1533333Y-10300667D01*
X1542857Y-10319714D01*
X1542857Y-10424476D01*
X1933333Y-10214952D02*
X1761905Y-10472095D01*
X2190476Y-10224476D02*
X2209524Y-10224476D01*
X2228571Y-10234000D01*
X2238095Y-10243524D01*
X2247619Y-10262571D01*
X2257143Y-10300667D01*
X2257143Y-10348286D01*
X2247619Y-10386381D01*
X2238095Y-10405429D01*
X2228571Y-10414952D01*
X2209524Y-10424476D01*
X2190476Y-10424476D01*
X2171429Y-10414952D01*
X2161905Y-10405429D01*
X2152381Y-10386381D01*
X2142857Y-10348286D01*
X2142857Y-10300667D01*
X2152381Y-10262571D01*
X2161905Y-10243524D01*
X2171429Y-10234000D01*
X2190476Y-10224476D01*
X2342857Y-10405429D02*
X2352381Y-10414952D01*
X2342857Y-10424476D01*
X2333333Y-10414952D01*
X2342857Y-10405429D01*
X2342857Y-10424476D01*
X2476190Y-10224476D02*
X2495238Y-10224476D01*
X2514286Y-10234000D01*
X2523810Y-10243524D01*
X2533333Y-10262571D01*
X2542857Y-10300667D01*
X2542857Y-10348286D01*
X2533333Y-10386381D01*
X2523810Y-10405429D01*
X2514286Y-10414952D01*
X2495238Y-10424476D01*
X2476190Y-10424476D01*
X2457143Y-10414952D01*
X2447619Y-10405429D01*
X2438095Y-10386381D01*
X2428571Y-10348286D01*
X2428571Y-10300667D01*
X2438095Y-10262571D01*
X2447619Y-10243524D01*
X2457143Y-10234000D01*
X2476190Y-10224476D01*
X2609524Y-10224476D02*
X2733333Y-10224476D01*
X2666667Y-10300667D01*
X2695238Y-10300667D01*
X2714286Y-10310190D01*
X2723810Y-10319714D01*
X2733333Y-10338762D01*
X2733333Y-10386381D01*
X2723810Y-10405429D01*
X2714286Y-10414952D01*
X2695238Y-10424476D01*
X2638095Y-10424476D01*
X2619048Y-10414952D01*
X2609524Y-10405429D01*
X2828571Y-10424476D02*
X2866667Y-10424476D01*
X2885714Y-10414952D01*
X2895238Y-10405429D01*
X2914286Y-10376857D01*
X2923809Y-10338762D01*
X2923809Y-10262571D01*
X2914286Y-10243524D01*
X2904762Y-10234000D01*
X2885714Y-10224476D01*
X2847619Y-10224476D01*
X2828571Y-10234000D01*
X2819048Y-10243524D01*
X2809524Y-10262571D01*
X2809524Y-10310190D01*
X2819048Y-10329238D01*
X2828571Y-10338762D01*
X2847619Y-10348286D01*
X2885714Y-10348286D01*
X2904762Y-10338762D01*
X2914286Y-10329238D01*
X2923809Y-10310190D01*
X3095238Y-10291143D02*
X3095238Y-10424476D01*
X3047619Y-10214952D02*
X3000000Y-10357810D01*
X3123809Y-10357810D01*
X3190476Y-10224476D02*
X3190476Y-10262571D01*
X3266667Y-10224476D02*
X3266667Y-10262571D01*
X3561905Y-10500667D02*
X3552381Y-10491143D01*
X3533333Y-10462571D01*
X3523809Y-10443524D01*
X3514286Y-10414952D01*
X3504762Y-10367333D01*
X3504762Y-10329238D01*
X3514286Y-10281619D01*
X3523809Y-10253048D01*
X3533333Y-10234000D01*
X3552381Y-10205429D01*
X3561905Y-10195905D01*
X3723809Y-10224476D02*
X3685714Y-10224476D01*
X3666667Y-10234000D01*
X3657143Y-10243524D01*
X3638095Y-10272095D01*
X3628571Y-10310190D01*
X3628571Y-10386381D01*
X3638095Y-10405429D01*
X3647619Y-10414952D01*
X3666667Y-10424476D01*
X3704762Y-10424476D01*
X3723809Y-10414952D01*
X3733333Y-10405429D01*
X3742857Y-10386381D01*
X3742857Y-10338762D01*
X3733333Y-10319714D01*
X3723809Y-10310190D01*
X3704762Y-10300667D01*
X3666667Y-10300667D01*
X3647619Y-10310190D01*
X3638095Y-10319714D01*
X3628571Y-10338762D01*
X3980952Y-10424476D02*
X3980952Y-10224476D01*
X4066667Y-10424476D02*
X4066667Y-10319714D01*
X4057143Y-10300667D01*
X4038095Y-10291143D01*
X4009524Y-10291143D01*
X3990476Y-10300667D01*
X3980952Y-10310190D01*
X4190476Y-10424476D02*
X4171428Y-10414952D01*
X4161905Y-10405429D01*
X4152381Y-10386381D01*
X4152381Y-10329238D01*
X4161905Y-10310190D01*
X4171428Y-10300667D01*
X4190476Y-10291143D01*
X4219048Y-10291143D01*
X4238095Y-10300667D01*
X4247619Y-10310190D01*
X4257143Y-10329238D01*
X4257143Y-10386381D01*
X4247619Y-10405429D01*
X4238095Y-10414952D01*
X4219048Y-10424476D01*
X4190476Y-10424476D01*
X4371429Y-10424476D02*
X4352381Y-10414952D01*
X4342857Y-10395905D01*
X4342857Y-10224476D01*
X4523810Y-10414952D02*
X4504762Y-10424476D01*
X4466667Y-10424476D01*
X4447619Y-10414952D01*
X4438095Y-10395905D01*
X4438095Y-10319714D01*
X4447619Y-10300667D01*
X4466667Y-10291143D01*
X4504762Y-10291143D01*
X4523810Y-10300667D01*
X4533333Y-10319714D01*
X4533333Y-10338762D01*
X4438095Y-10357810D01*
X4609524Y-10414952D02*
X4628571Y-10424476D01*
X4666667Y-10424476D01*
X4685714Y-10414952D01*
X4695238Y-10395905D01*
X4695238Y-10386381D01*
X4685714Y-10367333D01*
X4666667Y-10357810D01*
X4638095Y-10357810D01*
X4619048Y-10348286D01*
X4609524Y-10329238D01*
X4609524Y-10319714D01*
X4619048Y-10300667D01*
X4638095Y-10291143D01*
X4666667Y-10291143D01*
X4685714Y-10300667D01*
X4761905Y-10500667D02*
X4771429Y-10491143D01*
X4790476Y-10462571D01*
X4800000Y-10443524D01*
X4809524Y-10414952D01*
X4819048Y-10367333D01*
X4819048Y-10329238D01*
X4809524Y-10281619D01*
X4800000Y-10253048D01*
X4790476Y-10234000D01*
X4771429Y-10205429D01*
X4761905Y-10195905D01*
X-110000Y-10498000D02*
X-110000Y-10698000D01*
X-210000Y-10598000D02*
X-10000Y-10598000D01*
X228571Y-10488476D02*
X352381Y-10488476D01*
X285714Y-10564667D01*
X314286Y-10564667D01*
X333333Y-10574190D01*
X342857Y-10583714D01*
X352381Y-10602762D01*
X352381Y-10650381D01*
X342857Y-10669429D01*
X333333Y-10678952D01*
X314286Y-10688476D01*
X257143Y-10688476D01*
X238095Y-10678952D01*
X228571Y-10669429D01*
X438095Y-10669429D02*
X447619Y-10678952D01*
X438095Y-10688476D01*
X428571Y-10678952D01*
X438095Y-10669429D01*
X438095Y-10688476D01*
X571429Y-10488476D02*
X590476Y-10488476D01*
X609524Y-10498000D01*
X619048Y-10507524D01*
X628571Y-10526571D01*
X638095Y-10564667D01*
X638095Y-10612286D01*
X628571Y-10650381D01*
X619048Y-10669429D01*
X609524Y-10678952D01*
X590476Y-10688476D01*
X571429Y-10688476D01*
X552381Y-10678952D01*
X542857Y-10669429D01*
X533333Y-10650381D01*
X523809Y-10612286D01*
X523809Y-10564667D01*
X533333Y-10526571D01*
X542857Y-10507524D01*
X552381Y-10498000D01*
X571429Y-10488476D01*
X761905Y-10488476D02*
X780952Y-10488476D01*
X800000Y-10498000D01*
X809524Y-10507524D01*
X819048Y-10526571D01*
X828571Y-10564667D01*
X828571Y-10612286D01*
X819048Y-10650381D01*
X809524Y-10669429D01*
X800000Y-10678952D01*
X780952Y-10688476D01*
X761905Y-10688476D01*
X742857Y-10678952D01*
X733333Y-10669429D01*
X723809Y-10650381D01*
X714286Y-10612286D01*
X714286Y-10564667D01*
X723809Y-10526571D01*
X733333Y-10507524D01*
X742857Y-10498000D01*
X761905Y-10488476D01*
X952381Y-10488476D02*
X971428Y-10488476D01*
X990476Y-10498000D01*
X1000000Y-10507524D01*
X1009524Y-10526571D01*
X1019048Y-10564667D01*
X1019048Y-10612286D01*
X1009524Y-10650381D01*
X1000000Y-10669429D01*
X990476Y-10678952D01*
X971428Y-10688476D01*
X952381Y-10688476D01*
X933333Y-10678952D01*
X923809Y-10669429D01*
X914286Y-10650381D01*
X904762Y-10612286D01*
X904762Y-10564667D01*
X914286Y-10526571D01*
X923809Y-10507524D01*
X933333Y-10498000D01*
X952381Y-10488476D01*
X1104762Y-10688476D02*
X1104762Y-10555143D01*
X1104762Y-10574190D02*
X1114286Y-10564667D01*
X1133333Y-10555143D01*
X1161905Y-10555143D01*
X1180952Y-10564667D01*
X1190476Y-10583714D01*
X1190476Y-10688476D01*
X1190476Y-10583714D02*
X1200000Y-10564667D01*
X1219048Y-10555143D01*
X1247619Y-10555143D01*
X1266667Y-10564667D01*
X1276190Y-10583714D01*
X1276190Y-10688476D01*
X1371429Y-10688476D02*
X1371429Y-10555143D01*
X1371429Y-10574190D02*
X1380952Y-10564667D01*
X1400000Y-10555143D01*
X1428571Y-10555143D01*
X1447619Y-10564667D01*
X1457143Y-10583714D01*
X1457143Y-10688476D01*
X1457143Y-10583714D02*
X1466667Y-10564667D01*
X1485714Y-10555143D01*
X1514286Y-10555143D01*
X1533333Y-10564667D01*
X1542857Y-10583714D01*
X1542857Y-10688476D01*
X1933333Y-10478952D02*
X1761905Y-10736095D01*
X2190476Y-10488476D02*
X2209524Y-10488476D01*
X2228571Y-10498000D01*
X2238095Y-10507524D01*
X2247619Y-10526571D01*
X2257143Y-10564667D01*
X2257143Y-10612286D01*
X2247619Y-10650381D01*
X2238095Y-10669429D01*
X2228571Y-10678952D01*
X2209524Y-10688476D01*
X2190476Y-10688476D01*
X2171429Y-10678952D01*
X2161905Y-10669429D01*
X2152381Y-10650381D01*
X2142857Y-10612286D01*
X2142857Y-10564667D01*
X2152381Y-10526571D01*
X2161905Y-10507524D01*
X2171429Y-10498000D01*
X2190476Y-10488476D01*
X2342857Y-10669429D02*
X2352381Y-10678952D01*
X2342857Y-10688476D01*
X2333333Y-10678952D01*
X2342857Y-10669429D01*
X2342857Y-10688476D01*
X2542857Y-10688476D02*
X2428571Y-10688476D01*
X2485714Y-10688476D02*
X2485714Y-10488476D01*
X2466667Y-10517048D01*
X2447619Y-10536095D01*
X2428571Y-10545619D01*
X2733333Y-10688476D02*
X2619048Y-10688476D01*
X2676190Y-10688476D02*
X2676190Y-10488476D01*
X2657143Y-10517048D01*
X2638095Y-10536095D01*
X2619048Y-10545619D01*
X2847619Y-10574190D02*
X2828571Y-10564667D01*
X2819048Y-10555143D01*
X2809524Y-10536095D01*
X2809524Y-10526571D01*
X2819048Y-10507524D01*
X2828571Y-10498000D01*
X2847619Y-10488476D01*
X2885714Y-10488476D01*
X2904762Y-10498000D01*
X2914286Y-10507524D01*
X2923809Y-10526571D01*
X2923809Y-10536095D01*
X2914286Y-10555143D01*
X2904762Y-10564667D01*
X2885714Y-10574190D01*
X2847619Y-10574190D01*
X2828571Y-10583714D01*
X2819048Y-10593238D01*
X2809524Y-10612286D01*
X2809524Y-10650381D01*
X2819048Y-10669429D01*
X2828571Y-10678952D01*
X2847619Y-10688476D01*
X2885714Y-10688476D01*
X2904762Y-10678952D01*
X2914286Y-10669429D01*
X2923809Y-10650381D01*
X2923809Y-10612286D01*
X2914286Y-10593238D01*
X2904762Y-10583714D01*
X2885714Y-10574190D01*
X3114286Y-10688476D02*
X3000000Y-10688476D01*
X3057143Y-10688476D02*
X3057143Y-10488476D01*
X3038095Y-10517048D01*
X3019048Y-10536095D01*
X3000000Y-10545619D01*
X3190476Y-10488476D02*
X3190476Y-10526571D01*
X3266667Y-10488476D02*
X3266667Y-10526571D01*
X3561905Y-10764667D02*
X3552381Y-10755143D01*
X3533333Y-10726571D01*
X3523809Y-10707524D01*
X3514286Y-10678952D01*
X3504762Y-10631333D01*
X3504762Y-10593238D01*
X3514286Y-10545619D01*
X3523809Y-10517048D01*
X3533333Y-10498000D01*
X3552381Y-10469429D01*
X3561905Y-10459905D01*
X3742857Y-10688476D02*
X3628571Y-10688476D01*
X3685714Y-10688476D02*
X3685714Y-10488476D01*
X3666667Y-10517048D01*
X3647619Y-10536095D01*
X3628571Y-10545619D01*
X3923809Y-10488476D02*
X3828571Y-10488476D01*
X3819048Y-10583714D01*
X3828571Y-10574190D01*
X3847619Y-10564667D01*
X3895238Y-10564667D01*
X3914286Y-10574190D01*
X3923809Y-10583714D01*
X3933333Y-10602762D01*
X3933333Y-10650381D01*
X3923809Y-10669429D01*
X3914286Y-10678952D01*
X3895238Y-10688476D01*
X3847619Y-10688476D01*
X3828571Y-10678952D01*
X3819048Y-10669429D01*
X4057143Y-10488476D02*
X4076190Y-10488476D01*
X4095238Y-10498000D01*
X4104762Y-10507524D01*
X4114286Y-10526571D01*
X4123809Y-10564667D01*
X4123809Y-10612286D01*
X4114286Y-10650381D01*
X4104762Y-10669429D01*
X4095238Y-10678952D01*
X4076190Y-10688476D01*
X4057143Y-10688476D01*
X4038095Y-10678952D01*
X4028571Y-10669429D01*
X4019048Y-10650381D01*
X4009524Y-10612286D01*
X4009524Y-10564667D01*
X4019048Y-10526571D01*
X4028571Y-10507524D01*
X4038095Y-10498000D01*
X4057143Y-10488476D01*
X4361905Y-10688476D02*
X4361905Y-10488476D01*
X4447619Y-10688476D02*
X4447619Y-10583714D01*
X4438095Y-10564667D01*
X4419048Y-10555143D01*
X4390476Y-10555143D01*
X4371429Y-10564667D01*
X4361905Y-10574190D01*
X4571429Y-10688476D02*
X4552381Y-10678952D01*
X4542857Y-10669429D01*
X4533333Y-10650381D01*
X4533333Y-10593238D01*
X4542857Y-10574190D01*
X4552381Y-10564667D01*
X4571429Y-10555143D01*
X4600000Y-10555143D01*
X4619048Y-10564667D01*
X4628571Y-10574190D01*
X4638095Y-10593238D01*
X4638095Y-10650381D01*
X4628571Y-10669429D01*
X4619048Y-10678952D01*
X4600000Y-10688476D01*
X4571429Y-10688476D01*
X4752381Y-10688476D02*
X4733333Y-10678952D01*
X4723810Y-10659905D01*
X4723810Y-10488476D01*
X4904762Y-10678952D02*
X4885714Y-10688476D01*
X4847619Y-10688476D01*
X4828571Y-10678952D01*
X4819048Y-10659905D01*
X4819048Y-10583714D01*
X4828571Y-10564667D01*
X4847619Y-10555143D01*
X4885714Y-10555143D01*
X4904762Y-10564667D01*
X4914286Y-10583714D01*
X4914286Y-10602762D01*
X4819048Y-10621810D01*
X4990476Y-10678952D02*
X5009524Y-10688476D01*
X5047619Y-10688476D01*
X5066667Y-10678952D01*
X5076190Y-10659905D01*
X5076190Y-10650381D01*
X5066667Y-10631333D01*
X5047619Y-10621810D01*
X5019048Y-10621810D01*
X5000000Y-10612286D01*
X4990476Y-10593238D01*
X4990476Y-10583714D01*
X5000000Y-10564667D01*
X5019048Y-10555143D01*
X5047619Y-10555143D01*
X5066667Y-10564667D01*
X5142857Y-10764667D02*
X5152381Y-10755143D01*
X5171429Y-10726571D01*
X5180952Y-10707524D01*
X5190476Y-10678952D01*
X5200000Y-10631333D01*
X5200000Y-10593238D01*
X5190476Y-10545619D01*
X5180952Y-10517048D01*
X5171429Y-10498000D01*
X5152381Y-10469429D01*
X5142857Y-10459905D01*
M02*
