G04 #@! TF.GenerationSoftware,KiCad,Pcbnew,(6.0.0-0)*
G04 #@! TF.CreationDate,2022-04-29T22:29:47-07:00*
G04 #@! TF.ProjectId,bakeneko-65-pcb,62616b65-6e65-46b6-9f2d-36352d706362,rev?*
G04 #@! TF.SameCoordinates,Original*
G04 #@! TF.FileFunction,Copper,L1,Top*
G04 #@! TF.FilePolarity,Positive*
%FSLAX46Y46*%
G04 Gerber Fmt 4.6, Leading zero omitted, Abs format (unit mm)*
G04 Created by KiCad (PCBNEW (6.0.0-0)) date 2022-04-29 22:29:47*
%MOMM*%
%LPD*%
G01*
G04 APERTURE LIST*
G04 #@! TA.AperFunction,ComponentPad*
%ADD10O,1.700000X1.700000*%
G04 #@! TD*
G04 #@! TA.AperFunction,ComponentPad*
%ADD11R,1.700000X1.700000*%
G04 #@! TD*
G04 #@! TA.AperFunction,ComponentPad*
%ADD12C,4.000000*%
G04 #@! TD*
G04 #@! TA.AperFunction,ViaPad*
%ADD13C,0.800000*%
G04 #@! TD*
G04 #@! TA.AperFunction,Conductor*
%ADD14C,0.381000*%
G04 #@! TD*
G04 #@! TA.AperFunction,Conductor*
%ADD15C,0.250000*%
G04 #@! TD*
G04 APERTURE END LIST*
D10*
X2535000Y-22155000D03*
X5075000Y-22155000D03*
X2535000Y-19615000D03*
X5075000Y-19615000D03*
X2535000Y-17075000D03*
D11*
X5075000Y-17075000D03*
D12*
X5190000Y-6460000D03*
X11540000Y-3920000D03*
X24240000Y-6460000D03*
X30590000Y-3920000D03*
X43290000Y-6460000D03*
X49640000Y-3920000D03*
X62340000Y-6460000D03*
X68690000Y-3920000D03*
X81390000Y-6460000D03*
X87740000Y-3920000D03*
X100440000Y-6460000D03*
X106790000Y-3920000D03*
X119490000Y-6460000D03*
X125840000Y-3920000D03*
X157590000Y-6460000D03*
X163940000Y-3920000D03*
X176640000Y-6460000D03*
X182990000Y-3920000D03*
X195690000Y-6460000D03*
X202040000Y-3920000D03*
X214740000Y-6460000D03*
X221090000Y-3920000D03*
X233790000Y-6460000D03*
X240140000Y-3920000D03*
X260460000Y-11540000D03*
X254110000Y-14080000D03*
X262365000Y-6460000D03*
X268715000Y-3920000D03*
X9952500Y-25510000D03*
X16302500Y-22970000D03*
X33765000Y-25510000D03*
X40115000Y-22970000D03*
X52815000Y-25510000D03*
X59165000Y-22970000D03*
X71865000Y-25510000D03*
X78215000Y-22970000D03*
X90915000Y-25510000D03*
X97265000Y-22970000D03*
X109965000Y-25510000D03*
X116315000Y-22970000D03*
X129015000Y-25510000D03*
X135365000Y-22970000D03*
X148065000Y-25510000D03*
X154415000Y-22970000D03*
X167115000Y-25510000D03*
X173465000Y-22970000D03*
X186165000Y-25510000D03*
X192515000Y-22970000D03*
X205215000Y-25510000D03*
X211565000Y-22970000D03*
X224265000Y-25510000D03*
X230615000Y-22970000D03*
X243315000Y-25510000D03*
X249665000Y-22970000D03*
X267127500Y-25510000D03*
X273477500Y-22970000D03*
X290940000Y-25510000D03*
X297290000Y-22970000D03*
X7571250Y-44560000D03*
X13921250Y-42020000D03*
X19953750Y-49640000D03*
X13603750Y-52180000D03*
X38527500Y-44560000D03*
X44877500Y-42020000D03*
X57577500Y-44560000D03*
X63927500Y-42020000D03*
X76627500Y-44560000D03*
X82977500Y-42020000D03*
X95677500Y-44560000D03*
X102027500Y-42020000D03*
X114727500Y-44560000D03*
X121077500Y-42020000D03*
X133777500Y-44560000D03*
X140127500Y-42020000D03*
X152827500Y-44560000D03*
X159177500Y-42020000D03*
X171877500Y-44560000D03*
X178227500Y-42020000D03*
X190927500Y-44560000D03*
X197277500Y-42020000D03*
X209977500Y-44560000D03*
X216327500Y-42020000D03*
X229027500Y-44560000D03*
X235377500Y-42020000D03*
X259983750Y-44560000D03*
X266333750Y-42020000D03*
X290940000Y-44560000D03*
X297290000Y-42020000D03*
X17096250Y-63610000D03*
X23446250Y-61070000D03*
X48052500Y-63610000D03*
X54402500Y-61070000D03*
X67102500Y-63610000D03*
X73452500Y-61070000D03*
X86152500Y-63610000D03*
X92502500Y-61070000D03*
X105202500Y-63610000D03*
X111552500Y-61070000D03*
X124252500Y-63610000D03*
X130602500Y-61070000D03*
X143302500Y-63610000D03*
X149652500Y-61070000D03*
X162352500Y-63610000D03*
X168702500Y-61070000D03*
X181402500Y-63610000D03*
X187752500Y-61070000D03*
X200452500Y-63610000D03*
X206802500Y-61070000D03*
X219502500Y-63610000D03*
X225852500Y-61070000D03*
X245696250Y-63610000D03*
X252046250Y-61070000D03*
X271890000Y-63610000D03*
X278240000Y-61070000D03*
X290940000Y-63610000D03*
X297290000Y-61070000D03*
X17572500Y-87740000D03*
X11222500Y-90280000D03*
X41385000Y-87740000D03*
X35035000Y-90280000D03*
X65197500Y-87740000D03*
X58847500Y-90280000D03*
X198071250Y-82660000D03*
X204421250Y-80120000D03*
X219502500Y-82660000D03*
X225852500Y-80120000D03*
X252840000Y-82660000D03*
X259190000Y-80120000D03*
X271890000Y-82660000D03*
X278240000Y-80120000D03*
X290940000Y-82660000D03*
X297290000Y-80120000D03*
X229503750Y-87740000D03*
X223153750Y-90280000D03*
X146160000Y-87740000D03*
X139810000Y-90280000D03*
X138540000Y-6460000D03*
X144890000Y-3920000D03*
X290940000Y-6460000D03*
X297290000Y-3920000D03*
X279510000Y-11540000D03*
X273160000Y-14080000D03*
X7571250Y-82660000D03*
X13921250Y-80120000D03*
X31383750Y-82660000D03*
X37733750Y-80120000D03*
X55196250Y-82660000D03*
X61546250Y-80120000D03*
X126633750Y-82660000D03*
X132983750Y-80120000D03*
D13*
X40277500Y-19880000D03*
X10251485Y-19431484D03*
X40375844Y-31079905D03*
X25050000Y-46150000D03*
X31750000Y-41800000D03*
X22603750Y-11443750D03*
X22893750Y-30565000D03*
X34900000Y-30310000D03*
X20100000Y-32460000D03*
X28943750Y-53970000D03*
X39300000Y-47800000D03*
X25550000Y-68550000D03*
X20428615Y-37288615D03*
X24087500Y-84737500D03*
X21153115Y-38034250D03*
X49249145Y-32284605D03*
X42553750Y-14020002D03*
X33475734Y-29774500D03*
X24710000Y-14020002D03*
X32450000Y-30550000D03*
X23460000Y-14020002D03*
X25960000Y-14020002D03*
X35200000Y-29050000D03*
X16302500Y-35811250D03*
X33944842Y-54755158D03*
X22650000Y-37034250D03*
X34224020Y-42656576D03*
X34405171Y-47444829D03*
X35206034Y-42470422D03*
X35480103Y-47701331D03*
X279650000Y-53050000D03*
X36239800Y-42335884D03*
X37050000Y-48500000D03*
X21050000Y-41950000D03*
X23350000Y-33250000D03*
X26050000Y-33100000D03*
X37720180Y-31870180D03*
X31844453Y-46155547D03*
X29561413Y-32011413D03*
D14*
X8655000Y-17075000D02*
X9790000Y-18210000D01*
D15*
X31750000Y-41800000D02*
X31750000Y-44250000D01*
D14*
X37400000Y-23900000D02*
X37400000Y-22147783D01*
X9790000Y-18210000D02*
X9790000Y-18969999D01*
X40887500Y-30568249D02*
X40887500Y-27387500D01*
D15*
X31750000Y-44250000D02*
X29850000Y-46150000D01*
D14*
X5075000Y-17075000D02*
X8655000Y-17075000D01*
D15*
X29850000Y-46150000D02*
X25050000Y-46150000D01*
D14*
X40375844Y-31079905D02*
X40887500Y-30568249D01*
X9790000Y-18969999D02*
X10251485Y-19431484D01*
X39667783Y-19880000D02*
X40277500Y-19880000D01*
X37400000Y-22147783D02*
X39667783Y-19880000D01*
X40887500Y-27387500D02*
X37400000Y-23900000D01*
D15*
X21460000Y-29696935D02*
X22328065Y-30565000D01*
X21460000Y-25480000D02*
X21460000Y-29696935D01*
X22603750Y-24336250D02*
X21460000Y-25480000D01*
X22603750Y-11443750D02*
X22603750Y-24336250D01*
X22328065Y-30565000D02*
X22893750Y-30565000D01*
X20100000Y-32460000D02*
X24367723Y-32460000D01*
X33935489Y-31274511D02*
X34900000Y-30310000D01*
X25827723Y-31000000D02*
X31827723Y-31000000D01*
X32102234Y-31274511D02*
X33935489Y-31274511D01*
X24367723Y-32460000D02*
X25827723Y-31000000D01*
X31827723Y-31000000D02*
X32102234Y-31274511D01*
X39300000Y-47800000D02*
X33130000Y-53970000D01*
X33130000Y-53970000D02*
X28943750Y-53970000D01*
X27400480Y-55877985D02*
X22278261Y-50755766D01*
X22278261Y-50755766D02*
X22278261Y-41028261D01*
X20428615Y-39178615D02*
X20428615Y-37288615D01*
X22278261Y-41028261D02*
X20428615Y-39178615D01*
X27400480Y-66699520D02*
X27400480Y-55877985D01*
X25550000Y-68550000D02*
X27400480Y-66699520D01*
X21153115Y-39267397D02*
X22727781Y-40842064D01*
X22727781Y-50569568D02*
X27850000Y-55691787D01*
X27850000Y-80975000D02*
X24087500Y-84737500D01*
X21153115Y-38034250D02*
X21153115Y-39267397D01*
X27850000Y-55691787D02*
X27850000Y-80975000D01*
X22727781Y-40842064D02*
X22727781Y-50569568D01*
X42553750Y-14020002D02*
X42553750Y-24755000D01*
X49249145Y-31450395D02*
X49249145Y-32284605D01*
X42553750Y-24755000D02*
X49249145Y-31450395D01*
X33475734Y-29774500D02*
X32103766Y-29774500D01*
X30749520Y-28420254D02*
X30749520Y-20059522D01*
X30749520Y-20059522D02*
X24710000Y-14020002D01*
X32103766Y-29774500D02*
X30749520Y-28420254D01*
X23460000Y-21766452D02*
X23460000Y-14020002D01*
X32243548Y-30550000D02*
X23460000Y-21766452D01*
X32450000Y-30550000D02*
X32243548Y-30550000D01*
X31199040Y-28234057D02*
X31199040Y-19259042D01*
X31199040Y-19259042D02*
X25960000Y-14020002D01*
X35200000Y-29050000D02*
X32975017Y-29050000D01*
X32975017Y-29050000D02*
X32975006Y-29050011D01*
X32975006Y-29050011D02*
X32014994Y-29050011D01*
X32014994Y-29050011D02*
X31199040Y-28234057D01*
X4670000Y-90280000D02*
X11222500Y-90280000D01*
X13921250Y-80120000D02*
X3540000Y-80120000D01*
X16302500Y-22970000D02*
X16302500Y-35811250D01*
X11540000Y-3920000D02*
X11540000Y-18207500D01*
X13603750Y-42337500D02*
X13921250Y-42020000D01*
X23446250Y-61070000D02*
X14556250Y-52180000D01*
X14556250Y-52180000D02*
X13603750Y-52180000D01*
X3540000Y-80120000D02*
X1890000Y-81770000D01*
X23446250Y-70595000D02*
X13921250Y-80120000D01*
X1890000Y-81770000D02*
X1890000Y-87500000D01*
X1890000Y-87500000D02*
X4670000Y-90280000D01*
X13603750Y-52180000D02*
X13603750Y-42337500D01*
X11540000Y-18207500D02*
X16302500Y-22970000D01*
X16302500Y-35811250D02*
X16302500Y-36257515D01*
X13921250Y-42020000D02*
X13921250Y-38638765D01*
X13921250Y-38638765D02*
X16302500Y-36257515D01*
X23446250Y-61070000D02*
X23446250Y-70595000D01*
X41153750Y-13730000D02*
X42065000Y-14641250D01*
X30590000Y-3920000D02*
X35278750Y-8608750D01*
X36078750Y-13730000D02*
X41153750Y-13730000D01*
X40115000Y-22970000D02*
X42065000Y-21020000D01*
X37733750Y-80120000D02*
X44877500Y-72976250D01*
X40562177Y-80120000D02*
X37733750Y-80120000D01*
X42065000Y-21020000D02*
X42065000Y-15693750D01*
X35278750Y-12930000D02*
X36078750Y-13730000D01*
X45150000Y-84707823D02*
X40562177Y-80120000D01*
X47140000Y-39757500D02*
X47140000Y-29995000D01*
X42740000Y-91410000D02*
X45150000Y-89000000D01*
X44877500Y-42020000D02*
X47140000Y-39757500D01*
X47140000Y-29995000D02*
X40115000Y-22970000D01*
X35035000Y-90280000D02*
X36165000Y-91410000D01*
X44877500Y-72976250D02*
X44877500Y-42020000D01*
X36165000Y-91410000D02*
X42740000Y-91410000D01*
X45150000Y-89000000D02*
X45150000Y-84707823D01*
X42065000Y-15693750D02*
X42065000Y-15395000D01*
X42065000Y-14641250D02*
X42065000Y-15693750D01*
X35278750Y-8608750D02*
X35278750Y-12930000D01*
X33944842Y-54755158D02*
X27955158Y-54755158D01*
X23177301Y-49977301D02*
X23177301Y-37561551D01*
X58847500Y-90280000D02*
X69080000Y-90280000D01*
X69080000Y-90280000D02*
X70440000Y-88920000D01*
X70440000Y-84900000D02*
X65660000Y-80120000D01*
X49640000Y-3920000D02*
X49640000Y-13445000D01*
X70440000Y-88920000D02*
X70440000Y-84900000D01*
X23177301Y-37561551D02*
X22650000Y-37034250D01*
X63927500Y-51545000D02*
X63927500Y-42020000D01*
X49640000Y-13445000D02*
X59165000Y-22970000D01*
X59165000Y-22970000D02*
X60490000Y-24295000D01*
X27955158Y-54755158D02*
X23177301Y-49977301D01*
X61546250Y-80120000D02*
X61546250Y-68213750D01*
X61546250Y-68213750D02*
X54402500Y-61070000D01*
X65660000Y-80120000D02*
X61546250Y-80120000D01*
X60490000Y-24295000D02*
X60490000Y-38582500D01*
X60490000Y-38582500D02*
X63927500Y-42020000D01*
X54402500Y-61070000D02*
X63927500Y-51545000D01*
X68690000Y-3920000D02*
X68690000Y-13445000D01*
X82977500Y-42020000D02*
X78215000Y-37257500D01*
X82977500Y-42020000D02*
X82977500Y-51545000D01*
X78215000Y-37257500D02*
X78215000Y-22970000D01*
X82977500Y-51545000D02*
X73452500Y-61070000D01*
X68690000Y-13445000D02*
X78215000Y-22970000D01*
X102027500Y-42020000D02*
X97265000Y-37257500D01*
X102027500Y-51545000D02*
X102027500Y-42020000D01*
X92502500Y-61070000D02*
X102027500Y-51545000D01*
X87740000Y-3920000D02*
X97265000Y-13445000D01*
X97265000Y-37257500D02*
X97265000Y-22970000D01*
X97265000Y-13445000D02*
X97265000Y-22970000D01*
X116315000Y-37257500D02*
X121077500Y-42020000D01*
X121077500Y-51545000D02*
X111552500Y-61070000D01*
X106790000Y-3920000D02*
X116315000Y-13445000D01*
X116315000Y-13445000D02*
X116315000Y-22970000D01*
X116315000Y-22970000D02*
X116315000Y-37257500D01*
X121077500Y-42020000D02*
X121077500Y-51545000D01*
X130602500Y-77738750D02*
X132983750Y-80120000D01*
X132983750Y-84140017D02*
X133350000Y-84506267D01*
X140127500Y-51545000D02*
X140127500Y-42020000D01*
X132983750Y-80120000D02*
X132983750Y-84140017D01*
X130602500Y-61070000D02*
X130602500Y-77738750D01*
X140127500Y-42020000D02*
X140127500Y-27732500D01*
X135523750Y-90280000D02*
X139810000Y-90280000D01*
X135365000Y-13445000D02*
X125840000Y-3920000D01*
X135365000Y-22970000D02*
X135365000Y-13445000D01*
X133350000Y-84506267D02*
X133350000Y-88106250D01*
X130602500Y-61070000D02*
X140127500Y-51545000D01*
X140127500Y-27732500D02*
X135365000Y-22970000D01*
X133350000Y-88106250D02*
X135523750Y-90280000D01*
X154415000Y-37257500D02*
X159177500Y-42020000D01*
X154415000Y-22970000D02*
X154415000Y-13445000D01*
X159177500Y-42020000D02*
X159177500Y-51545000D01*
X154415000Y-13445000D02*
X144890000Y-3920000D01*
X159177500Y-51545000D02*
X149652500Y-61070000D01*
X154415000Y-22970000D02*
X154415000Y-37257500D01*
X173465000Y-13445000D02*
X173465000Y-22970000D01*
X173465000Y-37257500D02*
X173465000Y-22970000D01*
X163940000Y-3920000D02*
X173465000Y-13445000D01*
X168702500Y-61070000D02*
X178227500Y-51545000D01*
X178227500Y-42020000D02*
X173465000Y-37257500D01*
X178227500Y-51545000D02*
X178227500Y-42020000D01*
X204421250Y-77738750D02*
X187752500Y-61070000D01*
X197277500Y-51545000D02*
X197277500Y-42020000D01*
X197277500Y-42020000D02*
X197277500Y-27732500D01*
X192515000Y-22970000D02*
X192515000Y-13445000D01*
X197277500Y-27732500D02*
X192515000Y-22970000D01*
X204421250Y-80120000D02*
X204421250Y-77738750D01*
X187752500Y-61070000D02*
X197277500Y-51545000D01*
X192515000Y-13445000D02*
X182990000Y-3920000D01*
X202040000Y-3920000D02*
X202040000Y-13445000D01*
X202040000Y-13445000D02*
X211565000Y-22970000D01*
X211565000Y-37257500D02*
X216327500Y-42020000D01*
X216327500Y-51545000D02*
X206802500Y-61070000D01*
X216327500Y-42020000D02*
X216327500Y-51545000D01*
X211565000Y-22970000D02*
X211565000Y-37257500D01*
X230615000Y-13445000D02*
X221090000Y-3920000D01*
X233750000Y-85189073D02*
X233750000Y-88500000D01*
X231970000Y-90280000D02*
X223153750Y-90280000D01*
X233750000Y-88500000D02*
X231970000Y-90280000D01*
X235377500Y-51545000D02*
X235377500Y-42020000D01*
X225852500Y-80120000D02*
X228680927Y-80120000D01*
X235377500Y-27732500D02*
X230615000Y-22970000D01*
X228680927Y-80120000D02*
X233750000Y-85189073D01*
X235377500Y-42020000D02*
X235377500Y-27732500D01*
X225852500Y-80120000D02*
X225852500Y-61070000D01*
X230615000Y-22970000D02*
X230615000Y-13445000D01*
X225852500Y-61070000D02*
X235377500Y-51545000D01*
X240140000Y-3920000D02*
X240140000Y-13445000D01*
X252046250Y-61070000D02*
X259190000Y-68213750D01*
X249665000Y-22970000D02*
X249665000Y-58688750D01*
X259190000Y-68213750D02*
X259190000Y-80120000D01*
X240140000Y-13445000D02*
X249665000Y-22970000D01*
X249665000Y-58688750D02*
X252046250Y-61070000D01*
X273477500Y-22970000D02*
X263000000Y-22970000D01*
X278240000Y-80120000D02*
X278240000Y-61070000D01*
X263000000Y-22970000D02*
X254110000Y-14080000D01*
X34405171Y-47444829D02*
X34350000Y-47389658D01*
X266333750Y-42020000D02*
X273477500Y-34876250D01*
X34350000Y-47389658D02*
X34350000Y-42782556D01*
X34350000Y-42782556D02*
X34224020Y-42656576D01*
X278240000Y-53926250D02*
X266333750Y-42020000D01*
X273477500Y-34876250D02*
X273477500Y-22970000D01*
X278240000Y-61070000D02*
X278240000Y-53926250D01*
X281400000Y-51400000D02*
X281400000Y-16550000D01*
X279650000Y-53050000D02*
X279750000Y-53050000D01*
X281400000Y-16550000D02*
X278930000Y-14080000D01*
X35206034Y-47427262D02*
X35206034Y-42470422D01*
X279750000Y-53050000D02*
X281400000Y-51400000D01*
X268715000Y-9635000D02*
X268715000Y-3920000D01*
X273160000Y-14080000D02*
X268715000Y-9635000D01*
X35480103Y-47701331D02*
X35206034Y-47427262D01*
X278930000Y-14080000D02*
X273160000Y-14080000D01*
X297290000Y-42020000D02*
X297290000Y-61070000D01*
X37050000Y-48500000D02*
X36202989Y-47652989D01*
X36202989Y-47652989D02*
X36202989Y-42372695D01*
X297290000Y-22970000D02*
X297290000Y-42020000D01*
X297290000Y-61070000D02*
X297290000Y-80120000D01*
X36202989Y-42372695D02*
X36239800Y-42335884D01*
X297290000Y-3920000D02*
X297290000Y-22970000D01*
D14*
X30650000Y-33100000D02*
X29561413Y-32011413D01*
X21050000Y-41950000D02*
X19550000Y-40450000D01*
X26050000Y-33100000D02*
X25900000Y-33250000D01*
X28472826Y-33100000D02*
X26050000Y-33100000D01*
X19550000Y-40450000D02*
X19550000Y-35050000D01*
X21350000Y-33250000D02*
X23350000Y-33250000D01*
X32265020Y-43234980D02*
X37720180Y-37779820D01*
X29561413Y-32011413D02*
X28472826Y-33100000D01*
X19550000Y-35050000D02*
X21350000Y-33250000D01*
X32265020Y-45734980D02*
X32265020Y-43234980D01*
X37720180Y-31870180D02*
X36490360Y-33100000D01*
X36490360Y-33100000D02*
X30650000Y-33100000D01*
X31844453Y-46155547D02*
X32265020Y-45734980D01*
X25900000Y-33250000D02*
X23350000Y-33250000D01*
X37720180Y-37779820D02*
X37720180Y-31870180D01*
M02*
