%FSLAX45Y45*%
G04 Gerber Fmt 4.5, Leading zero omitted, Abs format (unit mm)*
G04 Created by KiCad (PCBNEW (6.0.0-0)) date 2022-07-22 22:21:09*
%MOMM*%
%LPD*%
G01*
G04 APERTURE LIST*
%TA.AperFunction,Profile*%
%ADD10C,0.200000*%
%TD*%
%ADD11C,0.200000*%
%ADD12C,0.040000*%
%ADD13C,0.070000*%
%ADD14C,0.100000*%
%ADD15C,0.300000*%
G04 APERTURE END LIST*
D10*
X1573193Y-80645D02*
G75*
G03*
X2131807Y-80645I279307J145645D01*
G01*
X225000Y0D02*
G75*
G03*
X0Y-225000I0J-225000D01*
G01*
X13003193Y-80645D02*
G75*
G03*
X12870189Y0I-133004J-69355D01*
G01*
X2264811Y0D02*
G75*
G03*
X2131807Y-80645I0J-150000D01*
G01*
X1440189Y0D02*
X225000Y0D01*
X30375000Y-9195000D02*
X30375000Y-225000D01*
X5465557Y-9339355D02*
G75*
G03*
X5598561Y-9420000I133003J69355D01*
G01*
X5465557Y-9339355D02*
G75*
G03*
X4906943Y-9339355I-279307J-145645D01*
G01*
X26896807Y-9339355D02*
G75*
G03*
X27029811Y-9420000I133003J69355D01*
G01*
X23832500Y-7515000D02*
X24640000Y-7515000D01*
X28110189Y0D02*
X13694810Y0D01*
X20966439Y-9420000D02*
X5598560Y-9420000D01*
X0Y-9195000D02*
X0Y-225000D01*
X28934810Y0D02*
G75*
G03*
X28801807Y-80645I0J-150000D01*
G01*
X4773939Y-9420000D02*
G75*
G03*
X4906943Y-9339355I0J150000D01*
G01*
X26205189Y-9420000D02*
G75*
G03*
X26338193Y-9339355I0J150000D01*
G01*
X23482500Y-9420000D02*
X21791061Y-9420000D01*
X30375000Y-225000D02*
G75*
G03*
X30150000Y0I-225000J0D01*
G01*
X24765000Y-7640000D02*
G75*
G03*
X24640000Y-7515000I-125000J0D01*
G01*
X26896807Y-9339355D02*
G75*
G03*
X26338193Y-9339355I-279307J-145645D01*
G01*
X30150000Y-9420000D02*
G75*
G03*
X30375000Y-9195000I0J225000D01*
G01*
X24765000Y-9195000D02*
G75*
G03*
X24990000Y-9420000I225000J0D01*
G01*
X20966439Y-9420000D02*
G75*
G03*
X21099443Y-9339355I0J150000D01*
G01*
X28243193Y-80645D02*
G75*
G03*
X28110189Y0I-133004J-69355D01*
G01*
X23832500Y-7515000D02*
G75*
G03*
X23707500Y-7640000I0J-125000D01*
G01*
X24765000Y-7640000D02*
X24765000Y-9195000D01*
X23482500Y-9420000D02*
G75*
G03*
X23707500Y-9195000I0J225000D01*
G01*
X26205189Y-9420000D02*
X24990000Y-9420000D01*
X23707500Y-7640000D02*
X23707500Y-9195000D01*
X13003193Y-80645D02*
G75*
G03*
X13561807Y-80645I279307J145645D01*
G01*
X1573193Y-80645D02*
G75*
G03*
X1440189Y0I-133004J-69355D01*
G01*
X30150000Y-9420000D02*
X27029810Y-9420000D01*
X4773939Y-9420000D02*
X225000Y-9420000D01*
X13694810Y0D02*
G75*
G03*
X13561807Y-80645I0J-150000D01*
G01*
X12870189Y0D02*
X2264811Y0D01*
X21658057Y-9339355D02*
G75*
G03*
X21099443Y-9339355I-279307J-145645D01*
G01*
X21658057Y-9339355D02*
G75*
G03*
X21791061Y-9420000I133003J69355D01*
G01*
X0Y-9195000D02*
G75*
G03*
X225000Y-9420000I225000J0D01*
G01*
X30150000Y0D02*
X28934810Y0D01*
X28243193Y-80645D02*
G75*
G03*
X28801807Y-80645I279307J145645D01*
G01*
D11*
D12*
X1005148Y-1923148D02*
X1045148Y-1963148D01*
X1045148Y-1923148D02*
X1005148Y-1963148D01*
X1610250Y-3561125D02*
X1650250Y-3601125D01*
X1650250Y-3561125D02*
X1610250Y-3601125D01*
X1854000Y-3764000D02*
X1894000Y-3804000D01*
X1894000Y-3764000D02*
X1854000Y-3804000D01*
X1990000Y-3226000D02*
X2030000Y-3266000D01*
X2030000Y-3226000D02*
X1990000Y-3266000D01*
X2022861Y-3708861D02*
X2062861Y-3748861D01*
X2062861Y-3708861D02*
X2022861Y-3748861D01*
X2085000Y-4175000D02*
X2125000Y-4215000D01*
X2125000Y-4175000D02*
X2085000Y-4215000D01*
X2095311Y-3783425D02*
X2135312Y-3823425D01*
X2135312Y-3783425D02*
X2095311Y-3823425D01*
X2240375Y-1124375D02*
X2280375Y-1164375D01*
X2280375Y-1124375D02*
X2240375Y-1164375D01*
X2245000Y-3683425D02*
X2285000Y-3723425D01*
X2285000Y-3683425D02*
X2245000Y-3723425D01*
X2269375Y-3036500D02*
X2309375Y-3076500D01*
X2309375Y-3036500D02*
X2269375Y-3076500D01*
X2315000Y-3305000D02*
X2355000Y-3345000D01*
X2355000Y-3305000D02*
X2315000Y-3345000D01*
X2326000Y-1382000D02*
X2366000Y-1422000D01*
X2366000Y-1382000D02*
X2326000Y-1422000D01*
X2388750Y-8453750D02*
X2428750Y-8493750D01*
X2428750Y-8453750D02*
X2388750Y-8493750D01*
X2451000Y-1382000D02*
X2491000Y-1422000D01*
X2491000Y-1382000D02*
X2451000Y-1422000D01*
X2485000Y-4595000D02*
X2525000Y-4635000D01*
X2525000Y-4595000D02*
X2485000Y-4635000D01*
X2535000Y-6835000D02*
X2575000Y-6875000D01*
X2575000Y-6835000D02*
X2535000Y-6875000D01*
X2576000Y-1382000D02*
X2616000Y-1422000D01*
X2616000Y-1382000D02*
X2576000Y-1422000D01*
X2585000Y-3290000D02*
X2625000Y-3330000D01*
X2625000Y-3290000D02*
X2585000Y-3330000D01*
X2874375Y-5377000D02*
X2914375Y-5417000D01*
X2914375Y-5377000D02*
X2874375Y-5417000D01*
X2936141Y-3181141D02*
X2976141Y-3221141D01*
X2976141Y-3181141D02*
X2936141Y-3221141D01*
X3155000Y-4160000D02*
X3195000Y-4200000D01*
X3195000Y-4160000D02*
X3155000Y-4200000D01*
X3164445Y-4595555D02*
X3204445Y-4635555D01*
X3204445Y-4595555D02*
X3164445Y-4635555D01*
X3225000Y-3035000D02*
X3265000Y-3075000D01*
X3265000Y-3035000D02*
X3225000Y-3075000D01*
X3327573Y-2957450D02*
X3367573Y-2997450D01*
X3367573Y-2957450D02*
X3327573Y-2997450D01*
X3374484Y-5455516D02*
X3414484Y-5495516D01*
X3414484Y-5455516D02*
X3374484Y-5495516D01*
X3402402Y-4245658D02*
X3442402Y-4285658D01*
X3442402Y-4245658D02*
X3402402Y-4285658D01*
X3420517Y-4724483D02*
X3460517Y-4764483D01*
X3460517Y-4724483D02*
X3420517Y-4764483D01*
X3470000Y-3011000D02*
X3510000Y-3051000D01*
X3510000Y-3011000D02*
X3470000Y-3051000D01*
X3500000Y-2885000D02*
X3540000Y-2925000D01*
X3540000Y-2885000D02*
X3500000Y-2925000D01*
X3500603Y-4227042D02*
X3540603Y-4267042D01*
X3540603Y-4227042D02*
X3500603Y-4267042D01*
X3528010Y-4750133D02*
X3568010Y-4790133D01*
X3568010Y-4750133D02*
X3528010Y-4790133D01*
X3603980Y-4213588D02*
X3643980Y-4253588D01*
X3643980Y-4213588D02*
X3603980Y-4253588D01*
X3685000Y-4830000D02*
X3725000Y-4870000D01*
X3725000Y-4830000D02*
X3685000Y-4870000D01*
X3752018Y-3167018D02*
X3792018Y-3207018D01*
X3792018Y-3167018D02*
X3752018Y-3207018D01*
X3910000Y-4760000D02*
X3950000Y-4800000D01*
X3950000Y-4760000D02*
X3910000Y-4800000D01*
X4007750Y-1968000D02*
X4047750Y-2008000D01*
X4047750Y-1968000D02*
X4007750Y-2008000D01*
X4017584Y-3087990D02*
X4057584Y-3127990D01*
X4057584Y-3087990D02*
X4017584Y-3127990D01*
X4235375Y-1382000D02*
X4275375Y-1422000D01*
X4275375Y-1382000D02*
X4235375Y-1422000D01*
X4904915Y-3208460D02*
X4944915Y-3248460D01*
X4944915Y-3208460D02*
X4904915Y-3248460D01*
X27945000Y-5285000D02*
X27985000Y-5325000D01*
X27985000Y-5285000D02*
X27945000Y-5325000D01*
D13*
X308000Y-3531000D02*
G75*
G03*
X308000Y-3531000I-35000J0D01*
G01*
X308000Y-3658000D02*
G75*
G03*
X308000Y-3658000I-35000J0D01*
G01*
X308000Y-3785000D02*
G75*
G03*
X308000Y-3785000I-35000J0D01*
G01*
D14*
X253500Y-1657500D02*
X253500Y-1757500D01*
X203500Y-1707500D02*
X303500Y-1707500D01*
X253500Y-1911500D02*
X253500Y-2011500D01*
X203500Y-1961500D02*
X303500Y-1961500D01*
X253500Y-2165500D02*
X253500Y-2265500D01*
X203500Y-2215500D02*
X303500Y-2215500D01*
X507500Y-1657500D02*
X507500Y-1757500D01*
X457500Y-1707500D02*
X557500Y-1707500D01*
X507500Y-1911500D02*
X507500Y-2011500D01*
X457500Y-1961500D02*
X557500Y-1961500D01*
X507500Y-2165500D02*
X507500Y-2265500D01*
X457500Y-2215500D02*
X557500Y-2215500D01*
D15*
X625067Y-752067D02*
X625067Y-539933D01*
X412933Y-539933D01*
X412933Y-752067D01*
X625067Y-752067D01*
X863192Y-4562067D02*
X863192Y-4349933D01*
X651058Y-4349933D01*
X651058Y-4562067D01*
X863192Y-4562067D01*
X863192Y-8372067D02*
X863192Y-8159933D01*
X651058Y-8159933D01*
X651058Y-8372067D01*
X863192Y-8372067D01*
X1101317Y-2657067D02*
X1101317Y-2444933D01*
X889183Y-2444933D01*
X889183Y-2657067D01*
X1101317Y-2657067D01*
X1228317Y-9134067D02*
X1228317Y-8921933D01*
X1016183Y-8921933D01*
X1016183Y-9134067D01*
X1228317Y-9134067D01*
X1260067Y-498067D02*
X1260067Y-285933D01*
X1047933Y-285933D01*
X1047933Y-498067D01*
X1260067Y-498067D01*
X1466442Y-5324067D02*
X1466442Y-5111933D01*
X1254308Y-5111933D01*
X1254308Y-5324067D01*
X1466442Y-5324067D01*
X1498192Y-4308067D02*
X1498192Y-4095933D01*
X1286058Y-4095933D01*
X1286058Y-4308067D01*
X1498192Y-4308067D01*
X1498192Y-8118067D02*
X1498192Y-7905933D01*
X1286058Y-7905933D01*
X1286058Y-8118067D01*
X1498192Y-8118067D01*
X1736317Y-2403067D02*
X1736317Y-2190933D01*
X1524183Y-2190933D01*
X1524183Y-2403067D01*
X1736317Y-2403067D01*
X1815692Y-6467067D02*
X1815692Y-6254933D01*
X1603558Y-6254933D01*
X1603558Y-6467067D01*
X1815692Y-6467067D01*
X1863317Y-8880067D02*
X1863317Y-8667933D01*
X1651183Y-8667933D01*
X1651183Y-8880067D01*
X1863317Y-8880067D01*
X2101442Y-5070067D02*
X2101442Y-4857933D01*
X1889308Y-4857933D01*
X1889308Y-5070067D01*
X2101442Y-5070067D01*
X2450692Y-6213067D02*
X2450692Y-6000933D01*
X2238558Y-6000933D01*
X2238558Y-6213067D01*
X2450692Y-6213067D01*
X2530067Y-752067D02*
X2530067Y-539933D01*
X2317933Y-539933D01*
X2317933Y-752067D01*
X2530067Y-752067D01*
X3165067Y-498067D02*
X3165067Y-285933D01*
X2952933Y-285933D01*
X2952933Y-498067D01*
X3165067Y-498067D01*
X3244442Y-8372067D02*
X3244442Y-8159933D01*
X3032308Y-8159933D01*
X3032308Y-8372067D01*
X3244442Y-8372067D01*
X3482567Y-2657067D02*
X3482567Y-2444933D01*
X3270433Y-2444933D01*
X3270433Y-2657067D01*
X3482567Y-2657067D01*
X3609567Y-9134067D02*
X3609567Y-8921933D01*
X3397433Y-8921933D01*
X3397433Y-9134067D01*
X3609567Y-9134067D01*
X3879442Y-8118067D02*
X3879442Y-7905933D01*
X3667308Y-7905933D01*
X3667308Y-8118067D01*
X3879442Y-8118067D01*
X3958817Y-4562067D02*
X3958817Y-4349933D01*
X3746683Y-4349933D01*
X3746683Y-4562067D01*
X3958817Y-4562067D01*
X4117567Y-2403067D02*
X4117567Y-2190933D01*
X3905433Y-2190933D01*
X3905433Y-2403067D01*
X4117567Y-2403067D01*
X4244567Y-8880067D02*
X4244567Y-8667933D01*
X4032433Y-8667933D01*
X4032433Y-8880067D01*
X4244567Y-8880067D01*
X4435067Y-752067D02*
X4435067Y-539933D01*
X4222933Y-539933D01*
X4222933Y-752067D01*
X4435067Y-752067D01*
X4593817Y-4308067D02*
X4593817Y-4095933D01*
X4381683Y-4095933D01*
X4381683Y-4308067D01*
X4593817Y-4308067D01*
X4911317Y-6467067D02*
X4911317Y-6254933D01*
X4699183Y-6254933D01*
X4699183Y-6467067D01*
X4911317Y-6467067D01*
X5070067Y-498067D02*
X5070067Y-285933D01*
X4857933Y-285933D01*
X4857933Y-498067D01*
X5070067Y-498067D01*
X5387567Y-2657067D02*
X5387567Y-2444933D01*
X5175433Y-2444933D01*
X5175433Y-2657067D01*
X5387567Y-2657067D01*
X5546317Y-6213067D02*
X5546317Y-6000933D01*
X5334183Y-6000933D01*
X5334183Y-6213067D01*
X5546317Y-6213067D01*
X5625692Y-8372067D02*
X5625692Y-8159933D01*
X5413558Y-8159933D01*
X5413558Y-8372067D01*
X5625692Y-8372067D01*
X5863817Y-4562067D02*
X5863817Y-4349933D01*
X5651683Y-4349933D01*
X5651683Y-4562067D01*
X5863817Y-4562067D01*
X5990817Y-9134067D02*
X5990817Y-8921933D01*
X5778683Y-8921933D01*
X5778683Y-9134067D01*
X5990817Y-9134067D01*
X6022567Y-2403067D02*
X6022567Y-2190933D01*
X5810433Y-2190933D01*
X5810433Y-2403067D01*
X6022567Y-2403067D01*
X6260692Y-8118067D02*
X6260692Y-7905933D01*
X6048558Y-7905933D01*
X6048558Y-8118067D01*
X6260692Y-8118067D01*
X6340067Y-752067D02*
X6340067Y-539933D01*
X6127933Y-539933D01*
X6127933Y-752067D01*
X6340067Y-752067D01*
X6498817Y-4308067D02*
X6498817Y-4095933D01*
X6286683Y-4095933D01*
X6286683Y-4308067D01*
X6498817Y-4308067D01*
X6625817Y-8880067D02*
X6625817Y-8667933D01*
X6413683Y-8667933D01*
X6413683Y-8880067D01*
X6625817Y-8880067D01*
X6816317Y-6467067D02*
X6816317Y-6254933D01*
X6604183Y-6254933D01*
X6604183Y-6467067D01*
X6816317Y-6467067D01*
X6975067Y-498067D02*
X6975067Y-285933D01*
X6762933Y-285933D01*
X6762933Y-498067D01*
X6975067Y-498067D01*
X7292567Y-2657067D02*
X7292567Y-2444933D01*
X7080433Y-2444933D01*
X7080433Y-2657067D01*
X7292567Y-2657067D01*
X7451317Y-6213067D02*
X7451317Y-6000933D01*
X7239183Y-6000933D01*
X7239183Y-6213067D01*
X7451317Y-6213067D01*
X7768817Y-4562067D02*
X7768817Y-4349933D01*
X7556683Y-4349933D01*
X7556683Y-4562067D01*
X7768817Y-4562067D01*
X7927567Y-2403067D02*
X7927567Y-2190933D01*
X7715433Y-2190933D01*
X7715433Y-2403067D01*
X7927567Y-2403067D01*
X8245067Y-752067D02*
X8245067Y-539933D01*
X8032933Y-539933D01*
X8032933Y-752067D01*
X8245067Y-752067D01*
X8403817Y-4308067D02*
X8403817Y-4095933D01*
X8191683Y-4095933D01*
X8191683Y-4308067D01*
X8403817Y-4308067D01*
X8721317Y-6467067D02*
X8721317Y-6254933D01*
X8509183Y-6254933D01*
X8509183Y-6467067D01*
X8721317Y-6467067D01*
X8880067Y-498067D02*
X8880067Y-285933D01*
X8667933Y-285933D01*
X8667933Y-498067D01*
X8880067Y-498067D01*
X9197567Y-2657067D02*
X9197567Y-2444933D01*
X8985433Y-2444933D01*
X8985433Y-2657067D01*
X9197567Y-2657067D01*
X9356317Y-6213067D02*
X9356317Y-6000933D01*
X9144183Y-6000933D01*
X9144183Y-6213067D01*
X9356317Y-6213067D01*
X9673817Y-4562067D02*
X9673817Y-4349933D01*
X9461683Y-4349933D01*
X9461683Y-4562067D01*
X9673817Y-4562067D01*
X9832567Y-2403067D02*
X9832567Y-2190933D01*
X9620433Y-2190933D01*
X9620433Y-2403067D01*
X9832567Y-2403067D01*
X10150067Y-752067D02*
X10150067Y-539933D01*
X9937933Y-539933D01*
X9937933Y-752067D01*
X10150067Y-752067D01*
X10308817Y-4308067D02*
X10308817Y-4095933D01*
X10096683Y-4095933D01*
X10096683Y-4308067D01*
X10308817Y-4308067D01*
X10626317Y-6467067D02*
X10626317Y-6254933D01*
X10414183Y-6254933D01*
X10414183Y-6467067D01*
X10626317Y-6467067D01*
X10785067Y-498067D02*
X10785067Y-285933D01*
X10572933Y-285933D01*
X10572933Y-498067D01*
X10785067Y-498067D01*
X11102567Y-2657067D02*
X11102567Y-2444933D01*
X10890433Y-2444933D01*
X10890433Y-2657067D01*
X11102567Y-2657067D01*
X11261317Y-6213067D02*
X11261317Y-6000933D01*
X11049183Y-6000933D01*
X11049183Y-6213067D01*
X11261317Y-6213067D01*
X11578817Y-4562067D02*
X11578817Y-4349933D01*
X11366683Y-4349933D01*
X11366683Y-4562067D01*
X11578817Y-4562067D01*
X11737567Y-2403067D02*
X11737567Y-2190933D01*
X11525433Y-2190933D01*
X11525433Y-2403067D01*
X11737567Y-2403067D01*
X12055067Y-752067D02*
X12055067Y-539933D01*
X11842933Y-539933D01*
X11842933Y-752067D01*
X12055067Y-752067D01*
X12213817Y-4308067D02*
X12213817Y-4095933D01*
X12001683Y-4095933D01*
X12001683Y-4308067D01*
X12213817Y-4308067D01*
X12531317Y-6467067D02*
X12531317Y-6254933D01*
X12319183Y-6254933D01*
X12319183Y-6467067D01*
X12531317Y-6467067D01*
X12690067Y-498067D02*
X12690067Y-285933D01*
X12477933Y-285933D01*
X12477933Y-498067D01*
X12690067Y-498067D01*
X12769442Y-8372067D02*
X12769442Y-8159933D01*
X12557308Y-8159933D01*
X12557308Y-8372067D01*
X12769442Y-8372067D01*
X13007567Y-2657067D02*
X13007567Y-2444933D01*
X12795433Y-2444933D01*
X12795433Y-2657067D01*
X13007567Y-2657067D01*
X13166317Y-6213067D02*
X13166317Y-6000933D01*
X12954183Y-6000933D01*
X12954183Y-6213067D01*
X13166317Y-6213067D01*
X13404442Y-8118067D02*
X13404442Y-7905933D01*
X13192308Y-7905933D01*
X13192308Y-8118067D01*
X13404442Y-8118067D01*
X13483817Y-4562067D02*
X13483817Y-4349933D01*
X13271683Y-4349933D01*
X13271683Y-4562067D01*
X13483817Y-4562067D01*
X13642567Y-2403067D02*
X13642567Y-2190933D01*
X13430433Y-2190933D01*
X13430433Y-2403067D01*
X13642567Y-2403067D01*
X13960067Y-752067D02*
X13960067Y-539933D01*
X13747933Y-539933D01*
X13747933Y-752067D01*
X13960067Y-752067D01*
X14087067Y-9134067D02*
X14087067Y-8921933D01*
X13874933Y-8921933D01*
X13874933Y-9134067D01*
X14087067Y-9134067D01*
X14118817Y-4308067D02*
X14118817Y-4095933D01*
X13906683Y-4095933D01*
X13906683Y-4308067D01*
X14118817Y-4308067D01*
X14436317Y-6467067D02*
X14436317Y-6254933D01*
X14224183Y-6254933D01*
X14224183Y-6467067D01*
X14436317Y-6467067D01*
X14595067Y-498067D02*
X14595067Y-285933D01*
X14382933Y-285933D01*
X14382933Y-498067D01*
X14595067Y-498067D01*
X14722067Y-8880067D02*
X14722067Y-8667933D01*
X14509933Y-8667933D01*
X14509933Y-8880067D01*
X14722067Y-8880067D01*
X14912567Y-2657067D02*
X14912567Y-2444933D01*
X14700433Y-2444933D01*
X14700433Y-2657067D01*
X14912567Y-2657067D01*
X15071317Y-6213067D02*
X15071317Y-6000933D01*
X14859183Y-6000933D01*
X14859183Y-6213067D01*
X15071317Y-6213067D01*
X15388817Y-4562067D02*
X15388817Y-4349933D01*
X15176683Y-4349933D01*
X15176683Y-4562067D01*
X15388817Y-4562067D01*
X15547567Y-2403067D02*
X15547567Y-2190933D01*
X15335433Y-2190933D01*
X15335433Y-2403067D01*
X15547567Y-2403067D01*
X15865067Y-752067D02*
X15865067Y-539933D01*
X15652933Y-539933D01*
X15652933Y-752067D01*
X15865067Y-752067D01*
X16023817Y-4308067D02*
X16023817Y-4095933D01*
X15811683Y-4095933D01*
X15811683Y-4308067D01*
X16023817Y-4308067D01*
X16341317Y-6467067D02*
X16341317Y-6254933D01*
X16129183Y-6254933D01*
X16129183Y-6467067D01*
X16341317Y-6467067D01*
X16500067Y-498067D02*
X16500067Y-285933D01*
X16287933Y-285933D01*
X16287933Y-498067D01*
X16500067Y-498067D01*
X16817567Y-2657067D02*
X16817567Y-2444933D01*
X16605433Y-2444933D01*
X16605433Y-2657067D01*
X16817567Y-2657067D01*
X16976317Y-6213067D02*
X16976317Y-6000933D01*
X16764183Y-6000933D01*
X16764183Y-6213067D01*
X16976317Y-6213067D01*
X17293817Y-4562067D02*
X17293817Y-4349933D01*
X17081683Y-4349933D01*
X17081683Y-4562067D01*
X17293817Y-4562067D01*
X17452567Y-2403067D02*
X17452567Y-2190933D01*
X17240433Y-2190933D01*
X17240433Y-2403067D01*
X17452567Y-2403067D01*
X17770067Y-752067D02*
X17770067Y-539933D01*
X17557933Y-539933D01*
X17557933Y-752067D01*
X17770067Y-752067D01*
X17928817Y-4308067D02*
X17928817Y-4095933D01*
X17716683Y-4095933D01*
X17716683Y-4308067D01*
X17928817Y-4308067D01*
X18246317Y-6467067D02*
X18246317Y-6254933D01*
X18034183Y-6254933D01*
X18034183Y-6467067D01*
X18246317Y-6467067D01*
X18405067Y-498067D02*
X18405067Y-285933D01*
X18192933Y-285933D01*
X18192933Y-498067D01*
X18405067Y-498067D01*
X18722567Y-2657067D02*
X18722567Y-2444933D01*
X18510433Y-2444933D01*
X18510433Y-2657067D01*
X18722567Y-2657067D01*
X18881317Y-6213067D02*
X18881317Y-6000933D01*
X18669183Y-6000933D01*
X18669183Y-6213067D01*
X18881317Y-6213067D01*
X19198817Y-4562067D02*
X19198817Y-4349933D01*
X18986683Y-4349933D01*
X18986683Y-4562067D01*
X19198817Y-4562067D01*
X19357567Y-2403067D02*
X19357567Y-2190933D01*
X19145433Y-2190933D01*
X19145433Y-2403067D01*
X19357567Y-2403067D01*
X19675067Y-752067D02*
X19675067Y-539933D01*
X19462933Y-539933D01*
X19462933Y-752067D01*
X19675067Y-752067D01*
X19833817Y-4308067D02*
X19833817Y-4095933D01*
X19621683Y-4095933D01*
X19621683Y-4308067D01*
X19833817Y-4308067D01*
X19913192Y-8372067D02*
X19913192Y-8159933D01*
X19701058Y-8159933D01*
X19701058Y-8372067D01*
X19913192Y-8372067D01*
X20151317Y-6467067D02*
X20151317Y-6254933D01*
X19939183Y-6254933D01*
X19939183Y-6467067D01*
X20151317Y-6467067D01*
X20310067Y-498067D02*
X20310067Y-285933D01*
X20097933Y-285933D01*
X20097933Y-498067D01*
X20310067Y-498067D01*
X20548192Y-8118067D02*
X20548192Y-7905933D01*
X20336058Y-7905933D01*
X20336058Y-8118067D01*
X20548192Y-8118067D01*
X20627567Y-2657067D02*
X20627567Y-2444933D01*
X20415433Y-2444933D01*
X20415433Y-2657067D01*
X20627567Y-2657067D01*
X20786317Y-6213067D02*
X20786317Y-6000933D01*
X20574183Y-6000933D01*
X20574183Y-6213067D01*
X20786317Y-6213067D01*
X21103817Y-4562067D02*
X21103817Y-4349933D01*
X20891683Y-4349933D01*
X20891683Y-4562067D01*
X21103817Y-4562067D01*
X21262567Y-2403067D02*
X21262567Y-2190933D01*
X21050433Y-2190933D01*
X21050433Y-2403067D01*
X21262567Y-2403067D01*
X21580067Y-752067D02*
X21580067Y-539933D01*
X21367933Y-539933D01*
X21367933Y-752067D01*
X21580067Y-752067D01*
X21738817Y-4308067D02*
X21738817Y-4095933D01*
X21526683Y-4095933D01*
X21526683Y-4308067D01*
X21738817Y-4308067D01*
X22056317Y-6467067D02*
X22056317Y-6254933D01*
X21844183Y-6254933D01*
X21844183Y-6467067D01*
X22056317Y-6467067D01*
X22056317Y-8372067D02*
X22056317Y-8159933D01*
X21844183Y-8159933D01*
X21844183Y-8372067D01*
X22056317Y-8372067D01*
X22215067Y-498067D02*
X22215067Y-285933D01*
X22002933Y-285933D01*
X22002933Y-498067D01*
X22215067Y-498067D01*
X22421442Y-9134067D02*
X22421442Y-8921933D01*
X22209308Y-8921933D01*
X22209308Y-9134067D01*
X22421442Y-9134067D01*
X22532567Y-2657067D02*
X22532567Y-2444933D01*
X22320433Y-2444933D01*
X22320433Y-2657067D01*
X22532567Y-2657067D01*
X22691317Y-6213067D02*
X22691317Y-6000933D01*
X22479183Y-6000933D01*
X22479183Y-6213067D01*
X22691317Y-6213067D01*
X22691317Y-8118067D02*
X22691317Y-7905933D01*
X22479183Y-7905933D01*
X22479183Y-8118067D01*
X22691317Y-8118067D01*
X23008817Y-4562067D02*
X23008817Y-4349933D01*
X22796683Y-4349933D01*
X22796683Y-4562067D01*
X23008817Y-4562067D01*
X23056442Y-8880067D02*
X23056442Y-8667933D01*
X22844308Y-8667933D01*
X22844308Y-8880067D01*
X23056442Y-8880067D01*
X23167567Y-2403067D02*
X23167567Y-2190933D01*
X22955433Y-2190933D01*
X22955433Y-2403067D01*
X23167567Y-2403067D01*
X23485067Y-752067D02*
X23485067Y-539933D01*
X23272933Y-539933D01*
X23272933Y-752067D01*
X23485067Y-752067D01*
X23643817Y-4308067D02*
X23643817Y-4095933D01*
X23431683Y-4095933D01*
X23431683Y-4308067D01*
X23643817Y-4308067D01*
X24120067Y-498067D02*
X24120067Y-285933D01*
X23907933Y-285933D01*
X23907933Y-498067D01*
X24120067Y-498067D01*
X24437567Y-2657067D02*
X24437567Y-2444933D01*
X24225433Y-2444933D01*
X24225433Y-2657067D01*
X24437567Y-2657067D01*
X24675692Y-6467067D02*
X24675692Y-6254933D01*
X24463558Y-6254933D01*
X24463558Y-6467067D01*
X24675692Y-6467067D01*
X25072567Y-2403067D02*
X25072567Y-2190933D01*
X24860433Y-2190933D01*
X24860433Y-2403067D01*
X25072567Y-2403067D01*
X25310692Y-6213067D02*
X25310692Y-6000933D01*
X25098558Y-6000933D01*
X25098558Y-6213067D01*
X25310692Y-6213067D01*
X25390067Y-8372067D02*
X25390067Y-8159933D01*
X25177933Y-8159933D01*
X25177933Y-8372067D01*
X25390067Y-8372067D01*
X25517067Y-1514067D02*
X25517067Y-1301933D01*
X25304933Y-1301933D01*
X25304933Y-1514067D01*
X25517067Y-1514067D01*
X26025067Y-8118067D02*
X26025067Y-7905933D01*
X25812933Y-7905933D01*
X25812933Y-8118067D01*
X26025067Y-8118067D01*
X26104442Y-4562067D02*
X26104442Y-4349933D01*
X25892308Y-4349933D01*
X25892308Y-4562067D01*
X26104442Y-4562067D01*
X26152067Y-1260067D02*
X26152067Y-1047933D01*
X25939933Y-1047933D01*
X25939933Y-1260067D01*
X26152067Y-1260067D01*
X26342567Y-752067D02*
X26342567Y-539933D01*
X26130433Y-539933D01*
X26130433Y-752067D01*
X26342567Y-752067D01*
X26739442Y-4308067D02*
X26739442Y-4095933D01*
X26527308Y-4095933D01*
X26527308Y-4308067D01*
X26739442Y-4308067D01*
X26818817Y-2657067D02*
X26818817Y-2444933D01*
X26606683Y-2444933D01*
X26606683Y-2657067D01*
X26818817Y-2657067D01*
X26977567Y-498067D02*
X26977567Y-285933D01*
X26765433Y-285933D01*
X26765433Y-498067D01*
X26977567Y-498067D01*
X27295067Y-6467067D02*
X27295067Y-6254933D01*
X27082933Y-6254933D01*
X27082933Y-6467067D01*
X27295067Y-6467067D01*
X27295067Y-8372067D02*
X27295067Y-8159933D01*
X27082933Y-8159933D01*
X27082933Y-8372067D01*
X27295067Y-8372067D01*
X27422067Y-1514067D02*
X27422067Y-1301933D01*
X27209933Y-1301933D01*
X27209933Y-1514067D01*
X27422067Y-1514067D01*
X27453817Y-2403067D02*
X27453817Y-2190933D01*
X27241683Y-2190933D01*
X27241683Y-2403067D01*
X27453817Y-2403067D01*
X27930067Y-6213067D02*
X27930067Y-6000933D01*
X27717933Y-6000933D01*
X27717933Y-6213067D01*
X27930067Y-6213067D01*
X27930067Y-8118067D02*
X27930067Y-7905933D01*
X27717933Y-7905933D01*
X27717933Y-8118067D01*
X27930067Y-8118067D01*
X28057067Y-1260067D02*
X28057067Y-1047933D01*
X27844933Y-1047933D01*
X27844933Y-1260067D01*
X28057067Y-1260067D01*
X29200067Y-752067D02*
X29200067Y-539933D01*
X28987933Y-539933D01*
X28987933Y-752067D01*
X29200067Y-752067D01*
X29200067Y-2657067D02*
X29200067Y-2444933D01*
X28987933Y-2444933D01*
X28987933Y-2657067D01*
X29200067Y-2657067D01*
X29200067Y-4562067D02*
X29200067Y-4349933D01*
X28987933Y-4349933D01*
X28987933Y-4562067D01*
X29200067Y-4562067D01*
X29200067Y-6467067D02*
X29200067Y-6254933D01*
X28987933Y-6254933D01*
X28987933Y-6467067D01*
X29200067Y-6467067D01*
X29200067Y-8372067D02*
X29200067Y-8159933D01*
X28987933Y-8159933D01*
X28987933Y-8372067D01*
X29200067Y-8372067D01*
X29835067Y-498067D02*
X29835067Y-285933D01*
X29622933Y-285933D01*
X29622933Y-498067D01*
X29835067Y-498067D01*
X29835067Y-2403067D02*
X29835067Y-2190933D01*
X29622933Y-2190933D01*
X29622933Y-2403067D01*
X29835067Y-2403067D01*
X29835067Y-4308067D02*
X29835067Y-4095933D01*
X29622933Y-4095933D01*
X29622933Y-4308067D01*
X29835067Y-4308067D01*
X29835067Y-6213067D02*
X29835067Y-6000933D01*
X29622933Y-6000933D01*
X29622933Y-6213067D01*
X29835067Y-6213067D01*
X29835067Y-8118067D02*
X29835067Y-7905933D01*
X29622933Y-7905933D01*
X29622933Y-8118067D01*
X29835067Y-8118067D01*
D11*
X247619Y-9740476D02*
X247619Y-9540476D01*
X295238Y-9540476D01*
X323810Y-9550000D01*
X342857Y-9569048D01*
X352381Y-9588095D01*
X361905Y-9626190D01*
X361905Y-9654762D01*
X352381Y-9692857D01*
X342857Y-9711905D01*
X323810Y-9730952D01*
X295238Y-9740476D01*
X247619Y-9740476D01*
X447619Y-9740476D02*
X447619Y-9607143D01*
X447619Y-9645238D02*
X457143Y-9626190D01*
X466667Y-9616667D01*
X485714Y-9607143D01*
X504762Y-9607143D01*
X571429Y-9740476D02*
X571429Y-9607143D01*
X571429Y-9540476D02*
X561905Y-9550000D01*
X571429Y-9559524D01*
X580952Y-9550000D01*
X571429Y-9540476D01*
X571429Y-9559524D01*
X695238Y-9740476D02*
X676190Y-9730952D01*
X666667Y-9711905D01*
X666667Y-9540476D01*
X800000Y-9740476D02*
X780952Y-9730952D01*
X771428Y-9711905D01*
X771428Y-9540476D01*
X1028571Y-9740476D02*
X1028571Y-9540476D01*
X1095238Y-9683333D01*
X1161905Y-9540476D01*
X1161905Y-9740476D01*
X1342857Y-9740476D02*
X1342857Y-9635714D01*
X1333333Y-9616667D01*
X1314286Y-9607143D01*
X1276190Y-9607143D01*
X1257143Y-9616667D01*
X1342857Y-9730952D02*
X1323810Y-9740476D01*
X1276190Y-9740476D01*
X1257143Y-9730952D01*
X1247619Y-9711905D01*
X1247619Y-9692857D01*
X1257143Y-9673810D01*
X1276190Y-9664286D01*
X1323810Y-9664286D01*
X1342857Y-9654762D01*
X1438095Y-9607143D02*
X1438095Y-9807143D01*
X1438095Y-9616667D02*
X1457143Y-9607143D01*
X1495238Y-9607143D01*
X1514286Y-9616667D01*
X1523809Y-9626190D01*
X1533333Y-9645238D01*
X1533333Y-9702381D01*
X1523809Y-9721429D01*
X1514286Y-9730952D01*
X1495238Y-9740476D01*
X1457143Y-9740476D01*
X1438095Y-9730952D01*
X1619048Y-9721429D02*
X1628571Y-9730952D01*
X1619048Y-9740476D01*
X1609524Y-9730952D01*
X1619048Y-9721429D01*
X1619048Y-9740476D01*
X1619048Y-9616667D02*
X1628571Y-9626190D01*
X1619048Y-9635714D01*
X1609524Y-9626190D01*
X1619048Y-9616667D01*
X1619048Y-9635714D01*
D12*
X-50000Y-10050000D02*
X-10000Y-10090000D01*
X-10000Y-10050000D02*
X-50000Y-10090000D01*
D11*
X285714Y-9960476D02*
X304762Y-9960476D01*
X323810Y-9970000D01*
X333333Y-9979524D01*
X342857Y-9998571D01*
X352381Y-10036667D01*
X352381Y-10084286D01*
X342857Y-10122381D01*
X333333Y-10141429D01*
X323810Y-10150952D01*
X304762Y-10160476D01*
X285714Y-10160476D01*
X266667Y-10150952D01*
X257143Y-10141429D01*
X247619Y-10122381D01*
X238095Y-10084286D01*
X238095Y-10036667D01*
X247619Y-9998571D01*
X257143Y-9979524D01*
X266667Y-9970000D01*
X285714Y-9960476D01*
X438095Y-10141429D02*
X447619Y-10150952D01*
X438095Y-10160476D01*
X428571Y-10150952D01*
X438095Y-10141429D01*
X438095Y-10160476D01*
X619048Y-10027143D02*
X619048Y-10160476D01*
X571429Y-9950952D02*
X523809Y-10093810D01*
X647619Y-10093810D01*
X761905Y-9960476D02*
X780952Y-9960476D01*
X800000Y-9970000D01*
X809524Y-9979524D01*
X819048Y-9998571D01*
X828571Y-10036667D01*
X828571Y-10084286D01*
X819048Y-10122381D01*
X809524Y-10141429D01*
X800000Y-10150952D01*
X780952Y-10160476D01*
X761905Y-10160476D01*
X742857Y-10150952D01*
X733333Y-10141429D01*
X723809Y-10122381D01*
X714286Y-10084286D01*
X714286Y-10036667D01*
X723809Y-9998571D01*
X733333Y-9979524D01*
X742857Y-9970000D01*
X761905Y-9960476D01*
X952381Y-9960476D02*
X971428Y-9960476D01*
X990476Y-9970000D01*
X1000000Y-9979524D01*
X1009524Y-9998571D01*
X1019048Y-10036667D01*
X1019048Y-10084286D01*
X1009524Y-10122381D01*
X1000000Y-10141429D01*
X990476Y-10150952D01*
X971428Y-10160476D01*
X952381Y-10160476D01*
X933333Y-10150952D01*
X923809Y-10141429D01*
X914286Y-10122381D01*
X904762Y-10084286D01*
X904762Y-10036667D01*
X914286Y-9998571D01*
X923809Y-9979524D01*
X933333Y-9970000D01*
X952381Y-9960476D01*
X1104762Y-10160476D02*
X1104762Y-10027143D01*
X1104762Y-10046190D02*
X1114286Y-10036667D01*
X1133333Y-10027143D01*
X1161905Y-10027143D01*
X1180952Y-10036667D01*
X1190476Y-10055714D01*
X1190476Y-10160476D01*
X1190476Y-10055714D02*
X1200000Y-10036667D01*
X1219048Y-10027143D01*
X1247619Y-10027143D01*
X1266667Y-10036667D01*
X1276190Y-10055714D01*
X1276190Y-10160476D01*
X1371429Y-10160476D02*
X1371429Y-10027143D01*
X1371429Y-10046190D02*
X1380952Y-10036667D01*
X1400000Y-10027143D01*
X1428571Y-10027143D01*
X1447619Y-10036667D01*
X1457143Y-10055714D01*
X1457143Y-10160476D01*
X1457143Y-10055714D02*
X1466667Y-10036667D01*
X1485714Y-10027143D01*
X1514286Y-10027143D01*
X1533333Y-10036667D01*
X1542857Y-10055714D01*
X1542857Y-10160476D01*
X1933333Y-9950952D02*
X1761905Y-10208095D01*
X2190476Y-9960476D02*
X2209524Y-9960476D01*
X2228571Y-9970000D01*
X2238095Y-9979524D01*
X2247619Y-9998571D01*
X2257143Y-10036667D01*
X2257143Y-10084286D01*
X2247619Y-10122381D01*
X2238095Y-10141429D01*
X2228571Y-10150952D01*
X2209524Y-10160476D01*
X2190476Y-10160476D01*
X2171429Y-10150952D01*
X2161905Y-10141429D01*
X2152381Y-10122381D01*
X2142857Y-10084286D01*
X2142857Y-10036667D01*
X2152381Y-9998571D01*
X2161905Y-9979524D01*
X2171429Y-9970000D01*
X2190476Y-9960476D01*
X2342857Y-10141429D02*
X2352381Y-10150952D01*
X2342857Y-10160476D01*
X2333333Y-10150952D01*
X2342857Y-10141429D01*
X2342857Y-10160476D01*
X2476190Y-9960476D02*
X2495238Y-9960476D01*
X2514286Y-9970000D01*
X2523810Y-9979524D01*
X2533333Y-9998571D01*
X2542857Y-10036667D01*
X2542857Y-10084286D01*
X2533333Y-10122381D01*
X2523810Y-10141429D01*
X2514286Y-10150952D01*
X2495238Y-10160476D01*
X2476190Y-10160476D01*
X2457143Y-10150952D01*
X2447619Y-10141429D01*
X2438095Y-10122381D01*
X2428571Y-10084286D01*
X2428571Y-10036667D01*
X2438095Y-9998571D01*
X2447619Y-9979524D01*
X2457143Y-9970000D01*
X2476190Y-9960476D01*
X2733333Y-10160476D02*
X2619048Y-10160476D01*
X2676190Y-10160476D02*
X2676190Y-9960476D01*
X2657143Y-9989048D01*
X2638095Y-10008095D01*
X2619048Y-10017619D01*
X2914286Y-9960476D02*
X2819048Y-9960476D01*
X2809524Y-10055714D01*
X2819048Y-10046190D01*
X2838095Y-10036667D01*
X2885714Y-10036667D01*
X2904762Y-10046190D01*
X2914286Y-10055714D01*
X2923809Y-10074762D01*
X2923809Y-10122381D01*
X2914286Y-10141429D01*
X2904762Y-10150952D01*
X2885714Y-10160476D01*
X2838095Y-10160476D01*
X2819048Y-10150952D01*
X2809524Y-10141429D01*
X2990476Y-9960476D02*
X3123809Y-9960476D01*
X3038095Y-10160476D01*
X3190476Y-9960476D02*
X3190476Y-9998571D01*
X3266667Y-9960476D02*
X3266667Y-9998571D01*
X3561905Y-10236667D02*
X3552381Y-10227143D01*
X3533333Y-10198571D01*
X3523809Y-10179524D01*
X3514286Y-10150952D01*
X3504762Y-10103333D01*
X3504762Y-10065238D01*
X3514286Y-10017619D01*
X3523809Y-9989048D01*
X3533333Y-9970000D01*
X3552381Y-9941429D01*
X3561905Y-9931905D01*
X3723809Y-10027143D02*
X3723809Y-10160476D01*
X3676190Y-9950952D02*
X3628571Y-10093810D01*
X3752381Y-10093810D01*
X3866667Y-9960476D02*
X3885714Y-9960476D01*
X3904762Y-9970000D01*
X3914286Y-9979524D01*
X3923809Y-9998571D01*
X3933333Y-10036667D01*
X3933333Y-10084286D01*
X3923809Y-10122381D01*
X3914286Y-10141429D01*
X3904762Y-10150952D01*
X3885714Y-10160476D01*
X3866667Y-10160476D01*
X3847619Y-10150952D01*
X3838095Y-10141429D01*
X3828571Y-10122381D01*
X3819048Y-10084286D01*
X3819048Y-10036667D01*
X3828571Y-9998571D01*
X3838095Y-9979524D01*
X3847619Y-9970000D01*
X3866667Y-9960476D01*
X4171428Y-10160476D02*
X4171428Y-9960476D01*
X4257143Y-10160476D02*
X4257143Y-10055714D01*
X4247619Y-10036667D01*
X4228571Y-10027143D01*
X4200000Y-10027143D01*
X4180952Y-10036667D01*
X4171428Y-10046190D01*
X4380952Y-10160476D02*
X4361905Y-10150952D01*
X4352381Y-10141429D01*
X4342857Y-10122381D01*
X4342857Y-10065238D01*
X4352381Y-10046190D01*
X4361905Y-10036667D01*
X4380952Y-10027143D01*
X4409524Y-10027143D01*
X4428571Y-10036667D01*
X4438095Y-10046190D01*
X4447619Y-10065238D01*
X4447619Y-10122381D01*
X4438095Y-10141429D01*
X4428571Y-10150952D01*
X4409524Y-10160476D01*
X4380952Y-10160476D01*
X4561905Y-10160476D02*
X4542857Y-10150952D01*
X4533333Y-10131905D01*
X4533333Y-9960476D01*
X4714286Y-10150952D02*
X4695238Y-10160476D01*
X4657143Y-10160476D01*
X4638095Y-10150952D01*
X4628571Y-10131905D01*
X4628571Y-10055714D01*
X4638095Y-10036667D01*
X4657143Y-10027143D01*
X4695238Y-10027143D01*
X4714286Y-10036667D01*
X4723810Y-10055714D01*
X4723810Y-10074762D01*
X4628571Y-10093810D01*
X4800000Y-10150952D02*
X4819048Y-10160476D01*
X4857143Y-10160476D01*
X4876190Y-10150952D01*
X4885714Y-10131905D01*
X4885714Y-10122381D01*
X4876190Y-10103333D01*
X4857143Y-10093810D01*
X4828571Y-10093810D01*
X4809524Y-10084286D01*
X4800000Y-10065238D01*
X4800000Y-10055714D01*
X4809524Y-10036667D01*
X4828571Y-10027143D01*
X4857143Y-10027143D01*
X4876190Y-10036667D01*
X4952381Y-10236667D02*
X4961905Y-10227143D01*
X4980952Y-10198571D01*
X4990476Y-10179524D01*
X5000000Y-10150952D01*
X5009524Y-10103333D01*
X5009524Y-10065238D01*
X5000000Y-10017619D01*
X4990476Y-9989048D01*
X4980952Y-9970000D01*
X4961905Y-9941429D01*
X4952381Y-9931905D01*
D13*
X-10000Y-10334000D02*
G75*
G03*
X-10000Y-10334000I-35000J0D01*
G01*
D11*
X285714Y-10224476D02*
X304762Y-10224476D01*
X323810Y-10234000D01*
X333333Y-10243524D01*
X342857Y-10262571D01*
X352381Y-10300667D01*
X352381Y-10348286D01*
X342857Y-10386381D01*
X333333Y-10405429D01*
X323810Y-10414952D01*
X304762Y-10424476D01*
X285714Y-10424476D01*
X266667Y-10414952D01*
X257143Y-10405429D01*
X247619Y-10386381D01*
X238095Y-10348286D01*
X238095Y-10300667D01*
X247619Y-10262571D01*
X257143Y-10243524D01*
X266667Y-10234000D01*
X285714Y-10224476D01*
X438095Y-10405429D02*
X447619Y-10414952D01*
X438095Y-10424476D01*
X428571Y-10414952D01*
X438095Y-10405429D01*
X438095Y-10424476D01*
X514286Y-10224476D02*
X647619Y-10224476D01*
X561905Y-10424476D01*
X761905Y-10224476D02*
X780952Y-10224476D01*
X800000Y-10234000D01*
X809524Y-10243524D01*
X819048Y-10262571D01*
X828571Y-10300667D01*
X828571Y-10348286D01*
X819048Y-10386381D01*
X809524Y-10405429D01*
X800000Y-10414952D01*
X780952Y-10424476D01*
X761905Y-10424476D01*
X742857Y-10414952D01*
X733333Y-10405429D01*
X723809Y-10386381D01*
X714286Y-10348286D01*
X714286Y-10300667D01*
X723809Y-10262571D01*
X733333Y-10243524D01*
X742857Y-10234000D01*
X761905Y-10224476D01*
X952381Y-10224476D02*
X971428Y-10224476D01*
X990476Y-10234000D01*
X1000000Y-10243524D01*
X1009524Y-10262571D01*
X1019048Y-10300667D01*
X1019048Y-10348286D01*
X1009524Y-10386381D01*
X1000000Y-10405429D01*
X990476Y-10414952D01*
X971428Y-10424476D01*
X952381Y-10424476D01*
X933333Y-10414952D01*
X923809Y-10405429D01*
X914286Y-10386381D01*
X904762Y-10348286D01*
X904762Y-10300667D01*
X914286Y-10262571D01*
X923809Y-10243524D01*
X933333Y-10234000D01*
X952381Y-10224476D01*
X1104762Y-10424476D02*
X1104762Y-10291143D01*
X1104762Y-10310190D02*
X1114286Y-10300667D01*
X1133333Y-10291143D01*
X1161905Y-10291143D01*
X1180952Y-10300667D01*
X1190476Y-10319714D01*
X1190476Y-10424476D01*
X1190476Y-10319714D02*
X1200000Y-10300667D01*
X1219048Y-10291143D01*
X1247619Y-10291143D01*
X1266667Y-10300667D01*
X1276190Y-10319714D01*
X1276190Y-10424476D01*
X1371429Y-10424476D02*
X1371429Y-10291143D01*
X1371429Y-10310190D02*
X1380952Y-10300667D01*
X1400000Y-10291143D01*
X1428571Y-10291143D01*
X1447619Y-10300667D01*
X1457143Y-10319714D01*
X1457143Y-10424476D01*
X1457143Y-10319714D02*
X1466667Y-10300667D01*
X1485714Y-10291143D01*
X1514286Y-10291143D01*
X1533333Y-10300667D01*
X1542857Y-10319714D01*
X1542857Y-10424476D01*
X1933333Y-10214952D02*
X1761905Y-10472095D01*
X2190476Y-10224476D02*
X2209524Y-10224476D01*
X2228571Y-10234000D01*
X2238095Y-10243524D01*
X2247619Y-10262571D01*
X2257143Y-10300667D01*
X2257143Y-10348286D01*
X2247619Y-10386381D01*
X2238095Y-10405429D01*
X2228571Y-10414952D01*
X2209524Y-10424476D01*
X2190476Y-10424476D01*
X2171429Y-10414952D01*
X2161905Y-10405429D01*
X2152381Y-10386381D01*
X2142857Y-10348286D01*
X2142857Y-10300667D01*
X2152381Y-10262571D01*
X2161905Y-10243524D01*
X2171429Y-10234000D01*
X2190476Y-10224476D01*
X2342857Y-10405429D02*
X2352381Y-10414952D01*
X2342857Y-10424476D01*
X2333333Y-10414952D01*
X2342857Y-10405429D01*
X2342857Y-10424476D01*
X2476190Y-10224476D02*
X2495238Y-10224476D01*
X2514286Y-10234000D01*
X2523810Y-10243524D01*
X2533333Y-10262571D01*
X2542857Y-10300667D01*
X2542857Y-10348286D01*
X2533333Y-10386381D01*
X2523810Y-10405429D01*
X2514286Y-10414952D01*
X2495238Y-10424476D01*
X2476190Y-10424476D01*
X2457143Y-10414952D01*
X2447619Y-10405429D01*
X2438095Y-10386381D01*
X2428571Y-10348286D01*
X2428571Y-10300667D01*
X2438095Y-10262571D01*
X2447619Y-10243524D01*
X2457143Y-10234000D01*
X2476190Y-10224476D01*
X2619048Y-10243524D02*
X2628571Y-10234000D01*
X2647619Y-10224476D01*
X2695238Y-10224476D01*
X2714286Y-10234000D01*
X2723810Y-10243524D01*
X2733333Y-10262571D01*
X2733333Y-10281619D01*
X2723810Y-10310190D01*
X2609524Y-10424476D01*
X2733333Y-10424476D01*
X2800000Y-10224476D02*
X2933333Y-10224476D01*
X2847619Y-10424476D01*
X3095238Y-10224476D02*
X3057143Y-10224476D01*
X3038095Y-10234000D01*
X3028571Y-10243524D01*
X3009524Y-10272095D01*
X3000000Y-10310190D01*
X3000000Y-10386381D01*
X3009524Y-10405429D01*
X3019048Y-10414952D01*
X3038095Y-10424476D01*
X3076190Y-10424476D01*
X3095238Y-10414952D01*
X3104762Y-10405429D01*
X3114286Y-10386381D01*
X3114286Y-10338762D01*
X3104762Y-10319714D01*
X3095238Y-10310190D01*
X3076190Y-10300667D01*
X3038095Y-10300667D01*
X3019048Y-10310190D01*
X3009524Y-10319714D01*
X3000000Y-10338762D01*
X3190476Y-10224476D02*
X3190476Y-10262571D01*
X3266667Y-10224476D02*
X3266667Y-10262571D01*
X3561905Y-10500667D02*
X3552381Y-10491143D01*
X3533333Y-10462571D01*
X3523809Y-10443524D01*
X3514286Y-10414952D01*
X3504762Y-10367333D01*
X3504762Y-10329238D01*
X3514286Y-10281619D01*
X3523809Y-10253048D01*
X3533333Y-10234000D01*
X3552381Y-10205429D01*
X3561905Y-10195905D01*
X3619048Y-10224476D02*
X3742857Y-10224476D01*
X3676190Y-10300667D01*
X3704762Y-10300667D01*
X3723809Y-10310190D01*
X3733333Y-10319714D01*
X3742857Y-10338762D01*
X3742857Y-10386381D01*
X3733333Y-10405429D01*
X3723809Y-10414952D01*
X3704762Y-10424476D01*
X3647619Y-10424476D01*
X3628571Y-10414952D01*
X3619048Y-10405429D01*
X3980952Y-10424476D02*
X3980952Y-10224476D01*
X4066667Y-10424476D02*
X4066667Y-10319714D01*
X4057143Y-10300667D01*
X4038095Y-10291143D01*
X4009524Y-10291143D01*
X3990476Y-10300667D01*
X3980952Y-10310190D01*
X4190476Y-10424476D02*
X4171428Y-10414952D01*
X4161905Y-10405429D01*
X4152381Y-10386381D01*
X4152381Y-10329238D01*
X4161905Y-10310190D01*
X4171428Y-10300667D01*
X4190476Y-10291143D01*
X4219048Y-10291143D01*
X4238095Y-10300667D01*
X4247619Y-10310190D01*
X4257143Y-10329238D01*
X4257143Y-10386381D01*
X4247619Y-10405429D01*
X4238095Y-10414952D01*
X4219048Y-10424476D01*
X4190476Y-10424476D01*
X4371429Y-10424476D02*
X4352381Y-10414952D01*
X4342857Y-10395905D01*
X4342857Y-10224476D01*
X4523810Y-10414952D02*
X4504762Y-10424476D01*
X4466667Y-10424476D01*
X4447619Y-10414952D01*
X4438095Y-10395905D01*
X4438095Y-10319714D01*
X4447619Y-10300667D01*
X4466667Y-10291143D01*
X4504762Y-10291143D01*
X4523810Y-10300667D01*
X4533333Y-10319714D01*
X4533333Y-10338762D01*
X4438095Y-10357810D01*
X4609524Y-10414952D02*
X4628571Y-10424476D01*
X4666667Y-10424476D01*
X4685714Y-10414952D01*
X4695238Y-10395905D01*
X4695238Y-10386381D01*
X4685714Y-10367333D01*
X4666667Y-10357810D01*
X4638095Y-10357810D01*
X4619048Y-10348286D01*
X4609524Y-10329238D01*
X4609524Y-10319714D01*
X4619048Y-10300667D01*
X4638095Y-10291143D01*
X4666667Y-10291143D01*
X4685714Y-10300667D01*
X4761905Y-10500667D02*
X4771429Y-10491143D01*
X4790476Y-10462571D01*
X4800000Y-10443524D01*
X4809524Y-10414952D01*
X4819048Y-10367333D01*
X4819048Y-10329238D01*
X4809524Y-10281619D01*
X4800000Y-10253048D01*
X4790476Y-10234000D01*
X4771429Y-10205429D01*
X4761905Y-10195905D01*
D14*
X-60000Y-10548000D02*
X-60000Y-10648000D01*
X-110000Y-10598000D02*
X-10000Y-10598000D01*
D11*
X352381Y-10688476D02*
X238095Y-10688476D01*
X295238Y-10688476D02*
X295238Y-10488476D01*
X276190Y-10517048D01*
X257143Y-10536095D01*
X238095Y-10545619D01*
X438095Y-10669429D02*
X447619Y-10678952D01*
X438095Y-10688476D01*
X428571Y-10678952D01*
X438095Y-10669429D01*
X438095Y-10688476D01*
X571429Y-10488476D02*
X590476Y-10488476D01*
X609524Y-10498000D01*
X619048Y-10507524D01*
X628571Y-10526571D01*
X638095Y-10564667D01*
X638095Y-10612286D01*
X628571Y-10650381D01*
X619048Y-10669429D01*
X609524Y-10678952D01*
X590476Y-10688476D01*
X571429Y-10688476D01*
X552381Y-10678952D01*
X542857Y-10669429D01*
X533333Y-10650381D01*
X523809Y-10612286D01*
X523809Y-10564667D01*
X533333Y-10526571D01*
X542857Y-10507524D01*
X552381Y-10498000D01*
X571429Y-10488476D01*
X761905Y-10488476D02*
X780952Y-10488476D01*
X800000Y-10498000D01*
X809524Y-10507524D01*
X819048Y-10526571D01*
X828571Y-10564667D01*
X828571Y-10612286D01*
X819048Y-10650381D01*
X809524Y-10669429D01*
X800000Y-10678952D01*
X780952Y-10688476D01*
X761905Y-10688476D01*
X742857Y-10678952D01*
X733333Y-10669429D01*
X723809Y-10650381D01*
X714286Y-10612286D01*
X714286Y-10564667D01*
X723809Y-10526571D01*
X733333Y-10507524D01*
X742857Y-10498000D01*
X761905Y-10488476D01*
X952381Y-10488476D02*
X971428Y-10488476D01*
X990476Y-10498000D01*
X1000000Y-10507524D01*
X1009524Y-10526571D01*
X1019048Y-10564667D01*
X1019048Y-10612286D01*
X1009524Y-10650381D01*
X1000000Y-10669429D01*
X990476Y-10678952D01*
X971428Y-10688476D01*
X952381Y-10688476D01*
X933333Y-10678952D01*
X923809Y-10669429D01*
X914286Y-10650381D01*
X904762Y-10612286D01*
X904762Y-10564667D01*
X914286Y-10526571D01*
X923809Y-10507524D01*
X933333Y-10498000D01*
X952381Y-10488476D01*
X1104762Y-10688476D02*
X1104762Y-10555143D01*
X1104762Y-10574190D02*
X1114286Y-10564667D01*
X1133333Y-10555143D01*
X1161905Y-10555143D01*
X1180952Y-10564667D01*
X1190476Y-10583714D01*
X1190476Y-10688476D01*
X1190476Y-10583714D02*
X1200000Y-10564667D01*
X1219048Y-10555143D01*
X1247619Y-10555143D01*
X1266667Y-10564667D01*
X1276190Y-10583714D01*
X1276190Y-10688476D01*
X1371429Y-10688476D02*
X1371429Y-10555143D01*
X1371429Y-10574190D02*
X1380952Y-10564667D01*
X1400000Y-10555143D01*
X1428571Y-10555143D01*
X1447619Y-10564667D01*
X1457143Y-10583714D01*
X1457143Y-10688476D01*
X1457143Y-10583714D02*
X1466667Y-10564667D01*
X1485714Y-10555143D01*
X1514286Y-10555143D01*
X1533333Y-10564667D01*
X1542857Y-10583714D01*
X1542857Y-10688476D01*
X1933333Y-10478952D02*
X1761905Y-10736095D01*
X2190476Y-10488476D02*
X2209524Y-10488476D01*
X2228571Y-10498000D01*
X2238095Y-10507524D01*
X2247619Y-10526571D01*
X2257143Y-10564667D01*
X2257143Y-10612286D01*
X2247619Y-10650381D01*
X2238095Y-10669429D01*
X2228571Y-10678952D01*
X2209524Y-10688476D01*
X2190476Y-10688476D01*
X2171429Y-10678952D01*
X2161905Y-10669429D01*
X2152381Y-10650381D01*
X2142857Y-10612286D01*
X2142857Y-10564667D01*
X2152381Y-10526571D01*
X2161905Y-10507524D01*
X2171429Y-10498000D01*
X2190476Y-10488476D01*
X2342857Y-10669429D02*
X2352381Y-10678952D01*
X2342857Y-10688476D01*
X2333333Y-10678952D01*
X2342857Y-10669429D01*
X2342857Y-10688476D01*
X2476190Y-10488476D02*
X2495238Y-10488476D01*
X2514286Y-10498000D01*
X2523810Y-10507524D01*
X2533333Y-10526571D01*
X2542857Y-10564667D01*
X2542857Y-10612286D01*
X2533333Y-10650381D01*
X2523810Y-10669429D01*
X2514286Y-10678952D01*
X2495238Y-10688476D01*
X2476190Y-10688476D01*
X2457143Y-10678952D01*
X2447619Y-10669429D01*
X2438095Y-10650381D01*
X2428571Y-10612286D01*
X2428571Y-10564667D01*
X2438095Y-10526571D01*
X2447619Y-10507524D01*
X2457143Y-10498000D01*
X2476190Y-10488476D01*
X2609524Y-10488476D02*
X2733333Y-10488476D01*
X2666667Y-10564667D01*
X2695238Y-10564667D01*
X2714286Y-10574190D01*
X2723810Y-10583714D01*
X2733333Y-10602762D01*
X2733333Y-10650381D01*
X2723810Y-10669429D01*
X2714286Y-10678952D01*
X2695238Y-10688476D01*
X2638095Y-10688476D01*
X2619048Y-10678952D01*
X2609524Y-10669429D01*
X2828571Y-10688476D02*
X2866667Y-10688476D01*
X2885714Y-10678952D01*
X2895238Y-10669429D01*
X2914286Y-10640857D01*
X2923809Y-10602762D01*
X2923809Y-10526571D01*
X2914286Y-10507524D01*
X2904762Y-10498000D01*
X2885714Y-10488476D01*
X2847619Y-10488476D01*
X2828571Y-10498000D01*
X2819048Y-10507524D01*
X2809524Y-10526571D01*
X2809524Y-10574190D01*
X2819048Y-10593238D01*
X2828571Y-10602762D01*
X2847619Y-10612286D01*
X2885714Y-10612286D01*
X2904762Y-10602762D01*
X2914286Y-10593238D01*
X2923809Y-10574190D01*
X3095238Y-10555143D02*
X3095238Y-10688476D01*
X3047619Y-10478952D02*
X3000000Y-10621810D01*
X3123809Y-10621810D01*
X3190476Y-10488476D02*
X3190476Y-10526571D01*
X3266667Y-10488476D02*
X3266667Y-10526571D01*
X3561905Y-10764667D02*
X3552381Y-10755143D01*
X3533333Y-10726571D01*
X3523809Y-10707524D01*
X3514286Y-10678952D01*
X3504762Y-10631333D01*
X3504762Y-10593238D01*
X3514286Y-10545619D01*
X3523809Y-10517048D01*
X3533333Y-10498000D01*
X3552381Y-10469429D01*
X3561905Y-10459905D01*
X3723809Y-10488476D02*
X3685714Y-10488476D01*
X3666667Y-10498000D01*
X3657143Y-10507524D01*
X3638095Y-10536095D01*
X3628571Y-10574190D01*
X3628571Y-10650381D01*
X3638095Y-10669429D01*
X3647619Y-10678952D01*
X3666667Y-10688476D01*
X3704762Y-10688476D01*
X3723809Y-10678952D01*
X3733333Y-10669429D01*
X3742857Y-10650381D01*
X3742857Y-10602762D01*
X3733333Y-10583714D01*
X3723809Y-10574190D01*
X3704762Y-10564667D01*
X3666667Y-10564667D01*
X3647619Y-10574190D01*
X3638095Y-10583714D01*
X3628571Y-10602762D01*
X3980952Y-10688476D02*
X3980952Y-10488476D01*
X4066667Y-10688476D02*
X4066667Y-10583714D01*
X4057143Y-10564667D01*
X4038095Y-10555143D01*
X4009524Y-10555143D01*
X3990476Y-10564667D01*
X3980952Y-10574190D01*
X4190476Y-10688476D02*
X4171428Y-10678952D01*
X4161905Y-10669429D01*
X4152381Y-10650381D01*
X4152381Y-10593238D01*
X4161905Y-10574190D01*
X4171428Y-10564667D01*
X4190476Y-10555143D01*
X4219048Y-10555143D01*
X4238095Y-10564667D01*
X4247619Y-10574190D01*
X4257143Y-10593238D01*
X4257143Y-10650381D01*
X4247619Y-10669429D01*
X4238095Y-10678952D01*
X4219048Y-10688476D01*
X4190476Y-10688476D01*
X4371429Y-10688476D02*
X4352381Y-10678952D01*
X4342857Y-10659905D01*
X4342857Y-10488476D01*
X4523810Y-10678952D02*
X4504762Y-10688476D01*
X4466667Y-10688476D01*
X4447619Y-10678952D01*
X4438095Y-10659905D01*
X4438095Y-10583714D01*
X4447619Y-10564667D01*
X4466667Y-10555143D01*
X4504762Y-10555143D01*
X4523810Y-10564667D01*
X4533333Y-10583714D01*
X4533333Y-10602762D01*
X4438095Y-10621810D01*
X4609524Y-10678952D02*
X4628571Y-10688476D01*
X4666667Y-10688476D01*
X4685714Y-10678952D01*
X4695238Y-10659905D01*
X4695238Y-10650381D01*
X4685714Y-10631333D01*
X4666667Y-10621810D01*
X4638095Y-10621810D01*
X4619048Y-10612286D01*
X4609524Y-10593238D01*
X4609524Y-10583714D01*
X4619048Y-10564667D01*
X4638095Y-10555143D01*
X4666667Y-10555143D01*
X4685714Y-10564667D01*
X4761905Y-10764667D02*
X4771429Y-10755143D01*
X4790476Y-10726571D01*
X4800000Y-10707524D01*
X4809524Y-10678952D01*
X4819048Y-10631333D01*
X4819048Y-10593238D01*
X4809524Y-10545619D01*
X4800000Y-10517048D01*
X4790476Y-10498000D01*
X4771429Y-10469429D01*
X4761905Y-10459905D01*
X-39289Y-10932711D02*
X-39289Y-10791289D01*
X-180711Y-10791289D01*
X-180711Y-10932711D01*
X-39289Y-10932711D01*
X228571Y-10752476D02*
X352381Y-10752476D01*
X285714Y-10828667D01*
X314286Y-10828667D01*
X333333Y-10838190D01*
X342857Y-10847714D01*
X352381Y-10866762D01*
X352381Y-10914381D01*
X342857Y-10933429D01*
X333333Y-10942952D01*
X314286Y-10952476D01*
X257143Y-10952476D01*
X238095Y-10942952D01*
X228571Y-10933429D01*
X438095Y-10933429D02*
X447619Y-10942952D01*
X438095Y-10952476D01*
X428571Y-10942952D01*
X438095Y-10933429D01*
X438095Y-10952476D01*
X571429Y-10752476D02*
X590476Y-10752476D01*
X609524Y-10762000D01*
X619048Y-10771524D01*
X628571Y-10790571D01*
X638095Y-10828667D01*
X638095Y-10876286D01*
X628571Y-10914381D01*
X619048Y-10933429D01*
X609524Y-10942952D01*
X590476Y-10952476D01*
X571429Y-10952476D01*
X552381Y-10942952D01*
X542857Y-10933429D01*
X533333Y-10914381D01*
X523809Y-10876286D01*
X523809Y-10828667D01*
X533333Y-10790571D01*
X542857Y-10771524D01*
X552381Y-10762000D01*
X571429Y-10752476D01*
X761905Y-10752476D02*
X780952Y-10752476D01*
X800000Y-10762000D01*
X809524Y-10771524D01*
X819048Y-10790571D01*
X828571Y-10828667D01*
X828571Y-10876286D01*
X819048Y-10914381D01*
X809524Y-10933429D01*
X800000Y-10942952D01*
X780952Y-10952476D01*
X761905Y-10952476D01*
X742857Y-10942952D01*
X733333Y-10933429D01*
X723809Y-10914381D01*
X714286Y-10876286D01*
X714286Y-10828667D01*
X723809Y-10790571D01*
X733333Y-10771524D01*
X742857Y-10762000D01*
X761905Y-10752476D01*
X952381Y-10752476D02*
X971428Y-10752476D01*
X990476Y-10762000D01*
X1000000Y-10771524D01*
X1009524Y-10790571D01*
X1019048Y-10828667D01*
X1019048Y-10876286D01*
X1009524Y-10914381D01*
X1000000Y-10933429D01*
X990476Y-10942952D01*
X971428Y-10952476D01*
X952381Y-10952476D01*
X933333Y-10942952D01*
X923809Y-10933429D01*
X914286Y-10914381D01*
X904762Y-10876286D01*
X904762Y-10828667D01*
X914286Y-10790571D01*
X923809Y-10771524D01*
X933333Y-10762000D01*
X952381Y-10752476D01*
X1104762Y-10952476D02*
X1104762Y-10819143D01*
X1104762Y-10838190D02*
X1114286Y-10828667D01*
X1133333Y-10819143D01*
X1161905Y-10819143D01*
X1180952Y-10828667D01*
X1190476Y-10847714D01*
X1190476Y-10952476D01*
X1190476Y-10847714D02*
X1200000Y-10828667D01*
X1219048Y-10819143D01*
X1247619Y-10819143D01*
X1266667Y-10828667D01*
X1276190Y-10847714D01*
X1276190Y-10952476D01*
X1371429Y-10952476D02*
X1371429Y-10819143D01*
X1371429Y-10838190D02*
X1380952Y-10828667D01*
X1400000Y-10819143D01*
X1428571Y-10819143D01*
X1447619Y-10828667D01*
X1457143Y-10847714D01*
X1457143Y-10952476D01*
X1457143Y-10847714D02*
X1466667Y-10828667D01*
X1485714Y-10819143D01*
X1514286Y-10819143D01*
X1533333Y-10828667D01*
X1542857Y-10847714D01*
X1542857Y-10952476D01*
X1933333Y-10742952D02*
X1761905Y-11000095D01*
X2190476Y-10752476D02*
X2209524Y-10752476D01*
X2228571Y-10762000D01*
X2238095Y-10771524D01*
X2247619Y-10790571D01*
X2257143Y-10828667D01*
X2257143Y-10876286D01*
X2247619Y-10914381D01*
X2238095Y-10933429D01*
X2228571Y-10942952D01*
X2209524Y-10952476D01*
X2190476Y-10952476D01*
X2171429Y-10942952D01*
X2161905Y-10933429D01*
X2152381Y-10914381D01*
X2142857Y-10876286D01*
X2142857Y-10828667D01*
X2152381Y-10790571D01*
X2161905Y-10771524D01*
X2171429Y-10762000D01*
X2190476Y-10752476D01*
X2342857Y-10933429D02*
X2352381Y-10942952D01*
X2342857Y-10952476D01*
X2333333Y-10942952D01*
X2342857Y-10933429D01*
X2342857Y-10952476D01*
X2542857Y-10952476D02*
X2428571Y-10952476D01*
X2485714Y-10952476D02*
X2485714Y-10752476D01*
X2466667Y-10781048D01*
X2447619Y-10800095D01*
X2428571Y-10809619D01*
X2733333Y-10952476D02*
X2619048Y-10952476D01*
X2676190Y-10952476D02*
X2676190Y-10752476D01*
X2657143Y-10781048D01*
X2638095Y-10800095D01*
X2619048Y-10809619D01*
X2847619Y-10838190D02*
X2828571Y-10828667D01*
X2819048Y-10819143D01*
X2809524Y-10800095D01*
X2809524Y-10790571D01*
X2819048Y-10771524D01*
X2828571Y-10762000D01*
X2847619Y-10752476D01*
X2885714Y-10752476D01*
X2904762Y-10762000D01*
X2914286Y-10771524D01*
X2923809Y-10790571D01*
X2923809Y-10800095D01*
X2914286Y-10819143D01*
X2904762Y-10828667D01*
X2885714Y-10838190D01*
X2847619Y-10838190D01*
X2828571Y-10847714D01*
X2819048Y-10857238D01*
X2809524Y-10876286D01*
X2809524Y-10914381D01*
X2819048Y-10933429D01*
X2828571Y-10942952D01*
X2847619Y-10952476D01*
X2885714Y-10952476D01*
X2904762Y-10942952D01*
X2914286Y-10933429D01*
X2923809Y-10914381D01*
X2923809Y-10876286D01*
X2914286Y-10857238D01*
X2904762Y-10847714D01*
X2885714Y-10838190D01*
X3114286Y-10952476D02*
X3000000Y-10952476D01*
X3057143Y-10952476D02*
X3057143Y-10752476D01*
X3038095Y-10781048D01*
X3019048Y-10800095D01*
X3000000Y-10809619D01*
X3190476Y-10752476D02*
X3190476Y-10790571D01*
X3266667Y-10752476D02*
X3266667Y-10790571D01*
X3561905Y-11028667D02*
X3552381Y-11019143D01*
X3533333Y-10990571D01*
X3523809Y-10971524D01*
X3514286Y-10942952D01*
X3504762Y-10895333D01*
X3504762Y-10857238D01*
X3514286Y-10809619D01*
X3523809Y-10781048D01*
X3533333Y-10762000D01*
X3552381Y-10733429D01*
X3561905Y-10723905D01*
X3742857Y-10952476D02*
X3628571Y-10952476D01*
X3685714Y-10952476D02*
X3685714Y-10752476D01*
X3666667Y-10781048D01*
X3647619Y-10800095D01*
X3628571Y-10809619D01*
X3923809Y-10752476D02*
X3828571Y-10752476D01*
X3819048Y-10847714D01*
X3828571Y-10838190D01*
X3847619Y-10828667D01*
X3895238Y-10828667D01*
X3914286Y-10838190D01*
X3923809Y-10847714D01*
X3933333Y-10866762D01*
X3933333Y-10914381D01*
X3923809Y-10933429D01*
X3914286Y-10942952D01*
X3895238Y-10952476D01*
X3847619Y-10952476D01*
X3828571Y-10942952D01*
X3819048Y-10933429D01*
X4057143Y-10752476D02*
X4076190Y-10752476D01*
X4095238Y-10762000D01*
X4104762Y-10771524D01*
X4114286Y-10790571D01*
X4123809Y-10828667D01*
X4123809Y-10876286D01*
X4114286Y-10914381D01*
X4104762Y-10933429D01*
X4095238Y-10942952D01*
X4076190Y-10952476D01*
X4057143Y-10952476D01*
X4038095Y-10942952D01*
X4028571Y-10933429D01*
X4019048Y-10914381D01*
X4009524Y-10876286D01*
X4009524Y-10828667D01*
X4019048Y-10790571D01*
X4028571Y-10771524D01*
X4038095Y-10762000D01*
X4057143Y-10752476D01*
X4361905Y-10952476D02*
X4361905Y-10752476D01*
X4447619Y-10952476D02*
X4447619Y-10847714D01*
X4438095Y-10828667D01*
X4419048Y-10819143D01*
X4390476Y-10819143D01*
X4371429Y-10828667D01*
X4361905Y-10838190D01*
X4571429Y-10952476D02*
X4552381Y-10942952D01*
X4542857Y-10933429D01*
X4533333Y-10914381D01*
X4533333Y-10857238D01*
X4542857Y-10838190D01*
X4552381Y-10828667D01*
X4571429Y-10819143D01*
X4600000Y-10819143D01*
X4619048Y-10828667D01*
X4628571Y-10838190D01*
X4638095Y-10857238D01*
X4638095Y-10914381D01*
X4628571Y-10933429D01*
X4619048Y-10942952D01*
X4600000Y-10952476D01*
X4571429Y-10952476D01*
X4752381Y-10952476D02*
X4733333Y-10942952D01*
X4723810Y-10923905D01*
X4723810Y-10752476D01*
X4904762Y-10942952D02*
X4885714Y-10952476D01*
X4847619Y-10952476D01*
X4828571Y-10942952D01*
X4819048Y-10923905D01*
X4819048Y-10847714D01*
X4828571Y-10828667D01*
X4847619Y-10819143D01*
X4885714Y-10819143D01*
X4904762Y-10828667D01*
X4914286Y-10847714D01*
X4914286Y-10866762D01*
X4819048Y-10885810D01*
X4990476Y-10942952D02*
X5009524Y-10952476D01*
X5047619Y-10952476D01*
X5066667Y-10942952D01*
X5076190Y-10923905D01*
X5076190Y-10914381D01*
X5066667Y-10895333D01*
X5047619Y-10885810D01*
X5019048Y-10885810D01*
X5000000Y-10876286D01*
X4990476Y-10857238D01*
X4990476Y-10847714D01*
X5000000Y-10828667D01*
X5019048Y-10819143D01*
X5047619Y-10819143D01*
X5066667Y-10828667D01*
X5142857Y-11028667D02*
X5152381Y-11019143D01*
X5171429Y-10990571D01*
X5180952Y-10971524D01*
X5190476Y-10942952D01*
X5200000Y-10895333D01*
X5200000Y-10857238D01*
X5190476Y-10809619D01*
X5180952Y-10781048D01*
X5171429Y-10762000D01*
X5152381Y-10733429D01*
X5142857Y-10723905D01*
M02*
