G04 #@! TF.GenerationSoftware,KiCad,Pcbnew,(6.0.0-0)*
G04 #@! TF.CreationDate,2022-04-29T22:29:47-07:00*
G04 #@! TF.ProjectId,bakeneko-65-pcb,62616b65-6e65-46b6-9f2d-36352d706362,rev?*
G04 #@! TF.SameCoordinates,Original*
G04 #@! TF.FileFunction,Soldermask,Bot*
G04 #@! TF.FilePolarity,Negative*
%FSLAX46Y46*%
G04 Gerber Fmt 4.6, Leading zero omitted, Abs format (unit mm)*
G04 Created by KiCad (PCBNEW (6.0.0-0)) date 2022-04-29 22:29:47*
%MOMM*%
%LPD*%
G01*
G04 APERTURE LIST*
G04 Aperture macros list*
%AMRoundRect*
0 Rectangle with rounded corners*
0 $1 Rounding radius*
0 $2 $3 $4 $5 $6 $7 $8 $9 X,Y pos of 4 corners*
0 Add a 4 corners polygon primitive as box body*
4,1,4,$2,$3,$4,$5,$6,$7,$8,$9,$2,$3,0*
0 Add four circle primitives for the rounded corners*
1,1,$1+$1,$2,$3*
1,1,$1+$1,$4,$5*
1,1,$1+$1,$6,$7*
1,1,$1+$1,$8,$9*
0 Add four rect primitives between the rounded corners*
20,1,$1+$1,$2,$3,$4,$5,0*
20,1,$1+$1,$4,$5,$6,$7,0*
20,1,$1+$1,$6,$7,$8,$9,0*
20,1,$1+$1,$8,$9,$2,$3,0*%
%AMFreePoly0*
4,1,59,3.278779,2.028406,3.282808,2.027442,3.282605,2.026594,3.294134,2.026594,3.304789,2.022180,3.316000,2.019497,3.325327,2.012730,3.325660,2.013535,3.329487,2.011950,3.337641,2.003796,3.346976,1.997024,3.349143,1.993493,3.348401,1.993038,3.356548,1.984891,3.360961,1.974239,3.366993,1.964410,3.368805,1.953025,3.369610,1.953359,3.371195,1.949532,3.375000,1.930400,
3.375000,-1.930400,3.371195,-1.949532,3.369610,-1.953359,3.368805,-1.953025,3.366993,-1.964410,3.360961,-1.974239,3.356548,-1.984891,3.348401,-1.993038,3.349143,-1.993493,3.346976,-1.997024,3.337641,-2.003796,3.329487,-2.011950,3.325660,-2.013535,3.325327,-2.012730,3.316000,-2.019497,3.304789,-2.022180,3.294134,-2.026594,3.282605,-2.026594,3.282808,-2.027442,3.278779,-2.028406,
3.259288,-2.029158,-1.211112,-1.317958,-1.229410,-1.311193,-1.239239,-1.305161,-1.249891,-1.300748,-1.250639,-1.300000,-1.275000,-1.300000,-1.310355,-1.285355,-1.325000,-1.250000,-1.325000,1.250000,-1.310355,1.285355,-1.275000,1.300000,-1.250639,1.300000,-1.249891,1.300748,-1.239239,1.305161,-1.229410,1.311193,-1.211112,1.317958,3.259288,2.029158,3.278779,2.028406,3.278779,2.028406,
$1*%
%AMFreePoly1*
4,1,59,1.234912,1.317958,1.253212,1.311192,1.263038,1.305161,1.273689,1.300749,1.274438,1.300000,1.275000,1.300000,1.310355,1.285355,1.325000,1.250000,1.325000,-1.250000,1.310355,-1.285355,1.275000,-1.300000,1.274438,-1.300000,1.273689,-1.300749,1.263038,-1.305161,1.253212,-1.311192,1.234912,-1.317958,-3.235488,-2.029158,-3.254979,-2.028406,-3.259008,-2.027442,-3.258805,-2.026594,
-3.270334,-2.026594,-3.280989,-2.022180,-3.292200,-2.019497,-3.301527,-2.012730,-3.301860,-2.013535,-3.305687,-2.011950,-3.313841,-2.003796,-3.323176,-1.997024,-3.325343,-1.993493,-3.324601,-1.993038,-3.332748,-1.984891,-3.337161,-1.974239,-3.343193,-1.964410,-3.345005,-1.953025,-3.345810,-1.953359,-3.347395,-1.949532,-3.351200,-1.930400,-3.351200,1.930400,-3.347395,1.949532,-3.345810,1.953359,
-3.345005,1.953025,-3.343193,1.964410,-3.337161,1.974239,-3.332748,1.984891,-3.324601,1.993038,-3.325343,1.993493,-3.323176,1.997024,-3.313841,2.003796,-3.305687,2.011950,-3.301860,2.013535,-3.301527,2.012730,-3.292200,2.019497,-3.280989,2.022180,-3.270334,2.026594,-3.258805,2.026594,-3.259008,2.027442,-3.254979,2.028406,-3.235488,2.029158,1.234912,1.317958,1.234912,1.317958,
$1*%
G04 Aperture macros list end*
%ADD10RoundRect,0.300000X-0.375000X-0.625000X0.375000X-0.625000X0.375000X0.625000X-0.375000X0.625000X0*%
%ADD11RoundRect,0.200000X-0.625000X0.150000X-0.625000X-0.150000X0.625000X-0.150000X0.625000X0.150000X0*%
%ADD12RoundRect,0.300000X-0.650000X0.350000X-0.650000X-0.350000X0.650000X-0.350000X0.650000X0.350000X0*%
%ADD13O,1.800000X1.800000*%
%ADD14RoundRect,0.050000X0.850000X0.850000X-0.850000X0.850000X-0.850000X-0.850000X0.850000X-0.850000X0*%
%ADD15RoundRect,0.293750X-0.243750X-0.456250X0.243750X-0.456250X0.243750X0.456250X-0.243750X0.456250X0*%
%ADD16RoundRect,0.050000X-0.850000X-0.500000X0.850000X-0.500000X0.850000X0.500000X-0.850000X0.500000X0*%
%ADD17RoundRect,0.293750X0.243750X0.456250X-0.243750X0.456250X-0.243750X-0.456250X0.243750X-0.456250X0*%
%ADD18RoundRect,0.293750X0.456250X-0.243750X0.456250X0.243750X-0.456250X0.243750X-0.456250X-0.243750X0*%
%ADD19RoundRect,0.112500X-0.062500X0.475000X-0.062500X-0.475000X0.062500X-0.475000X0.062500X0.475000X0*%
%ADD20RoundRect,0.112500X-0.475000X0.062500X-0.475000X-0.062500X0.475000X-0.062500X0.475000X0.062500X0*%
%ADD21RoundRect,0.050000X-2.600000X2.600000X-2.600000X-2.600000X2.600000X-2.600000X2.600000X2.600000X0*%
%ADD22RoundRect,0.050000X0.700000X0.600000X-0.700000X0.600000X-0.700000X-0.600000X0.700000X-0.600000X0*%
%ADD23RoundRect,0.293750X-0.456250X0.243750X-0.456250X-0.243750X0.456250X-0.243750X0.456250X0.243750X0*%
%ADD24RoundRect,0.050000X0.600000X-0.450000X0.600000X0.450000X-0.600000X0.450000X-0.600000X-0.450000X0*%
%ADD25C,1.850000*%
%ADD26C,4.087800*%
%ADD27C,4.100000*%
%ADD28FreePoly0,0.000000*%
%ADD29FreePoly1,0.000000*%
%ADD30FreePoly0,180.000000*%
%ADD31FreePoly1,180.000000*%
%ADD32C,3.148000*%
%ADD33RoundRect,0.050000X0.325000X-0.530000X0.325000X0.530000X-0.325000X0.530000X-0.325000X-0.530000X0*%
G04 APERTURE END LIST*
D10*
X23310000Y-17120000D03*
X26110000Y-17120000D03*
D11*
X64050000Y-16003750D03*
X64050000Y-17003750D03*
X64050000Y-18003750D03*
X64050000Y-19003750D03*
D12*
X67925000Y-20303750D03*
X67925000Y-14703750D03*
D13*
X2535000Y-22155000D03*
X5075000Y-22155000D03*
X2535000Y-19615000D03*
X5075000Y-19615000D03*
X2535000Y-17075000D03*
D14*
X5075000Y-17075000D03*
D15*
X31402500Y-18753750D03*
X33277500Y-18753750D03*
X31402500Y-16253750D03*
X33277500Y-16253750D03*
D16*
X58393750Y-37385000D03*
X52093750Y-37385000D03*
X58393750Y-33585000D03*
X52093750Y-33585000D03*
D17*
X43697500Y-32860000D03*
X41822500Y-32860000D03*
X24061250Y-28750000D03*
X22186250Y-28750000D03*
D18*
X31700000Y-44937500D03*
X31700000Y-43062500D03*
D19*
X26053750Y-34421250D03*
X26553750Y-34421250D03*
X27053750Y-34421250D03*
X27553750Y-34421250D03*
X28053750Y-34421250D03*
X28553750Y-34421250D03*
X29053750Y-34421250D03*
X29553750Y-34421250D03*
X30053750Y-34421250D03*
X30553750Y-34421250D03*
X31053750Y-34421250D03*
D20*
X31891250Y-35258750D03*
X31891250Y-35758750D03*
X31891250Y-36258750D03*
X31891250Y-36758750D03*
X31891250Y-37258750D03*
X31891250Y-37758750D03*
X31891250Y-38258750D03*
X31891250Y-38758750D03*
X31891250Y-39258750D03*
X31891250Y-39758750D03*
X31891250Y-40258750D03*
D19*
X31053750Y-41096250D03*
X30553750Y-41096250D03*
X30053750Y-41096250D03*
X29553750Y-41096250D03*
X29053750Y-41096250D03*
X28553750Y-41096250D03*
X28053750Y-41096250D03*
X27553750Y-41096250D03*
X27053750Y-41096250D03*
X26553750Y-41096250D03*
X26053750Y-41096250D03*
D20*
X25216250Y-40258750D03*
X25216250Y-39758750D03*
X25216250Y-39258750D03*
X25216250Y-38758750D03*
X25216250Y-38258750D03*
X25216250Y-37758750D03*
X25216250Y-37258750D03*
X25216250Y-36758750D03*
X25216250Y-36258750D03*
X25216250Y-35758750D03*
X25216250Y-35258750D03*
D21*
X28553750Y-37758750D03*
D22*
X43860000Y-36510000D03*
X41660000Y-36510000D03*
X41660000Y-34810000D03*
X43860000Y-34810000D03*
D23*
X35150000Y-33312500D03*
X35150000Y-35187500D03*
X49710000Y-33582500D03*
X49710000Y-35457500D03*
D24*
X2381250Y-14350000D03*
X2381250Y-11050000D03*
X17462500Y-11450000D03*
X17462500Y-8150000D03*
X36512500Y-11443750D03*
X36512500Y-8143750D03*
X55562500Y-11443750D03*
X55562500Y-8143750D03*
X74612500Y-11443750D03*
X74612500Y-8143750D03*
X93662500Y-11443750D03*
X93662500Y-8143750D03*
X112712500Y-11443750D03*
X112712500Y-8143750D03*
X132031250Y-11443750D03*
X132031250Y-8143750D03*
X151081250Y-11443750D03*
X151081250Y-8143750D03*
X170131250Y-11443750D03*
X170131250Y-8143750D03*
X189181250Y-11443750D03*
X189181250Y-8143750D03*
X208231250Y-11443750D03*
X208231250Y-8143750D03*
X247125000Y-11443750D03*
X247125000Y-8143750D03*
X284797500Y-17525000D03*
X284797500Y-14225000D03*
X287972500Y-17048750D03*
X287972500Y-13748750D03*
X5556250Y-31812500D03*
X5556250Y-28512500D03*
X67750000Y-31900000D03*
X67750000Y-28600000D03*
X64562500Y-30493750D03*
X64562500Y-27193750D03*
X83612500Y-30493750D03*
X83612500Y-27193750D03*
X86750000Y-31650000D03*
X86750000Y-28350000D03*
X103981250Y-30493750D03*
X103981250Y-27193750D03*
X123031250Y-30493750D03*
X123031250Y-27193750D03*
X142081250Y-30493750D03*
X142081250Y-27193750D03*
X161131250Y-30493750D03*
X161131250Y-27193750D03*
X180181250Y-30493750D03*
X180181250Y-27193750D03*
X199231250Y-30493750D03*
X199231250Y-27193750D03*
X218281250Y-30493750D03*
X218281250Y-27193750D03*
X237331250Y-30493750D03*
X237331250Y-27193750D03*
X261143750Y-30493750D03*
X261143750Y-27193750D03*
X284956250Y-30493750D03*
X284956250Y-27193750D03*
X26193750Y-52450000D03*
X26193750Y-49150000D03*
X50275000Y-49543750D03*
X50275000Y-46243750D03*
X53450000Y-50900000D03*
X53450000Y-47600000D03*
X70643750Y-49543750D03*
X70643750Y-46243750D03*
X108743750Y-49543750D03*
X108743750Y-46243750D03*
X127793750Y-49543750D03*
X127793750Y-46243750D03*
X146843750Y-49543750D03*
X146843750Y-46243750D03*
X165893750Y-49543750D03*
X165893750Y-46243750D03*
X184943750Y-49543750D03*
X184943750Y-46243750D03*
X203993750Y-49543750D03*
X203993750Y-46243750D03*
X223043750Y-49543750D03*
X223043750Y-46243750D03*
X254000000Y-49543750D03*
X254000000Y-46243750D03*
X284956250Y-49543750D03*
X284956250Y-46243750D03*
X28843750Y-68593750D03*
X28843750Y-65293750D03*
X42068750Y-68593750D03*
X42068750Y-65293750D03*
X61118750Y-68593750D03*
X61118750Y-65293750D03*
X80168750Y-68593750D03*
X80168750Y-65293750D03*
X99218750Y-68593750D03*
X99218750Y-65293750D03*
X118268750Y-68593750D03*
X118268750Y-65293750D03*
X137318750Y-68593750D03*
X137318750Y-65293750D03*
X156368750Y-68593750D03*
X156368750Y-65293750D03*
X175418750Y-68593750D03*
X175418750Y-65293750D03*
X194468750Y-68593750D03*
X194468750Y-65293750D03*
X213518750Y-68593750D03*
X213518750Y-65293750D03*
X239712500Y-68593750D03*
X239712500Y-65293750D03*
X265906250Y-68593750D03*
X265906250Y-65293750D03*
X284956250Y-68593750D03*
X284956250Y-65293750D03*
X23018750Y-83406250D03*
X23018750Y-80106250D03*
X26540000Y-91530000D03*
X26540000Y-88230000D03*
X48418750Y-85787500D03*
X48418750Y-82487500D03*
X119062500Y-88168750D03*
X119062500Y-84868750D03*
X212566250Y-87692500D03*
X212566250Y-84392500D03*
X260191250Y-91661250D03*
X260191250Y-88361250D03*
X272097500Y-91661250D03*
X272097500Y-88361250D03*
X284003750Y-91661250D03*
X284003750Y-88361250D03*
D25*
X14080000Y-9000000D03*
X3920000Y-9000000D03*
D26*
X9000000Y-9000000D03*
D27*
X5190000Y-6460000D03*
D28*
X1915000Y-6460000D03*
D27*
X11540000Y-3920000D03*
D29*
X14841000Y-3920000D03*
D25*
X33130000Y-9000000D03*
D26*
X28050000Y-9000000D03*
D25*
X22970000Y-9000000D03*
D27*
X24240000Y-6460000D03*
D28*
X20965000Y-6460000D03*
D29*
X33891000Y-3920000D03*
D27*
X30590000Y-3920000D03*
D25*
X52180000Y-9000000D03*
D26*
X47100000Y-9000000D03*
D25*
X42020000Y-9000000D03*
D27*
X43290000Y-6460000D03*
D28*
X40015000Y-6460000D03*
D27*
X49640000Y-3920000D03*
D29*
X52941000Y-3920000D03*
D25*
X71230000Y-9000000D03*
X61070000Y-9000000D03*
D26*
X66150000Y-9000000D03*
D27*
X62340000Y-6460000D03*
D28*
X59065000Y-6460000D03*
D27*
X68690000Y-3920000D03*
D29*
X71991000Y-3920000D03*
D25*
X80120000Y-9000000D03*
D26*
X85200000Y-9000000D03*
D25*
X90280000Y-9000000D03*
D28*
X78115000Y-6460000D03*
D27*
X81390000Y-6460000D03*
D29*
X91041000Y-3920000D03*
D27*
X87740000Y-3920000D03*
D25*
X109330000Y-9000000D03*
D26*
X104250000Y-9000000D03*
D25*
X99170000Y-9000000D03*
D28*
X97165000Y-6460000D03*
D27*
X100440000Y-6460000D03*
X106790000Y-3920000D03*
D29*
X110091000Y-3920000D03*
D25*
X118220000Y-9000000D03*
X128380000Y-9000000D03*
D26*
X123300000Y-9000000D03*
D27*
X119490000Y-6460000D03*
D28*
X116215000Y-6460000D03*
D27*
X125840000Y-3920000D03*
D29*
X129141000Y-3920000D03*
D26*
X161400000Y-9000000D03*
D25*
X166480000Y-9000000D03*
X156320000Y-9000000D03*
D28*
X154315000Y-6460000D03*
D27*
X157590000Y-6460000D03*
D29*
X167241000Y-3920000D03*
D27*
X163940000Y-3920000D03*
D25*
X185530000Y-9000000D03*
D26*
X180450000Y-9000000D03*
D25*
X175370000Y-9000000D03*
D27*
X176640000Y-6460000D03*
D28*
X173365000Y-6460000D03*
D27*
X182990000Y-3920000D03*
D29*
X186291000Y-3920000D03*
D25*
X194420000Y-9000000D03*
D26*
X199500000Y-9000000D03*
D25*
X204580000Y-9000000D03*
D28*
X192415000Y-6460000D03*
D27*
X195690000Y-6460000D03*
X202040000Y-3920000D03*
D29*
X205341000Y-3920000D03*
D25*
X223630000Y-9000000D03*
D26*
X218550000Y-9000000D03*
D25*
X213470000Y-9000000D03*
D28*
X211465000Y-6460000D03*
D27*
X214740000Y-6460000D03*
D29*
X224391000Y-3920000D03*
D27*
X221090000Y-3920000D03*
D25*
X242680000Y-9000000D03*
X232520000Y-9000000D03*
D26*
X237600000Y-9000000D03*
D28*
X230515000Y-6460000D03*
D27*
X233790000Y-6460000D03*
X240140000Y-3920000D03*
D29*
X243441000Y-3920000D03*
D26*
X256650000Y-9000000D03*
D25*
X251570000Y-9000000D03*
X261730000Y-9000000D03*
D27*
X260460000Y-11540000D03*
D30*
X263735000Y-11540000D03*
D31*
X250809000Y-14080000D03*
D27*
X254110000Y-14080000D03*
D25*
X271255000Y-9000000D03*
D32*
X254237000Y-2015000D03*
D25*
X261095000Y-9000000D03*
D26*
X266175000Y-9000000D03*
X254237000Y-17255000D03*
X278113000Y-17255000D03*
D32*
X278113000Y-2015000D03*
D27*
X262365000Y-6460000D03*
D28*
X259090000Y-6460000D03*
D27*
X268715000Y-3920000D03*
D29*
X272016000Y-3920000D03*
D25*
X8682500Y-28050000D03*
D26*
X13762500Y-28050000D03*
D25*
X18842500Y-28050000D03*
D27*
X9952500Y-25510000D03*
D28*
X6677500Y-25510000D03*
D29*
X19603500Y-22970000D03*
D27*
X16302500Y-22970000D03*
D26*
X37575000Y-28050000D03*
D25*
X42655000Y-28050000D03*
X32495000Y-28050000D03*
D27*
X33765000Y-25510000D03*
D28*
X30490000Y-25510000D03*
D27*
X40115000Y-22970000D03*
D29*
X43416000Y-22970000D03*
D26*
X56625000Y-28050000D03*
D25*
X51545000Y-28050000D03*
X61705000Y-28050000D03*
D28*
X49540000Y-25510000D03*
D27*
X52815000Y-25510000D03*
D29*
X62466000Y-22970000D03*
D27*
X59165000Y-22970000D03*
D26*
X75675000Y-28050000D03*
D25*
X70595000Y-28050000D03*
X80755000Y-28050000D03*
D28*
X68590000Y-25510000D03*
D27*
X71865000Y-25510000D03*
X78215000Y-22970000D03*
D29*
X81516000Y-22970000D03*
D26*
X94725000Y-28050000D03*
D25*
X99805000Y-28050000D03*
X89645000Y-28050000D03*
D27*
X90915000Y-25510000D03*
D28*
X87640000Y-25510000D03*
D29*
X100566000Y-22970000D03*
D27*
X97265000Y-22970000D03*
D25*
X118855000Y-28050000D03*
D26*
X113775000Y-28050000D03*
D25*
X108695000Y-28050000D03*
D27*
X109965000Y-25510000D03*
D28*
X106690000Y-25510000D03*
D29*
X119616000Y-22970000D03*
D27*
X116315000Y-22970000D03*
D26*
X132825000Y-28050000D03*
D25*
X127745000Y-28050000D03*
X137905000Y-28050000D03*
D27*
X129015000Y-25510000D03*
D28*
X125740000Y-25510000D03*
D27*
X135365000Y-22970000D03*
D29*
X138666000Y-22970000D03*
D26*
X151875000Y-28050000D03*
D25*
X146795000Y-28050000D03*
X156955000Y-28050000D03*
D28*
X144790000Y-25510000D03*
D27*
X148065000Y-25510000D03*
X154415000Y-22970000D03*
D29*
X157716000Y-22970000D03*
D25*
X176005000Y-28050000D03*
X165845000Y-28050000D03*
D26*
X170925000Y-28050000D03*
D27*
X167115000Y-25510000D03*
D28*
X163840000Y-25510000D03*
D29*
X176766000Y-22970000D03*
D27*
X173465000Y-22970000D03*
D25*
X184895000Y-28050000D03*
D26*
X189975000Y-28050000D03*
D25*
X195055000Y-28050000D03*
D28*
X182890000Y-25510000D03*
D27*
X186165000Y-25510000D03*
X192515000Y-22970000D03*
D29*
X195816000Y-22970000D03*
D26*
X209025000Y-28050000D03*
D25*
X203945000Y-28050000D03*
X214105000Y-28050000D03*
D28*
X201940000Y-25510000D03*
D27*
X205215000Y-25510000D03*
D29*
X214866000Y-22970000D03*
D27*
X211565000Y-22970000D03*
D26*
X228075000Y-28050000D03*
D25*
X233155000Y-28050000D03*
X222995000Y-28050000D03*
D28*
X220990000Y-25510000D03*
D27*
X224265000Y-25510000D03*
D29*
X233916000Y-22970000D03*
D27*
X230615000Y-22970000D03*
D25*
X242045000Y-28050000D03*
X252205000Y-28050000D03*
D26*
X247125000Y-28050000D03*
D27*
X243315000Y-25510000D03*
D28*
X240040000Y-25510000D03*
D27*
X249665000Y-22970000D03*
D29*
X252966000Y-22970000D03*
D26*
X270937500Y-28050000D03*
D25*
X265857500Y-28050000D03*
X276017500Y-28050000D03*
D27*
X267127500Y-25510000D03*
D28*
X263852500Y-25510000D03*
D29*
X276778500Y-22970000D03*
D27*
X273477500Y-22970000D03*
D25*
X289670000Y-28050000D03*
D26*
X294750000Y-28050000D03*
D25*
X299830000Y-28050000D03*
D28*
X287665000Y-25510000D03*
D27*
X290940000Y-25510000D03*
D29*
X300591000Y-22970000D03*
D27*
X297290000Y-22970000D03*
D26*
X11381250Y-47100000D03*
D25*
X16461250Y-47100000D03*
X6301250Y-47100000D03*
D28*
X4296250Y-44560000D03*
D27*
X7571250Y-44560000D03*
D29*
X17222250Y-42020000D03*
D27*
X13921250Y-42020000D03*
D26*
X16143750Y-47100000D03*
D25*
X11063750Y-47100000D03*
X21223750Y-47100000D03*
D27*
X19953750Y-49640000D03*
D30*
X23228750Y-49640000D03*
D27*
X13603750Y-52180000D03*
D31*
X10302750Y-52180000D03*
D26*
X42337500Y-47100000D03*
D25*
X47417500Y-47100000D03*
X37257500Y-47100000D03*
D28*
X35252500Y-44560000D03*
D27*
X38527500Y-44560000D03*
D29*
X48178500Y-42020000D03*
D27*
X44877500Y-42020000D03*
D25*
X66467500Y-47100000D03*
D26*
X61387500Y-47100000D03*
D25*
X56307500Y-47100000D03*
D27*
X57577500Y-44560000D03*
D28*
X54302500Y-44560000D03*
D29*
X67228500Y-42020000D03*
D27*
X63927500Y-42020000D03*
D25*
X75357500Y-47100000D03*
D26*
X80437500Y-47100000D03*
D25*
X85517500Y-47100000D03*
D28*
X73352500Y-44560000D03*
D27*
X76627500Y-44560000D03*
X82977500Y-42020000D03*
D29*
X86278500Y-42020000D03*
D26*
X99487500Y-47100000D03*
D25*
X104567500Y-47100000D03*
X94407500Y-47100000D03*
D27*
X95677500Y-44560000D03*
D28*
X92402500Y-44560000D03*
D29*
X105328500Y-42020000D03*
D27*
X102027500Y-42020000D03*
D25*
X123617500Y-47100000D03*
D26*
X118537500Y-47100000D03*
D25*
X113457500Y-47100000D03*
D27*
X114727500Y-44560000D03*
D28*
X111452500Y-44560000D03*
D27*
X121077500Y-42020000D03*
D29*
X124378500Y-42020000D03*
D26*
X137587500Y-47100000D03*
D25*
X132507500Y-47100000D03*
X142667500Y-47100000D03*
D28*
X130502500Y-44560000D03*
D27*
X133777500Y-44560000D03*
D29*
X143428500Y-42020000D03*
D27*
X140127500Y-42020000D03*
D25*
X151557500Y-47100000D03*
X161717500Y-47100000D03*
D26*
X156637500Y-47100000D03*
D27*
X152827500Y-44560000D03*
D28*
X149552500Y-44560000D03*
D29*
X162478500Y-42020000D03*
D27*
X159177500Y-42020000D03*
D25*
X180767500Y-47100000D03*
D26*
X175687500Y-47100000D03*
D25*
X170607500Y-47100000D03*
D27*
X171877500Y-44560000D03*
D28*
X168602500Y-44560000D03*
D29*
X181528500Y-42020000D03*
D27*
X178227500Y-42020000D03*
D25*
X189657500Y-47100000D03*
X199817500Y-47100000D03*
D26*
X194737500Y-47100000D03*
D28*
X187652500Y-44560000D03*
D27*
X190927500Y-44560000D03*
X197277500Y-42020000D03*
D29*
X200578500Y-42020000D03*
D25*
X218867500Y-47100000D03*
X208707500Y-47100000D03*
D26*
X213787500Y-47100000D03*
D27*
X209977500Y-44560000D03*
D28*
X206702500Y-44560000D03*
D29*
X219628500Y-42020000D03*
D27*
X216327500Y-42020000D03*
D26*
X232837500Y-47100000D03*
D25*
X237917500Y-47100000D03*
X227757500Y-47100000D03*
D27*
X229027500Y-44560000D03*
D28*
X225752500Y-44560000D03*
D27*
X235377500Y-42020000D03*
D29*
X238678500Y-42020000D03*
D32*
X275731750Y-40115000D03*
D25*
X268873750Y-47100000D03*
D32*
X251855750Y-40115000D03*
D26*
X275731750Y-55355000D03*
X263793750Y-47100000D03*
D25*
X258713750Y-47100000D03*
D26*
X251855750Y-55355000D03*
D28*
X256708750Y-44560000D03*
D27*
X259983750Y-44560000D03*
D29*
X269634750Y-42020000D03*
D27*
X266333750Y-42020000D03*
D26*
X294750000Y-47100000D03*
D25*
X289670000Y-47100000D03*
X299830000Y-47100000D03*
D27*
X290940000Y-44560000D03*
D28*
X287665000Y-44560000D03*
D29*
X300591000Y-42020000D03*
D27*
X297290000Y-42020000D03*
D32*
X32844250Y-59165000D03*
D26*
X20906250Y-66150000D03*
X32844250Y-74405000D03*
X8968250Y-74405000D03*
D25*
X15826250Y-66150000D03*
D32*
X8968250Y-59165000D03*
D25*
X25986250Y-66150000D03*
D28*
X13821250Y-63610000D03*
D27*
X17096250Y-63610000D03*
D29*
X26747250Y-61070000D03*
D27*
X23446250Y-61070000D03*
D26*
X51862500Y-66150000D03*
D25*
X46782500Y-66150000D03*
X56942500Y-66150000D03*
D28*
X44777500Y-63610000D03*
D27*
X48052500Y-63610000D03*
X54402500Y-61070000D03*
D29*
X57703500Y-61070000D03*
D25*
X75992500Y-66150000D03*
D26*
X70912500Y-66150000D03*
D25*
X65832500Y-66150000D03*
D27*
X67102500Y-63610000D03*
D28*
X63827500Y-63610000D03*
D29*
X76753500Y-61070000D03*
D27*
X73452500Y-61070000D03*
D25*
X95042500Y-66150000D03*
D26*
X89962500Y-66150000D03*
D25*
X84882500Y-66150000D03*
D27*
X86152500Y-63610000D03*
D28*
X82877500Y-63610000D03*
D29*
X95803500Y-61070000D03*
D27*
X92502500Y-61070000D03*
D25*
X103932500Y-66150000D03*
X114092500Y-66150000D03*
D26*
X109012500Y-66150000D03*
D28*
X101927500Y-63610000D03*
D27*
X105202500Y-63610000D03*
X111552500Y-61070000D03*
D29*
X114853500Y-61070000D03*
D26*
X128062500Y-66150000D03*
D25*
X122982500Y-66150000D03*
X133142500Y-66150000D03*
D28*
X120977500Y-63610000D03*
D27*
X124252500Y-63610000D03*
X130602500Y-61070000D03*
D29*
X133903500Y-61070000D03*
D25*
X152192500Y-66150000D03*
D26*
X147112500Y-66150000D03*
D25*
X142032500Y-66150000D03*
D27*
X143302500Y-63610000D03*
D28*
X140027500Y-63610000D03*
D27*
X149652500Y-61070000D03*
D29*
X152953500Y-61070000D03*
D25*
X171242500Y-66150000D03*
D26*
X166162500Y-66150000D03*
D25*
X161082500Y-66150000D03*
D27*
X162352500Y-63610000D03*
D28*
X159077500Y-63610000D03*
D27*
X168702500Y-61070000D03*
D29*
X172003500Y-61070000D03*
D26*
X185212500Y-66150000D03*
D25*
X180132500Y-66150000D03*
X190292500Y-66150000D03*
D27*
X181402500Y-63610000D03*
D28*
X178127500Y-63610000D03*
D29*
X191053500Y-61070000D03*
D27*
X187752500Y-61070000D03*
D25*
X199182500Y-66150000D03*
D26*
X204262500Y-66150000D03*
D25*
X209342500Y-66150000D03*
D27*
X200452500Y-63610000D03*
D28*
X197177500Y-63610000D03*
D29*
X210103500Y-61070000D03*
D27*
X206802500Y-61070000D03*
D25*
X218232500Y-66150000D03*
D26*
X223312500Y-66150000D03*
D25*
X228392500Y-66150000D03*
D28*
X216227500Y-63610000D03*
D27*
X219502500Y-63610000D03*
X225852500Y-61070000D03*
D29*
X229153500Y-61070000D03*
D25*
X254586250Y-66150000D03*
X244426250Y-66150000D03*
D26*
X249506250Y-66150000D03*
D28*
X242421250Y-63610000D03*
D27*
X245696250Y-63610000D03*
X252046250Y-61070000D03*
D29*
X255347250Y-61070000D03*
D26*
X275700000Y-66150000D03*
D25*
X280780000Y-66150000D03*
X270620000Y-66150000D03*
D27*
X271890000Y-63610000D03*
D28*
X268615000Y-63610000D03*
D29*
X281541000Y-61070000D03*
D27*
X278240000Y-61070000D03*
D25*
X289670000Y-66150000D03*
X299830000Y-66150000D03*
D26*
X294750000Y-66150000D03*
D27*
X290940000Y-63610000D03*
D28*
X287665000Y-63610000D03*
D27*
X297290000Y-61070000D03*
D29*
X300591000Y-61070000D03*
D25*
X8682500Y-85200000D03*
X18842500Y-85200000D03*
D26*
X13762500Y-85200000D03*
D30*
X20847500Y-87740000D03*
D27*
X17572500Y-87740000D03*
D31*
X7921500Y-90280000D03*
D27*
X11222500Y-90280000D03*
D25*
X42655000Y-85200000D03*
D26*
X37575000Y-85200000D03*
D25*
X32495000Y-85200000D03*
D30*
X44660000Y-87740000D03*
D27*
X41385000Y-87740000D03*
X35035000Y-90280000D03*
D31*
X31734000Y-90280000D03*
D25*
X56307500Y-85200000D03*
D26*
X61387500Y-85200000D03*
D25*
X66467500Y-85200000D03*
D27*
X65197500Y-87740000D03*
D30*
X68472500Y-87740000D03*
D27*
X58847500Y-90280000D03*
D31*
X55546500Y-90280000D03*
D25*
X196801250Y-85200000D03*
X206961250Y-85200000D03*
D26*
X201881250Y-85200000D03*
D27*
X198071250Y-82660000D03*
D28*
X194796250Y-82660000D03*
D29*
X207722250Y-80120000D03*
D27*
X204421250Y-80120000D03*
D25*
X218232500Y-85200000D03*
X228392500Y-85200000D03*
D26*
X223312500Y-85200000D03*
D28*
X216227500Y-82660000D03*
D27*
X219502500Y-82660000D03*
D29*
X229153500Y-80120000D03*
D27*
X225852500Y-80120000D03*
D26*
X256650000Y-85200000D03*
D25*
X261730000Y-85200000D03*
X251570000Y-85200000D03*
D28*
X249565000Y-82660000D03*
D27*
X252840000Y-82660000D03*
D29*
X262491000Y-80120000D03*
D27*
X259190000Y-80120000D03*
D25*
X280780000Y-85200000D03*
D26*
X275700000Y-85200000D03*
D25*
X270620000Y-85200000D03*
D28*
X268615000Y-82660000D03*
D27*
X271890000Y-82660000D03*
X278240000Y-80120000D03*
D29*
X281541000Y-80120000D03*
D25*
X299830000Y-85200000D03*
D26*
X294750000Y-85200000D03*
D25*
X289670000Y-85200000D03*
D28*
X287665000Y-82660000D03*
D27*
X290940000Y-82660000D03*
X297290000Y-80120000D03*
D29*
X300591000Y-80120000D03*
D25*
X220613750Y-85200000D03*
X230773750Y-85200000D03*
D26*
X225693750Y-85200000D03*
D30*
X232778750Y-87740000D03*
D27*
X229503750Y-87740000D03*
X223153750Y-90280000D03*
D31*
X219852750Y-90280000D03*
D25*
X137270000Y-85200000D03*
D32*
X199500000Y-92185000D03*
D26*
X142350000Y-85200000D03*
X85200000Y-76945000D03*
D32*
X85200000Y-92185000D03*
D26*
X199500000Y-76945000D03*
D25*
X147430000Y-85200000D03*
D27*
X146160000Y-87740000D03*
D30*
X149435000Y-87740000D03*
D27*
X139810000Y-90280000D03*
D31*
X136509000Y-90280000D03*
D26*
X142350000Y-9000000D03*
D25*
X137270000Y-9000000D03*
X147430000Y-9000000D03*
D27*
X138540000Y-6460000D03*
D28*
X135265000Y-6460000D03*
D27*
X144890000Y-3920000D03*
D29*
X148191000Y-3920000D03*
D24*
X227281250Y-11443750D03*
X227281250Y-8143750D03*
D23*
X28500000Y-28662500D03*
X28500000Y-30537500D03*
D17*
X43697500Y-38460000D03*
X41822500Y-38460000D03*
D18*
X24850000Y-44287500D03*
X24850000Y-42412500D03*
D24*
X89693750Y-49543750D03*
X89693750Y-46243750D03*
X191562500Y-87643750D03*
X191562500Y-84343750D03*
D15*
X21112500Y-40550000D03*
X22987500Y-40550000D03*
D25*
X289670000Y-9000000D03*
D26*
X294750000Y-9000000D03*
D25*
X299830000Y-9000000D03*
D27*
X290940000Y-6460000D03*
D28*
X287665000Y-6460000D03*
D29*
X300591000Y-3920000D03*
D27*
X297290000Y-3920000D03*
D25*
X270620000Y-9000000D03*
D26*
X275700000Y-9000000D03*
D25*
X280780000Y-9000000D03*
D27*
X279510000Y-11540000D03*
D30*
X282785000Y-11540000D03*
D27*
X273160000Y-14080000D03*
D31*
X269859000Y-14080000D03*
D26*
X11381250Y-85200000D03*
D25*
X16461250Y-85200000D03*
X6301250Y-85200000D03*
D28*
X4296250Y-82660000D03*
D27*
X7571250Y-82660000D03*
X13921250Y-80120000D03*
D29*
X17222250Y-80120000D03*
D25*
X40273750Y-85200000D03*
D26*
X35193750Y-85200000D03*
D25*
X30113750Y-85200000D03*
D28*
X28108750Y-82660000D03*
D27*
X31383750Y-82660000D03*
D29*
X41034750Y-80120000D03*
D27*
X37733750Y-80120000D03*
D26*
X59006250Y-85200000D03*
D25*
X53926250Y-85200000D03*
X64086250Y-85200000D03*
D27*
X55196250Y-82660000D03*
D28*
X51921250Y-82660000D03*
D27*
X61546250Y-80120000D03*
D29*
X64847250Y-80120000D03*
D26*
X80443850Y-76945000D03*
D25*
X125363750Y-85200000D03*
D32*
X180443650Y-92185000D03*
D26*
X180443650Y-76945000D03*
D25*
X135523750Y-85200000D03*
D26*
X130443750Y-85200000D03*
D32*
X80443850Y-92185000D03*
D27*
X126633750Y-82660000D03*
D28*
X123358750Y-82660000D03*
D29*
X136284750Y-80120000D03*
D27*
X132983750Y-80120000D03*
D33*
X39173750Y-18603750D03*
X38223750Y-18603750D03*
X37273750Y-18603750D03*
X37273750Y-16403750D03*
X38223750Y-16403750D03*
X39173750Y-16403750D03*
M02*
