G04 #@! TF.GenerationSoftware,KiCad,Pcbnew,(6.0.0-0)*
G04 #@! TF.CreationDate,2022-04-29T22:29:47-07:00*
G04 #@! TF.ProjectId,bakeneko-65-pcb,62616b65-6e65-46b6-9f2d-36352d706362,rev?*
G04 #@! TF.SameCoordinates,Original*
G04 #@! TF.FileFunction,Paste,Bot*
G04 #@! TF.FilePolarity,Positive*
%FSLAX46Y46*%
G04 Gerber Fmt 4.6, Leading zero omitted, Abs format (unit mm)*
G04 Created by KiCad (PCBNEW (6.0.0-0)) date 2022-04-29 22:29:47*
%MOMM*%
%LPD*%
G01*
G04 APERTURE LIST*
G04 Aperture macros list*
%AMRoundRect*
0 Rectangle with rounded corners*
0 $1 Rounding radius*
0 $2 $3 $4 $5 $6 $7 $8 $9 X,Y pos of 4 corners*
0 Add a 4 corners polygon primitive as box body*
4,1,4,$2,$3,$4,$5,$6,$7,$8,$9,$2,$3,0*
0 Add four circle primitives for the rounded corners*
1,1,$1+$1,$2,$3*
1,1,$1+$1,$4,$5*
1,1,$1+$1,$6,$7*
1,1,$1+$1,$8,$9*
0 Add four rect primitives between the rounded corners*
20,1,$1+$1,$2,$3,$4,$5,0*
20,1,$1+$1,$4,$5,$6,$7,0*
20,1,$1+$1,$6,$7,$8,$9,0*
20,1,$1+$1,$8,$9,$2,$3,0*%
G04 Aperture macros list end*
%ADD10C,0.100000*%
%ADD11RoundRect,0.250000X-0.375000X-0.625000X0.375000X-0.625000X0.375000X0.625000X-0.375000X0.625000X0*%
%ADD12RoundRect,0.150000X-0.625000X0.150000X-0.625000X-0.150000X0.625000X-0.150000X0.625000X0.150000X0*%
%ADD13RoundRect,0.250000X-0.650000X0.350000X-0.650000X-0.350000X0.650000X-0.350000X0.650000X0.350000X0*%
%ADD14RoundRect,0.243750X-0.243750X-0.456250X0.243750X-0.456250X0.243750X0.456250X-0.243750X0.456250X0*%
%ADD15R,1.700000X1.000000*%
%ADD16RoundRect,0.243750X0.243750X0.456250X-0.243750X0.456250X-0.243750X-0.456250X0.243750X-0.456250X0*%
%ADD17RoundRect,0.243750X0.456250X-0.243750X0.456250X0.243750X-0.456250X0.243750X-0.456250X-0.243750X0*%
%ADD18RoundRect,0.250000X-0.275000X0.275000X-0.275000X-0.275000X0.275000X-0.275000X0.275000X0.275000X0*%
%ADD19RoundRect,0.062500X-0.062500X0.475000X-0.062500X-0.475000X0.062500X-0.475000X0.062500X0.475000X0*%
%ADD20RoundRect,0.062500X-0.475000X0.062500X-0.475000X-0.062500X0.475000X-0.062500X0.475000X0.062500X0*%
%ADD21R,1.400000X1.200000*%
%ADD22RoundRect,0.243750X-0.456250X0.243750X-0.456250X-0.243750X0.456250X-0.243750X0.456250X0.243750X0*%
%ADD23R,1.200000X0.900000*%
%ADD24R,0.650000X1.060000*%
G04 APERTURE END LIST*
D10*
X14080000Y-5507500D02*
X16112000Y-5190000D01*
X16112000Y-5190000D02*
X16112000Y-2650000D01*
X16112000Y-2650000D02*
X14080000Y-2332500D01*
X14080000Y-2332500D02*
X14080000Y-5507500D01*
G36*
X16112000Y-2650000D02*
G01*
X16112000Y-5190000D01*
X14080000Y-5507500D01*
X14080000Y-2332500D01*
X16112000Y-2650000D01*
G37*
X16112000Y-2650000D02*
X16112000Y-5190000D01*
X14080000Y-5507500D01*
X14080000Y-2332500D01*
X16112000Y-2650000D01*
X2523000Y-4936000D02*
X491000Y-5253500D01*
X491000Y-5253500D02*
X491000Y-7793500D01*
X491000Y-7793500D02*
X2523000Y-8111000D01*
X2523000Y-8111000D02*
X2523000Y-4936000D01*
G36*
X2523000Y-8111000D02*
G01*
X491000Y-7793500D01*
X491000Y-5253500D01*
X2523000Y-4936000D01*
X2523000Y-8111000D01*
G37*
X2523000Y-8111000D02*
X491000Y-7793500D01*
X491000Y-5253500D01*
X2523000Y-4936000D01*
X2523000Y-8111000D01*
X21573000Y-4936000D02*
X19541000Y-5253500D01*
X19541000Y-5253500D02*
X19541000Y-7793500D01*
X19541000Y-7793500D02*
X21573000Y-8111000D01*
X21573000Y-8111000D02*
X21573000Y-4936000D01*
G36*
X21573000Y-8111000D02*
G01*
X19541000Y-7793500D01*
X19541000Y-5253500D01*
X21573000Y-4936000D01*
X21573000Y-8111000D01*
G37*
X21573000Y-8111000D02*
X19541000Y-7793500D01*
X19541000Y-5253500D01*
X21573000Y-4936000D01*
X21573000Y-8111000D01*
X33130000Y-5507500D02*
X35162000Y-5190000D01*
X35162000Y-5190000D02*
X35162000Y-2650000D01*
X35162000Y-2650000D02*
X33130000Y-2332500D01*
X33130000Y-2332500D02*
X33130000Y-5507500D01*
G36*
X35162000Y-2650000D02*
G01*
X35162000Y-5190000D01*
X33130000Y-5507500D01*
X33130000Y-2332500D01*
X35162000Y-2650000D01*
G37*
X35162000Y-2650000D02*
X35162000Y-5190000D01*
X33130000Y-5507500D01*
X33130000Y-2332500D01*
X35162000Y-2650000D01*
X52180000Y-5507500D02*
X54212000Y-5190000D01*
X54212000Y-5190000D02*
X54212000Y-2650000D01*
X54212000Y-2650000D02*
X52180000Y-2332500D01*
X52180000Y-2332500D02*
X52180000Y-5507500D01*
G36*
X54212000Y-2650000D02*
G01*
X54212000Y-5190000D01*
X52180000Y-5507500D01*
X52180000Y-2332500D01*
X54212000Y-2650000D01*
G37*
X54212000Y-2650000D02*
X54212000Y-5190000D01*
X52180000Y-5507500D01*
X52180000Y-2332500D01*
X54212000Y-2650000D01*
X40623000Y-4936000D02*
X38591000Y-5253500D01*
X38591000Y-5253500D02*
X38591000Y-7793500D01*
X38591000Y-7793500D02*
X40623000Y-8111000D01*
X40623000Y-8111000D02*
X40623000Y-4936000D01*
G36*
X40623000Y-8111000D02*
G01*
X38591000Y-7793500D01*
X38591000Y-5253500D01*
X40623000Y-4936000D01*
X40623000Y-8111000D01*
G37*
X40623000Y-8111000D02*
X38591000Y-7793500D01*
X38591000Y-5253500D01*
X40623000Y-4936000D01*
X40623000Y-8111000D01*
X71230000Y-5507500D02*
X73262000Y-5190000D01*
X73262000Y-5190000D02*
X73262000Y-2650000D01*
X73262000Y-2650000D02*
X71230000Y-2332500D01*
X71230000Y-2332500D02*
X71230000Y-5507500D01*
G36*
X73262000Y-2650000D02*
G01*
X73262000Y-5190000D01*
X71230000Y-5507500D01*
X71230000Y-2332500D01*
X73262000Y-2650000D01*
G37*
X73262000Y-2650000D02*
X73262000Y-5190000D01*
X71230000Y-5507500D01*
X71230000Y-2332500D01*
X73262000Y-2650000D01*
X59673000Y-4936000D02*
X57641000Y-5253500D01*
X57641000Y-5253500D02*
X57641000Y-7793500D01*
X57641000Y-7793500D02*
X59673000Y-8111000D01*
X59673000Y-8111000D02*
X59673000Y-4936000D01*
G36*
X59673000Y-8111000D02*
G01*
X57641000Y-7793500D01*
X57641000Y-5253500D01*
X59673000Y-4936000D01*
X59673000Y-8111000D01*
G37*
X59673000Y-8111000D02*
X57641000Y-7793500D01*
X57641000Y-5253500D01*
X59673000Y-4936000D01*
X59673000Y-8111000D01*
X78723000Y-4936000D02*
X76691000Y-5253500D01*
X76691000Y-5253500D02*
X76691000Y-7793500D01*
X76691000Y-7793500D02*
X78723000Y-8111000D01*
X78723000Y-8111000D02*
X78723000Y-4936000D01*
G36*
X78723000Y-8111000D02*
G01*
X76691000Y-7793500D01*
X76691000Y-5253500D01*
X78723000Y-4936000D01*
X78723000Y-8111000D01*
G37*
X78723000Y-8111000D02*
X76691000Y-7793500D01*
X76691000Y-5253500D01*
X78723000Y-4936000D01*
X78723000Y-8111000D01*
X90280000Y-5507500D02*
X92312000Y-5190000D01*
X92312000Y-5190000D02*
X92312000Y-2650000D01*
X92312000Y-2650000D02*
X90280000Y-2332500D01*
X90280000Y-2332500D02*
X90280000Y-5507500D01*
G36*
X92312000Y-2650000D02*
G01*
X92312000Y-5190000D01*
X90280000Y-5507500D01*
X90280000Y-2332500D01*
X92312000Y-2650000D01*
G37*
X92312000Y-2650000D02*
X92312000Y-5190000D01*
X90280000Y-5507500D01*
X90280000Y-2332500D01*
X92312000Y-2650000D01*
X109330000Y-5507500D02*
X111362000Y-5190000D01*
X111362000Y-5190000D02*
X111362000Y-2650000D01*
X111362000Y-2650000D02*
X109330000Y-2332500D01*
X109330000Y-2332500D02*
X109330000Y-5507500D01*
G36*
X111362000Y-2650000D02*
G01*
X111362000Y-5190000D01*
X109330000Y-5507500D01*
X109330000Y-2332500D01*
X111362000Y-2650000D01*
G37*
X111362000Y-2650000D02*
X111362000Y-5190000D01*
X109330000Y-5507500D01*
X109330000Y-2332500D01*
X111362000Y-2650000D01*
X97773000Y-4936000D02*
X95741000Y-5253500D01*
X95741000Y-5253500D02*
X95741000Y-7793500D01*
X95741000Y-7793500D02*
X97773000Y-8111000D01*
X97773000Y-8111000D02*
X97773000Y-4936000D01*
G36*
X97773000Y-8111000D02*
G01*
X95741000Y-7793500D01*
X95741000Y-5253500D01*
X97773000Y-4936000D01*
X97773000Y-8111000D01*
G37*
X97773000Y-8111000D02*
X95741000Y-7793500D01*
X95741000Y-5253500D01*
X97773000Y-4936000D01*
X97773000Y-8111000D01*
X128380000Y-5507500D02*
X130412000Y-5190000D01*
X130412000Y-5190000D02*
X130412000Y-2650000D01*
X130412000Y-2650000D02*
X128380000Y-2332500D01*
X128380000Y-2332500D02*
X128380000Y-5507500D01*
G36*
X130412000Y-2650000D02*
G01*
X130412000Y-5190000D01*
X128380000Y-5507500D01*
X128380000Y-2332500D01*
X130412000Y-2650000D01*
G37*
X130412000Y-2650000D02*
X130412000Y-5190000D01*
X128380000Y-5507500D01*
X128380000Y-2332500D01*
X130412000Y-2650000D01*
X116823000Y-4936000D02*
X114791000Y-5253500D01*
X114791000Y-5253500D02*
X114791000Y-7793500D01*
X114791000Y-7793500D02*
X116823000Y-8111000D01*
X116823000Y-8111000D02*
X116823000Y-4936000D01*
G36*
X116823000Y-8111000D02*
G01*
X114791000Y-7793500D01*
X114791000Y-5253500D01*
X116823000Y-4936000D01*
X116823000Y-8111000D01*
G37*
X116823000Y-8111000D02*
X114791000Y-7793500D01*
X114791000Y-5253500D01*
X116823000Y-4936000D01*
X116823000Y-8111000D01*
X166480000Y-5507500D02*
X168512000Y-5190000D01*
X168512000Y-5190000D02*
X168512000Y-2650000D01*
X168512000Y-2650000D02*
X166480000Y-2332500D01*
X166480000Y-2332500D02*
X166480000Y-5507500D01*
G36*
X168512000Y-2650000D02*
G01*
X168512000Y-5190000D01*
X166480000Y-5507500D01*
X166480000Y-2332500D01*
X168512000Y-2650000D01*
G37*
X168512000Y-2650000D02*
X168512000Y-5190000D01*
X166480000Y-5507500D01*
X166480000Y-2332500D01*
X168512000Y-2650000D01*
X154923000Y-4936000D02*
X152891000Y-5253500D01*
X152891000Y-5253500D02*
X152891000Y-7793500D01*
X152891000Y-7793500D02*
X154923000Y-8111000D01*
X154923000Y-8111000D02*
X154923000Y-4936000D01*
G36*
X154923000Y-8111000D02*
G01*
X152891000Y-7793500D01*
X152891000Y-5253500D01*
X154923000Y-4936000D01*
X154923000Y-8111000D01*
G37*
X154923000Y-8111000D02*
X152891000Y-7793500D01*
X152891000Y-5253500D01*
X154923000Y-4936000D01*
X154923000Y-8111000D01*
X173973000Y-4936000D02*
X171941000Y-5253500D01*
X171941000Y-5253500D02*
X171941000Y-7793500D01*
X171941000Y-7793500D02*
X173973000Y-8111000D01*
X173973000Y-8111000D02*
X173973000Y-4936000D01*
G36*
X173973000Y-8111000D02*
G01*
X171941000Y-7793500D01*
X171941000Y-5253500D01*
X173973000Y-4936000D01*
X173973000Y-8111000D01*
G37*
X173973000Y-8111000D02*
X171941000Y-7793500D01*
X171941000Y-5253500D01*
X173973000Y-4936000D01*
X173973000Y-8111000D01*
X185530000Y-5507500D02*
X187562000Y-5190000D01*
X187562000Y-5190000D02*
X187562000Y-2650000D01*
X187562000Y-2650000D02*
X185530000Y-2332500D01*
X185530000Y-2332500D02*
X185530000Y-5507500D01*
G36*
X187562000Y-2650000D02*
G01*
X187562000Y-5190000D01*
X185530000Y-5507500D01*
X185530000Y-2332500D01*
X187562000Y-2650000D01*
G37*
X187562000Y-2650000D02*
X187562000Y-5190000D01*
X185530000Y-5507500D01*
X185530000Y-2332500D01*
X187562000Y-2650000D01*
X193023000Y-4936000D02*
X190991000Y-5253500D01*
X190991000Y-5253500D02*
X190991000Y-7793500D01*
X190991000Y-7793500D02*
X193023000Y-8111000D01*
X193023000Y-8111000D02*
X193023000Y-4936000D01*
G36*
X193023000Y-8111000D02*
G01*
X190991000Y-7793500D01*
X190991000Y-5253500D01*
X193023000Y-4936000D01*
X193023000Y-8111000D01*
G37*
X193023000Y-8111000D02*
X190991000Y-7793500D01*
X190991000Y-5253500D01*
X193023000Y-4936000D01*
X193023000Y-8111000D01*
X204580000Y-5507500D02*
X206612000Y-5190000D01*
X206612000Y-5190000D02*
X206612000Y-2650000D01*
X206612000Y-2650000D02*
X204580000Y-2332500D01*
X204580000Y-2332500D02*
X204580000Y-5507500D01*
G36*
X206612000Y-2650000D02*
G01*
X206612000Y-5190000D01*
X204580000Y-5507500D01*
X204580000Y-2332500D01*
X206612000Y-2650000D01*
G37*
X206612000Y-2650000D02*
X206612000Y-5190000D01*
X204580000Y-5507500D01*
X204580000Y-2332500D01*
X206612000Y-2650000D01*
X223630000Y-5507500D02*
X225662000Y-5190000D01*
X225662000Y-5190000D02*
X225662000Y-2650000D01*
X225662000Y-2650000D02*
X223630000Y-2332500D01*
X223630000Y-2332500D02*
X223630000Y-5507500D01*
G36*
X225662000Y-2650000D02*
G01*
X225662000Y-5190000D01*
X223630000Y-5507500D01*
X223630000Y-2332500D01*
X225662000Y-2650000D01*
G37*
X225662000Y-2650000D02*
X225662000Y-5190000D01*
X223630000Y-5507500D01*
X223630000Y-2332500D01*
X225662000Y-2650000D01*
X212073000Y-4936000D02*
X210041000Y-5253500D01*
X210041000Y-5253500D02*
X210041000Y-7793500D01*
X210041000Y-7793500D02*
X212073000Y-8111000D01*
X212073000Y-8111000D02*
X212073000Y-4936000D01*
G36*
X212073000Y-8111000D02*
G01*
X210041000Y-7793500D01*
X210041000Y-5253500D01*
X212073000Y-4936000D01*
X212073000Y-8111000D01*
G37*
X212073000Y-8111000D02*
X210041000Y-7793500D01*
X210041000Y-5253500D01*
X212073000Y-4936000D01*
X212073000Y-8111000D01*
X242680000Y-5507500D02*
X244712000Y-5190000D01*
X244712000Y-5190000D02*
X244712000Y-2650000D01*
X244712000Y-2650000D02*
X242680000Y-2332500D01*
X242680000Y-2332500D02*
X242680000Y-5507500D01*
G36*
X244712000Y-2650000D02*
G01*
X244712000Y-5190000D01*
X242680000Y-5507500D01*
X242680000Y-2332500D01*
X244712000Y-2650000D01*
G37*
X244712000Y-2650000D02*
X244712000Y-5190000D01*
X242680000Y-5507500D01*
X242680000Y-2332500D01*
X244712000Y-2650000D01*
X231123000Y-4936000D02*
X229091000Y-5253500D01*
X229091000Y-5253500D02*
X229091000Y-7793500D01*
X229091000Y-7793500D02*
X231123000Y-8111000D01*
X231123000Y-8111000D02*
X231123000Y-4936000D01*
G36*
X231123000Y-8111000D02*
G01*
X229091000Y-7793500D01*
X229091000Y-5253500D01*
X231123000Y-4936000D01*
X231123000Y-8111000D01*
G37*
X231123000Y-8111000D02*
X229091000Y-7793500D01*
X229091000Y-5253500D01*
X231123000Y-4936000D01*
X231123000Y-8111000D01*
X251570000Y-12492500D02*
X249538000Y-12810000D01*
X249538000Y-12810000D02*
X249538000Y-15350000D01*
X249538000Y-15350000D02*
X251570000Y-15667500D01*
X251570000Y-15667500D02*
X251570000Y-12492500D01*
G36*
X251570000Y-15667500D02*
G01*
X249538000Y-15350000D01*
X249538000Y-12810000D01*
X251570000Y-12492500D01*
X251570000Y-15667500D01*
G37*
X251570000Y-15667500D02*
X249538000Y-15350000D01*
X249538000Y-12810000D01*
X251570000Y-12492500D01*
X251570000Y-15667500D01*
X263127000Y-13064000D02*
X265159000Y-12746500D01*
X265159000Y-12746500D02*
X265159000Y-10206500D01*
X265159000Y-10206500D02*
X263127000Y-9889000D01*
X263127000Y-9889000D02*
X263127000Y-13064000D01*
G36*
X265159000Y-10206500D02*
G01*
X265159000Y-12746500D01*
X263127000Y-13064000D01*
X263127000Y-9889000D01*
X265159000Y-10206500D01*
G37*
X265159000Y-10206500D02*
X265159000Y-12746500D01*
X263127000Y-13064000D01*
X263127000Y-9889000D01*
X265159000Y-10206500D01*
X271255000Y-5507500D02*
X273287000Y-5190000D01*
X273287000Y-5190000D02*
X273287000Y-2650000D01*
X273287000Y-2650000D02*
X271255000Y-2332500D01*
X271255000Y-2332500D02*
X271255000Y-5507500D01*
G36*
X273287000Y-2650000D02*
G01*
X273287000Y-5190000D01*
X271255000Y-5507500D01*
X271255000Y-2332500D01*
X273287000Y-2650000D01*
G37*
X273287000Y-2650000D02*
X273287000Y-5190000D01*
X271255000Y-5507500D01*
X271255000Y-2332500D01*
X273287000Y-2650000D01*
X259698000Y-4936000D02*
X257666000Y-5253500D01*
X257666000Y-5253500D02*
X257666000Y-7793500D01*
X257666000Y-7793500D02*
X259698000Y-8111000D01*
X259698000Y-8111000D02*
X259698000Y-4936000D01*
G36*
X259698000Y-8111000D02*
G01*
X257666000Y-7793500D01*
X257666000Y-5253500D01*
X259698000Y-4936000D01*
X259698000Y-8111000D01*
G37*
X259698000Y-8111000D02*
X257666000Y-7793500D01*
X257666000Y-5253500D01*
X259698000Y-4936000D01*
X259698000Y-8111000D01*
X18842500Y-24557500D02*
X20874500Y-24240000D01*
X20874500Y-24240000D02*
X20874500Y-21700000D01*
X20874500Y-21700000D02*
X18842500Y-21382500D01*
X18842500Y-21382500D02*
X18842500Y-24557500D01*
G36*
X20874500Y-21700000D02*
G01*
X20874500Y-24240000D01*
X18842500Y-24557500D01*
X18842500Y-21382500D01*
X20874500Y-21700000D01*
G37*
X20874500Y-21700000D02*
X20874500Y-24240000D01*
X18842500Y-24557500D01*
X18842500Y-21382500D01*
X20874500Y-21700000D01*
X7285500Y-23986000D02*
X5253500Y-24303500D01*
X5253500Y-24303500D02*
X5253500Y-26843500D01*
X5253500Y-26843500D02*
X7285500Y-27161000D01*
X7285500Y-27161000D02*
X7285500Y-23986000D01*
G36*
X7285500Y-27161000D02*
G01*
X5253500Y-26843500D01*
X5253500Y-24303500D01*
X7285500Y-23986000D01*
X7285500Y-27161000D01*
G37*
X7285500Y-27161000D02*
X5253500Y-26843500D01*
X5253500Y-24303500D01*
X7285500Y-23986000D01*
X7285500Y-27161000D01*
X31098000Y-23986000D02*
X29066000Y-24303500D01*
X29066000Y-24303500D02*
X29066000Y-26843500D01*
X29066000Y-26843500D02*
X31098000Y-27161000D01*
X31098000Y-27161000D02*
X31098000Y-23986000D01*
G36*
X31098000Y-27161000D02*
G01*
X29066000Y-26843500D01*
X29066000Y-24303500D01*
X31098000Y-23986000D01*
X31098000Y-27161000D01*
G37*
X31098000Y-27161000D02*
X29066000Y-26843500D01*
X29066000Y-24303500D01*
X31098000Y-23986000D01*
X31098000Y-27161000D01*
X42655000Y-24557500D02*
X44687000Y-24240000D01*
X44687000Y-24240000D02*
X44687000Y-21700000D01*
X44687000Y-21700000D02*
X42655000Y-21382500D01*
X42655000Y-21382500D02*
X42655000Y-24557500D01*
G36*
X44687000Y-21700000D02*
G01*
X44687000Y-24240000D01*
X42655000Y-24557500D01*
X42655000Y-21382500D01*
X44687000Y-21700000D01*
G37*
X44687000Y-21700000D02*
X44687000Y-24240000D01*
X42655000Y-24557500D01*
X42655000Y-21382500D01*
X44687000Y-21700000D01*
X50148000Y-23986000D02*
X48116000Y-24303500D01*
X48116000Y-24303500D02*
X48116000Y-26843500D01*
X48116000Y-26843500D02*
X50148000Y-27161000D01*
X50148000Y-27161000D02*
X50148000Y-23986000D01*
G36*
X50148000Y-27161000D02*
G01*
X48116000Y-26843500D01*
X48116000Y-24303500D01*
X50148000Y-23986000D01*
X50148000Y-27161000D01*
G37*
X50148000Y-27161000D02*
X48116000Y-26843500D01*
X48116000Y-24303500D01*
X50148000Y-23986000D01*
X50148000Y-27161000D01*
X61705000Y-24557500D02*
X63737000Y-24240000D01*
X63737000Y-24240000D02*
X63737000Y-21700000D01*
X63737000Y-21700000D02*
X61705000Y-21382500D01*
X61705000Y-21382500D02*
X61705000Y-24557500D01*
G36*
X63737000Y-21700000D02*
G01*
X63737000Y-24240000D01*
X61705000Y-24557500D01*
X61705000Y-21382500D01*
X63737000Y-21700000D01*
G37*
X63737000Y-21700000D02*
X63737000Y-24240000D01*
X61705000Y-24557500D01*
X61705000Y-21382500D01*
X63737000Y-21700000D01*
X69198000Y-23986000D02*
X67166000Y-24303500D01*
X67166000Y-24303500D02*
X67166000Y-26843500D01*
X67166000Y-26843500D02*
X69198000Y-27161000D01*
X69198000Y-27161000D02*
X69198000Y-23986000D01*
G36*
X69198000Y-27161000D02*
G01*
X67166000Y-26843500D01*
X67166000Y-24303500D01*
X69198000Y-23986000D01*
X69198000Y-27161000D01*
G37*
X69198000Y-27161000D02*
X67166000Y-26843500D01*
X67166000Y-24303500D01*
X69198000Y-23986000D01*
X69198000Y-27161000D01*
X80755000Y-24557500D02*
X82787000Y-24240000D01*
X82787000Y-24240000D02*
X82787000Y-21700000D01*
X82787000Y-21700000D02*
X80755000Y-21382500D01*
X80755000Y-21382500D02*
X80755000Y-24557500D01*
G36*
X82787000Y-21700000D02*
G01*
X82787000Y-24240000D01*
X80755000Y-24557500D01*
X80755000Y-21382500D01*
X82787000Y-21700000D01*
G37*
X82787000Y-21700000D02*
X82787000Y-24240000D01*
X80755000Y-24557500D01*
X80755000Y-21382500D01*
X82787000Y-21700000D01*
X99805000Y-24557500D02*
X101837000Y-24240000D01*
X101837000Y-24240000D02*
X101837000Y-21700000D01*
X101837000Y-21700000D02*
X99805000Y-21382500D01*
X99805000Y-21382500D02*
X99805000Y-24557500D01*
G36*
X101837000Y-21700000D02*
G01*
X101837000Y-24240000D01*
X99805000Y-24557500D01*
X99805000Y-21382500D01*
X101837000Y-21700000D01*
G37*
X101837000Y-21700000D02*
X101837000Y-24240000D01*
X99805000Y-24557500D01*
X99805000Y-21382500D01*
X101837000Y-21700000D01*
X88248000Y-23986000D02*
X86216000Y-24303500D01*
X86216000Y-24303500D02*
X86216000Y-26843500D01*
X86216000Y-26843500D02*
X88248000Y-27161000D01*
X88248000Y-27161000D02*
X88248000Y-23986000D01*
G36*
X88248000Y-27161000D02*
G01*
X86216000Y-26843500D01*
X86216000Y-24303500D01*
X88248000Y-23986000D01*
X88248000Y-27161000D01*
G37*
X88248000Y-27161000D02*
X86216000Y-26843500D01*
X86216000Y-24303500D01*
X88248000Y-23986000D01*
X88248000Y-27161000D01*
X107298000Y-23986000D02*
X105266000Y-24303500D01*
X105266000Y-24303500D02*
X105266000Y-26843500D01*
X105266000Y-26843500D02*
X107298000Y-27161000D01*
X107298000Y-27161000D02*
X107298000Y-23986000D01*
G36*
X107298000Y-27161000D02*
G01*
X105266000Y-26843500D01*
X105266000Y-24303500D01*
X107298000Y-23986000D01*
X107298000Y-27161000D01*
G37*
X107298000Y-27161000D02*
X105266000Y-26843500D01*
X105266000Y-24303500D01*
X107298000Y-23986000D01*
X107298000Y-27161000D01*
X118855000Y-24557500D02*
X120887000Y-24240000D01*
X120887000Y-24240000D02*
X120887000Y-21700000D01*
X120887000Y-21700000D02*
X118855000Y-21382500D01*
X118855000Y-21382500D02*
X118855000Y-24557500D01*
G36*
X120887000Y-21700000D02*
G01*
X120887000Y-24240000D01*
X118855000Y-24557500D01*
X118855000Y-21382500D01*
X120887000Y-21700000D01*
G37*
X120887000Y-21700000D02*
X120887000Y-24240000D01*
X118855000Y-24557500D01*
X118855000Y-21382500D01*
X120887000Y-21700000D01*
X137905000Y-24557500D02*
X139937000Y-24240000D01*
X139937000Y-24240000D02*
X139937000Y-21700000D01*
X139937000Y-21700000D02*
X137905000Y-21382500D01*
X137905000Y-21382500D02*
X137905000Y-24557500D01*
G36*
X139937000Y-21700000D02*
G01*
X139937000Y-24240000D01*
X137905000Y-24557500D01*
X137905000Y-21382500D01*
X139937000Y-21700000D01*
G37*
X139937000Y-21700000D02*
X139937000Y-24240000D01*
X137905000Y-24557500D01*
X137905000Y-21382500D01*
X139937000Y-21700000D01*
X126348000Y-23986000D02*
X124316000Y-24303500D01*
X124316000Y-24303500D02*
X124316000Y-26843500D01*
X124316000Y-26843500D02*
X126348000Y-27161000D01*
X126348000Y-27161000D02*
X126348000Y-23986000D01*
G36*
X126348000Y-27161000D02*
G01*
X124316000Y-26843500D01*
X124316000Y-24303500D01*
X126348000Y-23986000D01*
X126348000Y-27161000D01*
G37*
X126348000Y-27161000D02*
X124316000Y-26843500D01*
X124316000Y-24303500D01*
X126348000Y-23986000D01*
X126348000Y-27161000D01*
X156955000Y-24557500D02*
X158987000Y-24240000D01*
X158987000Y-24240000D02*
X158987000Y-21700000D01*
X158987000Y-21700000D02*
X156955000Y-21382500D01*
X156955000Y-21382500D02*
X156955000Y-24557500D01*
G36*
X158987000Y-21700000D02*
G01*
X158987000Y-24240000D01*
X156955000Y-24557500D01*
X156955000Y-21382500D01*
X158987000Y-21700000D01*
G37*
X158987000Y-21700000D02*
X158987000Y-24240000D01*
X156955000Y-24557500D01*
X156955000Y-21382500D01*
X158987000Y-21700000D01*
X145398000Y-23986000D02*
X143366000Y-24303500D01*
X143366000Y-24303500D02*
X143366000Y-26843500D01*
X143366000Y-26843500D02*
X145398000Y-27161000D01*
X145398000Y-27161000D02*
X145398000Y-23986000D01*
G36*
X145398000Y-27161000D02*
G01*
X143366000Y-26843500D01*
X143366000Y-24303500D01*
X145398000Y-23986000D01*
X145398000Y-27161000D01*
G37*
X145398000Y-27161000D02*
X143366000Y-26843500D01*
X143366000Y-24303500D01*
X145398000Y-23986000D01*
X145398000Y-27161000D01*
X176005000Y-24557500D02*
X178037000Y-24240000D01*
X178037000Y-24240000D02*
X178037000Y-21700000D01*
X178037000Y-21700000D02*
X176005000Y-21382500D01*
X176005000Y-21382500D02*
X176005000Y-24557500D01*
G36*
X178037000Y-21700000D02*
G01*
X178037000Y-24240000D01*
X176005000Y-24557500D01*
X176005000Y-21382500D01*
X178037000Y-21700000D01*
G37*
X178037000Y-21700000D02*
X178037000Y-24240000D01*
X176005000Y-24557500D01*
X176005000Y-21382500D01*
X178037000Y-21700000D01*
X164448000Y-23986000D02*
X162416000Y-24303500D01*
X162416000Y-24303500D02*
X162416000Y-26843500D01*
X162416000Y-26843500D02*
X164448000Y-27161000D01*
X164448000Y-27161000D02*
X164448000Y-23986000D01*
G36*
X164448000Y-27161000D02*
G01*
X162416000Y-26843500D01*
X162416000Y-24303500D01*
X164448000Y-23986000D01*
X164448000Y-27161000D01*
G37*
X164448000Y-27161000D02*
X162416000Y-26843500D01*
X162416000Y-24303500D01*
X164448000Y-23986000D01*
X164448000Y-27161000D01*
X183498000Y-23986000D02*
X181466000Y-24303500D01*
X181466000Y-24303500D02*
X181466000Y-26843500D01*
X181466000Y-26843500D02*
X183498000Y-27161000D01*
X183498000Y-27161000D02*
X183498000Y-23986000D01*
G36*
X183498000Y-27161000D02*
G01*
X181466000Y-26843500D01*
X181466000Y-24303500D01*
X183498000Y-23986000D01*
X183498000Y-27161000D01*
G37*
X183498000Y-27161000D02*
X181466000Y-26843500D01*
X181466000Y-24303500D01*
X183498000Y-23986000D01*
X183498000Y-27161000D01*
X195055000Y-24557500D02*
X197087000Y-24240000D01*
X197087000Y-24240000D02*
X197087000Y-21700000D01*
X197087000Y-21700000D02*
X195055000Y-21382500D01*
X195055000Y-21382500D02*
X195055000Y-24557500D01*
G36*
X197087000Y-21700000D02*
G01*
X197087000Y-24240000D01*
X195055000Y-24557500D01*
X195055000Y-21382500D01*
X197087000Y-21700000D01*
G37*
X197087000Y-21700000D02*
X197087000Y-24240000D01*
X195055000Y-24557500D01*
X195055000Y-21382500D01*
X197087000Y-21700000D01*
X214105000Y-24557500D02*
X216137000Y-24240000D01*
X216137000Y-24240000D02*
X216137000Y-21700000D01*
X216137000Y-21700000D02*
X214105000Y-21382500D01*
X214105000Y-21382500D02*
X214105000Y-24557500D01*
G36*
X216137000Y-21700000D02*
G01*
X216137000Y-24240000D01*
X214105000Y-24557500D01*
X214105000Y-21382500D01*
X216137000Y-21700000D01*
G37*
X216137000Y-21700000D02*
X216137000Y-24240000D01*
X214105000Y-24557500D01*
X214105000Y-21382500D01*
X216137000Y-21700000D01*
X202548000Y-23986000D02*
X200516000Y-24303500D01*
X200516000Y-24303500D02*
X200516000Y-26843500D01*
X200516000Y-26843500D02*
X202548000Y-27161000D01*
X202548000Y-27161000D02*
X202548000Y-23986000D01*
G36*
X202548000Y-27161000D02*
G01*
X200516000Y-26843500D01*
X200516000Y-24303500D01*
X202548000Y-23986000D01*
X202548000Y-27161000D01*
G37*
X202548000Y-27161000D02*
X200516000Y-26843500D01*
X200516000Y-24303500D01*
X202548000Y-23986000D01*
X202548000Y-27161000D01*
X233155000Y-24557500D02*
X235187000Y-24240000D01*
X235187000Y-24240000D02*
X235187000Y-21700000D01*
X235187000Y-21700000D02*
X233155000Y-21382500D01*
X233155000Y-21382500D02*
X233155000Y-24557500D01*
G36*
X235187000Y-21700000D02*
G01*
X235187000Y-24240000D01*
X233155000Y-24557500D01*
X233155000Y-21382500D01*
X235187000Y-21700000D01*
G37*
X235187000Y-21700000D02*
X235187000Y-24240000D01*
X233155000Y-24557500D01*
X233155000Y-21382500D01*
X235187000Y-21700000D01*
X221598000Y-23986000D02*
X219566000Y-24303500D01*
X219566000Y-24303500D02*
X219566000Y-26843500D01*
X219566000Y-26843500D02*
X221598000Y-27161000D01*
X221598000Y-27161000D02*
X221598000Y-23986000D01*
G36*
X221598000Y-27161000D02*
G01*
X219566000Y-26843500D01*
X219566000Y-24303500D01*
X221598000Y-23986000D01*
X221598000Y-27161000D01*
G37*
X221598000Y-27161000D02*
X219566000Y-26843500D01*
X219566000Y-24303500D01*
X221598000Y-23986000D01*
X221598000Y-27161000D01*
X240648000Y-23986000D02*
X238616000Y-24303500D01*
X238616000Y-24303500D02*
X238616000Y-26843500D01*
X238616000Y-26843500D02*
X240648000Y-27161000D01*
X240648000Y-27161000D02*
X240648000Y-23986000D01*
G36*
X240648000Y-27161000D02*
G01*
X238616000Y-26843500D01*
X238616000Y-24303500D01*
X240648000Y-23986000D01*
X240648000Y-27161000D01*
G37*
X240648000Y-27161000D02*
X238616000Y-26843500D01*
X238616000Y-24303500D01*
X240648000Y-23986000D01*
X240648000Y-27161000D01*
X252205000Y-24557500D02*
X254237000Y-24240000D01*
X254237000Y-24240000D02*
X254237000Y-21700000D01*
X254237000Y-21700000D02*
X252205000Y-21382500D01*
X252205000Y-21382500D02*
X252205000Y-24557500D01*
G36*
X254237000Y-21700000D02*
G01*
X254237000Y-24240000D01*
X252205000Y-24557500D01*
X252205000Y-21382500D01*
X254237000Y-21700000D01*
G37*
X254237000Y-21700000D02*
X254237000Y-24240000D01*
X252205000Y-24557500D01*
X252205000Y-21382500D01*
X254237000Y-21700000D01*
X264460500Y-23986000D02*
X262428500Y-24303500D01*
X262428500Y-24303500D02*
X262428500Y-26843500D01*
X262428500Y-26843500D02*
X264460500Y-27161000D01*
X264460500Y-27161000D02*
X264460500Y-23986000D01*
G36*
X264460500Y-27161000D02*
G01*
X262428500Y-26843500D01*
X262428500Y-24303500D01*
X264460500Y-23986000D01*
X264460500Y-27161000D01*
G37*
X264460500Y-27161000D02*
X262428500Y-26843500D01*
X262428500Y-24303500D01*
X264460500Y-23986000D01*
X264460500Y-27161000D01*
X276017500Y-24557500D02*
X278049500Y-24240000D01*
X278049500Y-24240000D02*
X278049500Y-21700000D01*
X278049500Y-21700000D02*
X276017500Y-21382500D01*
X276017500Y-21382500D02*
X276017500Y-24557500D01*
G36*
X278049500Y-21700000D02*
G01*
X278049500Y-24240000D01*
X276017500Y-24557500D01*
X276017500Y-21382500D01*
X278049500Y-21700000D01*
G37*
X278049500Y-21700000D02*
X278049500Y-24240000D01*
X276017500Y-24557500D01*
X276017500Y-21382500D01*
X278049500Y-21700000D01*
X288273000Y-23986000D02*
X286241000Y-24303500D01*
X286241000Y-24303500D02*
X286241000Y-26843500D01*
X286241000Y-26843500D02*
X288273000Y-27161000D01*
X288273000Y-27161000D02*
X288273000Y-23986000D01*
G36*
X288273000Y-27161000D02*
G01*
X286241000Y-26843500D01*
X286241000Y-24303500D01*
X288273000Y-23986000D01*
X288273000Y-27161000D01*
G37*
X288273000Y-27161000D02*
X286241000Y-26843500D01*
X286241000Y-24303500D01*
X288273000Y-23986000D01*
X288273000Y-27161000D01*
X299830000Y-24557500D02*
X301862000Y-24240000D01*
X301862000Y-24240000D02*
X301862000Y-21700000D01*
X301862000Y-21700000D02*
X299830000Y-21382500D01*
X299830000Y-21382500D02*
X299830000Y-24557500D01*
G36*
X301862000Y-21700000D02*
G01*
X301862000Y-24240000D01*
X299830000Y-24557500D01*
X299830000Y-21382500D01*
X301862000Y-21700000D01*
G37*
X301862000Y-21700000D02*
X301862000Y-24240000D01*
X299830000Y-24557500D01*
X299830000Y-21382500D01*
X301862000Y-21700000D01*
X16461250Y-43607500D02*
X18493250Y-43290000D01*
X18493250Y-43290000D02*
X18493250Y-40750000D01*
X18493250Y-40750000D02*
X16461250Y-40432500D01*
X16461250Y-40432500D02*
X16461250Y-43607500D01*
G36*
X18493250Y-40750000D02*
G01*
X18493250Y-43290000D01*
X16461250Y-43607500D01*
X16461250Y-40432500D01*
X18493250Y-40750000D01*
G37*
X18493250Y-40750000D02*
X18493250Y-43290000D01*
X16461250Y-43607500D01*
X16461250Y-40432500D01*
X18493250Y-40750000D01*
X4904250Y-43036000D02*
X2872250Y-43353500D01*
X2872250Y-43353500D02*
X2872250Y-45893500D01*
X2872250Y-45893500D02*
X4904250Y-46211000D01*
X4904250Y-46211000D02*
X4904250Y-43036000D01*
G36*
X4904250Y-46211000D02*
G01*
X2872250Y-45893500D01*
X2872250Y-43353500D01*
X4904250Y-43036000D01*
X4904250Y-46211000D01*
G37*
X4904250Y-46211000D02*
X2872250Y-45893500D01*
X2872250Y-43353500D01*
X4904250Y-43036000D01*
X4904250Y-46211000D01*
X22620750Y-51164000D02*
X24652750Y-50846500D01*
X24652750Y-50846500D02*
X24652750Y-48306500D01*
X24652750Y-48306500D02*
X22620750Y-47989000D01*
X22620750Y-47989000D02*
X22620750Y-51164000D01*
G36*
X24652750Y-48306500D02*
G01*
X24652750Y-50846500D01*
X22620750Y-51164000D01*
X22620750Y-47989000D01*
X24652750Y-48306500D01*
G37*
X24652750Y-48306500D02*
X24652750Y-50846500D01*
X22620750Y-51164000D01*
X22620750Y-47989000D01*
X24652750Y-48306500D01*
X11063750Y-50592500D02*
X9031750Y-50910000D01*
X9031750Y-50910000D02*
X9031750Y-53450000D01*
X9031750Y-53450000D02*
X11063750Y-53767500D01*
X11063750Y-53767500D02*
X11063750Y-50592500D01*
G36*
X11063750Y-53767500D02*
G01*
X9031750Y-53450000D01*
X9031750Y-50910000D01*
X11063750Y-50592500D01*
X11063750Y-53767500D01*
G37*
X11063750Y-53767500D02*
X9031750Y-53450000D01*
X9031750Y-50910000D01*
X11063750Y-50592500D01*
X11063750Y-53767500D01*
X35860500Y-43036000D02*
X33828500Y-43353500D01*
X33828500Y-43353500D02*
X33828500Y-45893500D01*
X33828500Y-45893500D02*
X35860500Y-46211000D01*
X35860500Y-46211000D02*
X35860500Y-43036000D01*
G36*
X35860500Y-46211000D02*
G01*
X33828500Y-45893500D01*
X33828500Y-43353500D01*
X35860500Y-43036000D01*
X35860500Y-46211000D01*
G37*
X35860500Y-46211000D02*
X33828500Y-45893500D01*
X33828500Y-43353500D01*
X35860500Y-43036000D01*
X35860500Y-46211000D01*
X47417500Y-43607500D02*
X49449500Y-43290000D01*
X49449500Y-43290000D02*
X49449500Y-40750000D01*
X49449500Y-40750000D02*
X47417500Y-40432500D01*
X47417500Y-40432500D02*
X47417500Y-43607500D01*
G36*
X49449500Y-40750000D02*
G01*
X49449500Y-43290000D01*
X47417500Y-43607500D01*
X47417500Y-40432500D01*
X49449500Y-40750000D01*
G37*
X49449500Y-40750000D02*
X49449500Y-43290000D01*
X47417500Y-43607500D01*
X47417500Y-40432500D01*
X49449500Y-40750000D01*
X54910500Y-43036000D02*
X52878500Y-43353500D01*
X52878500Y-43353500D02*
X52878500Y-45893500D01*
X52878500Y-45893500D02*
X54910500Y-46211000D01*
X54910500Y-46211000D02*
X54910500Y-43036000D01*
G36*
X54910500Y-46211000D02*
G01*
X52878500Y-45893500D01*
X52878500Y-43353500D01*
X54910500Y-43036000D01*
X54910500Y-46211000D01*
G37*
X54910500Y-46211000D02*
X52878500Y-45893500D01*
X52878500Y-43353500D01*
X54910500Y-43036000D01*
X54910500Y-46211000D01*
X66467500Y-43607500D02*
X68499500Y-43290000D01*
X68499500Y-43290000D02*
X68499500Y-40750000D01*
X68499500Y-40750000D02*
X66467500Y-40432500D01*
X66467500Y-40432500D02*
X66467500Y-43607500D01*
G36*
X68499500Y-40750000D02*
G01*
X68499500Y-43290000D01*
X66467500Y-43607500D01*
X66467500Y-40432500D01*
X68499500Y-40750000D01*
G37*
X68499500Y-40750000D02*
X68499500Y-43290000D01*
X66467500Y-43607500D01*
X66467500Y-40432500D01*
X68499500Y-40750000D01*
X85517500Y-43607500D02*
X87549500Y-43290000D01*
X87549500Y-43290000D02*
X87549500Y-40750000D01*
X87549500Y-40750000D02*
X85517500Y-40432500D01*
X85517500Y-40432500D02*
X85517500Y-43607500D01*
G36*
X87549500Y-40750000D02*
G01*
X87549500Y-43290000D01*
X85517500Y-43607500D01*
X85517500Y-40432500D01*
X87549500Y-40750000D01*
G37*
X87549500Y-40750000D02*
X87549500Y-43290000D01*
X85517500Y-43607500D01*
X85517500Y-40432500D01*
X87549500Y-40750000D01*
X73960500Y-43036000D02*
X71928500Y-43353500D01*
X71928500Y-43353500D02*
X71928500Y-45893500D01*
X71928500Y-45893500D02*
X73960500Y-46211000D01*
X73960500Y-46211000D02*
X73960500Y-43036000D01*
G36*
X73960500Y-46211000D02*
G01*
X71928500Y-45893500D01*
X71928500Y-43353500D01*
X73960500Y-43036000D01*
X73960500Y-46211000D01*
G37*
X73960500Y-46211000D02*
X71928500Y-45893500D01*
X71928500Y-43353500D01*
X73960500Y-43036000D01*
X73960500Y-46211000D01*
X93010500Y-43036000D02*
X90978500Y-43353500D01*
X90978500Y-43353500D02*
X90978500Y-45893500D01*
X90978500Y-45893500D02*
X93010500Y-46211000D01*
X93010500Y-46211000D02*
X93010500Y-43036000D01*
G36*
X93010500Y-46211000D02*
G01*
X90978500Y-45893500D01*
X90978500Y-43353500D01*
X93010500Y-43036000D01*
X93010500Y-46211000D01*
G37*
X93010500Y-46211000D02*
X90978500Y-45893500D01*
X90978500Y-43353500D01*
X93010500Y-43036000D01*
X93010500Y-46211000D01*
X104567500Y-43607500D02*
X106599500Y-43290000D01*
X106599500Y-43290000D02*
X106599500Y-40750000D01*
X106599500Y-40750000D02*
X104567500Y-40432500D01*
X104567500Y-40432500D02*
X104567500Y-43607500D01*
G36*
X106599500Y-40750000D02*
G01*
X106599500Y-43290000D01*
X104567500Y-43607500D01*
X104567500Y-40432500D01*
X106599500Y-40750000D01*
G37*
X106599500Y-40750000D02*
X106599500Y-43290000D01*
X104567500Y-43607500D01*
X104567500Y-40432500D01*
X106599500Y-40750000D01*
X123617500Y-43607500D02*
X125649500Y-43290000D01*
X125649500Y-43290000D02*
X125649500Y-40750000D01*
X125649500Y-40750000D02*
X123617500Y-40432500D01*
X123617500Y-40432500D02*
X123617500Y-43607500D01*
G36*
X125649500Y-40750000D02*
G01*
X125649500Y-43290000D01*
X123617500Y-43607500D01*
X123617500Y-40432500D01*
X125649500Y-40750000D01*
G37*
X125649500Y-40750000D02*
X125649500Y-43290000D01*
X123617500Y-43607500D01*
X123617500Y-40432500D01*
X125649500Y-40750000D01*
X112060500Y-43036000D02*
X110028500Y-43353500D01*
X110028500Y-43353500D02*
X110028500Y-45893500D01*
X110028500Y-45893500D02*
X112060500Y-46211000D01*
X112060500Y-46211000D02*
X112060500Y-43036000D01*
G36*
X112060500Y-46211000D02*
G01*
X110028500Y-45893500D01*
X110028500Y-43353500D01*
X112060500Y-43036000D01*
X112060500Y-46211000D01*
G37*
X112060500Y-46211000D02*
X110028500Y-45893500D01*
X110028500Y-43353500D01*
X112060500Y-43036000D01*
X112060500Y-46211000D01*
X142667500Y-43607500D02*
X144699500Y-43290000D01*
X144699500Y-43290000D02*
X144699500Y-40750000D01*
X144699500Y-40750000D02*
X142667500Y-40432500D01*
X142667500Y-40432500D02*
X142667500Y-43607500D01*
G36*
X144699500Y-40750000D02*
G01*
X144699500Y-43290000D01*
X142667500Y-43607500D01*
X142667500Y-40432500D01*
X144699500Y-40750000D01*
G37*
X144699500Y-40750000D02*
X144699500Y-43290000D01*
X142667500Y-43607500D01*
X142667500Y-40432500D01*
X144699500Y-40750000D01*
X131110500Y-43036000D02*
X129078500Y-43353500D01*
X129078500Y-43353500D02*
X129078500Y-45893500D01*
X129078500Y-45893500D02*
X131110500Y-46211000D01*
X131110500Y-46211000D02*
X131110500Y-43036000D01*
G36*
X131110500Y-46211000D02*
G01*
X129078500Y-45893500D01*
X129078500Y-43353500D01*
X131110500Y-43036000D01*
X131110500Y-46211000D01*
G37*
X131110500Y-46211000D02*
X129078500Y-45893500D01*
X129078500Y-43353500D01*
X131110500Y-43036000D01*
X131110500Y-46211000D01*
X150160500Y-43036000D02*
X148128500Y-43353500D01*
X148128500Y-43353500D02*
X148128500Y-45893500D01*
X148128500Y-45893500D02*
X150160500Y-46211000D01*
X150160500Y-46211000D02*
X150160500Y-43036000D01*
G36*
X150160500Y-46211000D02*
G01*
X148128500Y-45893500D01*
X148128500Y-43353500D01*
X150160500Y-43036000D01*
X150160500Y-46211000D01*
G37*
X150160500Y-46211000D02*
X148128500Y-45893500D01*
X148128500Y-43353500D01*
X150160500Y-43036000D01*
X150160500Y-46211000D01*
X161717500Y-43607500D02*
X163749500Y-43290000D01*
X163749500Y-43290000D02*
X163749500Y-40750000D01*
X163749500Y-40750000D02*
X161717500Y-40432500D01*
X161717500Y-40432500D02*
X161717500Y-43607500D01*
G36*
X163749500Y-40750000D02*
G01*
X163749500Y-43290000D01*
X161717500Y-43607500D01*
X161717500Y-40432500D01*
X163749500Y-40750000D01*
G37*
X163749500Y-40750000D02*
X163749500Y-43290000D01*
X161717500Y-43607500D01*
X161717500Y-40432500D01*
X163749500Y-40750000D01*
X180767500Y-43607500D02*
X182799500Y-43290000D01*
X182799500Y-43290000D02*
X182799500Y-40750000D01*
X182799500Y-40750000D02*
X180767500Y-40432500D01*
X180767500Y-40432500D02*
X180767500Y-43607500D01*
G36*
X182799500Y-40750000D02*
G01*
X182799500Y-43290000D01*
X180767500Y-43607500D01*
X180767500Y-40432500D01*
X182799500Y-40750000D01*
G37*
X182799500Y-40750000D02*
X182799500Y-43290000D01*
X180767500Y-43607500D01*
X180767500Y-40432500D01*
X182799500Y-40750000D01*
X169210500Y-43036000D02*
X167178500Y-43353500D01*
X167178500Y-43353500D02*
X167178500Y-45893500D01*
X167178500Y-45893500D02*
X169210500Y-46211000D01*
X169210500Y-46211000D02*
X169210500Y-43036000D01*
G36*
X169210500Y-46211000D02*
G01*
X167178500Y-45893500D01*
X167178500Y-43353500D01*
X169210500Y-43036000D01*
X169210500Y-46211000D01*
G37*
X169210500Y-46211000D02*
X167178500Y-45893500D01*
X167178500Y-43353500D01*
X169210500Y-43036000D01*
X169210500Y-46211000D01*
X199817500Y-43607500D02*
X201849500Y-43290000D01*
X201849500Y-43290000D02*
X201849500Y-40750000D01*
X201849500Y-40750000D02*
X199817500Y-40432500D01*
X199817500Y-40432500D02*
X199817500Y-43607500D01*
G36*
X201849500Y-40750000D02*
G01*
X201849500Y-43290000D01*
X199817500Y-43607500D01*
X199817500Y-40432500D01*
X201849500Y-40750000D01*
G37*
X201849500Y-40750000D02*
X201849500Y-43290000D01*
X199817500Y-43607500D01*
X199817500Y-40432500D01*
X201849500Y-40750000D01*
X188260500Y-43036000D02*
X186228500Y-43353500D01*
X186228500Y-43353500D02*
X186228500Y-45893500D01*
X186228500Y-45893500D02*
X188260500Y-46211000D01*
X188260500Y-46211000D02*
X188260500Y-43036000D01*
G36*
X188260500Y-46211000D02*
G01*
X186228500Y-45893500D01*
X186228500Y-43353500D01*
X188260500Y-43036000D01*
X188260500Y-46211000D01*
G37*
X188260500Y-46211000D02*
X186228500Y-45893500D01*
X186228500Y-43353500D01*
X188260500Y-43036000D01*
X188260500Y-46211000D01*
X218867500Y-43607500D02*
X220899500Y-43290000D01*
X220899500Y-43290000D02*
X220899500Y-40750000D01*
X220899500Y-40750000D02*
X218867500Y-40432500D01*
X218867500Y-40432500D02*
X218867500Y-43607500D01*
G36*
X220899500Y-40750000D02*
G01*
X220899500Y-43290000D01*
X218867500Y-43607500D01*
X218867500Y-40432500D01*
X220899500Y-40750000D01*
G37*
X220899500Y-40750000D02*
X220899500Y-43290000D01*
X218867500Y-43607500D01*
X218867500Y-40432500D01*
X220899500Y-40750000D01*
X207310500Y-43036000D02*
X205278500Y-43353500D01*
X205278500Y-43353500D02*
X205278500Y-45893500D01*
X205278500Y-45893500D02*
X207310500Y-46211000D01*
X207310500Y-46211000D02*
X207310500Y-43036000D01*
G36*
X207310500Y-46211000D02*
G01*
X205278500Y-45893500D01*
X205278500Y-43353500D01*
X207310500Y-43036000D01*
X207310500Y-46211000D01*
G37*
X207310500Y-46211000D02*
X205278500Y-45893500D01*
X205278500Y-43353500D01*
X207310500Y-43036000D01*
X207310500Y-46211000D01*
X226360500Y-43036000D02*
X224328500Y-43353500D01*
X224328500Y-43353500D02*
X224328500Y-45893500D01*
X224328500Y-45893500D02*
X226360500Y-46211000D01*
X226360500Y-46211000D02*
X226360500Y-43036000D01*
G36*
X226360500Y-46211000D02*
G01*
X224328500Y-45893500D01*
X224328500Y-43353500D01*
X226360500Y-43036000D01*
X226360500Y-46211000D01*
G37*
X226360500Y-46211000D02*
X224328500Y-45893500D01*
X224328500Y-43353500D01*
X226360500Y-43036000D01*
X226360500Y-46211000D01*
X237917500Y-43607500D02*
X239949500Y-43290000D01*
X239949500Y-43290000D02*
X239949500Y-40750000D01*
X239949500Y-40750000D02*
X237917500Y-40432500D01*
X237917500Y-40432500D02*
X237917500Y-43607500D01*
G36*
X239949500Y-40750000D02*
G01*
X239949500Y-43290000D01*
X237917500Y-43607500D01*
X237917500Y-40432500D01*
X239949500Y-40750000D01*
G37*
X239949500Y-40750000D02*
X239949500Y-43290000D01*
X237917500Y-43607500D01*
X237917500Y-40432500D01*
X239949500Y-40750000D01*
X257316750Y-43036000D02*
X255284750Y-43353500D01*
X255284750Y-43353500D02*
X255284750Y-45893500D01*
X255284750Y-45893500D02*
X257316750Y-46211000D01*
X257316750Y-46211000D02*
X257316750Y-43036000D01*
G36*
X257316750Y-46211000D02*
G01*
X255284750Y-45893500D01*
X255284750Y-43353500D01*
X257316750Y-43036000D01*
X257316750Y-46211000D01*
G37*
X257316750Y-46211000D02*
X255284750Y-45893500D01*
X255284750Y-43353500D01*
X257316750Y-43036000D01*
X257316750Y-46211000D01*
X268873750Y-43607500D02*
X270905750Y-43290000D01*
X270905750Y-43290000D02*
X270905750Y-40750000D01*
X270905750Y-40750000D02*
X268873750Y-40432500D01*
X268873750Y-40432500D02*
X268873750Y-43607500D01*
G36*
X270905750Y-40750000D02*
G01*
X270905750Y-43290000D01*
X268873750Y-43607500D01*
X268873750Y-40432500D01*
X270905750Y-40750000D01*
G37*
X270905750Y-40750000D02*
X270905750Y-43290000D01*
X268873750Y-43607500D01*
X268873750Y-40432500D01*
X270905750Y-40750000D01*
X299830000Y-43607500D02*
X301862000Y-43290000D01*
X301862000Y-43290000D02*
X301862000Y-40750000D01*
X301862000Y-40750000D02*
X299830000Y-40432500D01*
X299830000Y-40432500D02*
X299830000Y-43607500D01*
G36*
X301862000Y-40750000D02*
G01*
X301862000Y-43290000D01*
X299830000Y-43607500D01*
X299830000Y-40432500D01*
X301862000Y-40750000D01*
G37*
X301862000Y-40750000D02*
X301862000Y-43290000D01*
X299830000Y-43607500D01*
X299830000Y-40432500D01*
X301862000Y-40750000D01*
X288273000Y-43036000D02*
X286241000Y-43353500D01*
X286241000Y-43353500D02*
X286241000Y-45893500D01*
X286241000Y-45893500D02*
X288273000Y-46211000D01*
X288273000Y-46211000D02*
X288273000Y-43036000D01*
G36*
X288273000Y-46211000D02*
G01*
X286241000Y-45893500D01*
X286241000Y-43353500D01*
X288273000Y-43036000D01*
X288273000Y-46211000D01*
G37*
X288273000Y-46211000D02*
X286241000Y-45893500D01*
X286241000Y-43353500D01*
X288273000Y-43036000D01*
X288273000Y-46211000D01*
X25986250Y-62657500D02*
X28018250Y-62340000D01*
X28018250Y-62340000D02*
X28018250Y-59800000D01*
X28018250Y-59800000D02*
X25986250Y-59482500D01*
X25986250Y-59482500D02*
X25986250Y-62657500D01*
G36*
X28018250Y-59800000D02*
G01*
X28018250Y-62340000D01*
X25986250Y-62657500D01*
X25986250Y-59482500D01*
X28018250Y-59800000D01*
G37*
X28018250Y-59800000D02*
X28018250Y-62340000D01*
X25986250Y-62657500D01*
X25986250Y-59482500D01*
X28018250Y-59800000D01*
X14429250Y-62086000D02*
X12397250Y-62403500D01*
X12397250Y-62403500D02*
X12397250Y-64943500D01*
X12397250Y-64943500D02*
X14429250Y-65261000D01*
X14429250Y-65261000D02*
X14429250Y-62086000D01*
G36*
X14429250Y-65261000D02*
G01*
X12397250Y-64943500D01*
X12397250Y-62403500D01*
X14429250Y-62086000D01*
X14429250Y-65261000D01*
G37*
X14429250Y-65261000D02*
X12397250Y-64943500D01*
X12397250Y-62403500D01*
X14429250Y-62086000D01*
X14429250Y-65261000D01*
X56942500Y-62657500D02*
X58974500Y-62340000D01*
X58974500Y-62340000D02*
X58974500Y-59800000D01*
X58974500Y-59800000D02*
X56942500Y-59482500D01*
X56942500Y-59482500D02*
X56942500Y-62657500D01*
G36*
X58974500Y-59800000D02*
G01*
X58974500Y-62340000D01*
X56942500Y-62657500D01*
X56942500Y-59482500D01*
X58974500Y-59800000D01*
G37*
X58974500Y-59800000D02*
X58974500Y-62340000D01*
X56942500Y-62657500D01*
X56942500Y-59482500D01*
X58974500Y-59800000D01*
X45385500Y-62086000D02*
X43353500Y-62403500D01*
X43353500Y-62403500D02*
X43353500Y-64943500D01*
X43353500Y-64943500D02*
X45385500Y-65261000D01*
X45385500Y-65261000D02*
X45385500Y-62086000D01*
G36*
X45385500Y-65261000D02*
G01*
X43353500Y-64943500D01*
X43353500Y-62403500D01*
X45385500Y-62086000D01*
X45385500Y-65261000D01*
G37*
X45385500Y-65261000D02*
X43353500Y-64943500D01*
X43353500Y-62403500D01*
X45385500Y-62086000D01*
X45385500Y-65261000D01*
X75992500Y-62657500D02*
X78024500Y-62340000D01*
X78024500Y-62340000D02*
X78024500Y-59800000D01*
X78024500Y-59800000D02*
X75992500Y-59482500D01*
X75992500Y-59482500D02*
X75992500Y-62657500D01*
G36*
X78024500Y-59800000D02*
G01*
X78024500Y-62340000D01*
X75992500Y-62657500D01*
X75992500Y-59482500D01*
X78024500Y-59800000D01*
G37*
X78024500Y-59800000D02*
X78024500Y-62340000D01*
X75992500Y-62657500D01*
X75992500Y-59482500D01*
X78024500Y-59800000D01*
X64435500Y-62086000D02*
X62403500Y-62403500D01*
X62403500Y-62403500D02*
X62403500Y-64943500D01*
X62403500Y-64943500D02*
X64435500Y-65261000D01*
X64435500Y-65261000D02*
X64435500Y-62086000D01*
G36*
X64435500Y-65261000D02*
G01*
X62403500Y-64943500D01*
X62403500Y-62403500D01*
X64435500Y-62086000D01*
X64435500Y-65261000D01*
G37*
X64435500Y-65261000D02*
X62403500Y-64943500D01*
X62403500Y-62403500D01*
X64435500Y-62086000D01*
X64435500Y-65261000D01*
X83485500Y-62086000D02*
X81453500Y-62403500D01*
X81453500Y-62403500D02*
X81453500Y-64943500D01*
X81453500Y-64943500D02*
X83485500Y-65261000D01*
X83485500Y-65261000D02*
X83485500Y-62086000D01*
G36*
X83485500Y-65261000D02*
G01*
X81453500Y-64943500D01*
X81453500Y-62403500D01*
X83485500Y-62086000D01*
X83485500Y-65261000D01*
G37*
X83485500Y-65261000D02*
X81453500Y-64943500D01*
X81453500Y-62403500D01*
X83485500Y-62086000D01*
X83485500Y-65261000D01*
X95042500Y-62657500D02*
X97074500Y-62340000D01*
X97074500Y-62340000D02*
X97074500Y-59800000D01*
X97074500Y-59800000D02*
X95042500Y-59482500D01*
X95042500Y-59482500D02*
X95042500Y-62657500D01*
G36*
X97074500Y-59800000D02*
G01*
X97074500Y-62340000D01*
X95042500Y-62657500D01*
X95042500Y-59482500D01*
X97074500Y-59800000D01*
G37*
X97074500Y-59800000D02*
X97074500Y-62340000D01*
X95042500Y-62657500D01*
X95042500Y-59482500D01*
X97074500Y-59800000D01*
X102535500Y-62086000D02*
X100503500Y-62403500D01*
X100503500Y-62403500D02*
X100503500Y-64943500D01*
X100503500Y-64943500D02*
X102535500Y-65261000D01*
X102535500Y-65261000D02*
X102535500Y-62086000D01*
G36*
X102535500Y-65261000D02*
G01*
X100503500Y-64943500D01*
X100503500Y-62403500D01*
X102535500Y-62086000D01*
X102535500Y-65261000D01*
G37*
X102535500Y-65261000D02*
X100503500Y-64943500D01*
X100503500Y-62403500D01*
X102535500Y-62086000D01*
X102535500Y-65261000D01*
X114092500Y-62657500D02*
X116124500Y-62340000D01*
X116124500Y-62340000D02*
X116124500Y-59800000D01*
X116124500Y-59800000D02*
X114092500Y-59482500D01*
X114092500Y-59482500D02*
X114092500Y-62657500D01*
G36*
X116124500Y-59800000D02*
G01*
X116124500Y-62340000D01*
X114092500Y-62657500D01*
X114092500Y-59482500D01*
X116124500Y-59800000D01*
G37*
X116124500Y-59800000D02*
X116124500Y-62340000D01*
X114092500Y-62657500D01*
X114092500Y-59482500D01*
X116124500Y-59800000D01*
X121585500Y-62086000D02*
X119553500Y-62403500D01*
X119553500Y-62403500D02*
X119553500Y-64943500D01*
X119553500Y-64943500D02*
X121585500Y-65261000D01*
X121585500Y-65261000D02*
X121585500Y-62086000D01*
G36*
X121585500Y-65261000D02*
G01*
X119553500Y-64943500D01*
X119553500Y-62403500D01*
X121585500Y-62086000D01*
X121585500Y-65261000D01*
G37*
X121585500Y-65261000D02*
X119553500Y-64943500D01*
X119553500Y-62403500D01*
X121585500Y-62086000D01*
X121585500Y-65261000D01*
X133142500Y-62657500D02*
X135174500Y-62340000D01*
X135174500Y-62340000D02*
X135174500Y-59800000D01*
X135174500Y-59800000D02*
X133142500Y-59482500D01*
X133142500Y-59482500D02*
X133142500Y-62657500D01*
G36*
X135174500Y-59800000D02*
G01*
X135174500Y-62340000D01*
X133142500Y-62657500D01*
X133142500Y-59482500D01*
X135174500Y-59800000D01*
G37*
X135174500Y-59800000D02*
X135174500Y-62340000D01*
X133142500Y-62657500D01*
X133142500Y-59482500D01*
X135174500Y-59800000D01*
X140635500Y-62086000D02*
X138603500Y-62403500D01*
X138603500Y-62403500D02*
X138603500Y-64943500D01*
X138603500Y-64943500D02*
X140635500Y-65261000D01*
X140635500Y-65261000D02*
X140635500Y-62086000D01*
G36*
X140635500Y-65261000D02*
G01*
X138603500Y-64943500D01*
X138603500Y-62403500D01*
X140635500Y-62086000D01*
X140635500Y-65261000D01*
G37*
X140635500Y-65261000D02*
X138603500Y-64943500D01*
X138603500Y-62403500D01*
X140635500Y-62086000D01*
X140635500Y-65261000D01*
X152192500Y-62657500D02*
X154224500Y-62340000D01*
X154224500Y-62340000D02*
X154224500Y-59800000D01*
X154224500Y-59800000D02*
X152192500Y-59482500D01*
X152192500Y-59482500D02*
X152192500Y-62657500D01*
G36*
X154224500Y-59800000D02*
G01*
X154224500Y-62340000D01*
X152192500Y-62657500D01*
X152192500Y-59482500D01*
X154224500Y-59800000D01*
G37*
X154224500Y-59800000D02*
X154224500Y-62340000D01*
X152192500Y-62657500D01*
X152192500Y-59482500D01*
X154224500Y-59800000D01*
X159685500Y-62086000D02*
X157653500Y-62403500D01*
X157653500Y-62403500D02*
X157653500Y-64943500D01*
X157653500Y-64943500D02*
X159685500Y-65261000D01*
X159685500Y-65261000D02*
X159685500Y-62086000D01*
G36*
X159685500Y-65261000D02*
G01*
X157653500Y-64943500D01*
X157653500Y-62403500D01*
X159685500Y-62086000D01*
X159685500Y-65261000D01*
G37*
X159685500Y-65261000D02*
X157653500Y-64943500D01*
X157653500Y-62403500D01*
X159685500Y-62086000D01*
X159685500Y-65261000D01*
X171242500Y-62657500D02*
X173274500Y-62340000D01*
X173274500Y-62340000D02*
X173274500Y-59800000D01*
X173274500Y-59800000D02*
X171242500Y-59482500D01*
X171242500Y-59482500D02*
X171242500Y-62657500D01*
G36*
X173274500Y-59800000D02*
G01*
X173274500Y-62340000D01*
X171242500Y-62657500D01*
X171242500Y-59482500D01*
X173274500Y-59800000D01*
G37*
X173274500Y-59800000D02*
X173274500Y-62340000D01*
X171242500Y-62657500D01*
X171242500Y-59482500D01*
X173274500Y-59800000D01*
X190292500Y-62657500D02*
X192324500Y-62340000D01*
X192324500Y-62340000D02*
X192324500Y-59800000D01*
X192324500Y-59800000D02*
X190292500Y-59482500D01*
X190292500Y-59482500D02*
X190292500Y-62657500D01*
G36*
X192324500Y-59800000D02*
G01*
X192324500Y-62340000D01*
X190292500Y-62657500D01*
X190292500Y-59482500D01*
X192324500Y-59800000D01*
G37*
X192324500Y-59800000D02*
X192324500Y-62340000D01*
X190292500Y-62657500D01*
X190292500Y-59482500D01*
X192324500Y-59800000D01*
X178735500Y-62086000D02*
X176703500Y-62403500D01*
X176703500Y-62403500D02*
X176703500Y-64943500D01*
X176703500Y-64943500D02*
X178735500Y-65261000D01*
X178735500Y-65261000D02*
X178735500Y-62086000D01*
G36*
X178735500Y-65261000D02*
G01*
X176703500Y-64943500D01*
X176703500Y-62403500D01*
X178735500Y-62086000D01*
X178735500Y-65261000D01*
G37*
X178735500Y-65261000D02*
X176703500Y-64943500D01*
X176703500Y-62403500D01*
X178735500Y-62086000D01*
X178735500Y-65261000D01*
X209342500Y-62657500D02*
X211374500Y-62340000D01*
X211374500Y-62340000D02*
X211374500Y-59800000D01*
X211374500Y-59800000D02*
X209342500Y-59482500D01*
X209342500Y-59482500D02*
X209342500Y-62657500D01*
G36*
X211374500Y-59800000D02*
G01*
X211374500Y-62340000D01*
X209342500Y-62657500D01*
X209342500Y-59482500D01*
X211374500Y-59800000D01*
G37*
X211374500Y-59800000D02*
X211374500Y-62340000D01*
X209342500Y-62657500D01*
X209342500Y-59482500D01*
X211374500Y-59800000D01*
X197785500Y-62086000D02*
X195753500Y-62403500D01*
X195753500Y-62403500D02*
X195753500Y-64943500D01*
X195753500Y-64943500D02*
X197785500Y-65261000D01*
X197785500Y-65261000D02*
X197785500Y-62086000D01*
G36*
X197785500Y-65261000D02*
G01*
X195753500Y-64943500D01*
X195753500Y-62403500D01*
X197785500Y-62086000D01*
X197785500Y-65261000D01*
G37*
X197785500Y-65261000D02*
X195753500Y-64943500D01*
X195753500Y-62403500D01*
X197785500Y-62086000D01*
X197785500Y-65261000D01*
X216835500Y-62086000D02*
X214803500Y-62403500D01*
X214803500Y-62403500D02*
X214803500Y-64943500D01*
X214803500Y-64943500D02*
X216835500Y-65261000D01*
X216835500Y-65261000D02*
X216835500Y-62086000D01*
G36*
X216835500Y-65261000D02*
G01*
X214803500Y-64943500D01*
X214803500Y-62403500D01*
X216835500Y-62086000D01*
X216835500Y-65261000D01*
G37*
X216835500Y-65261000D02*
X214803500Y-64943500D01*
X214803500Y-62403500D01*
X216835500Y-62086000D01*
X216835500Y-65261000D01*
X228392500Y-62657500D02*
X230424500Y-62340000D01*
X230424500Y-62340000D02*
X230424500Y-59800000D01*
X230424500Y-59800000D02*
X228392500Y-59482500D01*
X228392500Y-59482500D02*
X228392500Y-62657500D01*
G36*
X230424500Y-59800000D02*
G01*
X230424500Y-62340000D01*
X228392500Y-62657500D01*
X228392500Y-59482500D01*
X230424500Y-59800000D01*
G37*
X230424500Y-59800000D02*
X230424500Y-62340000D01*
X228392500Y-62657500D01*
X228392500Y-59482500D01*
X230424500Y-59800000D01*
X243029250Y-62086000D02*
X240997250Y-62403500D01*
X240997250Y-62403500D02*
X240997250Y-64943500D01*
X240997250Y-64943500D02*
X243029250Y-65261000D01*
X243029250Y-65261000D02*
X243029250Y-62086000D01*
G36*
X243029250Y-65261000D02*
G01*
X240997250Y-64943500D01*
X240997250Y-62403500D01*
X243029250Y-62086000D01*
X243029250Y-65261000D01*
G37*
X243029250Y-65261000D02*
X240997250Y-64943500D01*
X240997250Y-62403500D01*
X243029250Y-62086000D01*
X243029250Y-65261000D01*
X254586250Y-62657500D02*
X256618250Y-62340000D01*
X256618250Y-62340000D02*
X256618250Y-59800000D01*
X256618250Y-59800000D02*
X254586250Y-59482500D01*
X254586250Y-59482500D02*
X254586250Y-62657500D01*
G36*
X256618250Y-59800000D02*
G01*
X256618250Y-62340000D01*
X254586250Y-62657500D01*
X254586250Y-59482500D01*
X256618250Y-59800000D01*
G37*
X256618250Y-59800000D02*
X256618250Y-62340000D01*
X254586250Y-62657500D01*
X254586250Y-59482500D01*
X256618250Y-59800000D01*
X280780000Y-62657500D02*
X282812000Y-62340000D01*
X282812000Y-62340000D02*
X282812000Y-59800000D01*
X282812000Y-59800000D02*
X280780000Y-59482500D01*
X280780000Y-59482500D02*
X280780000Y-62657500D01*
G36*
X282812000Y-59800000D02*
G01*
X282812000Y-62340000D01*
X280780000Y-62657500D01*
X280780000Y-59482500D01*
X282812000Y-59800000D01*
G37*
X282812000Y-59800000D02*
X282812000Y-62340000D01*
X280780000Y-62657500D01*
X280780000Y-59482500D01*
X282812000Y-59800000D01*
X269223000Y-62086000D02*
X267191000Y-62403500D01*
X267191000Y-62403500D02*
X267191000Y-64943500D01*
X267191000Y-64943500D02*
X269223000Y-65261000D01*
X269223000Y-65261000D02*
X269223000Y-62086000D01*
G36*
X269223000Y-65261000D02*
G01*
X267191000Y-64943500D01*
X267191000Y-62403500D01*
X269223000Y-62086000D01*
X269223000Y-65261000D01*
G37*
X269223000Y-65261000D02*
X267191000Y-64943500D01*
X267191000Y-62403500D01*
X269223000Y-62086000D01*
X269223000Y-65261000D01*
X299830000Y-62657500D02*
X301862000Y-62340000D01*
X301862000Y-62340000D02*
X301862000Y-59800000D01*
X301862000Y-59800000D02*
X299830000Y-59482500D01*
X299830000Y-59482500D02*
X299830000Y-62657500D01*
G36*
X301862000Y-59800000D02*
G01*
X301862000Y-62340000D01*
X299830000Y-62657500D01*
X299830000Y-59482500D01*
X301862000Y-59800000D01*
G37*
X301862000Y-59800000D02*
X301862000Y-62340000D01*
X299830000Y-62657500D01*
X299830000Y-59482500D01*
X301862000Y-59800000D01*
X288273000Y-62086000D02*
X286241000Y-62403500D01*
X286241000Y-62403500D02*
X286241000Y-64943500D01*
X286241000Y-64943500D02*
X288273000Y-65261000D01*
X288273000Y-65261000D02*
X288273000Y-62086000D01*
G36*
X288273000Y-65261000D02*
G01*
X286241000Y-64943500D01*
X286241000Y-62403500D01*
X288273000Y-62086000D01*
X288273000Y-65261000D01*
G37*
X288273000Y-65261000D02*
X286241000Y-64943500D01*
X286241000Y-62403500D01*
X288273000Y-62086000D01*
X288273000Y-65261000D01*
X20239500Y-89264000D02*
X22271500Y-88946500D01*
X22271500Y-88946500D02*
X22271500Y-86406500D01*
X22271500Y-86406500D02*
X20239500Y-86089000D01*
X20239500Y-86089000D02*
X20239500Y-89264000D01*
G36*
X22271500Y-86406500D02*
G01*
X22271500Y-88946500D01*
X20239500Y-89264000D01*
X20239500Y-86089000D01*
X22271500Y-86406500D01*
G37*
X22271500Y-86406500D02*
X22271500Y-88946500D01*
X20239500Y-89264000D01*
X20239500Y-86089000D01*
X22271500Y-86406500D01*
X8682500Y-88692500D02*
X6650500Y-89010000D01*
X6650500Y-89010000D02*
X6650500Y-91550000D01*
X6650500Y-91550000D02*
X8682500Y-91867500D01*
X8682500Y-91867500D02*
X8682500Y-88692500D01*
G36*
X8682500Y-91867500D02*
G01*
X6650500Y-91550000D01*
X6650500Y-89010000D01*
X8682500Y-88692500D01*
X8682500Y-91867500D01*
G37*
X8682500Y-91867500D02*
X6650500Y-91550000D01*
X6650500Y-89010000D01*
X8682500Y-88692500D01*
X8682500Y-91867500D01*
X44052000Y-89264000D02*
X46084000Y-88946500D01*
X46084000Y-88946500D02*
X46084000Y-86406500D01*
X46084000Y-86406500D02*
X44052000Y-86089000D01*
X44052000Y-86089000D02*
X44052000Y-89264000D01*
G36*
X46084000Y-86406500D02*
G01*
X46084000Y-88946500D01*
X44052000Y-89264000D01*
X44052000Y-86089000D01*
X46084000Y-86406500D01*
G37*
X46084000Y-86406500D02*
X46084000Y-88946500D01*
X44052000Y-89264000D01*
X44052000Y-86089000D01*
X46084000Y-86406500D01*
X32495000Y-88692500D02*
X30463000Y-89010000D01*
X30463000Y-89010000D02*
X30463000Y-91550000D01*
X30463000Y-91550000D02*
X32495000Y-91867500D01*
X32495000Y-91867500D02*
X32495000Y-88692500D01*
G36*
X32495000Y-91867500D02*
G01*
X30463000Y-91550000D01*
X30463000Y-89010000D01*
X32495000Y-88692500D01*
X32495000Y-91867500D01*
G37*
X32495000Y-91867500D02*
X30463000Y-91550000D01*
X30463000Y-89010000D01*
X32495000Y-88692500D01*
X32495000Y-91867500D01*
X56307500Y-88692500D02*
X54275500Y-89010000D01*
X54275500Y-89010000D02*
X54275500Y-91550000D01*
X54275500Y-91550000D02*
X56307500Y-91867500D01*
X56307500Y-91867500D02*
X56307500Y-88692500D01*
G36*
X56307500Y-91867500D02*
G01*
X54275500Y-91550000D01*
X54275500Y-89010000D01*
X56307500Y-88692500D01*
X56307500Y-91867500D01*
G37*
X56307500Y-91867500D02*
X54275500Y-91550000D01*
X54275500Y-89010000D01*
X56307500Y-88692500D01*
X56307500Y-91867500D01*
X67864500Y-89264000D02*
X69896500Y-88946500D01*
X69896500Y-88946500D02*
X69896500Y-86406500D01*
X69896500Y-86406500D02*
X67864500Y-86089000D01*
X67864500Y-86089000D02*
X67864500Y-89264000D01*
G36*
X69896500Y-86406500D02*
G01*
X69896500Y-88946500D01*
X67864500Y-89264000D01*
X67864500Y-86089000D01*
X69896500Y-86406500D01*
G37*
X69896500Y-86406500D02*
X69896500Y-88946500D01*
X67864500Y-89264000D01*
X67864500Y-86089000D01*
X69896500Y-86406500D01*
X206961250Y-81707500D02*
X208993250Y-81390000D01*
X208993250Y-81390000D02*
X208993250Y-78850000D01*
X208993250Y-78850000D02*
X206961250Y-78532500D01*
X206961250Y-78532500D02*
X206961250Y-81707500D01*
G36*
X208993250Y-78850000D02*
G01*
X208993250Y-81390000D01*
X206961250Y-81707500D01*
X206961250Y-78532500D01*
X208993250Y-78850000D01*
G37*
X208993250Y-78850000D02*
X208993250Y-81390000D01*
X206961250Y-81707500D01*
X206961250Y-78532500D01*
X208993250Y-78850000D01*
X195404250Y-81136000D02*
X193372250Y-81453500D01*
X193372250Y-81453500D02*
X193372250Y-83993500D01*
X193372250Y-83993500D02*
X195404250Y-84311000D01*
X195404250Y-84311000D02*
X195404250Y-81136000D01*
G36*
X195404250Y-84311000D02*
G01*
X193372250Y-83993500D01*
X193372250Y-81453500D01*
X195404250Y-81136000D01*
X195404250Y-84311000D01*
G37*
X195404250Y-84311000D02*
X193372250Y-83993500D01*
X193372250Y-81453500D01*
X195404250Y-81136000D01*
X195404250Y-84311000D01*
X228392500Y-81707500D02*
X230424500Y-81390000D01*
X230424500Y-81390000D02*
X230424500Y-78850000D01*
X230424500Y-78850000D02*
X228392500Y-78532500D01*
X228392500Y-78532500D02*
X228392500Y-81707500D01*
G36*
X230424500Y-78850000D02*
G01*
X230424500Y-81390000D01*
X228392500Y-81707500D01*
X228392500Y-78532500D01*
X230424500Y-78850000D01*
G37*
X230424500Y-78850000D02*
X230424500Y-81390000D01*
X228392500Y-81707500D01*
X228392500Y-78532500D01*
X230424500Y-78850000D01*
X216835500Y-81136000D02*
X214803500Y-81453500D01*
X214803500Y-81453500D02*
X214803500Y-83993500D01*
X214803500Y-83993500D02*
X216835500Y-84311000D01*
X216835500Y-84311000D02*
X216835500Y-81136000D01*
G36*
X216835500Y-84311000D02*
G01*
X214803500Y-83993500D01*
X214803500Y-81453500D01*
X216835500Y-81136000D01*
X216835500Y-84311000D01*
G37*
X216835500Y-84311000D02*
X214803500Y-83993500D01*
X214803500Y-81453500D01*
X216835500Y-81136000D01*
X216835500Y-84311000D01*
X250173000Y-81136000D02*
X248141000Y-81453500D01*
X248141000Y-81453500D02*
X248141000Y-83993500D01*
X248141000Y-83993500D02*
X250173000Y-84311000D01*
X250173000Y-84311000D02*
X250173000Y-81136000D01*
G36*
X250173000Y-84311000D02*
G01*
X248141000Y-83993500D01*
X248141000Y-81453500D01*
X250173000Y-81136000D01*
X250173000Y-84311000D01*
G37*
X250173000Y-84311000D02*
X248141000Y-83993500D01*
X248141000Y-81453500D01*
X250173000Y-81136000D01*
X250173000Y-84311000D01*
X261730000Y-81707500D02*
X263762000Y-81390000D01*
X263762000Y-81390000D02*
X263762000Y-78850000D01*
X263762000Y-78850000D02*
X261730000Y-78532500D01*
X261730000Y-78532500D02*
X261730000Y-81707500D01*
G36*
X263762000Y-78850000D02*
G01*
X263762000Y-81390000D01*
X261730000Y-81707500D01*
X261730000Y-78532500D01*
X263762000Y-78850000D01*
G37*
X263762000Y-78850000D02*
X263762000Y-81390000D01*
X261730000Y-81707500D01*
X261730000Y-78532500D01*
X263762000Y-78850000D01*
X269223000Y-81136000D02*
X267191000Y-81453500D01*
X267191000Y-81453500D02*
X267191000Y-83993500D01*
X267191000Y-83993500D02*
X269223000Y-84311000D01*
X269223000Y-84311000D02*
X269223000Y-81136000D01*
G36*
X269223000Y-84311000D02*
G01*
X267191000Y-83993500D01*
X267191000Y-81453500D01*
X269223000Y-81136000D01*
X269223000Y-84311000D01*
G37*
X269223000Y-84311000D02*
X267191000Y-83993500D01*
X267191000Y-81453500D01*
X269223000Y-81136000D01*
X269223000Y-84311000D01*
X280780000Y-81707500D02*
X282812000Y-81390000D01*
X282812000Y-81390000D02*
X282812000Y-78850000D01*
X282812000Y-78850000D02*
X280780000Y-78532500D01*
X280780000Y-78532500D02*
X280780000Y-81707500D01*
G36*
X282812000Y-78850000D02*
G01*
X282812000Y-81390000D01*
X280780000Y-81707500D01*
X280780000Y-78532500D01*
X282812000Y-78850000D01*
G37*
X282812000Y-78850000D02*
X282812000Y-81390000D01*
X280780000Y-81707500D01*
X280780000Y-78532500D01*
X282812000Y-78850000D01*
X299830000Y-81707500D02*
X301862000Y-81390000D01*
X301862000Y-81390000D02*
X301862000Y-78850000D01*
X301862000Y-78850000D02*
X299830000Y-78532500D01*
X299830000Y-78532500D02*
X299830000Y-81707500D01*
G36*
X301862000Y-78850000D02*
G01*
X301862000Y-81390000D01*
X299830000Y-81707500D01*
X299830000Y-78532500D01*
X301862000Y-78850000D01*
G37*
X301862000Y-78850000D02*
X301862000Y-81390000D01*
X299830000Y-81707500D01*
X299830000Y-78532500D01*
X301862000Y-78850000D01*
X288273000Y-81136000D02*
X286241000Y-81453500D01*
X286241000Y-81453500D02*
X286241000Y-83993500D01*
X286241000Y-83993500D02*
X288273000Y-84311000D01*
X288273000Y-84311000D02*
X288273000Y-81136000D01*
G36*
X288273000Y-84311000D02*
G01*
X286241000Y-83993500D01*
X286241000Y-81453500D01*
X288273000Y-81136000D01*
X288273000Y-84311000D01*
G37*
X288273000Y-84311000D02*
X286241000Y-83993500D01*
X286241000Y-81453500D01*
X288273000Y-81136000D01*
X288273000Y-84311000D01*
X232170750Y-89264000D02*
X234202750Y-88946500D01*
X234202750Y-88946500D02*
X234202750Y-86406500D01*
X234202750Y-86406500D02*
X232170750Y-86089000D01*
X232170750Y-86089000D02*
X232170750Y-89264000D01*
G36*
X234202750Y-86406500D02*
G01*
X234202750Y-88946500D01*
X232170750Y-89264000D01*
X232170750Y-86089000D01*
X234202750Y-86406500D01*
G37*
X234202750Y-86406500D02*
X234202750Y-88946500D01*
X232170750Y-89264000D01*
X232170750Y-86089000D01*
X234202750Y-86406500D01*
X220613750Y-88692500D02*
X218581750Y-89010000D01*
X218581750Y-89010000D02*
X218581750Y-91550000D01*
X218581750Y-91550000D02*
X220613750Y-91867500D01*
X220613750Y-91867500D02*
X220613750Y-88692500D01*
G36*
X220613750Y-91867500D02*
G01*
X218581750Y-91550000D01*
X218581750Y-89010000D01*
X220613750Y-88692500D01*
X220613750Y-91867500D01*
G37*
X220613750Y-91867500D02*
X218581750Y-91550000D01*
X218581750Y-89010000D01*
X220613750Y-88692500D01*
X220613750Y-91867500D01*
X137270000Y-88692500D02*
X135238000Y-89010000D01*
X135238000Y-89010000D02*
X135238000Y-91550000D01*
X135238000Y-91550000D02*
X137270000Y-91867500D01*
X137270000Y-91867500D02*
X137270000Y-88692500D01*
G36*
X137270000Y-91867500D02*
G01*
X135238000Y-91550000D01*
X135238000Y-89010000D01*
X137270000Y-88692500D01*
X137270000Y-91867500D01*
G37*
X137270000Y-91867500D02*
X135238000Y-91550000D01*
X135238000Y-89010000D01*
X137270000Y-88692500D01*
X137270000Y-91867500D01*
X148827000Y-89264000D02*
X150859000Y-88946500D01*
X150859000Y-88946500D02*
X150859000Y-86406500D01*
X150859000Y-86406500D02*
X148827000Y-86089000D01*
X148827000Y-86089000D02*
X148827000Y-89264000D01*
G36*
X150859000Y-86406500D02*
G01*
X150859000Y-88946500D01*
X148827000Y-89264000D01*
X148827000Y-86089000D01*
X150859000Y-86406500D01*
G37*
X150859000Y-86406500D02*
X150859000Y-88946500D01*
X148827000Y-89264000D01*
X148827000Y-86089000D01*
X150859000Y-86406500D01*
X147430000Y-5507500D02*
X149462000Y-5190000D01*
X149462000Y-5190000D02*
X149462000Y-2650000D01*
X149462000Y-2650000D02*
X147430000Y-2332500D01*
X147430000Y-2332500D02*
X147430000Y-5507500D01*
G36*
X149462000Y-2650000D02*
G01*
X149462000Y-5190000D01*
X147430000Y-5507500D01*
X147430000Y-2332500D01*
X149462000Y-2650000D01*
G37*
X149462000Y-2650000D02*
X149462000Y-5190000D01*
X147430000Y-5507500D01*
X147430000Y-2332500D01*
X149462000Y-2650000D01*
X135873000Y-4936000D02*
X133841000Y-5253500D01*
X133841000Y-5253500D02*
X133841000Y-7793500D01*
X133841000Y-7793500D02*
X135873000Y-8111000D01*
X135873000Y-8111000D02*
X135873000Y-4936000D01*
G36*
X135873000Y-8111000D02*
G01*
X133841000Y-7793500D01*
X133841000Y-5253500D01*
X135873000Y-4936000D01*
X135873000Y-8111000D01*
G37*
X135873000Y-8111000D02*
X133841000Y-7793500D01*
X133841000Y-5253500D01*
X135873000Y-4936000D01*
X135873000Y-8111000D01*
X299830000Y-5507500D02*
X301862000Y-5190000D01*
X301862000Y-5190000D02*
X301862000Y-2650000D01*
X301862000Y-2650000D02*
X299830000Y-2332500D01*
X299830000Y-2332500D02*
X299830000Y-5507500D01*
G36*
X301862000Y-2650000D02*
G01*
X301862000Y-5190000D01*
X299830000Y-5507500D01*
X299830000Y-2332500D01*
X301862000Y-2650000D01*
G37*
X301862000Y-2650000D02*
X301862000Y-5190000D01*
X299830000Y-5507500D01*
X299830000Y-2332500D01*
X301862000Y-2650000D01*
X288273000Y-4936000D02*
X286241000Y-5253500D01*
X286241000Y-5253500D02*
X286241000Y-7793500D01*
X286241000Y-7793500D02*
X288273000Y-8111000D01*
X288273000Y-8111000D02*
X288273000Y-4936000D01*
G36*
X288273000Y-8111000D02*
G01*
X286241000Y-7793500D01*
X286241000Y-5253500D01*
X288273000Y-4936000D01*
X288273000Y-8111000D01*
G37*
X288273000Y-8111000D02*
X286241000Y-7793500D01*
X286241000Y-5253500D01*
X288273000Y-4936000D01*
X288273000Y-8111000D01*
X282177000Y-13064000D02*
X284209000Y-12746500D01*
X284209000Y-12746500D02*
X284209000Y-10206500D01*
X284209000Y-10206500D02*
X282177000Y-9889000D01*
X282177000Y-9889000D02*
X282177000Y-13064000D01*
G36*
X284209000Y-10206500D02*
G01*
X284209000Y-12746500D01*
X282177000Y-13064000D01*
X282177000Y-9889000D01*
X284209000Y-10206500D01*
G37*
X284209000Y-10206500D02*
X284209000Y-12746500D01*
X282177000Y-13064000D01*
X282177000Y-9889000D01*
X284209000Y-10206500D01*
X270620000Y-12492500D02*
X268588000Y-12810000D01*
X268588000Y-12810000D02*
X268588000Y-15350000D01*
X268588000Y-15350000D02*
X270620000Y-15667500D01*
X270620000Y-15667500D02*
X270620000Y-12492500D01*
G36*
X270620000Y-15667500D02*
G01*
X268588000Y-15350000D01*
X268588000Y-12810000D01*
X270620000Y-12492500D01*
X270620000Y-15667500D01*
G37*
X270620000Y-15667500D02*
X268588000Y-15350000D01*
X268588000Y-12810000D01*
X270620000Y-12492500D01*
X270620000Y-15667500D01*
X16461250Y-81707500D02*
X18493250Y-81390000D01*
X18493250Y-81390000D02*
X18493250Y-78850000D01*
X18493250Y-78850000D02*
X16461250Y-78532500D01*
X16461250Y-78532500D02*
X16461250Y-81707500D01*
G36*
X18493250Y-78850000D02*
G01*
X18493250Y-81390000D01*
X16461250Y-81707500D01*
X16461250Y-78532500D01*
X18493250Y-78850000D01*
G37*
X18493250Y-78850000D02*
X18493250Y-81390000D01*
X16461250Y-81707500D01*
X16461250Y-78532500D01*
X18493250Y-78850000D01*
X4904250Y-81136000D02*
X2872250Y-81453500D01*
X2872250Y-81453500D02*
X2872250Y-83993500D01*
X2872250Y-83993500D02*
X4904250Y-84311000D01*
X4904250Y-84311000D02*
X4904250Y-81136000D01*
G36*
X4904250Y-84311000D02*
G01*
X2872250Y-83993500D01*
X2872250Y-81453500D01*
X4904250Y-81136000D01*
X4904250Y-84311000D01*
G37*
X4904250Y-84311000D02*
X2872250Y-83993500D01*
X2872250Y-81453500D01*
X4904250Y-81136000D01*
X4904250Y-84311000D01*
X28716750Y-81136000D02*
X26684750Y-81453500D01*
X26684750Y-81453500D02*
X26684750Y-83993500D01*
X26684750Y-83993500D02*
X28716750Y-84311000D01*
X28716750Y-84311000D02*
X28716750Y-81136000D01*
G36*
X28716750Y-84311000D02*
G01*
X26684750Y-83993500D01*
X26684750Y-81453500D01*
X28716750Y-81136000D01*
X28716750Y-84311000D01*
G37*
X28716750Y-84311000D02*
X26684750Y-83993500D01*
X26684750Y-81453500D01*
X28716750Y-81136000D01*
X28716750Y-84311000D01*
X40273750Y-81707500D02*
X42305750Y-81390000D01*
X42305750Y-81390000D02*
X42305750Y-78850000D01*
X42305750Y-78850000D02*
X40273750Y-78532500D01*
X40273750Y-78532500D02*
X40273750Y-81707500D01*
G36*
X42305750Y-78850000D02*
G01*
X42305750Y-81390000D01*
X40273750Y-81707500D01*
X40273750Y-78532500D01*
X42305750Y-78850000D01*
G37*
X42305750Y-78850000D02*
X42305750Y-81390000D01*
X40273750Y-81707500D01*
X40273750Y-78532500D01*
X42305750Y-78850000D01*
X64086250Y-81707500D02*
X66118250Y-81390000D01*
X66118250Y-81390000D02*
X66118250Y-78850000D01*
X66118250Y-78850000D02*
X64086250Y-78532500D01*
X64086250Y-78532500D02*
X64086250Y-81707500D01*
G36*
X66118250Y-78850000D02*
G01*
X66118250Y-81390000D01*
X64086250Y-81707500D01*
X64086250Y-78532500D01*
X66118250Y-78850000D01*
G37*
X66118250Y-78850000D02*
X66118250Y-81390000D01*
X64086250Y-81707500D01*
X64086250Y-78532500D01*
X66118250Y-78850000D01*
X52529250Y-81136000D02*
X50497250Y-81453500D01*
X50497250Y-81453500D02*
X50497250Y-83993500D01*
X50497250Y-83993500D02*
X52529250Y-84311000D01*
X52529250Y-84311000D02*
X52529250Y-81136000D01*
G36*
X52529250Y-84311000D02*
G01*
X50497250Y-83993500D01*
X50497250Y-81453500D01*
X52529250Y-81136000D01*
X52529250Y-84311000D01*
G37*
X52529250Y-84311000D02*
X50497250Y-83993500D01*
X50497250Y-81453500D01*
X52529250Y-81136000D01*
X52529250Y-84311000D01*
X123966750Y-81136000D02*
X121934750Y-81453500D01*
X121934750Y-81453500D02*
X121934750Y-83993500D01*
X121934750Y-83993500D02*
X123966750Y-84311000D01*
X123966750Y-84311000D02*
X123966750Y-81136000D01*
G36*
X123966750Y-84311000D02*
G01*
X121934750Y-83993500D01*
X121934750Y-81453500D01*
X123966750Y-81136000D01*
X123966750Y-84311000D01*
G37*
X123966750Y-84311000D02*
X121934750Y-83993500D01*
X121934750Y-81453500D01*
X123966750Y-81136000D01*
X123966750Y-84311000D01*
X135523750Y-81707500D02*
X137555750Y-81390000D01*
X137555750Y-81390000D02*
X137555750Y-78850000D01*
X137555750Y-78850000D02*
X135523750Y-78532500D01*
X135523750Y-78532500D02*
X135523750Y-81707500D01*
G36*
X137555750Y-78850000D02*
G01*
X137555750Y-81390000D01*
X135523750Y-81707500D01*
X135523750Y-78532500D01*
X137555750Y-78850000D01*
G37*
X137555750Y-78850000D02*
X137555750Y-81390000D01*
X135523750Y-81707500D01*
X135523750Y-78532500D01*
X137555750Y-78850000D01*
D11*
X23310000Y-17120000D03*
X26110000Y-17120000D03*
D12*
X64050000Y-16003750D03*
X64050000Y-17003750D03*
X64050000Y-18003750D03*
X64050000Y-19003750D03*
D13*
X67925000Y-20303750D03*
X67925000Y-14703750D03*
D14*
X31402500Y-18753750D03*
X33277500Y-18753750D03*
X31402500Y-16253750D03*
X33277500Y-16253750D03*
D15*
X58393750Y-37385000D03*
X52093750Y-37385000D03*
X58393750Y-33585000D03*
X52093750Y-33585000D03*
D16*
X43697500Y-32860000D03*
X41822500Y-32860000D03*
X24061250Y-28750000D03*
X22186250Y-28750000D03*
D17*
X31700000Y-44937500D03*
X31700000Y-43062500D03*
D18*
X27903750Y-35808750D03*
X26603750Y-38408750D03*
X29203750Y-37108750D03*
X26603750Y-39708750D03*
X27903750Y-38408750D03*
X27903750Y-37108750D03*
X30503750Y-39708750D03*
X29203750Y-35808750D03*
X30503750Y-37108750D03*
X29203750Y-38408750D03*
X29203750Y-39708750D03*
X30503750Y-38408750D03*
X26603750Y-35808750D03*
X27903750Y-39708750D03*
X30503750Y-35808750D03*
X26603750Y-37108750D03*
D19*
X26053750Y-34421250D03*
X26553750Y-34421250D03*
X27053750Y-34421250D03*
X27553750Y-34421250D03*
X28053750Y-34421250D03*
X28553750Y-34421250D03*
X29053750Y-34421250D03*
X29553750Y-34421250D03*
X30053750Y-34421250D03*
X30553750Y-34421250D03*
X31053750Y-34421250D03*
D20*
X31891250Y-35258750D03*
X31891250Y-35758750D03*
X31891250Y-36258750D03*
X31891250Y-36758750D03*
X31891250Y-37258750D03*
X31891250Y-37758750D03*
X31891250Y-38258750D03*
X31891250Y-38758750D03*
X31891250Y-39258750D03*
X31891250Y-39758750D03*
X31891250Y-40258750D03*
D19*
X31053750Y-41096250D03*
X30553750Y-41096250D03*
X30053750Y-41096250D03*
X29553750Y-41096250D03*
X29053750Y-41096250D03*
X28553750Y-41096250D03*
X28053750Y-41096250D03*
X27553750Y-41096250D03*
X27053750Y-41096250D03*
X26553750Y-41096250D03*
X26053750Y-41096250D03*
D20*
X25216250Y-40258750D03*
X25216250Y-39758750D03*
X25216250Y-39258750D03*
X25216250Y-38758750D03*
X25216250Y-38258750D03*
X25216250Y-37758750D03*
X25216250Y-37258750D03*
X25216250Y-36758750D03*
X25216250Y-36258750D03*
X25216250Y-35758750D03*
X25216250Y-35258750D03*
D21*
X43860000Y-36510000D03*
X41660000Y-36510000D03*
X41660000Y-34810000D03*
X43860000Y-34810000D03*
D22*
X35150000Y-33312500D03*
X35150000Y-35187500D03*
X49710000Y-33582500D03*
X49710000Y-35457500D03*
D23*
X2381250Y-14350000D03*
X2381250Y-11050000D03*
X17462500Y-11450000D03*
X17462500Y-8150000D03*
X36512500Y-11443750D03*
X36512500Y-8143750D03*
X55562500Y-11443750D03*
X55562500Y-8143750D03*
X74612500Y-11443750D03*
X74612500Y-8143750D03*
X93662500Y-11443750D03*
X93662500Y-8143750D03*
X112712500Y-11443750D03*
X112712500Y-8143750D03*
X132031250Y-11443750D03*
X132031250Y-8143750D03*
X151081250Y-11443750D03*
X151081250Y-8143750D03*
X170131250Y-11443750D03*
X170131250Y-8143750D03*
X189181250Y-11443750D03*
X189181250Y-8143750D03*
X208231250Y-11443750D03*
X208231250Y-8143750D03*
X247125000Y-11443750D03*
X247125000Y-8143750D03*
X284797500Y-17525000D03*
X284797500Y-14225000D03*
X287972500Y-17048750D03*
X287972500Y-13748750D03*
X5556250Y-31812500D03*
X5556250Y-28512500D03*
X67750000Y-31900000D03*
X67750000Y-28600000D03*
X64562500Y-30493750D03*
X64562500Y-27193750D03*
X83612500Y-30493750D03*
X83612500Y-27193750D03*
X86750000Y-31650000D03*
X86750000Y-28350000D03*
X103981250Y-30493750D03*
X103981250Y-27193750D03*
X123031250Y-30493750D03*
X123031250Y-27193750D03*
X142081250Y-30493750D03*
X142081250Y-27193750D03*
X161131250Y-30493750D03*
X161131250Y-27193750D03*
X180181250Y-30493750D03*
X180181250Y-27193750D03*
X199231250Y-30493750D03*
X199231250Y-27193750D03*
X218281250Y-30493750D03*
X218281250Y-27193750D03*
X237331250Y-30493750D03*
X237331250Y-27193750D03*
X261143750Y-30493750D03*
X261143750Y-27193750D03*
X284956250Y-30493750D03*
X284956250Y-27193750D03*
X26193750Y-52450000D03*
X26193750Y-49150000D03*
X50275000Y-49543750D03*
X50275000Y-46243750D03*
X53450000Y-50900000D03*
X53450000Y-47600000D03*
X70643750Y-49543750D03*
X70643750Y-46243750D03*
X108743750Y-49543750D03*
X108743750Y-46243750D03*
X127793750Y-49543750D03*
X127793750Y-46243750D03*
X146843750Y-49543750D03*
X146843750Y-46243750D03*
X165893750Y-49543750D03*
X165893750Y-46243750D03*
X184943750Y-49543750D03*
X184943750Y-46243750D03*
X203993750Y-49543750D03*
X203993750Y-46243750D03*
X223043750Y-49543750D03*
X223043750Y-46243750D03*
X254000000Y-49543750D03*
X254000000Y-46243750D03*
X284956250Y-49543750D03*
X284956250Y-46243750D03*
X28843750Y-68593750D03*
X28843750Y-65293750D03*
X42068750Y-68593750D03*
X42068750Y-65293750D03*
X61118750Y-68593750D03*
X61118750Y-65293750D03*
X80168750Y-68593750D03*
X80168750Y-65293750D03*
X99218750Y-68593750D03*
X99218750Y-65293750D03*
X118268750Y-68593750D03*
X118268750Y-65293750D03*
X137318750Y-68593750D03*
X137318750Y-65293750D03*
X156368750Y-68593750D03*
X156368750Y-65293750D03*
X175418750Y-68593750D03*
X175418750Y-65293750D03*
X194468750Y-68593750D03*
X194468750Y-65293750D03*
X213518750Y-68593750D03*
X213518750Y-65293750D03*
X239712500Y-68593750D03*
X239712500Y-65293750D03*
X265906250Y-68593750D03*
X265906250Y-65293750D03*
X284956250Y-68593750D03*
X284956250Y-65293750D03*
X23018750Y-83406250D03*
X23018750Y-80106250D03*
X26540000Y-91530000D03*
X26540000Y-88230000D03*
X48418750Y-85787500D03*
X48418750Y-82487500D03*
X119062500Y-88168750D03*
X119062500Y-84868750D03*
X212566250Y-87692500D03*
X212566250Y-84392500D03*
X260191250Y-91661250D03*
X260191250Y-88361250D03*
X272097500Y-91661250D03*
X272097500Y-88361250D03*
X284003750Y-91661250D03*
X284003750Y-88361250D03*
X227281250Y-11443750D03*
X227281250Y-8143750D03*
D22*
X28500000Y-28662500D03*
X28500000Y-30537500D03*
D16*
X43697500Y-38460000D03*
X41822500Y-38460000D03*
D17*
X24850000Y-44287500D03*
X24850000Y-42412500D03*
D23*
X89693750Y-49543750D03*
X89693750Y-46243750D03*
X191562500Y-87643750D03*
X191562500Y-84343750D03*
D14*
X21112500Y-40550000D03*
X22987500Y-40550000D03*
D24*
X39173750Y-18603750D03*
X38223750Y-18603750D03*
X37273750Y-18603750D03*
X37273750Y-16403750D03*
X38223750Y-16403750D03*
X39173750Y-16403750D03*
M02*
